<?xml version="1.0" standalone="no"?>
 <!DOCTYPE svg PUBLIC "-//W3C//DTD SVG 1.1//EN" 
 "http://www.w3.org/Graphics/SVG/1.1/DTD/svg11.dtd"> 
<svg xmlns="http://www.w3.org/2000/svg" version="1.1" 
    width="29.7002cm" height="21.0007cm" viewBox="0 0 116930 82680 ">
<title>SVG Picture created as flypi_print-F.SilkS.svg date 2017/09/21 21:37:15 </title>
  <desc>Picture generated by PCBNEW </desc>
<g style="fill:#000000; fill-opacity:1;stroke:#000000; stroke-opacity:1;
stroke-linecap:round; stroke-linejoin:round; "
 transform="translate(0 0) scale(1 1)">
</g>
<g style="fill:#000000; fill-opacity:0.0; 
stroke:#000000; stroke-width:-0.000393701; stroke-opacity:1; 
stroke-linecap:round; stroke-linejoin:round;">
</g>
<g style="fill:#000000; fill-opacity:0.0; 
stroke:#000000; stroke-width:39.3701; stroke-opacity:1; 
stroke-linecap:round; stroke-linejoin:round;">
</g>
<g style="fill:#000000; fill-opacity:0.0; 
stroke:#000000; stroke-width:59.0551; stroke-opacity:1; 
stroke-linecap:round; stroke-linejoin:round;">
<rect x="69685.9" y="65357.2" width="42519.7" height="12598.4" rx="0" />
</g>
<g style="fill:#000000; fill-opacity:0.0; 
stroke:#000000; stroke-width:39.3701; stroke-opacity:1; 
stroke-linecap:round; stroke-linejoin:round;">
</g>
<g style="fill:#000000; fill-opacity:0.0; 
stroke:#000000; stroke-width:59.0551; stroke-opacity:1; 
stroke-linecap:round; stroke-linejoin:round;">
<rect x="3937.01" y="3937.01" width="109056" height="74806" rx="0" />
</g>
<g style="fill:#000000; fill-opacity:0.0; 
stroke:#000000; stroke-width:39.3701; stroke-opacity:1; 
stroke-linecap:round; stroke-linejoin:round;">
</g>
<g style="fill:#000000; fill-opacity:0.0; 
stroke:#000000; stroke-width:59.0551; stroke-opacity:1; 
stroke-linecap:round; stroke-linejoin:round;">
<rect x="4724.41" y="4724.41" width="107481" height="73231.2" rx="0" />
</g>
<g style="fill:#000000; fill-opacity:0.0; 
stroke:#000000; stroke-width:39.3701; stroke-opacity:1; 
stroke-linecap:round; stroke-linejoin:round;">
</g>
<g style="fill:#000000; fill-opacity:0.0; 
stroke:#000000; stroke-width:59.0551; stroke-opacity:1; 
stroke-linecap:round; stroke-linejoin:round;">
<path d="M23622 4724
L23622 3937
" />
</g>
<g style="fill:#000000; fill-opacity:0.0; 
stroke:#000000; stroke-width:39.3701; stroke-opacity:1; 
stroke-linecap:round; stroke-linejoin:round;">
</g>
<g style="fill:#000000; fill-opacity:0.0; 
stroke:#000000; stroke-width:59.0551; stroke-opacity:1; 
stroke-linecap:round; stroke-linejoin:round;">
<path d="M43307 4724
L43307 3937
" />
</g>
<g style="fill:#000000; fill-opacity:0.0; 
stroke:#000000; stroke-width:39.3701; stroke-opacity:1; 
stroke-linecap:round; stroke-linejoin:round;">
</g>
<g style="fill:#000000; fill-opacity:0.0; 
stroke:#000000; stroke-width:59.0551; stroke-opacity:1; 
stroke-linecap:round; stroke-linejoin:round;">
<path d="M62992 4724
L62992 3937
" />
</g>
<g style="fill:#000000; fill-opacity:0.0; 
stroke:#000000; stroke-width:39.3701; stroke-opacity:1; 
stroke-linecap:round; stroke-linejoin:round;">
</g>
<g style="fill:#000000; fill-opacity:0.0; 
stroke:#000000; stroke-width:59.0551; stroke-opacity:1; 
stroke-linecap:round; stroke-linejoin:round;">
<path d="M82677 4724
L82677 3937
" />
</g>
<g style="fill:#000000; fill-opacity:0.0; 
stroke:#000000; stroke-width:39.3701; stroke-opacity:1; 
stroke-linecap:round; stroke-linejoin:round;">
</g>
<g style="fill:#000000; fill-opacity:0.0; 
stroke:#000000; stroke-width:59.0551; stroke-opacity:1; 
stroke-linecap:round; stroke-linejoin:round;">
<path d="M102362 4724
L102362 3937
" />
</g>
<g style="fill:#000000; fill-opacity:0.0; 
stroke:#000000; stroke-width:39.3701; stroke-opacity:1; 
stroke-linecap:round; stroke-linejoin:round;">
</g>
<g style="fill:#000000; fill-opacity:0.0; 
stroke:#000000; stroke-width:59.0551; stroke-opacity:1; 
stroke-linecap:round; stroke-linejoin:round;">
<path d="M14169 4562
L13877 4562
" />
<path d="M14023 4562
L14023 4050
L13974 4123
L13925 4172
L13877 4196
" />
</g>
<g style="fill:#000000; fill-opacity:0.0; 
stroke:#000000; stroke-width:39.3701; stroke-opacity:1; 
stroke-linecap:round; stroke-linejoin:round;">
</g>
<g style="fill:#000000; fill-opacity:0.0; 
stroke:#000000; stroke-width:59.0551; stroke-opacity:1; 
stroke-linecap:round; stroke-linejoin:round;">
<path d="M33562 4099
L33586 4074
L33635 4050
L33757 4050
L33805 4074
L33830 4099
L33854 4147
L33854 4196
L33830 4269
L33537 4562
L33854 4562
" />
</g>
<g style="fill:#000000; fill-opacity:0.0; 
stroke:#000000; stroke-width:39.3701; stroke-opacity:1; 
stroke-linecap:round; stroke-linejoin:round;">
</g>
<g style="fill:#000000; fill-opacity:0.0; 
stroke:#000000; stroke-width:59.0551; stroke-opacity:1; 
stroke-linecap:round; stroke-linejoin:round;">
<path d="M53222 4050
L53539 4050
L53368 4245
L53442 4245
L53490 4269
L53515 4294
L53539 4342
L53539 4464
L53515 4513
L53490 4537
L53442 4562
L53295 4562
L53247 4537
L53222 4513
" />
</g>
<g style="fill:#000000; fill-opacity:0.0; 
stroke:#000000; stroke-width:39.3701; stroke-opacity:1; 
stroke-linecap:round; stroke-linejoin:round;">
</g>
<g style="fill:#000000; fill-opacity:0.0; 
stroke:#000000; stroke-width:59.0551; stroke-opacity:1; 
stroke-linecap:round; stroke-linejoin:round;">
<path d="M73175 4221
L73175 4562
" />
<path d="M73053 4026
L72932 4391
L73248 4391
" />
</g>
<g style="fill:#000000; fill-opacity:0.0; 
stroke:#000000; stroke-width:39.3701; stroke-opacity:1; 
stroke-linecap:round; stroke-linejoin:round;">
</g>
<g style="fill:#000000; fill-opacity:0.0; 
stroke:#000000; stroke-width:59.0551; stroke-opacity:1; 
stroke-linecap:round; stroke-linejoin:round;">
<path d="M92885 4050
L92641 4050
L92617 4294
L92641 4269
L92690 4245
L92812 4245
L92860 4269
L92885 4294
L92909 4342
L92909 4464
L92885 4513
L92860 4537
L92812 4562
L92690 4562
L92641 4537
L92617 4513
" />
</g>
<g style="fill:#000000; fill-opacity:0.0; 
stroke:#000000; stroke-width:39.3701; stroke-opacity:1; 
stroke-linecap:round; stroke-linejoin:round;">
</g>
<g style="fill:#000000; fill-opacity:0.0; 
stroke:#000000; stroke-width:59.0551; stroke-opacity:1; 
stroke-linecap:round; stroke-linejoin:round;">
<path d="M112545 4050
L112448 4050
L112399 4074
L112375 4099
L112326 4172
L112302 4269
L112302 4464
L112326 4513
L112350 4537
L112399 4562
L112497 4562
L112545 4537
L112570 4513
L112594 4464
L112594 4342
L112570 4294
L112545 4269
L112497 4245
L112399 4245
L112350 4269
L112326 4294
L112302 4342
" />
</g>
<g style="fill:#000000; fill-opacity:0.0; 
stroke:#000000; stroke-width:39.3701; stroke-opacity:1; 
stroke-linecap:round; stroke-linejoin:round;">
</g>
<g style="fill:#000000; fill-opacity:0.0; 
stroke:#000000; stroke-width:59.0551; stroke-opacity:1; 
stroke-linecap:round; stroke-linejoin:round;">
<path d="M23622 77955
L23622 78742
" />
</g>
<g style="fill:#000000; fill-opacity:0.0; 
stroke:#000000; stroke-width:39.3701; stroke-opacity:1; 
stroke-linecap:round; stroke-linejoin:round;">
</g>
<g style="fill:#000000; fill-opacity:0.0; 
stroke:#000000; stroke-width:59.0551; stroke-opacity:1; 
stroke-linecap:round; stroke-linejoin:round;">
<path d="M43307 77955
L43307 78742
" />
</g>
<g style="fill:#000000; fill-opacity:0.0; 
stroke:#000000; stroke-width:39.3701; stroke-opacity:1; 
stroke-linecap:round; stroke-linejoin:round;">
</g>
<g style="fill:#000000; fill-opacity:0.0; 
stroke:#000000; stroke-width:59.0551; stroke-opacity:1; 
stroke-linecap:round; stroke-linejoin:round;">
<path d="M62992 77955
L62992 78742
" />
</g>
<g style="fill:#000000; fill-opacity:0.0; 
stroke:#000000; stroke-width:39.3701; stroke-opacity:1; 
stroke-linecap:round; stroke-linejoin:round;">
</g>
<g style="fill:#000000; fill-opacity:0.0; 
stroke:#000000; stroke-width:59.0551; stroke-opacity:1; 
stroke-linecap:round; stroke-linejoin:round;">
<path d="M82677 77955
L82677 78742
" />
</g>
<g style="fill:#000000; fill-opacity:0.0; 
stroke:#000000; stroke-width:39.3701; stroke-opacity:1; 
stroke-linecap:round; stroke-linejoin:round;">
</g>
<g style="fill:#000000; fill-opacity:0.0; 
stroke:#000000; stroke-width:59.0551; stroke-opacity:1; 
stroke-linecap:round; stroke-linejoin:round;">
<path d="M102362 77955
L102362 78742
" />
</g>
<g style="fill:#000000; fill-opacity:0.0; 
stroke:#000000; stroke-width:39.3701; stroke-opacity:1; 
stroke-linecap:round; stroke-linejoin:round;">
</g>
<g style="fill:#000000; fill-opacity:0.0; 
stroke:#000000; stroke-width:59.0551; stroke-opacity:1; 
stroke-linecap:round; stroke-linejoin:round;">
<path d="M14169 78580
L13877 78580
" />
<path d="M14023 78580
L14023 78069
L13974 78142
L13925 78190
L13877 78215
" />
</g>
<g style="fill:#000000; fill-opacity:0.0; 
stroke:#000000; stroke-width:39.3701; stroke-opacity:1; 
stroke-linecap:round; stroke-linejoin:round;">
</g>
<g style="fill:#000000; fill-opacity:0.0; 
stroke:#000000; stroke-width:59.0551; stroke-opacity:1; 
stroke-linecap:round; stroke-linejoin:round;">
<path d="M33562 78117
L33586 78093
L33635 78069
L33757 78069
L33805 78093
L33830 78117
L33854 78166
L33854 78215
L33830 78288
L33537 78580
L33854 78580
" />
</g>
<g style="fill:#000000; fill-opacity:0.0; 
stroke:#000000; stroke-width:39.3701; stroke-opacity:1; 
stroke-linecap:round; stroke-linejoin:round;">
</g>
<g style="fill:#000000; fill-opacity:0.0; 
stroke:#000000; stroke-width:59.0551; stroke-opacity:1; 
stroke-linecap:round; stroke-linejoin:round;">
<path d="M53222 78069
L53539 78069
L53368 78263
L53442 78263
L53490 78288
L53515 78312
L53539 78361
L53539 78483
L53515 78532
L53490 78556
L53442 78580
L53295 78580
L53247 78556
L53222 78532
" />
</g>
<g style="fill:#000000; fill-opacity:0.0; 
stroke:#000000; stroke-width:39.3701; stroke-opacity:1; 
stroke-linecap:round; stroke-linejoin:round;">
</g>
<g style="fill:#000000; fill-opacity:0.0; 
stroke:#000000; stroke-width:59.0551; stroke-opacity:1; 
stroke-linecap:round; stroke-linejoin:round;">
<path d="M73175 78239
L73175 78580
" />
<path d="M73053 78044
L72932 78410
L73248 78410
" />
</g>
<g style="fill:#000000; fill-opacity:0.0; 
stroke:#000000; stroke-width:39.3701; stroke-opacity:1; 
stroke-linecap:round; stroke-linejoin:round;">
</g>
<g style="fill:#000000; fill-opacity:0.0; 
stroke:#000000; stroke-width:59.0551; stroke-opacity:1; 
stroke-linecap:round; stroke-linejoin:round;">
<path d="M92885 78069
L92641 78069
L92617 78312
L92641 78288
L92690 78263
L92812 78263
L92860 78288
L92885 78312
L92909 78361
L92909 78483
L92885 78532
L92860 78556
L92812 78580
L92690 78580
L92641 78556
L92617 78532
" />
</g>
<g style="fill:#000000; fill-opacity:0.0; 
stroke:#000000; stroke-width:39.3701; stroke-opacity:1; 
stroke-linecap:round; stroke-linejoin:round;">
</g>
<g style="fill:#000000; fill-opacity:0.0; 
stroke:#000000; stroke-width:59.0551; stroke-opacity:1; 
stroke-linecap:round; stroke-linejoin:round;">
<path d="M112545 78069
L112448 78069
L112399 78093
L112375 78117
L112326 78190
L112302 78288
L112302 78483
L112326 78532
L112350 78556
L112399 78580
L112497 78580
L112545 78556
L112570 78532
L112594 78483
L112594 78361
L112570 78312
L112545 78288
L112497 78263
L112399 78263
L112350 78288
L112326 78312
L112302 78361
" />
</g>
<g style="fill:#000000; fill-opacity:0.0; 
stroke:#000000; stroke-width:39.3701; stroke-opacity:1; 
stroke-linecap:round; stroke-linejoin:round;">
</g>
<g style="fill:#000000; fill-opacity:0.0; 
stroke:#000000; stroke-width:59.0551; stroke-opacity:1; 
stroke-linecap:round; stroke-linejoin:round;">
<path d="M3937 23622
L4724 23622
" />
</g>
<g style="fill:#000000; fill-opacity:0.0; 
stroke:#000000; stroke-width:39.3701; stroke-opacity:1; 
stroke-linecap:round; stroke-linejoin:round;">
</g>
<g style="fill:#000000; fill-opacity:0.0; 
stroke:#000000; stroke-width:59.0551; stroke-opacity:1; 
stroke-linecap:round; stroke-linejoin:round;">
<path d="M3937 43307
L4724 43307
" />
</g>
<g style="fill:#000000; fill-opacity:0.0; 
stroke:#000000; stroke-width:39.3701; stroke-opacity:1; 
stroke-linecap:round; stroke-linejoin:round;">
</g>
<g style="fill:#000000; fill-opacity:0.0; 
stroke:#000000; stroke-width:59.0551; stroke-opacity:1; 
stroke-linecap:round; stroke-linejoin:round;">
<path d="M3937 62992
L4724 62992
" />
</g>
<g style="fill:#000000; fill-opacity:0.0; 
stroke:#000000; stroke-width:39.3701; stroke-opacity:1; 
stroke-linecap:round; stroke-linejoin:round;">
</g>
<g style="fill:#000000; fill-opacity:0.0; 
stroke:#000000; stroke-width:59.0551; stroke-opacity:1; 
stroke-linecap:round; stroke-linejoin:round;">
<path d="M4208 13864
L4452 13864
" />
<path d="M4160 14011
L4330 13499
L4501 14011
" />
</g>
<g style="fill:#000000; fill-opacity:0.0; 
stroke:#000000; stroke-width:39.3701; stroke-opacity:1; 
stroke-linecap:round; stroke-linejoin:round;">
</g>
<g style="fill:#000000; fill-opacity:0.0; 
stroke:#000000; stroke-width:59.0551; stroke-opacity:1; 
stroke-linecap:round; stroke-linejoin:round;">
<path d="M4367 33428
L4440 33452
L4464 33476
L4489 33525
L4489 33598
L4464 33647
L4440 33671
L4391 33696
L4196 33696
L4196 33184
L4367 33184
L4416 33208
L4440 33233
L4464 33281
L4464 33330
L4440 33379
L4416 33403
L4367 33428
L4196 33428
" />
</g>
<g style="fill:#000000; fill-opacity:0.0; 
stroke:#000000; stroke-width:39.3701; stroke-opacity:1; 
stroke-linecap:round; stroke-linejoin:round;">
</g>
<g style="fill:#000000; fill-opacity:0.0; 
stroke:#000000; stroke-width:59.0551; stroke-opacity:1; 
stroke-linecap:round; stroke-linejoin:round;">
<path d="M4489 53332
L4464 53356
L4391 53381
L4342 53381
L4269 53356
L4221 53308
L4196 53259
L4172 53161
L4172 53088
L4196 52991
L4221 52942
L4269 52893
L4342 52869
L4391 52869
L4464 52893
L4489 52918
" />
</g>
<g style="fill:#000000; fill-opacity:0.0; 
stroke:#000000; stroke-width:39.3701; stroke-opacity:1; 
stroke-linecap:round; stroke-linejoin:round;">
</g>
<g style="fill:#000000; fill-opacity:0.0; 
stroke:#000000; stroke-width:59.0551; stroke-opacity:1; 
stroke-linecap:round; stroke-linejoin:round;">
<path d="M4196 73066
L4196 72554
L4318 72554
L4391 72578
L4440 72627
L4464 72676
L4489 72773
L4489 72846
L4464 72944
L4440 72993
L4391 73041
L4318 73066
L4196 73066
" />
</g>
<g style="fill:#000000; fill-opacity:0.0; 
stroke:#000000; stroke-width:39.3701; stroke-opacity:1; 
stroke-linecap:round; stroke-linejoin:round;">
</g>
<g style="fill:#000000; fill-opacity:0.0; 
stroke:#000000; stroke-width:59.0551; stroke-opacity:1; 
stroke-linecap:round; stroke-linejoin:round;">
<path d="M112992 23622
L112205 23622
" />
</g>
<g style="fill:#000000; fill-opacity:0.0; 
stroke:#000000; stroke-width:39.3701; stroke-opacity:1; 
stroke-linecap:round; stroke-linejoin:round;">
</g>
<g style="fill:#000000; fill-opacity:0.0; 
stroke:#000000; stroke-width:59.0551; stroke-opacity:1; 
stroke-linecap:round; stroke-linejoin:round;">
<path d="M112992 43307
L112205 43307
" />
</g>
<g style="fill:#000000; fill-opacity:0.0; 
stroke:#000000; stroke-width:39.3701; stroke-opacity:1; 
stroke-linecap:round; stroke-linejoin:round;">
</g>
<g style="fill:#000000; fill-opacity:0.0; 
stroke:#000000; stroke-width:59.0551; stroke-opacity:1; 
stroke-linecap:round; stroke-linejoin:round;">
<path d="M112992 62992
L112205 62992
" />
</g>
<g style="fill:#000000; fill-opacity:0.0; 
stroke:#000000; stroke-width:39.3701; stroke-opacity:1; 
stroke-linecap:round; stroke-linejoin:round;">
</g>
<g style="fill:#000000; fill-opacity:0.0; 
stroke:#000000; stroke-width:59.0551; stroke-opacity:1; 
stroke-linecap:round; stroke-linejoin:round;">
<path d="M112477 13864
L112721 13864
" />
<path d="M112428 14011
L112599 13499
L112769 14011
" />
</g>
<g style="fill:#000000; fill-opacity:0.0; 
stroke:#000000; stroke-width:39.3701; stroke-opacity:1; 
stroke-linecap:round; stroke-linejoin:round;">
</g>
<g style="fill:#000000; fill-opacity:0.0; 
stroke:#000000; stroke-width:59.0551; stroke-opacity:1; 
stroke-linecap:round; stroke-linejoin:round;">
<path d="M112635 33428
L112708 33452
L112733 33476
L112757 33525
L112757 33598
L112733 33647
L112708 33671
L112660 33696
L112465 33696
L112465 33184
L112635 33184
L112684 33208
L112708 33233
L112733 33281
L112733 33330
L112708 33379
L112684 33403
L112635 33428
L112465 33428
" />
</g>
<g style="fill:#000000; fill-opacity:0.0; 
stroke:#000000; stroke-width:39.3701; stroke-opacity:1; 
stroke-linecap:round; stroke-linejoin:round;">
</g>
<g style="fill:#000000; fill-opacity:0.0; 
stroke:#000000; stroke-width:59.0551; stroke-opacity:1; 
stroke-linecap:round; stroke-linejoin:round;">
<path d="M112757 53332
L112733 53356
L112660 53381
L112611 53381
L112538 53356
L112489 53308
L112465 53259
L112440 53161
L112440 53088
L112465 52991
L112489 52942
L112538 52893
L112611 52869
L112660 52869
L112733 52893
L112757 52918
" />
</g>
<g style="fill:#000000; fill-opacity:0.0; 
stroke:#000000; stroke-width:39.3701; stroke-opacity:1; 
stroke-linecap:round; stroke-linejoin:round;">
</g>
<g style="fill:#000000; fill-opacity:0.0; 
stroke:#000000; stroke-width:59.0551; stroke-opacity:1; 
stroke-linecap:round; stroke-linejoin:round;">
<path d="M112465 73066
L112465 72554
L112587 72554
L112660 72578
L112708 72627
L112733 72676
L112757 72773
L112757 72846
L112733 72944
L112708 72993
L112660 73041
L112587 73066
L112465 73066
" />
</g>
<g style="fill:#000000; fill-opacity:0.0; 
stroke:#000000; stroke-width:39.3701; stroke-opacity:1; 
stroke-linecap:round; stroke-linejoin:round;">
</g>
<g style="fill:#000000; fill-opacity:0.0; 
stroke:#000000; stroke-width:59.0551; stroke-opacity:1; 
stroke-linecap:round; stroke-linejoin:round;">
<path d="M78881 76293
L78881 75703
L79022 75703
L79106 75731
L79162 75787
L79190 75843
L79219 75956
L79219 76040
L79190 76153
L79162 76209
L79106 76265
L79022 76293
L78881 76293
" />
<path d="M79725 76293
L79725 75984
L79697 75928
L79640 75899
L79528 75899
L79472 75928
" />
<path d="M79725 76265
L79669 76293
L79528 76293
L79472 76265
L79444 76209
L79444 76153
L79472 76096
L79528 76068
L79669 76068
L79725 76040
" />
<path d="M79922 75899
L80147 75899
" />
<path d="M80006 75703
L80006 76209
L80034 76265
L80090 76293
L80147 76293
" />
<path d="M80568 76265
L80512 76293
L80400 76293
L80343 76265
L80315 76209
L80315 75984
L80343 75928
L80400 75899
L80512 75899
L80568 75928
L80597 75984
L80597 76040
L80315 76096
" />
<path d="M80850 76237
L80878 76265
L80850 76293
L80822 76265
L80850 76237
L80850 76293
" />
<path d="M80850 75928
L80878 75956
L80850 75984
L80822 75956
L80850 75928
L80850 75984
" />
</g>
<g style="fill:#000000; fill-opacity:0.0; 
stroke:#000000; stroke-width:39.3701; stroke-opacity:1; 
stroke-linecap:round; stroke-linejoin:round;">
</g>
<g style="fill:#000000; fill-opacity:0.0; 
stroke:#000000; stroke-width:59.0551; stroke-opacity:1; 
stroke-linecap:round; stroke-linejoin:round;">
<path d="M69685 76577
L112205 76577
" />
</g>
<g style="fill:#000000; fill-opacity:0.0; 
stroke:#000000; stroke-width:39.3701; stroke-opacity:1; 
stroke-linecap:round; stroke-linejoin:round;">
</g>
<g style="fill:#000000; fill-opacity:0.0; 
stroke:#000000; stroke-width:59.0551; stroke-opacity:1; 
stroke-linecap:round; stroke-linejoin:round;">
<path d="M70220 77395
L70220 76805
" />
<path d="M70557 77395
L70304 77058
" />
<path d="M70557 76805
L70220 77142
" />
<path d="M70810 77395
L70810 77002
" />
<path d="M70810 76805
L70782 76833
L70810 76861
L70838 76833
L70810 76805
L70810 76861
" />
<path d="M71429 77339
L71401 77367
L71316 77395
L71260 77395
L71176 77367
L71120 77311
L71091 77255
L71063 77142
L71063 77058
L71091 76946
L71120 76889
L71176 76833
L71260 76805
L71316 76805
L71401 76833
L71429 76861
" />
<path d="M71935 77395
L71935 77086
L71907 77030
L71851 77002
L71738 77002
L71682 77030
" />
<path d="M71935 77367
L71879 77395
L71738 77395
L71682 77367
L71654 77311
L71654 77255
L71682 77199
L71738 77171
L71879 77171
L71935 77142
" />
<path d="M72469 77395
L72469 76805
" />
<path d="M72469 77367
L72413 77395
L72301 77395
L72244 77367
L72216 77339
L72188 77283
L72188 77114
L72216 77058
L72244 77030
L72301 77002
L72413 77002
L72469 77030
" />
<path d="M73201 77086
L73397 77086
" />
<path d="M73482 77395
L73201 77395
L73201 76805
L73482 76805
" />
<path d="M73735 77339
L73763 77367
L73735 77395
L73707 77367
L73735 77339
L73735 77395
" />
<path d="M74016 77395
L74016 76805
L74157 76805
L74241 76833
L74297 76889
L74325 76946
L74354 77058
L74354 77142
L74325 77255
L74297 77311
L74241 77367
L74157 77395
L74016 77395
" />
<path d="M74607 77339
L74635 77367
L74607 77395
L74579 77367
L74607 77339
L74607 77395
" />
<path d="M74860 77227
L75141 77227
" />
<path d="M74804 77395
L75000 76805
L75197 77395
" />
<path d="M75394 77339
L75422 77367
L75394 77395
L75366 77367
L75394 77339
L75394 77395
" />
<path d="M76575 77395
L76575 76805
" />
<path d="M76631 77171
L76800 77395
" />
<path d="M76800 77002
L76575 77227
" />
<path d="M77053 77395
L77053 77002
" />
<path d="M77053 76805
L77025 76833
L77053 76861
L77081 76833
L77053 76805
L77053 76861
" />
<path d="M77588 77367
L77531 77395
L77419 77395
L77363 77367
L77334 77339
L77306 77283
L77306 77114
L77334 77058
L77363 77030
L77419 77002
L77531 77002
L77588 77030
" />
<path d="M78094 77395
L78094 77086
L78066 77030
L78009 77002
L77897 77002
L77841 77030
" />
<path d="M78094 77367
L78037 77395
L77897 77395
L77841 77367
L77813 77311
L77813 77255
L77841 77199
L77897 77171
L78037 77171
L78094 77142
" />
<path d="M78628 77395
L78628 76805
" />
<path d="M78628 77367
L78572 77395
L78459 77395
L78403 77367
L78375 77339
L78347 77283
L78347 77114
L78375 77058
L78403 77030
L78459 77002
L78572 77002
L78628 77030
" />
<path d="M79612 77002
L79612 77395
" />
<path d="M79472 76777
L79331 77199
L79697 77199
" />
<path d="M79922 77339
L79950 77367
L79922 77395
L79894 77367
L79922 77339
L79922 77395
" />
<path d="M80315 76805
L80372 76805
L80428 76833
L80456 76861
L80484 76917
L80512 77030
L80512 77171
L80484 77283
L80456 77339
L80428 77367
L80372 77395
L80315 77395
L80259 77367
L80231 77339
L80203 77283
L80175 77171
L80175 77030
L80203 76917
L80231 76861
L80259 76833
L80315 76805
" />
<path d="M80765 77339
L80793 77367
L80765 77395
L80737 77367
L80765 77339
L80765 77395
" />
<path d="M80990 76805
L81384 76805
L81131 77395
" />
</g>
<g style="fill:#000000; fill-opacity:0.0; 
stroke:#000000; stroke-width:39.3701; stroke-opacity:1; 
stroke-linecap:round; stroke-linejoin:round;">
</g>
<g style="fill:#000000; fill-opacity:0.0; 
stroke:#000000; stroke-width:59.0551; stroke-opacity:1; 
stroke-linecap:round; stroke-linejoin:round;">
<path d="M69685 75396
L112205 75396
" />
</g>
<g style="fill:#000000; fill-opacity:0.0; 
stroke:#000000; stroke-width:39.3701; stroke-opacity:1; 
stroke-linecap:round; stroke-linejoin:round;">
</g>
<g style="fill:#000000; fill-opacity:0.0; 
stroke:#000000; stroke-width:118.11; stroke-opacity:1; 
stroke-linecap:round; stroke-linejoin:round;">
<path d="M104022 76293
L103825 76012
" />
<path d="M103684 76293
L103684 75703
L103909 75703
L103965 75731
L103994 75759
L104022 75815
L104022 75899
L103994 75956
L103965 75984
L103909 76012
L103684 76012
" />
<path d="M104500 76265
L104444 76293
L104331 76293
L104275 76265
L104247 76209
L104247 75984
L104275 75928
L104331 75899
L104444 75899
L104500 75928
L104528 75984
L104528 76040
L104247 76096
" />
<path d="M104725 75899
L104865 76293
L105006 75899
" />
<path d="M105231 76237
L105259 76265
L105231 76293
L105203 76265
L105231 76237
L105231 76293
" />
<path d="M105231 75928
L105259 75956
L105231 75984
L105203 75956
L105231 75928
L105231 75984
" />
</g>
<g style="fill:#000000; fill-opacity:0.0; 
stroke:#000000; stroke-width:39.3701; stroke-opacity:1; 
stroke-linecap:round; stroke-linejoin:round;">
</g>
<g style="fill:#000000; fill-opacity:0.0; 
stroke:#000000; stroke-width:59.0551; stroke-opacity:1; 
stroke-linecap:round; stroke-linejoin:round;">
<path d="M70192 76265
L70276 76293
L70417 76293
L70473 76265
L70501 76237
L70529 76181
L70529 76124
L70501 76068
L70473 76040
L70417 76012
L70304 75984
L70248 75956
L70220 75928
L70192 75871
L70192 75815
L70220 75759
L70248 75731
L70304 75703
L70445 75703
L70529 75731
" />
<path d="M70782 76293
L70782 75899
" />
<path d="M70782 75703
L70754 75731
L70782 75759
L70810 75731
L70782 75703
L70782 75759
" />
<path d="M71007 75899
L71316 75899
L71007 76293
L71316 76293
" />
<path d="M71766 76265
L71710 76293
L71598 76293
L71541 76265
L71513 76209
L71513 75984
L71541 75928
L71598 75899
L71710 75899
L71766 75928
L71795 75984
L71795 76040
L71513 76096
" />
<path d="M72048 76237
L72076 76265
L72048 76293
L72019 76265
L72048 76237
L72048 76293
" />
<path d="M72048 75928
L72076 75956
L72048 75984
L72019 75956
L72048 75928
L72048 75984
" />
<path d="M72751 76124
L73032 76124
" />
<path d="M72694 76293
L72891 75703
L73088 76293
" />
<path d="M73538 75899
L73538 76293
" />
<path d="M73397 75674
L73257 76096
L73622 76096
" />
</g>
<g style="fill:#000000; fill-opacity:0.0; 
stroke:#000000; stroke-width:39.3701; stroke-opacity:1; 
stroke-linecap:round; stroke-linejoin:round;">
</g>
<g style="fill:#000000; fill-opacity:0.0; 
stroke:#000000; stroke-width:59.0551; stroke-opacity:1; 
stroke-linecap:round; stroke-linejoin:round;">
<path d="M103684 77395
L103684 76805
" />
<path d="M104219 77395
L104219 76805
" />
<path d="M104219 77367
L104162 77395
L104050 77395
L103994 77367
L103965 77339
L103937 77283
L103937 77114
L103965 77058
L103994 77030
L104050 77002
L104162 77002
L104219 77030
" />
<path d="M104500 77339
L104528 77367
L104500 77395
L104472 77367
L104500 77339
L104500 77395
" />
<path d="M104500 77030
L104528 77058
L104500 77086
L104472 77058
L104500 77030
L104500 77086
" />
<path d="M105540 77395
L105203 77395
" />
<path d="M105372 77395
L105372 76805
L105315 76889
L105259 76946
L105203 76974
" />
<path d="M106215 76777
L105709 77536
" />
<path d="M106721 77395
L106384 77395
" />
<path d="M106553 77395
L106553 76805
L106496 76889
L106440 76946
L106384 76974
" />
</g>
<g style="fill:#000000; fill-opacity:0.0; 
stroke:#000000; stroke-width:39.3701; stroke-opacity:1; 
stroke-linecap:round; stroke-linejoin:round;">
</g>
<g style="fill:#000000; fill-opacity:0.0; 
stroke:#000000; stroke-width:59.0551; stroke-opacity:1; 
stroke-linecap:round; stroke-linejoin:round;">
<path d="M69685 73821
L112205 73821
" />
</g>
<g style="fill:#000000; fill-opacity:0.0; 
stroke:#000000; stroke-width:39.3701; stroke-opacity:1; 
stroke-linecap:round; stroke-linejoin:round;">
</g>
<g style="fill:#000000; fill-opacity:0.0; 
stroke:#000000; stroke-width:157.48; stroke-opacity:1; 
stroke-linecap:round; stroke-linejoin:round;">
<path d="M70257 74099
L70707 74099
" />
<path d="M70384 74886
L70482 74099
" />
<path d="M70871 74886
L70937 74361
" />
<path d="M70970 74099
L70927 74136
L70960 74174
L71002 74136
L70970 74099
L70960 74174
" />
<path d="M71199 74361
L71499 74361
" />
<path d="M71345 74099
L71260 74774
L71288 74849
L71359 74886
L71434 74886
" />
<path d="M71809 74886
L71738 74849
L71710 74774
L71795 74099
" />
<path d="M72413 74849
L72334 74886
L72184 74886
L72113 74849
L72085 74774
L72123 74474
L72169 74399
L72249 74361
L72399 74361
L72469 74399
L72498 74474
L72488 74549
L72104 74624
" />
<path d="M72793 74811
L72826 74849
L72783 74886
L72751 74849
L72793 74811
L72783 74886
" />
<path d="M72844 74399
L72877 74436
L72835 74474
L72802 74436
L72844 74399
L72835 74474
" />
</g>
<g style="fill:#000000; fill-opacity:0.0; 
stroke:#000000; stroke-width:39.3701; stroke-opacity:1; 
stroke-linecap:round; stroke-linejoin:round;">
</g>
<g style="fill:#000000; fill-opacity:0.0; 
stroke:#000000; stroke-width:59.0551; stroke-opacity:1; 
stroke-linecap:round; stroke-linejoin:round;">
<path d="M70417 73070
L70220 73070
" />
<path d="M70220 73380
L70220 72789
L70501 72789
" />
<path d="M70726 73380
L70726 72986
" />
<path d="M70726 72789
L70698 72817
L70726 72845
L70754 72817
L70726 72789
L70726 72845
" />
<path d="M71091 73380
L71035 73352
L71007 73295
L71007 72789
" />
<path d="M71541 73352
L71485 73380
L71373 73380
L71316 73352
L71288 73295
L71288 73070
L71316 73014
L71373 72986
L71485 72986
L71541 73014
L71570 73070
L71570 73127
L71288 73183
" />
<path d="M71823 73323
L71851 73352
L71823 73380
L71795 73352
L71823 73323
L71823 73380
" />
<path d="M71823 73014
L71851 73042
L71823 73070
L71795 73042
L71823 73014
L71823 73070
" />
<path d="M72469 72986
L72694 72986
" />
<path d="M72554 73380
L72554 72874
L72582 72817
L72638 72789
L72694 72789
" />
<path d="M72976 73380
L72919 73352
L72891 73295
L72891 72789
" />
<path d="M73144 72986
L73285 73380
" />
<path d="M73426 72986
L73285 73380
L73229 73520
L73201 73548
L73144 73577
" />
<path d="M73651 72986
L73651 73577
" />
<path d="M73651 73014
L73707 72986
L73819 72986
L73876 73014
L73904 73042
L73932 73099
L73932 73267
L73904 73323
L73876 73352
L73819 73380
L73707 73380
L73651 73352
" />
<path d="M74185 73380
L74185 72986
" />
<path d="M74185 72789
L74157 72817
L74185 72845
L74213 72817
L74185 72789
L74185 72845
" />
<path d="M74325 73436
L74775 73436
" />
<path d="M74916 72986
L74916 73577
" />
<path d="M74916 73014
L74972 72986
L75085 72986
L75141 73014
L75169 73042
L75197 73099
L75197 73267
L75169 73323
L75141 73352
L75085 73380
L74972 73380
L74916 73352
" />
<path d="M75450 73380
L75450 72986
" />
<path d="M75450 73099
L75478 73042
L75507 73014
L75563 72986
L75619 72986
" />
<path d="M75816 73380
L75816 72986
" />
<path d="M75816 72789
L75788 72817
L75816 72845
L75844 72817
L75816 72789
L75816 72845
" />
<path d="M76097 72986
L76097 73380
" />
<path d="M76097 73042
L76125 73014
L76181 72986
L76266 72986
L76322 73014
L76350 73070
L76350 73380
" />
<path d="M76547 72986
L76772 72986
" />
<path d="M76631 72789
L76631 73295
L76660 73352
L76716 73380
L76772 73380
" />
<path d="M76969 73323
L76997 73352
L76969 73380
L76941 73352
L76969 73323
L76969 73380
" />
<path d="M77250 73380
L77250 72789
" />
<path d="M77306 73155
L77475 73380
" />
<path d="M77475 72986
L77250 73211
" />
<path d="M77728 73380
L77728 72986
" />
<path d="M77728 72789
L77700 72817
L77728 72845
L77756 72817
L77728 72789
L77728 72845
" />
<path d="M78262 73352
L78206 73380
L78094 73380
L78037 73352
L78009 73323
L77981 73267
L77981 73099
L78009 73042
L78037 73014
L78094 72986
L78206 72986
L78262 73014
" />
<path d="M78769 73380
L78769 73070
L78741 73014
L78684 72986
L78572 72986
L78516 73014
" />
<path d="M78769 73352
L78712 73380
L78572 73380
L78516 73352
L78487 73295
L78487 73239
L78516 73183
L78572 73155
L78712 73155
L78769 73127
" />
<path d="M79303 73380
L79303 72789
" />
<path d="M79303 73352
L79247 73380
L79134 73380
L79078 73352
L79050 73323
L79022 73267
L79022 73099
L79050 73042
L79078 73014
L79134 72986
L79247 72986
L79303 73014
" />
<path d="M79444 73436
L79894 73436
" />
<path d="M80034 72986
L80034 73577
" />
<path d="M80034 73014
L80090 72986
L80203 72986
L80259 73014
L80287 73042
L80315 73099
L80315 73267
L80287 73323
L80259 73352
L80203 73380
L80090 73380
L80034 73352
" />
<path d="M80822 73352
L80765 73380
L80653 73380
L80597 73352
L80568 73323
L80540 73267
L80540 73099
L80568 73042
L80597 73014
L80653 72986
L80765 72986
L80822 73014
" />
<path d="M81075 73380
L81075 72789
" />
<path d="M81075 73014
L81131 72986
L81243 72986
L81300 73014
L81328 73042
L81356 73099
L81356 73267
L81328 73323
L81300 73352
L81243 73380
L81131 73380
L81075 73352
" />
</g>
<g style="fill:#000000; fill-opacity:0.0; 
stroke:#000000; stroke-width:39.3701; stroke-opacity:1; 
stroke-linecap:round; stroke-linejoin:round;">
</g>
<g style="fill:#000000; fill-opacity:0.0; 
stroke:#000000; stroke-width:59.0551; stroke-opacity:1; 
stroke-linecap:round; stroke-linejoin:round;">
<path d="M69685 71459
L112205 71459
" />
</g>
<g style="fill:#000000; fill-opacity:0.0; 
stroke:#000000; stroke-width:39.3701; stroke-opacity:1; 
stroke-linecap:round; stroke-linejoin:round;">
</g>
<g style="fill:#000000; fill-opacity:0.0; 
stroke:#000000; stroke-width:59.0551; stroke-opacity:1; 
stroke-linecap:round; stroke-linejoin:round;">
<path d="M70192 72289
L70276 72317
L70417 72317
L70473 72289
L70501 72260
L70529 72204
L70529 72148
L70501 72092
L70473 72064
L70417 72036
L70304 72007
L70248 71979
L70220 71951
L70192 71895
L70192 71839
L70220 71782
L70248 71754
L70304 71726
L70445 71726
L70529 71754
" />
<path d="M70782 72317
L70782 71726
" />
<path d="M71035 72317
L71035 72007
L71007 71951
L70951 71923
L70867 71923
L70810 71951
L70782 71979
" />
<path d="M71541 72289
L71485 72317
L71373 72317
L71316 72289
L71288 72232
L71288 72007
L71316 71951
L71373 71923
L71485 71923
L71541 71951
L71570 72007
L71570 72064
L71288 72120
" />
<path d="M72048 72289
L71991 72317
L71879 72317
L71823 72289
L71795 72232
L71795 72007
L71823 71951
L71879 71923
L71991 71923
L72048 71951
L72076 72007
L72076 72064
L71795 72120
" />
<path d="M72244 71923
L72469 71923
" />
<path d="M72329 71726
L72329 72232
L72357 72289
L72413 72317
L72469 72317
" />
<path d="M72666 72260
L72694 72289
L72666 72317
L72638 72289
L72666 72260
L72666 72317
" />
<path d="M72666 71951
L72694 71979
L72666 72007
L72638 71979
L72666 71951
L72666 72007
" />
</g>
<g style="fill:#000000; fill-opacity:0.0; 
stroke:#000000; stroke-width:39.3701; stroke-opacity:1; 
stroke-linecap:round; stroke-linejoin:round;">
</g>
<g style="fill:#000000; fill-opacity:0.0; 
stroke:#000000; stroke-width:59.0551; stroke-opacity:1; 
stroke-linecap:round; stroke-linejoin:round;">
<path d="M77559 75396
L77559 76577
" />
</g>
<g style="fill:#000000; fill-opacity:0.0; 
stroke:#000000; stroke-width:39.3701; stroke-opacity:1; 
stroke-linecap:round; stroke-linejoin:round;">
</g>
<g style="fill:#000000; fill-opacity:0.0; 
stroke:#000000; stroke-width:59.0551; stroke-opacity:1; 
stroke-linecap:round; stroke-linejoin:round;">
<path d="M102756 75396
L102756 77955
" />
</g>
<g style="fill:#C2C200; fill-opacity:0.0; 
stroke:#C2C200; stroke-width:59.0551; stroke-opacity:1; 
stroke-linecap:round; stroke-linejoin:round;">
</g>
<g style="fill:#C2C200; fill-opacity:0.0; 
stroke:#C2C200; stroke-width:39.3701; stroke-opacity:1; 
stroke-linecap:round; stroke-linejoin:round;">
<path d="M29921 11023
L32677 11023
" />
<path d="M29921 8267
L29921 11023
" />
<path d="M27559 12598
L19291 12598
" />
<path d="M28346 11811
L27559 12598
" />
<path d="M28346 9448
L28346 11811
" />
<path d="M27559 9448
L28346 9448
" />
<path d="M26771 8661
L27559 9448
" />
<path d="M26771 7480
L26771 8661
" />
<path d="M17716 11811
L15748 11811
" />
<path d="M17716 8267
L17716 11811
" />
<path d="M19291 9448
L19291 12598
" />
<path d="M20078 9448
L19291 9448
" />
<path d="M20866 8661
L20078 9448
" />
<path d="M20866 7480
L20866 8661
" />
<path d="M12598 8661
L15748 11811
" />
<path d="M19291 6692
L17716 8267
" />
<path d="M20078 6692
L19291 6692
" />
<path d="M28346 6692
L29921 8267
" />
<path d="M27559 6692
L28346 6692
" />
<path d="M26771 7480
L27559 6692
" />
<path d="M20078 6692
L20866 7480
" />
<circle cx="19763.8" cy="8031.5" r="433.071" /> 
<circle cx="27952.8" cy="8031.5" r="433.071" /> 
<path d="M38188 18897
L37007 20078
" />
<path d="M38188 14173
L38188 18897
" />
<path d="M39763 12598
L38188 14173
" />
<path d="M32677 11023
L35826 7874
" />
<path d="M11417 15748
L8267 12598
" />
<path d="M11417 19291
L11417 15748
" />
<path d="M12598 20472
L11417 19291
" />
<path d="M12598 27559
L12598 20472
" />
<path d="M10629 29133
L12598 27559
" />
<path d="M10629 33858
L10629 29133
" />
<path d="M8661 35826
L10629 33858
" />
<path d="M26771 36220
L20472 36220
" />
<path d="M28346 37795
L26771 36220
" />
<path d="M33858 37795
L28346 37795
" />
<path d="M35826 39763
L33858 37795
" />
<path d="M38188 33464
L40551 35826
" />
<path d="M38188 29921
L38188 33464
" />
<path d="M37007 28740
L38188 29921
" />
<path d="M37007 20078
L37007 28740
" />
<path d="M35826 43700
L35826 39763
" />
<path d="M19291 37401
L20472 36220
" />
<path d="M14960 37401
L19291 37401
" />
<path d="M12598 39763
L14960 37401
" />
<path d="M8661 38976
L4724 38976
" />
<path d="M8661 35826
L4724 35826
" />
<path d="M4724 38976
L4724 35826
" />
<path d="M12598 43700
L9448 43700
" />
<path d="M12598 39763
L12598 43700
" />
<path d="M9448 39763
L9448 43700
" />
<path d="M38976 39763
L38976 43700
" />
<path d="M38976 43700
L35826 43700
" />
<path d="M43700 35826
L43700 38976
" />
<path d="M40551 35826
L43700 35826
" />
<path d="M39763 38976
L43700 38976
" />
<path d="M9448 8661
L9448 4724
" />
<path d="M12598 8661
L12598 4724
" />
<path d="M9448 4724
L12598 4724
" />
<path d="M4724 12598
L4724 9448
" />
<path d="M8267 12598
L4724 12598
" />
<path d="M8661 9448
L4724 9448
" />
<path d="M35826 4724
L38976 4724
" />
<path d="M35826 7874
L35826 4724
" />
<path d="M38976 8661
L38976 4724
" />
<path d="M43700 9448
L43700 12598
" />
<path d="M39763 9448
L43700 9448
" />
<path d="M8661 9448
L9448 8661
" />
<path d="M38976 8661
L39763 9448
" />
<path d="M38976 39763
L39763 38976
" />
<path d="M9448 39763
L8661 38976
" />
<path d="M39763 12598
L43700 12598
" />
<circle cx="37401.6" cy="11023.6" r="669.291" /> 
<circle cx="11023.6" cy="11023.6" r="669.291" /> 
<circle cx="11023.6" cy="37401.6" r="669.291" /> 
<circle cx="37401.6" cy="37401.6" r="669.291" /> 
</g>
<g style="fill:#C2C200; fill-opacity:0.0; 
stroke:#C2C200; stroke-width:59.0551; stroke-opacity:1; 
stroke-linecap:round; stroke-linejoin:round;">
<path d="M13404 30966
L13367 30985
L13292 30985
L13254 30966
L13235 30947
L13217 30910
L13217 30797
L13235 30760
L13254 30741
L13292 30722
L13367 30722
L13404 30741
" />
<path d="M13573 30985
L13573 30591
" />
<path d="M13573 30741
L13610 30722
L13685 30722
L13723 30741
L13742 30760
L13760 30797
L13760 30910
L13742 30947
L13723 30966
L13685 30985
L13610 30985
L13573 30966
" />
<path d="M13985 30985
L13948 30966
L13929 30928
L13929 30591
" />
<path d="M14341 30985
L14116 30985
" />
<path d="M14229 30985
L14229 30591
L14191 30647
L14154 30685
L14116 30703
" />
<path d="M16155 35020
L16174 35058
L16174 35133
L16155 35170
L16136 35189
L16099 35208
L15986 35208
L15949 35189
L15930 35170
L15911 35133
L15911 35058
L15930 35020
" />
<path d="M16174 34851
L15780 34851
" />
<path d="M15930 34851
L15911 34814
L15911 34739
L15930 34701
L15949 34683
L15986 34664
L16099 34664
L16136 34683
L16155 34701
L16174 34739
L16174 34814
L16155 34851
" />
<path d="M16174 34439
L16155 34476
L16117 34495
L15780 34495
" />
<path d="M15817 34308
L15799 34289
L15780 34251
L15780 34158
L15799 34120
L15817 34101
L15855 34083
L15892 34083
L15949 34101
L16174 34326
L16174 34083
" />
<path d="M34251 32513
L34214 32532
L34139 32532
L34101 32513
L34083 32494
L34064 32457
L34064 32344
L34083 32307
L34101 32288
L34139 32269
L34214 32269
L34251 32288
" />
<path d="M34420 32532
L34420 32138
" />
<path d="M34420 32288
L34458 32269
L34533 32269
L34570 32288
L34589 32307
L34608 32344
L34608 32457
L34589 32494
L34570 32513
L34533 32532
L34458 32532
L34420 32513
" />
<path d="M34776 32532
L34776 32269
" />
<path d="M34776 32344
L34795 32307
L34814 32288
L34851 32269
L34889 32269
" />
<path d="M35226 32532
L35001 32532
" />
<path d="M35114 32532
L35114 32138
L35076 32194
L35039 32232
L35001 32251
" />
<path d="M30769 35039
L30788 35076
L30788 35151
L30769 35189
L30750 35208
L30713 35226
L30600 35226
L30563 35208
L30544 35189
L30525 35151
L30525 35076
L30544 35039
" />
<path d="M30788 34870
L30394 34870
" />
<path d="M30544 34870
L30525 34833
L30525 34758
L30544 34720
L30563 34701
L30600 34683
L30713 34683
L30750 34701
L30769 34720
L30788 34758
L30788 34833
L30769 34870
" />
<path d="M30788 34514
L30525 34514
" />
<path d="M30600 34514
L30563 34495
L30544 34476
L30525 34439
L30525 34401
" />
<path d="M30432 34289
L30413 34270
L30394 34233
L30394 34139
L30413 34101
L30432 34083
L30469 34064
L30507 34064
L30563 34083
L30788 34308
L30788 34064
" />
<path d="M13470 16202
L13432 16221
L13357 16221
L13320 16202
L13301 16183
L13282 16146
L13282 16033
L13301 15996
L13320 15977
L13357 15958
L13432 15958
L13470 15977
" />
<path d="M13582 15958
L13732 15958
" />
<path d="M13638 16221
L13638 15883
L13657 15846
L13695 15827
L13732 15827
" />
<path d="M13920 16221
L13882 16202
L13863 16165
L13863 15827
" />
<path d="M14276 16221
L14051 16221
" />
<path d="M14163 16221
L14163 15827
L14126 15883
L14088 15921
L14051 15940
" />
<path d="M17974 14088
L17993 14126
L17993 14201
L17974 14238
L17955 14257
L17918 14276
L17805 14276
L17768 14257
L17749 14238
L17730 14201
L17730 14126
L17749 14088
" />
<path d="M17730 13976
L17730 13826
" />
<path d="M17993 13920
L17655 13920
L17618 13901
L17599 13863
L17599 13826
" />
<path d="M17993 13638
L17974 13676
L17936 13695
L17599 13695
" />
<path d="M17636 13507
L17618 13488
L17599 13451
L17599 13357
L17618 13320
L17636 13301
L17674 13282
L17711 13282
L17768 13301
L17993 13526
L17993 13282
" />
<path d="M34317 17974
L34280 17993
L34205 17993
L34167 17974
L34148 17955
L34130 17918
L34130 17805
L34148 17768
L34167 17749
L34205 17730
L34280 17730
L34317 17749
" />
<path d="M34430 17730
L34580 17730
" />
<path d="M34486 17993
L34486 17655
L34505 17618
L34542 17599
L34580 17599
" />
<path d="M34711 17993
L34711 17730
" />
<path d="M34711 17805
L34730 17768
L34748 17749
L34786 17730
L34823 17730
" />
<path d="M35161 17993
L34936 17993
" />
<path d="M35048 17993
L35048 17599
L35011 17655
L34973 17693
L34936 17711
" />
<path d="M32934 14107
L32953 14145
L32953 14220
L32934 14257
L32916 14276
L32878 14295
L32766 14295
L32728 14276
L32709 14257
L32691 14220
L32691 14145
L32709 14107
" />
<path d="M32691 13995
L32691 13845
" />
<path d="M32953 13938
L32616 13938
L32578 13920
L32559 13882
L32559 13845
" />
<path d="M32953 13713
L32691 13713
" />
<path d="M32766 13713
L32728 13695
L32709 13676
L32691 13638
L32691 13601
" />
<path d="M32597 13488
L32578 13470
L32559 13432
L32559 13338
L32578 13301
L32597 13282
L32634 13263
L32672 13263
L32728 13282
L32953 13507
L32953 13263
" />
<path d="M13920 34035
L13526 34035
" />
<path d="M13901 34035
L13920 34072
L13920 34147
L13901 34185
L13882 34203
L13845 34222
L13732 34222
L13695 34203
L13676 34185
L13657 34147
L13657 34072
L13676 34035
" />
<path d="M13920 33847
L13526 33847
" />
<path d="M13676 33847
L13657 33810
L13657 33735
L13676 33697
L13695 33678
L13732 33660
L13845 33660
L13882 33678
L13901 33697
L13920 33735
L13920 33810
L13901 33847
" />
<path d="M13920 33435
L13901 33472
L13863 33491
L13526 33491
" />
<path d="M13920 33078
L13920 33303
" />
<path d="M13920 33191
L13526 33191
L13582 33228
L13620 33266
L13639 33303
" />
<path d="M14586 36361
L14586 35967
" />
<path d="M14586 36342
L14549 36361
L14474 36361
L14436 36342
L14418 36323
L14399 36286
L14399 36173
L14418 36136
L14436 36117
L14474 36098
L14549 36098
L14586 36117
" />
<path d="M14774 36361
L14774 35967
" />
<path d="M14774 36117
L14811 36098
L14886 36098
L14924 36117
L14943 36136
L14961 36173
L14961 36286
L14943 36323
L14924 36342
L14886 36361
L14811 36361
L14774 36342
" />
<path d="M15186 36361
L15149 36342
L15130 36304
L15130 35967
" />
<path d="M15318 36004
L15336 35986
L15374 35967
L15468 35967
L15505 35986
L15524 36004
L15543 36042
L15543 36079
L15524 36136
L15299 36361
L15543 36361
" />
<path d="M36361 33778
L35967 33778
" />
<path d="M36342 33778
L36361 33815
L36361 33890
L36342 33928
L36323 33947
L36286 33965
L36173 33965
L36136 33947
L36117 33928
L36098 33890
L36098 33815
L36117 33778
" />
<path d="M36361 33590
L35967 33590
" />
<path d="M36117 33590
L36098 33553
L36098 33478
L36117 33440
L36136 33422
L36173 33403
L36286 33403
L36323 33422
L36342 33440
L36361 33478
L36361 33553
L36342 33590
" />
<path d="M36361 33234
L36098 33234
" />
<path d="M36173 33234
L36136 33215
L36117 33197
L36098 33159
L36098 33122
" />
<path d="M36361 32784
L36361 33009
" />
<path d="M36361 32897
L35967 32897
L36023 32934
L36061 32972
L36079 33009
" />
<path d="M33247 34861
L33247 34467
" />
<path d="M33247 34842
L33210 34861
L33135 34861
L33097 34842
L33078 34823
L33060 34786
L33060 34673
L33078 34636
L33097 34617
L33135 34598
L33210 34598
L33247 34617
" />
<path d="M33435 34861
L33435 34467
" />
<path d="M33435 34617
L33472 34598
L33547 34598
L33585 34617
L33603 34636
L33622 34673
L33622 34786
L33603 34823
L33585 34842
L33547 34861
L33472 34861
L33435 34842
" />
<path d="M33791 34861
L33791 34598
" />
<path d="M33791 34673
L33810 34636
L33828 34617
L33866 34598
L33903 34598
" />
<path d="M34016 34504
L34035 34486
L34072 34467
L34166 34467
L34203 34486
L34222 34504
L34241 34542
L34241 34579
L34222 34636
L33997 34861
L34241 34861
" />
<path d="M12420 15329
L12026 15329
" />
<path d="M12401 15329
L12420 15366
L12420 15441
L12401 15479
L12382 15498
L12345 15516
L12232 15516
L12195 15498
L12176 15479
L12157 15441
L12157 15366
L12176 15329
" />
<path d="M12157 15198
L12157 15048
" />
<path d="M12420 15141
L12082 15141
L12045 15123
L12026 15085
L12026 15048
" />
<path d="M12420 14860
L12401 14898
L12363 14916
L12026 14916
" />
<path d="M12420 14504
L12420 14729
" />
<path d="M12420 14616
L12026 14616
L12082 14654
L12120 14691
L12139 14729
" />
<path d="M14691 13920
L14691 13526
" />
<path d="M14691 13901
L14654 13920
L14579 13920
L14541 13901
L14523 13882
L14504 13845
L14504 13732
L14523 13695
L14541 13676
L14579 13657
L14654 13657
L14691 13676
" />
<path d="M14823 13657
L14973 13657
" />
<path d="M14879 13920
L14879 13582
L14898 13545
L14935 13526
L14973 13526
" />
<path d="M15160 13920
L15123 13901
L15104 13863
L15104 13526
" />
<path d="M15291 13564
L15310 13545
L15348 13526
L15441 13526
L15479 13545
L15498 13564
L15516 13601
L15516 13639
L15498 13695
L15273 13920
L15516 13920
" />
<path d="M34861 15111
L34467 15111
" />
<path d="M34842 15111
L34861 15149
L34861 15224
L34842 15261
L34823 15280
L34786 15299
L34673 15299
L34636 15280
L34617 15261
L34598 15224
L34598 15149
L34617 15111
" />
<path d="M34598 14980
L34598 14830
" />
<path d="M34861 14924
L34523 14924
L34486 14905
L34467 14868
L34467 14830
" />
<path d="M34861 14699
L34598 14699
" />
<path d="M34673 14699
L34636 14680
L34617 14661
L34598 14624
L34598 14586
" />
<path d="M34861 14249
L34861 14474
" />
<path d="M34861 14361
L34467 14361
L34523 14399
L34561 14436
L34579 14474
" />
<path d="M33313 12420
L33313 12026
" />
<path d="M33313 12401
L33275 12420
L33200 12420
L33163 12401
L33144 12382
L33125 12345
L33125 12232
L33144 12195
L33163 12176
L33200 12157
L33275 12157
L33313 12176
" />
<path d="M33444 12157
L33594 12157
" />
<path d="M33500 12420
L33500 12082
L33519 12045
L33557 12026
L33594 12026
" />
<path d="M33725 12420
L33725 12157
" />
<path d="M33725 12232
L33744 12195
L33763 12176
L33800 12157
L33838 12157
" />
<path d="M33950 12064
L33969 12045
L34006 12026
L34100 12026
L34138 12045
L34156 12064
L34175 12101
L34175 12139
L34156 12195
L33932 12420
L34175 12420
" />
<path d="M21219 15135
L21219 15266
" />
<path d="M21426 15266
L21032 15266
L21032 15078
" />
<path d="M21426 14722
L21426 14947
" />
<path d="M21426 14835
L21032 14835
L21088 14872
L21126 14910
L21144 14947
" />
<path d="M4772 37932
L4510 37932
" />
<path d="M4547 37932
L4528 37913
L4510 37876
L4510 37820
L4528 37782
L4566 37763
L4772 37763
" />
<path d="M4566 37763
L4528 37745
L4510 37707
L4510 37651
L4528 37613
L4566 37595
L4772 37595
" />
<path d="M4772 37407
L4378 37407
" />
<path d="M4528 37407
L4510 37370
L4510 37295
L4528 37257
L4547 37239
L4585 37220
L4697 37220
L4735 37239
L4753 37257
L4772 37295
L4772 37370
L4753 37407
" />
<path d="M4772 36995
L4753 37032
L4716 37051
L4378 37051
" />
<path d="M4772 36639
L4772 36864
" />
<path d="M4772 36751
L4378 36751
L4435 36789
L4472 36826
L4491 36864
" />
<path d="M10492 42174
L10492 41911
" />
<path d="M10492 41949
L10511 41930
L10548 41911
L10604 41911
L10642 41930
L10661 41967
L10661 42174
" />
<path d="M10661 41967
L10679 41930
L10717 41911
L10773 41911
L10811 41930
L10829 41967
L10829 42174
" />
<path d="M11017 42174
L11017 41780
" />
<path d="M11017 41930
L11054 41911
L11129 41911
L11167 41930
L11186 41949
L11204 41986
L11204 42099
L11186 42136
L11167 42155
L11129 42174
L11054 42174
L11017 42155
" />
<path d="M11429 42174
L11392 42155
L11373 42117
L11373 41780
" />
<path d="M11561 41817
L11579 41799
L11617 41780
L11711 41780
L11748 41799
L11767 41817
L11786 41855
L11786 41892
L11767 41949
L11542 42174
L11786 42174
" />
<path d="M42174 37951
L41911 37951
" />
<path d="M41949 37951
L41930 37932
L41911 37895
L41911 37838
L41930 37801
L41967 37782
L42174 37782
" />
<path d="M41967 37782
L41930 37763
L41911 37726
L41911 37670
L41930 37632
L41967 37613
L42174 37613
" />
<path d="M42174 37426
L41780 37426
" />
<path d="M41930 37426
L41911 37389
L41911 37314
L41930 37276
L41949 37257
L41986 37239
L42099 37239
L42136 37257
L42155 37276
L42174 37314
L42174 37389
L42155 37426
" />
<path d="M42174 37070
L41911 37070
" />
<path d="M41986 37070
L41949 37051
L41930 37032
L41911 36995
L41911 36957
" />
<path d="M42174 36620
L42174 36845
" />
<path d="M42174 36732
L41780 36732
L41836 36770
L41874 36807
L41892 36845
" />
<path d="M36639 44008
L36639 43746
" />
<path d="M36639 43783
L36657 43765
L36695 43746
L36751 43746
L36789 43765
L36807 43802
L36807 44008
" />
<path d="M36807 43802
L36826 43765
L36864 43746
L36920 43746
L36957 43765
L36976 43802
L36976 44008
" />
<path d="M37164 44008
L37164 43615
" />
<path d="M37164 43765
L37201 43746
L37276 43746
L37314 43765
L37332 43783
L37351 43821
L37351 43933
L37332 43971
L37314 43990
L37276 44008
L37201 44008
L37164 43990
" />
<path d="M37520 44008
L37520 43746
" />
<path d="M37520 43821
L37538 43783
L37557 43765
L37595 43746
L37632 43746
" />
<path d="M37745 43652
L37763 43633
L37801 43615
L37895 43615
L37932 43633
L37951 43652
L37970 43690
L37970 43727
L37951 43783
L37726 44008
L37970 44008
" />
<path d="M6607 11701
L6344 11701
" />
<path d="M6382 11701
L6363 11682
L6344 11645
L6344 11589
L6363 11551
L6401 11532
L6607 11532
" />
<path d="M6401 11532
L6363 11514
L6344 11476
L6344 11420
L6363 11383
L6401 11364
L6607 11364
" />
<path d="M6344 11233
L6344 11083
" />
<path d="M6607 11176
L6269 11176
L6232 11158
L6213 11120
L6213 11083
" />
<path d="M6607 10895
L6588 10933
L6550 10951
L6213 10951
" />
<path d="M6607 10539
L6607 10764
" />
<path d="M6607 10651
L6213 10651
L6269 10689
L6307 10726
L6326 10764
" />
<path d="M10558 4772
L10558 4510
" />
<path d="M10558 4547
L10576 4528
L10614 4510
L10670 4510
L10708 4528
L10726 4566
L10726 4772
" />
<path d="M10726 4566
L10745 4528
L10783 4510
L10839 4510
L10876 4528
L10895 4566
L10895 4772
" />
<path d="M11026 4510
L11176 4510
" />
<path d="M11083 4772
L11083 4435
L11101 4397
L11139 4378
L11176 4378
" />
<path d="M11364 4772
L11326 4753
L11308 4716
L11308 4378
" />
<path d="M11495 4416
L11514 4397
L11551 4378
L11645 4378
L11682 4397
L11701 4416
L11720 4453
L11720 4491
L11701 4547
L11476 4772
L11720 4772
" />
<path d="M44008 11720
L43746 11720
" />
<path d="M43783 11720
L43765 11701
L43746 11664
L43746 11607
L43765 11570
L43802 11551
L44008 11551
" />
<path d="M43802 11551
L43765 11532
L43746 11495
L43746 11439
L43765 11401
L43802 11383
L44008 11383
" />
<path d="M43746 11251
L43746 11101
" />
<path d="M44008 11195
L43671 11195
L43633 11176
L43615 11139
L43615 11101
" />
<path d="M44008 10970
L43746 10970
" />
<path d="M43821 10970
L43783 10951
L43765 10933
L43746 10895
L43746 10858
" />
<path d="M44008 10520
L44008 10745
" />
<path d="M44008 10633
L43615 10633
L43671 10670
L43708 10708
L43727 10745
" />
<path d="M36704 6607
L36704 6344
" />
<path d="M36704 6382
L36723 6363
L36760 6344
L36817 6344
L36854 6363
L36873 6401
L36873 6607
" />
<path d="M36873 6401
L36892 6363
L36929 6344
L36985 6344
L37023 6363
L37042 6401
L37042 6607
" />
<path d="M37173 6344
L37323 6344
" />
<path d="M37229 6607
L37229 6269
L37248 6232
L37285 6213
L37323 6213
" />
<path d="M37454 6607
L37454 6344
" />
<path d="M37454 6419
L37473 6382
L37492 6363
L37529 6344
L37567 6344
" />
<path d="M37679 6251
L37698 6232
L37735 6213
L37829 6213
L37867 6232
L37885 6251
L37904 6288
L37904 6326
L37885 6382
L37660 6607
L37904 6607
" />
<path d="M22544 17945
L22544 17552
L22694 17552
L22731 17570
L22750 17589
L22769 17627
L22769 17683
L22750 17720
L22731 17739
L22694 17758
L22544 17758
" />
<path d="M22900 17552
L23143 17552
L23012 17702
L23068 17702
L23106 17720
L23125 17739
L23143 17777
L23143 17870
L23125 17908
L23106 17927
L23068 17945
L22956 17945
L22919 17927
L22900 17908
" />
<path d="M13592 29836
L13592 30230
" />
<path d="M13592 30080
L13554 30099
L13479 30099
L13442 30080
L13423 30061
L13404 30024
L13404 29911
L13423 29874
L13442 29855
L13479 29836
L13554 29836
L13592 29855
" />
<path d="M13779 30099
L13779 29705
" />
<path d="M13779 29855
L13817 29836
L13892 29836
L13929 29855
L13948 29874
L13967 29911
L13967 30024
L13948 30061
L13929 30080
L13892 30099
L13817 30099
L13779 30080
" />
<path d="M14191 30099
L14154 30080
L14135 30043
L14135 29705
" />
<path d="M14548 30099
L14323 30099
" />
<path d="M14435 30099
L14435 29705
L14398 29761
L14360 29799
L14323 29818
" />
<path d="M20762 35226
L21155 35226
" />
<path d="M21005 35226
L21024 35264
L21024 35339
L21005 35376
L20987 35395
L20949 35414
L20837 35414
L20799 35395
L20780 35376
L20762 35339
L20762 35264
L20780 35226
" />
<path d="M21024 35039
L20630 35039
" />
<path d="M20780 35039
L20762 35001
L20762 34926
L20780 34889
L20799 34870
L20837 34851
L20949 34851
L20987 34870
L21005 34889
L21024 34926
L21024 35001
L21005 35039
" />
<path d="M21024 34626
L21005 34664
L20968 34683
L20630 34683
" />
<path d="M20668 34495
L20649 34476
L20630 34439
L20630 34345
L20649 34308
L20668 34289
L20705 34270
L20743 34270
L20799 34289
L21024 34514
L21024 34270
" />
<path d="M34636 28084
L34636 28478
" />
<path d="M34636 28328
L34598 28347
L34523 28347
L34486 28328
L34467 28309
L34448 28272
L34448 28159
L34467 28122
L34486 28103
L34523 28084
L34598 28084
L34636 28103
" />
<path d="M34823 28347
L34823 27953
" />
<path d="M34823 28103
L34861 28084
L34936 28084
L34973 28103
L34992 28122
L35011 28159
L35011 28272
L34992 28309
L34973 28328
L34936 28347
L34861 28347
L34823 28328
" />
<path d="M35179 28347
L35179 28084
" />
<path d="M35179 28159
L35198 28122
L35217 28103
L35254 28084
L35292 28084
" />
<path d="M35629 28347
L35404 28347
" />
<path d="M35517 28347
L35517 27953
L35479 28009
L35442 28047
L35404 28066
" />
<path d="M28832 34851
L29226 34851
" />
<path d="M29076 34851
L29095 34889
L29095 34964
L29076 35001
L29057 35020
L29020 35039
L28907 35039
L28870 35020
L28851 35001
L28832 34964
L28832 34889
L28851 34851
" />
<path d="M29095 34664
L28701 34664
" />
<path d="M28851 34664
L28832 34626
L28832 34551
L28851 34514
L28870 34495
L28907 34476
L29020 34476
L29057 34495
L29076 34514
L29095 34551
L29095 34626
L29076 34664
" />
<path d="M29095 34308
L28832 34308
" />
<path d="M28907 34308
L28870 34289
L28851 34270
L28832 34233
L28832 34195
" />
<path d="M28739 34083
L28720 34064
L28701 34026
L28701 33933
L28720 33895
L28739 33877
L28776 33858
L28814 33858
L28870 33877
L29095 34101
L29095 33858
" />
<path d="M13460 20368
L13460 20762
" />
<path d="M13460 20612
L13423 20630
L13348 20630
L13310 20612
L13292 20593
L13273 20555
L13273 20443
L13292 20405
L13310 20387
L13348 20368
L13423 20368
L13460 20387
" />
<path d="M13592 20368
L13742 20368
" />
<path d="M13648 20630
L13648 20293
L13667 20255
L13704 20237
L13742 20237
" />
<path d="M13929 20630
L13892 20612
L13873 20574
L13873 20237
" />
<path d="M14285 20630
L14060 20630
" />
<path d="M14173 20630
L14173 20237
L14135 20293
L14098 20330
L14060 20349
" />
<path d="M18636 14688
L19029 14688
" />
<path d="M18879 14688
L18898 14726
L18898 14801
L18879 14838
L18861 14857
L18823 14876
L18711 14876
L18673 14857
L18654 14838
L18636 14801
L18636 14726
L18654 14688
" />
<path d="M18636 14557
L18636 14407
" />
<path d="M18898 14501
L18561 14501
L18523 14482
L18504 14445
L18504 14407
" />
<path d="M18898 14220
L18879 14257
L18842 14276
L18504 14276
" />
<path d="M18542 14088
L18523 14070
L18504 14032
L18504 13938
L18523 13901
L18542 13882
L18579 13863
L18617 13863
L18673 13882
L18898 14107
L18898 13863
" />
<path d="M34111 18596
L34111 18990
" />
<path d="M34111 18840
L34073 18859
L33998 18859
L33961 18840
L33942 18821
L33923 18784
L33923 18671
L33942 18634
L33961 18615
L33998 18596
L34073 18596
L34111 18615
" />
<path d="M34242 18596
L34392 18596
" />
<path d="M34298 18859
L34298 18521
L34317 18484
L34355 18465
L34392 18465
" />
<path d="M34523 18859
L34523 18596
" />
<path d="M34523 18671
L34542 18634
L34561 18615
L34598 18596
L34636 18596
" />
<path d="M34973 18859
L34748 18859
" />
<path d="M34861 18859
L34861 18465
L34823 18521
L34786 18559
L34748 18577
" />
<path d="M28262 13920
L28655 13920
" />
<path d="M28505 13920
L28524 13957
L28524 14032
L28505 14070
L28487 14088
L28449 14107
L28337 14107
L28299 14088
L28280 14070
L28262 14032
L28262 13957
L28280 13920
" />
<path d="M28262 13788
L28262 13638
" />
<path d="M28524 13732
L28187 13732
L28149 13713
L28130 13676
L28130 13638
" />
<path d="M28524 13507
L28262 13507
" />
<path d="M28337 13507
L28299 13488
L28280 13470
L28262 13432
L28262 13395
" />
<path d="M28168 13282
L28149 13263
L28130 13226
L28130 13132
L28149 13095
L28168 13076
L28205 13057
L28243 13057
L28299 13076
L28524 13301
L28524 13057
" />
<path d="M20181 28189
L20181 27927
" />
<path d="M20181 28002
L20200 27964
L20219 27946
L20256 27927
L20294 27927
" />
<path d="M20631 28189
L20406 28189
" />
<path d="M20519 28189
L20519 27796
L20481 27852
L20444 27889
L20406 27908
" />
<path d="M20800 28189
L20800 27796
" />
<path d="M20800 27946
L20838 27927
L20913 27927
L20950 27946
L20969 27964
L20988 28002
L20988 28114
L20969 28152
L20950 28171
L20913 28189
L20838 28189
L20800 28171
" />
<path d="M21212 28189
L21175 28171
L21156 28133
L21156 27796
" />
<path d="M21569 28189
L21344 28189
" />
<path d="M21456 28189
L21456 27796
L21419 27852
L21381 27889
L21344 27908
" />
<path d="M26221 30802
L25958 30802
" />
<path d="M26033 30802
L25996 30783
L25977 30764
L25958 30727
L25958 30689
" />
<path d="M26221 30352
L26221 30577
" />
<path d="M26221 30464
L25827 30464
L25883 30502
L25921 30539
L25940 30577
" />
<path d="M26221 30183
L25827 30183
" />
<path d="M25977 30183
L25958 30146
L25958 30071
L25977 30033
L25996 30014
L26033 29996
L26146 29996
L26183 30014
L26202 30033
L26221 30071
L26221 30146
L26202 30183
" />
<path d="M26221 29771
L26202 29808
L26165 29827
L25827 29827
" />
<path d="M25865 29640
L25846 29621
L25827 29583
L25827 29490
L25846 29452
L25865 29433
L25902 29415
L25940 29415
L25996 29433
L26221 29658
L26221 29415
" />
<path d="M29371 30821
L29108 30821
" />
<path d="M29183 30821
L29146 30802
L29127 30783
L29108 30746
L29108 30708
" />
<path d="M29371 30371
L29371 30596
" />
<path d="M29371 30483
L28977 30483
L29033 30521
L29071 30558
L29089 30596
" />
<path d="M29371 30202
L28977 30202
" />
<path d="M29127 30202
L29108 30164
L29108 30089
L29127 30052
L29146 30033
L29183 30014
L29296 30014
L29333 30033
L29352 30052
L29371 30089
L29371 30164
L29352 30202
" />
<path d="M29371 29846
L29108 29846
" />
<path d="M29183 29846
L29146 29827
L29127 29808
L29108 29771
L29108 29733
" />
<path d="M29371 29396
L29371 29621
" />
<path d="M29371 29508
L28977 29508
L29033 29546
L29071 29583
L29089 29621
" />
<path d="M27796 30821
L27533 30821
" />
<path d="M27608 30821
L27571 30802
L27552 30783
L27533 30746
L27533 30708
" />
<path d="M27796 30371
L27796 30596
" />
<path d="M27796 30483
L27402 30483
L27458 30521
L27496 30558
L27514 30596
" />
<path d="M27796 30202
L27402 30202
" />
<path d="M27552 30202
L27533 30164
L27533 30089
L27552 30052
L27571 30033
L27608 30014
L27721 30014
L27758 30033
L27777 30052
L27796 30089
L27796 30164
L27777 30202
" />
<path d="M27796 29846
L27533 29846
" />
<path d="M27608 29846
L27571 29827
L27552 29808
L27533 29771
L27533 29733
" />
<path d="M27440 29621
L27421 29602
L27402 29565
L27402 29471
L27421 29433
L27440 29415
L27477 29396
L27514 29396
L27571 29415
L27796 29640
L27796 29396
" />
<path d="M18278 18937
L18278 18675
" />
<path d="M18278 18750
L18297 18712
L18316 18694
L18353 18675
L18391 18675
" />
<path d="M18728 18937
L18503 18937
" />
<path d="M18616 18937
L18616 18544
L18578 18600
L18541 18637
L18503 18656
" />
<path d="M18841 18675
L18991 18675
" />
<path d="M18897 18937
L18897 18600
L18916 18562
L18953 18544
L18991 18544
" />
<path d="M19178 18937
L19141 18919
L19122 18881
L19122 18544
" />
<path d="M19535 18937
L19310 18937
" />
<path d="M19422 18937
L19422 18544
L19385 18600
L19347 18637
L19310 18656
" />
<path d="M18278 16969
L18278 16706
" />
<path d="M18278 16781
L18297 16744
L18316 16725
L18353 16706
L18391 16706
" />
<path d="M18728 16969
L18503 16969
" />
<path d="M18616 16969
L18616 16575
L18578 16631
L18541 16669
L18503 16688
" />
<path d="M18841 16706
L18991 16706
" />
<path d="M18897 16969
L18897 16631
L18916 16594
L18953 16575
L18991 16575
" />
<path d="M19178 16969
L19141 16950
L19122 16913
L19122 16575
" />
<path d="M19310 16613
L19328 16594
L19366 16575
L19460 16575
L19497 16594
L19516 16613
L19535 16650
L19535 16688
L19516 16744
L19291 16969
L19535 16969
" />
<path d="M30827 19535
L30565 19535
" />
<path d="M30640 19535
L30602 19516
L30583 19497
L30565 19460
L30565 19422
" />
<path d="M30827 19085
L30827 19310
" />
<path d="M30827 19197
L30434 19197
L30490 19235
L30527 19272
L30546 19310
" />
<path d="M30565 18972
L30565 18822
" />
<path d="M30827 18916
L30490 18916
L30452 18897
L30434 18860
L30434 18822
" />
<path d="M30827 18691
L30565 18691
" />
<path d="M30640 18691
L30602 18672
L30583 18653
L30565 18616
L30565 18578
" />
<path d="M30827 18241
L30827 18466
" />
<path d="M30827 18353
L30434 18353
L30490 18391
L30527 18428
L30546 18466
" />
<path d="M27481 15991
L27218 15991
" />
<path d="M27293 15991
L27256 15973
L27237 15954
L27218 15916
L27218 15879
" />
<path d="M27481 15541
L27481 15766
" />
<path d="M27481 15654
L27087 15654
L27143 15691
L27181 15729
L27200 15766
" />
<path d="M27218 15429
L27218 15279
" />
<path d="M27481 15373
L27143 15373
L27106 15354
L27087 15316
L27087 15279
" />
<path d="M27481 15148
L27218 15148
" />
<path d="M27293 15148
L27256 15129
L27237 15110
L27218 15073
L27218 15035
" />
<path d="M27125 14923
L27106 14904
L27087 14866
L27087 14773
L27106 14735
L27125 14716
L27162 14698
L27200 14698
L27256 14716
L27481 14941
L27481 14698
" />
<path d="M16772 29621
L16510 29621
" />
<path d="M16585 29621
L16547 29602
L16528 29583
L16510 29546
L16510 29508
" />
<path d="M16416 29396
L16397 29377
L16378 29340
L16378 29246
L16397 29208
L16416 29190
L16453 29171
L16491 29171
L16547 29190
L16772 29415
L16772 29171
" />
<path d="M16772 29002
L16378 29002
" />
<path d="M16528 29002
L16510 28965
L16510 28890
L16528 28852
L16547 28833
L16585 28815
L16697 28815
L16735 28833
L16753 28852
L16772 28890
L16772 28965
L16753 29002
" />
<path d="M16772 28590
L16753 28627
L16716 28646
L16378 28646
" />
<path d="M16772 28233
L16772 28458
" />
<path d="M16772 28346
L16378 28346
L16435 28383
L16472 28421
L16491 28458
" />
<path d="M19591 33386
L19591 33124
" />
<path d="M19591 33199
L19610 33161
L19628 33143
L19666 33124
L19703 33124
" />
<path d="M19816 33030
L19835 33011
L19872 32993
L19966 32993
L20003 33011
L20022 33030
L20041 33068
L20041 33105
L20022 33161
L19797 33386
L20041 33386
" />
<path d="M20209 33386
L20209 32993
" />
<path d="M20209 33143
L20247 33124
L20322 33124
L20359 33143
L20378 33161
L20397 33199
L20397 33311
L20378 33349
L20359 33368
L20322 33386
L20247 33386
L20209 33368
" />
<path d="M20622 33386
L20584 33368
L20566 33330
L20566 32993
" />
<path d="M20753 33030
L20772 33011
L20809 32993
L20903 32993
L20941 33011
L20959 33030
L20978 33068
L20978 33105
L20959 33161
L20734 33386
L20978 33386
" />
<path d="M33583 30230
L33321 30230
" />
<path d="M33396 30230
L33358 30211
L33339 30193
L33321 30155
L33321 30118
" />
<path d="M33227 30005
L33208 29986
L33189 29949
L33189 29855
L33208 29818
L33227 29799
L33264 29780
L33302 29780
L33358 29799
L33583 30024
L33583 29780
" />
<path d="M33583 29611
L33189 29611
" />
<path d="M33339 29611
L33321 29574
L33321 29499
L33339 29461
L33358 29443
L33396 29424
L33508 29424
L33546 29443
L33564 29461
L33583 29499
L33583 29574
L33564 29611
" />
<path d="M33583 29255
L33321 29255
" />
<path d="M33396 29255
L33358 29236
L33339 29218
L33321 29180
L33321 29143
" />
<path d="M33583 28805
L33583 29030
" />
<path d="M33583 28918
L33189 28918
L33246 28955
L33283 28993
L33302 29030
" />
<path d="M26856 33386
L26856 33124
" />
<path d="M26856 33199
L26874 33161
L26893 33143
L26931 33124
L26968 33124
" />
<path d="M27080 33030
L27099 33011
L27137 32993
L27230 32993
L27268 33011
L27287 33030
L27305 33068
L27305 33105
L27287 33161
L27062 33386
L27305 33386
" />
<path d="M27474 33386
L27474 32993
" />
<path d="M27474 33143
L27512 33124
L27587 33124
L27624 33143
L27643 33161
L27662 33199
L27662 33311
L27643 33349
L27624 33368
L27587 33386
L27512 33386
L27474 33368
" />
<path d="M27830 33386
L27830 33124
" />
<path d="M27830 33199
L27849 33161
L27868 33143
L27905 33124
L27943 33124
" />
<path d="M28055 33030
L28074 33011
L28112 32993
L28205 32993
L28243 33011
L28262 33030
L28280 33068
L28280 33105
L28262 33161
L28037 33386
L28280 33386
" />
<path d="M15788 19910
L15525 19910
" />
<path d="M15600 19910
L15563 19891
L15544 19872
L15525 19835
L15525 19797
" />
<path d="M15432 19685
L15413 19666
L15394 19628
L15394 19535
L15413 19497
L15432 19478
L15469 19460
L15507 19460
L15563 19478
L15788 19703
L15788 19460
" />
<path d="M15525 19347
L15525 19197
" />
<path d="M15788 19291
L15450 19291
L15413 19272
L15394 19235
L15394 19197
" />
<path d="M15788 19010
L15769 19047
L15732 19066
L15394 19066
" />
<path d="M15788 18653
L15788 18878
" />
<path d="M15788 18766
L15394 18766
L15450 18803
L15488 18841
L15507 18878
" />
<path d="M18278 15591
L18278 15329
" />
<path d="M18278 15404
L18297 15366
L18316 15347
L18353 15329
L18391 15329
" />
<path d="M18503 15235
L18522 15216
L18560 15197
L18653 15197
L18691 15216
L18710 15235
L18728 15272
L18728 15310
L18710 15366
L18485 15591
L18728 15591
" />
<path d="M18841 15329
L18991 15329
" />
<path d="M18897 15591
L18897 15254
L18916 15216
L18953 15197
L18991 15197
" />
<path d="M19178 15591
L19141 15572
L19122 15535
L19122 15197
" />
<path d="M19310 15235
L19328 15216
L19366 15197
L19460 15197
L19497 15216
L19516 15235
L19535 15272
L19535 15310
L19516 15366
L19291 15591
L19535 15591
" />
<path d="M32796 19535
L32533 19535
" />
<path d="M32608 19535
L32571 19516
L32552 19497
L32533 19460
L32533 19422
" />
<path d="M32440 19310
L32421 19291
L32402 19253
L32402 19160
L32421 19122
L32440 19103
L32477 19085
L32514 19085
L32571 19103
L32796 19328
L32796 19085
" />
<path d="M32533 18972
L32533 18822
" />
<path d="M32796 18916
L32458 18916
L32421 18897
L32402 18860
L32402 18822
" />
<path d="M32796 18691
L32533 18691
" />
<path d="M32608 18691
L32571 18672
L32552 18653
L32533 18616
L32533 18578
" />
<path d="M32796 18241
L32796 18466
" />
<path d="M32796 18353
L32402 18353
L32458 18391
L32496 18428
L32514 18466
" />
<path d="M29283 15197
L29283 14935
" />
<path d="M29283 15010
L29302 14972
L29321 14954
L29358 14935
L29396 14935
" />
<path d="M29508 14841
L29527 14822
L29565 14804
L29658 14804
L29696 14822
L29715 14841
L29733 14879
L29733 14916
L29715 14972
L29490 15197
L29733 15197
" />
<path d="M29846 14935
L29996 14935
" />
<path d="M29902 15197
L29902 14860
L29921 14822
L29958 14804
L29996 14804
" />
<path d="M30127 15197
L30127 14935
" />
<path d="M30127 15010
L30146 14972
L30164 14954
L30202 14935
L30239 14935
" />
<path d="M30352 14841
L30371 14822
L30408 14804
L30502 14804
L30539 14822
L30558 14841
L30577 14879
L30577 14916
L30558 14972
L30333 15197
L30577 15197
" />
<path d="M14221 22337
L13827 22337
L13827 22187
L13846 22150
L13865 22131
L13902 22112
L13958 22112
L13996 22131
L14015 22150
L14033 22187
L14033 22337
" />
<path d="M14221 21737
L14221 21962
" />
<path d="M14221 21850
L13827 21850
L13883 21887
L13921 21925
L13940 21962
" />
</g>
<g style="fill:#008484; fill-opacity:0.0; 
stroke:#008484; stroke-width:59.0551; stroke-opacity:1; 
stroke-linecap:round; stroke-linejoin:round;">
</g>
<g style="fill:#008484; fill-opacity:0.0; 
stroke:#008484; stroke-width:47.2441; stroke-opacity:1; 
stroke-linecap:round; stroke-linejoin:round;">
<path d="M14173 31110
L13385 31110
" />
<path d="M13385 32275
L14173 32275
" />
<path d="M16299 34251
L16299 35039
" />
<path d="M17464 35039
L17464 34251
" />
<path d="M34251 32051
L35039 32051
" />
<path d="M35039 30885
L34251 30885
" />
<path d="M30913 34251
L30913 35039
" />
<path d="M32078 35039
L32078 34251
" />
<path d="M14173 16346
L13385 16346
" />
<path d="M13385 17511
L14173 17511
" />
<path d="M17511 14173
L17511 13385
" />
<path d="M16346 13385
L16346 14173
" />
<path d="M34251 17511
L35039 17511
" />
<path d="M35039 16346
L34251 16346
" />
<path d="M32472 14173
L32472 13385
" />
<path d="M31307 13385
L31307 14173
" />
<path d="M13385 32834
L12598 32834
" />
<path d="M12598 32834
L12598 34350
" />
<path d="M13385 32834
L13385 34350
" />
<path d="M15787 35826
L15787 35039
" />
<path d="M15787 35039
L14271 35039
" />
<path d="M15787 35826
L14271 35826
" />
<path d="M35826 32559
L35039 32559
" />
<path d="M35039 32559
L35039 34074
" />
<path d="M35826 32559
L35826 34074
" />
<path d="M32834 35039
L32834 35826
" />
<path d="M32834 35826
L34350 35826
" />
<path d="M32834 35039
L34350 35039
" />
<path d="M12598 15826
L13385 15826
" />
<path d="M13385 15826
L13385 14311
" />
<path d="M12598 15826
L12598 14311
" />
<path d="M15826 13385
L15826 12598
" />
<path d="M15826 12598
L14311 12598
" />
<path d="M15826 13385
L14311 13385
" />
<path d="M35039 15590
L35826 15590
" />
<path d="M35826 15590
L35826 14074
" />
<path d="M35039 15590
L35039 14074
" />
<path d="M32834 12598
L32834 13385
" />
<path d="M32834 13385
L34350 13385
" />
<path d="M32834 12598
L34350 12598
" />
</g>
<g style="fill:#008484; fill-opacity:0.0; 
stroke:#008484; stroke-width:59.0551; stroke-opacity:1; 
stroke-linecap:round; stroke-linejoin:round;">
<path d="M21744 16444
L21744 13444
" />
<path d="M21744 13444
L22744 13444
" />
<path d="M22744 13444
L22744 16444
" />
<path d="M22744 16444
L21744 16444
" />
</g>
<g style="fill:#008484; fill-opacity:0.0; 
stroke:#008484; stroke-width:47.2441; stroke-opacity:1; 
stroke-linecap:round; stroke-linejoin:round;">
<path d="M6011 38318
L6035 38318
" />
<path d="M6035 38318
L6035 36271
" />
<path d="M6035 36271
L4988 36271
" />
<path d="M4988 36271
L4988 37295
" />
<path d="M4988 37295
L6011 37295
" />
<path d="M6011 37295
L6011 38318
" />
<path d="M5511 38318
L4988 38318
" />
<path d="M4988 38318
L4988 37795
" />
<path d="M10106 43413
L10106 43437
" />
<path d="M10106 43437
L12153 43437
" />
<path d="M12153 43437
L12153 42389
" />
<path d="M12153 42389
L11129 42389
" />
<path d="M11129 42389
L11129 43413
" />
<path d="M11129 43413
L10106 43413
" />
<path d="M10106 42913
L10106 42389
" />
<path d="M10106 42389
L10629 42389
" />
<path d="M43413 38318
L43437 38318
" />
<path d="M43437 38318
L43437 36271
" />
<path d="M43437 36271
L42389 36271
" />
<path d="M42389 36271
L42389 37295
" />
<path d="M42389 37295
L43413 37295
" />
<path d="M43413 37295
L43413 38318
" />
<path d="M42913 38318
L42389 38318
" />
<path d="M42389 38318
L42389 37795
" />
<path d="M38318 42413
L38318 42389
" />
<path d="M38318 42389
L36271 42389
" />
<path d="M36271 42389
L36271 43437
" />
<path d="M36271 43437
L37295 43437
" />
<path d="M37295 43437
L37295 42413
" />
<path d="M37295 42413
L38318 42413
" />
<path d="M38318 42913
L38318 43437
" />
<path d="M38318 43437
L37795 43437
" />
<path d="M5011 10106
L4988 10106
" />
<path d="M4988 10106
L4988 12153
" />
<path d="M4988 12153
L6035 12153
" />
<path d="M6035 12153
L6035 11129
" />
<path d="M6035 11129
L5011 11129
" />
<path d="M5011 11129
L5011 10106
" />
<path d="M5511 10106
L6035 10106
" />
<path d="M6035 10106
L6035 10629
" />
<path d="M10106 6011
L10106 6035
" />
<path d="M10106 6035
L12153 6035
" />
<path d="M12153 6035
L12153 4988
" />
<path d="M12153 4988
L11129 4988
" />
<path d="M11129 4988
L11129 6011
" />
<path d="M11129 6011
L10106 6011
" />
<path d="M10106 5511
L10106 4988
" />
<path d="M10106 4988
L10629 4988
" />
<path d="M42413 10106
L42389 10106
" />
<path d="M42389 10106
L42389 12153
" />
<path d="M42389 12153
L43437 12153
" />
<path d="M43437 12153
L43437 11129
" />
<path d="M43437 11129
L42413 11129
" />
<path d="M42413 11129
L42413 10106
" />
<path d="M42913 10106
L43437 10106
" />
<path d="M43437 10106
L43437 10629
" />
<path d="M38318 5011
L38318 4988
" />
<path d="M38318 4988
L36271 4988
" />
<path d="M36271 4988
L36271 6035
" />
<path d="M36271 6035
L37295 6035
" />
<path d="M37295 6035
L37295 5011
" />
<path d="M37295 5011
L38318 5011
" />
<path d="M38318 5511
L38318 6035
" />
<path d="M38318 6035
L37795 6035
" />
<path d="M22311 19185
L22311 20208
" />
<path d="M22311 20208
L23358 20208
" />
<path d="M23358 20208
L23358 19185
" />
<path d="M23358 19185
L22311 19185
" />
<path d="M22311 18685
L22311 18161
" />
<path d="M22311 18161
L22834 18161
" />
<path d="M13677 28314
L13677 28681
" />
<path d="M13677 29559
L13677 29192
" />
<path d="M13677 29559
L14921 29559
" />
<path d="M13677 28314
L14251 28314
" />
<path d="M19240 35141
L19606 35141
" />
<path d="M20484 35141
L20118 35141
" />
<path d="M20484 35141
L20484 33897
" />
<path d="M19240 35141
L19240 34566
" />
<path d="M35338 29775
L35338 29409
" />
<path d="M35338 28531
L35338 28897
" />
<path d="M35338 28531
L34094 28531
" />
<path d="M35338 29775
L34763 29775
" />
<path d="M27311 34748
L27677 34748
" />
<path d="M28555 34748
L28188 34748
" />
<path d="M28555 34748
L28555 33503
" />
<path d="M27311 34748
L27311 34173
" />
<path d="M13480 18846
L13480 19212
" />
<path d="M13480 20090
L13480 19724
" />
<path d="M13480 20090
L14724 20090
" />
<path d="M13480 18846
L14055 18846
" />
<path d="M20326 14070
L19960 14070
" />
<path d="M19082 14070
L19448 14070
" />
<path d="M19082 14070
L19082 15314
" />
<path d="M20326 14070
L20326 14645
" />
<path d="M34748 20287
L34748 19921
" />
<path d="M34748 19043
L34748 19409
" />
<path d="M34748 19043
L33503 19043
" />
<path d="M34748 20287
L34173 20287
" />
<path d="M29952 13283
L29586 13283
" />
<path d="M28708 13283
L29074 13283
" />
<path d="M28708 13283
L28708 14527
" />
<path d="M29952 13283
L29952 13858
" />
<path d="M21259 29161
L20472 29161
" />
<path d="M20472 28318
L21259 28318
" />
<path d="M27192 29724
L27192 30511
" />
<path d="M26350 30511
L26350 29724
" />
<path d="M30342 29724
L30342 30511
" />
<path d="M29500 30511
L29500 29724
" />
<path d="M28767 29724
L28767 30511
" />
<path d="M27925 30511
L27925 29724
" />
<path d="M19291 19909
L18503 19909
" />
<path d="M18503 19066
L19291 19066
" />
<path d="M19291 17940
L18503 17940
" />
<path d="M18503 17098
L19291 17098
" />
<path d="M29500 19291
L29500 18503
" />
<path d="M30342 18503
L30342 19291
" />
<path d="M26153 15748
L26153 14960
" />
<path d="M26996 14960
L26996 15748
" />
<path d="M17744 28543
L17744 29330
" />
<path d="M16901 29330
L16901 28543
" />
<path d="M19881 32059
L20669 32059
" />
<path d="M20669 32901
L19881 32901
" />
<path d="M32255 29921
L32255 29133
" />
<path d="M33098 29133
L33098 29921
" />
<path d="M27165 32059
L27952 32059
" />
<path d="M27952 32901
L27165 32901
" />
<path d="M16759 18897
L16759 19685
" />
<path d="M15917 19685
L15917 18897
" />
<path d="M19291 16562
L18503 16562
" />
<path d="M18503 15720
L19291 15720
" />
<path d="M31468 19291
L31468 18503
" />
<path d="M32311 18503
L32311 19291
" />
<path d="M30314 16169
L29527 16169
" />
<path d="M29527 15326
L30314 15326
" />
<path d="M15460 22570
L18484 22570
" />
<path d="M18484 22570
L18484 21523
" />
<path d="M18484 21523
L15460 21523
" />
<path d="M15460 21523
L15460 22570
" />
<path d="M14960 22570
L14437 22570
" />
<path d="M14437 22570
L14437 22047
" />
</g> 
</svg>
