<?xml version="1.0" standalone="no"?>
 <!DOCTYPE svg PUBLIC "-//W3C//DTD SVG 1.1//EN" 
 "http://www.w3.org/Graphics/SVG/1.1/DTD/svg11.dtd"> 
<svg xmlns="http://www.w3.org/2000/svg" version="1.1" 
    width="29.7002cm" height="21.0007cm" viewBox="0 0 116930 82680 ">
<title>SVG Picture created as flypi_print-F.Mask.svg date 2017/09/21 21:37:15 </title>
  <desc>Picture generated by PCBNEW </desc>
<g style="fill:#000000; fill-opacity:1;stroke:#000000; stroke-opacity:1;
stroke-linecap:round; stroke-linejoin:round; "
 transform="translate(0 0) scale(1 1)">
</g>
<g style="fill:#000000; fill-opacity:0.0; 
stroke:#000000; stroke-width:-0.000393701; stroke-opacity:1; 
stroke-linecap:round; stroke-linejoin:round;">
</g>
<g style="fill:#000000; fill-opacity:0.0; 
stroke:#000000; stroke-width:39.3701; stroke-opacity:1; 
stroke-linecap:round; stroke-linejoin:round;">
</g>
<g style="fill:#000000; fill-opacity:0.0; 
stroke:#000000; stroke-width:59.0551; stroke-opacity:1; 
stroke-linecap:round; stroke-linejoin:round;">
<rect x="69685.9" y="65357.2" width="42519.7" height="12598.4" rx="0" />
</g>
<g style="fill:#000000; fill-opacity:0.0; 
stroke:#000000; stroke-width:39.3701; stroke-opacity:1; 
stroke-linecap:round; stroke-linejoin:round;">
</g>
<g style="fill:#000000; fill-opacity:0.0; 
stroke:#000000; stroke-width:59.0551; stroke-opacity:1; 
stroke-linecap:round; stroke-linejoin:round;">
<rect x="3937.01" y="3937.01" width="109056" height="74806" rx="0" />
</g>
<g style="fill:#000000; fill-opacity:0.0; 
stroke:#000000; stroke-width:39.3701; stroke-opacity:1; 
stroke-linecap:round; stroke-linejoin:round;">
</g>
<g style="fill:#000000; fill-opacity:0.0; 
stroke:#000000; stroke-width:59.0551; stroke-opacity:1; 
stroke-linecap:round; stroke-linejoin:round;">
<rect x="4724.41" y="4724.41" width="107481" height="73231.2" rx="0" />
</g>
<g style="fill:#000000; fill-opacity:0.0; 
stroke:#000000; stroke-width:39.3701; stroke-opacity:1; 
stroke-linecap:round; stroke-linejoin:round;">
</g>
<g style="fill:#000000; fill-opacity:0.0; 
stroke:#000000; stroke-width:59.0551; stroke-opacity:1; 
stroke-linecap:round; stroke-linejoin:round;">
<path d="M23622 4724
L23622 3937
" />
</g>
<g style="fill:#000000; fill-opacity:0.0; 
stroke:#000000; stroke-width:39.3701; stroke-opacity:1; 
stroke-linecap:round; stroke-linejoin:round;">
</g>
<g style="fill:#000000; fill-opacity:0.0; 
stroke:#000000; stroke-width:59.0551; stroke-opacity:1; 
stroke-linecap:round; stroke-linejoin:round;">
<path d="M43307 4724
L43307 3937
" />
</g>
<g style="fill:#000000; fill-opacity:0.0; 
stroke:#000000; stroke-width:39.3701; stroke-opacity:1; 
stroke-linecap:round; stroke-linejoin:round;">
</g>
<g style="fill:#000000; fill-opacity:0.0; 
stroke:#000000; stroke-width:59.0551; stroke-opacity:1; 
stroke-linecap:round; stroke-linejoin:round;">
<path d="M62992 4724
L62992 3937
" />
</g>
<g style="fill:#000000; fill-opacity:0.0; 
stroke:#000000; stroke-width:39.3701; stroke-opacity:1; 
stroke-linecap:round; stroke-linejoin:round;">
</g>
<g style="fill:#000000; fill-opacity:0.0; 
stroke:#000000; stroke-width:59.0551; stroke-opacity:1; 
stroke-linecap:round; stroke-linejoin:round;">
<path d="M82677 4724
L82677 3937
" />
</g>
<g style="fill:#000000; fill-opacity:0.0; 
stroke:#000000; stroke-width:39.3701; stroke-opacity:1; 
stroke-linecap:round; stroke-linejoin:round;">
</g>
<g style="fill:#000000; fill-opacity:0.0; 
stroke:#000000; stroke-width:59.0551; stroke-opacity:1; 
stroke-linecap:round; stroke-linejoin:round;">
<path d="M102362 4724
L102362 3937
" />
</g>
<g style="fill:#000000; fill-opacity:0.0; 
stroke:#000000; stroke-width:39.3701; stroke-opacity:1; 
stroke-linecap:round; stroke-linejoin:round;">
</g>
<g style="fill:#000000; fill-opacity:0.0; 
stroke:#000000; stroke-width:59.0551; stroke-opacity:1; 
stroke-linecap:round; stroke-linejoin:round;">
<path d="M14169 4562
L13877 4562
" />
<path d="M14023 4562
L14023 4050
L13974 4123
L13925 4172
L13877 4196
" />
</g>
<g style="fill:#000000; fill-opacity:0.0; 
stroke:#000000; stroke-width:39.3701; stroke-opacity:1; 
stroke-linecap:round; stroke-linejoin:round;">
</g>
<g style="fill:#000000; fill-opacity:0.0; 
stroke:#000000; stroke-width:59.0551; stroke-opacity:1; 
stroke-linecap:round; stroke-linejoin:round;">
<path d="M33562 4099
L33586 4074
L33635 4050
L33757 4050
L33805 4074
L33830 4099
L33854 4147
L33854 4196
L33830 4269
L33537 4562
L33854 4562
" />
</g>
<g style="fill:#000000; fill-opacity:0.0; 
stroke:#000000; stroke-width:39.3701; stroke-opacity:1; 
stroke-linecap:round; stroke-linejoin:round;">
</g>
<g style="fill:#000000; fill-opacity:0.0; 
stroke:#000000; stroke-width:59.0551; stroke-opacity:1; 
stroke-linecap:round; stroke-linejoin:round;">
<path d="M53222 4050
L53539 4050
L53368 4245
L53442 4245
L53490 4269
L53515 4294
L53539 4342
L53539 4464
L53515 4513
L53490 4537
L53442 4562
L53295 4562
L53247 4537
L53222 4513
" />
</g>
<g style="fill:#000000; fill-opacity:0.0; 
stroke:#000000; stroke-width:39.3701; stroke-opacity:1; 
stroke-linecap:round; stroke-linejoin:round;">
</g>
<g style="fill:#000000; fill-opacity:0.0; 
stroke:#000000; stroke-width:59.0551; stroke-opacity:1; 
stroke-linecap:round; stroke-linejoin:round;">
<path d="M73175 4221
L73175 4562
" />
<path d="M73053 4026
L72932 4391
L73248 4391
" />
</g>
<g style="fill:#000000; fill-opacity:0.0; 
stroke:#000000; stroke-width:39.3701; stroke-opacity:1; 
stroke-linecap:round; stroke-linejoin:round;">
</g>
<g style="fill:#000000; fill-opacity:0.0; 
stroke:#000000; stroke-width:59.0551; stroke-opacity:1; 
stroke-linecap:round; stroke-linejoin:round;">
<path d="M92885 4050
L92641 4050
L92617 4294
L92641 4269
L92690 4245
L92812 4245
L92860 4269
L92885 4294
L92909 4342
L92909 4464
L92885 4513
L92860 4537
L92812 4562
L92690 4562
L92641 4537
L92617 4513
" />
</g>
<g style="fill:#000000; fill-opacity:0.0; 
stroke:#000000; stroke-width:39.3701; stroke-opacity:1; 
stroke-linecap:round; stroke-linejoin:round;">
</g>
<g style="fill:#000000; fill-opacity:0.0; 
stroke:#000000; stroke-width:59.0551; stroke-opacity:1; 
stroke-linecap:round; stroke-linejoin:round;">
<path d="M112545 4050
L112448 4050
L112399 4074
L112375 4099
L112326 4172
L112302 4269
L112302 4464
L112326 4513
L112350 4537
L112399 4562
L112497 4562
L112545 4537
L112570 4513
L112594 4464
L112594 4342
L112570 4294
L112545 4269
L112497 4245
L112399 4245
L112350 4269
L112326 4294
L112302 4342
" />
</g>
<g style="fill:#000000; fill-opacity:0.0; 
stroke:#000000; stroke-width:39.3701; stroke-opacity:1; 
stroke-linecap:round; stroke-linejoin:round;">
</g>
<g style="fill:#000000; fill-opacity:0.0; 
stroke:#000000; stroke-width:59.0551; stroke-opacity:1; 
stroke-linecap:round; stroke-linejoin:round;">
<path d="M23622 77955
L23622 78742
" />
</g>
<g style="fill:#000000; fill-opacity:0.0; 
stroke:#000000; stroke-width:39.3701; stroke-opacity:1; 
stroke-linecap:round; stroke-linejoin:round;">
</g>
<g style="fill:#000000; fill-opacity:0.0; 
stroke:#000000; stroke-width:59.0551; stroke-opacity:1; 
stroke-linecap:round; stroke-linejoin:round;">
<path d="M43307 77955
L43307 78742
" />
</g>
<g style="fill:#000000; fill-opacity:0.0; 
stroke:#000000; stroke-width:39.3701; stroke-opacity:1; 
stroke-linecap:round; stroke-linejoin:round;">
</g>
<g style="fill:#000000; fill-opacity:0.0; 
stroke:#000000; stroke-width:59.0551; stroke-opacity:1; 
stroke-linecap:round; stroke-linejoin:round;">
<path d="M62992 77955
L62992 78742
" />
</g>
<g style="fill:#000000; fill-opacity:0.0; 
stroke:#000000; stroke-width:39.3701; stroke-opacity:1; 
stroke-linecap:round; stroke-linejoin:round;">
</g>
<g style="fill:#000000; fill-opacity:0.0; 
stroke:#000000; stroke-width:59.0551; stroke-opacity:1; 
stroke-linecap:round; stroke-linejoin:round;">
<path d="M82677 77955
L82677 78742
" />
</g>
<g style="fill:#000000; fill-opacity:0.0; 
stroke:#000000; stroke-width:39.3701; stroke-opacity:1; 
stroke-linecap:round; stroke-linejoin:round;">
</g>
<g style="fill:#000000; fill-opacity:0.0; 
stroke:#000000; stroke-width:59.0551; stroke-opacity:1; 
stroke-linecap:round; stroke-linejoin:round;">
<path d="M102362 77955
L102362 78742
" />
</g>
<g style="fill:#000000; fill-opacity:0.0; 
stroke:#000000; stroke-width:39.3701; stroke-opacity:1; 
stroke-linecap:round; stroke-linejoin:round;">
</g>
<g style="fill:#000000; fill-opacity:0.0; 
stroke:#000000; stroke-width:59.0551; stroke-opacity:1; 
stroke-linecap:round; stroke-linejoin:round;">
<path d="M14169 78580
L13877 78580
" />
<path d="M14023 78580
L14023 78069
L13974 78142
L13925 78190
L13877 78215
" />
</g>
<g style="fill:#000000; fill-opacity:0.0; 
stroke:#000000; stroke-width:39.3701; stroke-opacity:1; 
stroke-linecap:round; stroke-linejoin:round;">
</g>
<g style="fill:#000000; fill-opacity:0.0; 
stroke:#000000; stroke-width:59.0551; stroke-opacity:1; 
stroke-linecap:round; stroke-linejoin:round;">
<path d="M33562 78117
L33586 78093
L33635 78069
L33757 78069
L33805 78093
L33830 78117
L33854 78166
L33854 78215
L33830 78288
L33537 78580
L33854 78580
" />
</g>
<g style="fill:#000000; fill-opacity:0.0; 
stroke:#000000; stroke-width:39.3701; stroke-opacity:1; 
stroke-linecap:round; stroke-linejoin:round;">
</g>
<g style="fill:#000000; fill-opacity:0.0; 
stroke:#000000; stroke-width:59.0551; stroke-opacity:1; 
stroke-linecap:round; stroke-linejoin:round;">
<path d="M53222 78069
L53539 78069
L53368 78263
L53442 78263
L53490 78288
L53515 78312
L53539 78361
L53539 78483
L53515 78532
L53490 78556
L53442 78580
L53295 78580
L53247 78556
L53222 78532
" />
</g>
<g style="fill:#000000; fill-opacity:0.0; 
stroke:#000000; stroke-width:39.3701; stroke-opacity:1; 
stroke-linecap:round; stroke-linejoin:round;">
</g>
<g style="fill:#000000; fill-opacity:0.0; 
stroke:#000000; stroke-width:59.0551; stroke-opacity:1; 
stroke-linecap:round; stroke-linejoin:round;">
<path d="M73175 78239
L73175 78580
" />
<path d="M73053 78044
L72932 78410
L73248 78410
" />
</g>
<g style="fill:#000000; fill-opacity:0.0; 
stroke:#000000; stroke-width:39.3701; stroke-opacity:1; 
stroke-linecap:round; stroke-linejoin:round;">
</g>
<g style="fill:#000000; fill-opacity:0.0; 
stroke:#000000; stroke-width:59.0551; stroke-opacity:1; 
stroke-linecap:round; stroke-linejoin:round;">
<path d="M92885 78069
L92641 78069
L92617 78312
L92641 78288
L92690 78263
L92812 78263
L92860 78288
L92885 78312
L92909 78361
L92909 78483
L92885 78532
L92860 78556
L92812 78580
L92690 78580
L92641 78556
L92617 78532
" />
</g>
<g style="fill:#000000; fill-opacity:0.0; 
stroke:#000000; stroke-width:39.3701; stroke-opacity:1; 
stroke-linecap:round; stroke-linejoin:round;">
</g>
<g style="fill:#000000; fill-opacity:0.0; 
stroke:#000000; stroke-width:59.0551; stroke-opacity:1; 
stroke-linecap:round; stroke-linejoin:round;">
<path d="M112545 78069
L112448 78069
L112399 78093
L112375 78117
L112326 78190
L112302 78288
L112302 78483
L112326 78532
L112350 78556
L112399 78580
L112497 78580
L112545 78556
L112570 78532
L112594 78483
L112594 78361
L112570 78312
L112545 78288
L112497 78263
L112399 78263
L112350 78288
L112326 78312
L112302 78361
" />
</g>
<g style="fill:#000000; fill-opacity:0.0; 
stroke:#000000; stroke-width:39.3701; stroke-opacity:1; 
stroke-linecap:round; stroke-linejoin:round;">
</g>
<g style="fill:#000000; fill-opacity:0.0; 
stroke:#000000; stroke-width:59.0551; stroke-opacity:1; 
stroke-linecap:round; stroke-linejoin:round;">
<path d="M3937 23622
L4724 23622
" />
</g>
<g style="fill:#000000; fill-opacity:0.0; 
stroke:#000000; stroke-width:39.3701; stroke-opacity:1; 
stroke-linecap:round; stroke-linejoin:round;">
</g>
<g style="fill:#000000; fill-opacity:0.0; 
stroke:#000000; stroke-width:59.0551; stroke-opacity:1; 
stroke-linecap:round; stroke-linejoin:round;">
<path d="M3937 43307
L4724 43307
" />
</g>
<g style="fill:#000000; fill-opacity:0.0; 
stroke:#000000; stroke-width:39.3701; stroke-opacity:1; 
stroke-linecap:round; stroke-linejoin:round;">
</g>
<g style="fill:#000000; fill-opacity:0.0; 
stroke:#000000; stroke-width:59.0551; stroke-opacity:1; 
stroke-linecap:round; stroke-linejoin:round;">
<path d="M3937 62992
L4724 62992
" />
</g>
<g style="fill:#000000; fill-opacity:0.0; 
stroke:#000000; stroke-width:39.3701; stroke-opacity:1; 
stroke-linecap:round; stroke-linejoin:round;">
</g>
<g style="fill:#000000; fill-opacity:0.0; 
stroke:#000000; stroke-width:59.0551; stroke-opacity:1; 
stroke-linecap:round; stroke-linejoin:round;">
<path d="M4208 13864
L4452 13864
" />
<path d="M4160 14011
L4330 13499
L4501 14011
" />
</g>
<g style="fill:#000000; fill-opacity:0.0; 
stroke:#000000; stroke-width:39.3701; stroke-opacity:1; 
stroke-linecap:round; stroke-linejoin:round;">
</g>
<g style="fill:#000000; fill-opacity:0.0; 
stroke:#000000; stroke-width:59.0551; stroke-opacity:1; 
stroke-linecap:round; stroke-linejoin:round;">
<path d="M4367 33428
L4440 33452
L4464 33476
L4489 33525
L4489 33598
L4464 33647
L4440 33671
L4391 33696
L4196 33696
L4196 33184
L4367 33184
L4416 33208
L4440 33233
L4464 33281
L4464 33330
L4440 33379
L4416 33403
L4367 33428
L4196 33428
" />
</g>
<g style="fill:#000000; fill-opacity:0.0; 
stroke:#000000; stroke-width:39.3701; stroke-opacity:1; 
stroke-linecap:round; stroke-linejoin:round;">
</g>
<g style="fill:#000000; fill-opacity:0.0; 
stroke:#000000; stroke-width:59.0551; stroke-opacity:1; 
stroke-linecap:round; stroke-linejoin:round;">
<path d="M4489 53332
L4464 53356
L4391 53381
L4342 53381
L4269 53356
L4221 53308
L4196 53259
L4172 53161
L4172 53088
L4196 52991
L4221 52942
L4269 52893
L4342 52869
L4391 52869
L4464 52893
L4489 52918
" />
</g>
<g style="fill:#000000; fill-opacity:0.0; 
stroke:#000000; stroke-width:39.3701; stroke-opacity:1; 
stroke-linecap:round; stroke-linejoin:round;">
</g>
<g style="fill:#000000; fill-opacity:0.0; 
stroke:#000000; stroke-width:59.0551; stroke-opacity:1; 
stroke-linecap:round; stroke-linejoin:round;">
<path d="M4196 73066
L4196 72554
L4318 72554
L4391 72578
L4440 72627
L4464 72676
L4489 72773
L4489 72846
L4464 72944
L4440 72993
L4391 73041
L4318 73066
L4196 73066
" />
</g>
<g style="fill:#000000; fill-opacity:0.0; 
stroke:#000000; stroke-width:39.3701; stroke-opacity:1; 
stroke-linecap:round; stroke-linejoin:round;">
</g>
<g style="fill:#000000; fill-opacity:0.0; 
stroke:#000000; stroke-width:59.0551; stroke-opacity:1; 
stroke-linecap:round; stroke-linejoin:round;">
<path d="M112992 23622
L112205 23622
" />
</g>
<g style="fill:#000000; fill-opacity:0.0; 
stroke:#000000; stroke-width:39.3701; stroke-opacity:1; 
stroke-linecap:round; stroke-linejoin:round;">
</g>
<g style="fill:#000000; fill-opacity:0.0; 
stroke:#000000; stroke-width:59.0551; stroke-opacity:1; 
stroke-linecap:round; stroke-linejoin:round;">
<path d="M112992 43307
L112205 43307
" />
</g>
<g style="fill:#000000; fill-opacity:0.0; 
stroke:#000000; stroke-width:39.3701; stroke-opacity:1; 
stroke-linecap:round; stroke-linejoin:round;">
</g>
<g style="fill:#000000; fill-opacity:0.0; 
stroke:#000000; stroke-width:59.0551; stroke-opacity:1; 
stroke-linecap:round; stroke-linejoin:round;">
<path d="M112992 62992
L112205 62992
" />
</g>
<g style="fill:#000000; fill-opacity:0.0; 
stroke:#000000; stroke-width:39.3701; stroke-opacity:1; 
stroke-linecap:round; stroke-linejoin:round;">
</g>
<g style="fill:#000000; fill-opacity:0.0; 
stroke:#000000; stroke-width:59.0551; stroke-opacity:1; 
stroke-linecap:round; stroke-linejoin:round;">
<path d="M112477 13864
L112721 13864
" />
<path d="M112428 14011
L112599 13499
L112769 14011
" />
</g>
<g style="fill:#000000; fill-opacity:0.0; 
stroke:#000000; stroke-width:39.3701; stroke-opacity:1; 
stroke-linecap:round; stroke-linejoin:round;">
</g>
<g style="fill:#000000; fill-opacity:0.0; 
stroke:#000000; stroke-width:59.0551; stroke-opacity:1; 
stroke-linecap:round; stroke-linejoin:round;">
<path d="M112635 33428
L112708 33452
L112733 33476
L112757 33525
L112757 33598
L112733 33647
L112708 33671
L112660 33696
L112465 33696
L112465 33184
L112635 33184
L112684 33208
L112708 33233
L112733 33281
L112733 33330
L112708 33379
L112684 33403
L112635 33428
L112465 33428
" />
</g>
<g style="fill:#000000; fill-opacity:0.0; 
stroke:#000000; stroke-width:39.3701; stroke-opacity:1; 
stroke-linecap:round; stroke-linejoin:round;">
</g>
<g style="fill:#000000; fill-opacity:0.0; 
stroke:#000000; stroke-width:59.0551; stroke-opacity:1; 
stroke-linecap:round; stroke-linejoin:round;">
<path d="M112757 53332
L112733 53356
L112660 53381
L112611 53381
L112538 53356
L112489 53308
L112465 53259
L112440 53161
L112440 53088
L112465 52991
L112489 52942
L112538 52893
L112611 52869
L112660 52869
L112733 52893
L112757 52918
" />
</g>
<g style="fill:#000000; fill-opacity:0.0; 
stroke:#000000; stroke-width:39.3701; stroke-opacity:1; 
stroke-linecap:round; stroke-linejoin:round;">
</g>
<g style="fill:#000000; fill-opacity:0.0; 
stroke:#000000; stroke-width:59.0551; stroke-opacity:1; 
stroke-linecap:round; stroke-linejoin:round;">
<path d="M112465 73066
L112465 72554
L112587 72554
L112660 72578
L112708 72627
L112733 72676
L112757 72773
L112757 72846
L112733 72944
L112708 72993
L112660 73041
L112587 73066
L112465 73066
" />
</g>
<g style="fill:#000000; fill-opacity:0.0; 
stroke:#000000; stroke-width:39.3701; stroke-opacity:1; 
stroke-linecap:round; stroke-linejoin:round;">
</g>
<g style="fill:#000000; fill-opacity:0.0; 
stroke:#000000; stroke-width:59.0551; stroke-opacity:1; 
stroke-linecap:round; stroke-linejoin:round;">
<path d="M78881 76293
L78881 75703
L79022 75703
L79106 75731
L79162 75787
L79190 75843
L79219 75956
L79219 76040
L79190 76153
L79162 76209
L79106 76265
L79022 76293
L78881 76293
" />
<path d="M79725 76293
L79725 75984
L79697 75928
L79640 75899
L79528 75899
L79472 75928
" />
<path d="M79725 76265
L79669 76293
L79528 76293
L79472 76265
L79444 76209
L79444 76153
L79472 76096
L79528 76068
L79669 76068
L79725 76040
" />
<path d="M79922 75899
L80147 75899
" />
<path d="M80006 75703
L80006 76209
L80034 76265
L80090 76293
L80147 76293
" />
<path d="M80568 76265
L80512 76293
L80400 76293
L80343 76265
L80315 76209
L80315 75984
L80343 75928
L80400 75899
L80512 75899
L80568 75928
L80597 75984
L80597 76040
L80315 76096
" />
<path d="M80850 76237
L80878 76265
L80850 76293
L80822 76265
L80850 76237
L80850 76293
" />
<path d="M80850 75928
L80878 75956
L80850 75984
L80822 75956
L80850 75928
L80850 75984
" />
</g>
<g style="fill:#000000; fill-opacity:0.0; 
stroke:#000000; stroke-width:39.3701; stroke-opacity:1; 
stroke-linecap:round; stroke-linejoin:round;">
</g>
<g style="fill:#000000; fill-opacity:0.0; 
stroke:#000000; stroke-width:59.0551; stroke-opacity:1; 
stroke-linecap:round; stroke-linejoin:round;">
<path d="M69685 76577
L112205 76577
" />
</g>
<g style="fill:#000000; fill-opacity:0.0; 
stroke:#000000; stroke-width:39.3701; stroke-opacity:1; 
stroke-linecap:round; stroke-linejoin:round;">
</g>
<g style="fill:#000000; fill-opacity:0.0; 
stroke:#000000; stroke-width:59.0551; stroke-opacity:1; 
stroke-linecap:round; stroke-linejoin:round;">
<path d="M70220 77395
L70220 76805
" />
<path d="M70557 77395
L70304 77058
" />
<path d="M70557 76805
L70220 77142
" />
<path d="M70810 77395
L70810 77002
" />
<path d="M70810 76805
L70782 76833
L70810 76861
L70838 76833
L70810 76805
L70810 76861
" />
<path d="M71429 77339
L71401 77367
L71316 77395
L71260 77395
L71176 77367
L71120 77311
L71091 77255
L71063 77142
L71063 77058
L71091 76946
L71120 76889
L71176 76833
L71260 76805
L71316 76805
L71401 76833
L71429 76861
" />
<path d="M71935 77395
L71935 77086
L71907 77030
L71851 77002
L71738 77002
L71682 77030
" />
<path d="M71935 77367
L71879 77395
L71738 77395
L71682 77367
L71654 77311
L71654 77255
L71682 77199
L71738 77171
L71879 77171
L71935 77142
" />
<path d="M72469 77395
L72469 76805
" />
<path d="M72469 77367
L72413 77395
L72301 77395
L72244 77367
L72216 77339
L72188 77283
L72188 77114
L72216 77058
L72244 77030
L72301 77002
L72413 77002
L72469 77030
" />
<path d="M73201 77086
L73397 77086
" />
<path d="M73482 77395
L73201 77395
L73201 76805
L73482 76805
" />
<path d="M73735 77339
L73763 77367
L73735 77395
L73707 77367
L73735 77339
L73735 77395
" />
<path d="M74016 77395
L74016 76805
L74157 76805
L74241 76833
L74297 76889
L74325 76946
L74354 77058
L74354 77142
L74325 77255
L74297 77311
L74241 77367
L74157 77395
L74016 77395
" />
<path d="M74607 77339
L74635 77367
L74607 77395
L74579 77367
L74607 77339
L74607 77395
" />
<path d="M74860 77227
L75141 77227
" />
<path d="M74804 77395
L75000 76805
L75197 77395
" />
<path d="M75394 77339
L75422 77367
L75394 77395
L75366 77367
L75394 77339
L75394 77395
" />
<path d="M76575 77395
L76575 76805
" />
<path d="M76631 77171
L76800 77395
" />
<path d="M76800 77002
L76575 77227
" />
<path d="M77053 77395
L77053 77002
" />
<path d="M77053 76805
L77025 76833
L77053 76861
L77081 76833
L77053 76805
L77053 76861
" />
<path d="M77588 77367
L77531 77395
L77419 77395
L77363 77367
L77334 77339
L77306 77283
L77306 77114
L77334 77058
L77363 77030
L77419 77002
L77531 77002
L77588 77030
" />
<path d="M78094 77395
L78094 77086
L78066 77030
L78009 77002
L77897 77002
L77841 77030
" />
<path d="M78094 77367
L78037 77395
L77897 77395
L77841 77367
L77813 77311
L77813 77255
L77841 77199
L77897 77171
L78037 77171
L78094 77142
" />
<path d="M78628 77395
L78628 76805
" />
<path d="M78628 77367
L78572 77395
L78459 77395
L78403 77367
L78375 77339
L78347 77283
L78347 77114
L78375 77058
L78403 77030
L78459 77002
L78572 77002
L78628 77030
" />
<path d="M79612 77002
L79612 77395
" />
<path d="M79472 76777
L79331 77199
L79697 77199
" />
<path d="M79922 77339
L79950 77367
L79922 77395
L79894 77367
L79922 77339
L79922 77395
" />
<path d="M80315 76805
L80372 76805
L80428 76833
L80456 76861
L80484 76917
L80512 77030
L80512 77171
L80484 77283
L80456 77339
L80428 77367
L80372 77395
L80315 77395
L80259 77367
L80231 77339
L80203 77283
L80175 77171
L80175 77030
L80203 76917
L80231 76861
L80259 76833
L80315 76805
" />
<path d="M80765 77339
L80793 77367
L80765 77395
L80737 77367
L80765 77339
L80765 77395
" />
<path d="M80990 76805
L81384 76805
L81131 77395
" />
</g>
<g style="fill:#000000; fill-opacity:0.0; 
stroke:#000000; stroke-width:39.3701; stroke-opacity:1; 
stroke-linecap:round; stroke-linejoin:round;">
</g>
<g style="fill:#000000; fill-opacity:0.0; 
stroke:#000000; stroke-width:59.0551; stroke-opacity:1; 
stroke-linecap:round; stroke-linejoin:round;">
<path d="M69685 75396
L112205 75396
" />
</g>
<g style="fill:#000000; fill-opacity:0.0; 
stroke:#000000; stroke-width:39.3701; stroke-opacity:1; 
stroke-linecap:round; stroke-linejoin:round;">
</g>
<g style="fill:#000000; fill-opacity:0.0; 
stroke:#000000; stroke-width:118.11; stroke-opacity:1; 
stroke-linecap:round; stroke-linejoin:round;">
<path d="M104022 76293
L103825 76012
" />
<path d="M103684 76293
L103684 75703
L103909 75703
L103965 75731
L103994 75759
L104022 75815
L104022 75899
L103994 75956
L103965 75984
L103909 76012
L103684 76012
" />
<path d="M104500 76265
L104444 76293
L104331 76293
L104275 76265
L104247 76209
L104247 75984
L104275 75928
L104331 75899
L104444 75899
L104500 75928
L104528 75984
L104528 76040
L104247 76096
" />
<path d="M104725 75899
L104865 76293
L105006 75899
" />
<path d="M105231 76237
L105259 76265
L105231 76293
L105203 76265
L105231 76237
L105231 76293
" />
<path d="M105231 75928
L105259 75956
L105231 75984
L105203 75956
L105231 75928
L105231 75984
" />
</g>
<g style="fill:#000000; fill-opacity:0.0; 
stroke:#000000; stroke-width:39.3701; stroke-opacity:1; 
stroke-linecap:round; stroke-linejoin:round;">
</g>
<g style="fill:#000000; fill-opacity:0.0; 
stroke:#000000; stroke-width:59.0551; stroke-opacity:1; 
stroke-linecap:round; stroke-linejoin:round;">
<path d="M70192 76265
L70276 76293
L70417 76293
L70473 76265
L70501 76237
L70529 76181
L70529 76124
L70501 76068
L70473 76040
L70417 76012
L70304 75984
L70248 75956
L70220 75928
L70192 75871
L70192 75815
L70220 75759
L70248 75731
L70304 75703
L70445 75703
L70529 75731
" />
<path d="M70782 76293
L70782 75899
" />
<path d="M70782 75703
L70754 75731
L70782 75759
L70810 75731
L70782 75703
L70782 75759
" />
<path d="M71007 75899
L71316 75899
L71007 76293
L71316 76293
" />
<path d="M71766 76265
L71710 76293
L71598 76293
L71541 76265
L71513 76209
L71513 75984
L71541 75928
L71598 75899
L71710 75899
L71766 75928
L71795 75984
L71795 76040
L71513 76096
" />
<path d="M72048 76237
L72076 76265
L72048 76293
L72019 76265
L72048 76237
L72048 76293
" />
<path d="M72048 75928
L72076 75956
L72048 75984
L72019 75956
L72048 75928
L72048 75984
" />
<path d="M72751 76124
L73032 76124
" />
<path d="M72694 76293
L72891 75703
L73088 76293
" />
<path d="M73538 75899
L73538 76293
" />
<path d="M73397 75674
L73257 76096
L73622 76096
" />
</g>
<g style="fill:#000000; fill-opacity:0.0; 
stroke:#000000; stroke-width:39.3701; stroke-opacity:1; 
stroke-linecap:round; stroke-linejoin:round;">
</g>
<g style="fill:#000000; fill-opacity:0.0; 
stroke:#000000; stroke-width:59.0551; stroke-opacity:1; 
stroke-linecap:round; stroke-linejoin:round;">
<path d="M103684 77395
L103684 76805
" />
<path d="M104219 77395
L104219 76805
" />
<path d="M104219 77367
L104162 77395
L104050 77395
L103994 77367
L103965 77339
L103937 77283
L103937 77114
L103965 77058
L103994 77030
L104050 77002
L104162 77002
L104219 77030
" />
<path d="M104500 77339
L104528 77367
L104500 77395
L104472 77367
L104500 77339
L104500 77395
" />
<path d="M104500 77030
L104528 77058
L104500 77086
L104472 77058
L104500 77030
L104500 77086
" />
<path d="M105540 77395
L105203 77395
" />
<path d="M105372 77395
L105372 76805
L105315 76889
L105259 76946
L105203 76974
" />
<path d="M106215 76777
L105709 77536
" />
<path d="M106721 77395
L106384 77395
" />
<path d="M106553 77395
L106553 76805
L106496 76889
L106440 76946
L106384 76974
" />
</g>
<g style="fill:#000000; fill-opacity:0.0; 
stroke:#000000; stroke-width:39.3701; stroke-opacity:1; 
stroke-linecap:round; stroke-linejoin:round;">
</g>
<g style="fill:#000000; fill-opacity:0.0; 
stroke:#000000; stroke-width:59.0551; stroke-opacity:1; 
stroke-linecap:round; stroke-linejoin:round;">
<path d="M69685 73821
L112205 73821
" />
</g>
<g style="fill:#000000; fill-opacity:0.0; 
stroke:#000000; stroke-width:39.3701; stroke-opacity:1; 
stroke-linecap:round; stroke-linejoin:round;">
</g>
<g style="fill:#000000; fill-opacity:0.0; 
stroke:#000000; stroke-width:157.48; stroke-opacity:1; 
stroke-linecap:round; stroke-linejoin:round;">
<path d="M70257 74099
L70707 74099
" />
<path d="M70384 74886
L70482 74099
" />
<path d="M70871 74886
L70937 74361
" />
<path d="M70970 74099
L70927 74136
L70960 74174
L71002 74136
L70970 74099
L70960 74174
" />
<path d="M71199 74361
L71499 74361
" />
<path d="M71345 74099
L71260 74774
L71288 74849
L71359 74886
L71434 74886
" />
<path d="M71809 74886
L71738 74849
L71710 74774
L71795 74099
" />
<path d="M72413 74849
L72334 74886
L72184 74886
L72113 74849
L72085 74774
L72123 74474
L72169 74399
L72249 74361
L72399 74361
L72469 74399
L72498 74474
L72488 74549
L72104 74624
" />
<path d="M72793 74811
L72826 74849
L72783 74886
L72751 74849
L72793 74811
L72783 74886
" />
<path d="M72844 74399
L72877 74436
L72835 74474
L72802 74436
L72844 74399
L72835 74474
" />
</g>
<g style="fill:#000000; fill-opacity:0.0; 
stroke:#000000; stroke-width:39.3701; stroke-opacity:1; 
stroke-linecap:round; stroke-linejoin:round;">
</g>
<g style="fill:#000000; fill-opacity:0.0; 
stroke:#000000; stroke-width:59.0551; stroke-opacity:1; 
stroke-linecap:round; stroke-linejoin:round;">
<path d="M70417 73070
L70220 73070
" />
<path d="M70220 73380
L70220 72789
L70501 72789
" />
<path d="M70726 73380
L70726 72986
" />
<path d="M70726 72789
L70698 72817
L70726 72845
L70754 72817
L70726 72789
L70726 72845
" />
<path d="M71091 73380
L71035 73352
L71007 73295
L71007 72789
" />
<path d="M71541 73352
L71485 73380
L71373 73380
L71316 73352
L71288 73295
L71288 73070
L71316 73014
L71373 72986
L71485 72986
L71541 73014
L71570 73070
L71570 73127
L71288 73183
" />
<path d="M71823 73323
L71851 73352
L71823 73380
L71795 73352
L71823 73323
L71823 73380
" />
<path d="M71823 73014
L71851 73042
L71823 73070
L71795 73042
L71823 73014
L71823 73070
" />
<path d="M72469 72986
L72694 72986
" />
<path d="M72554 73380
L72554 72874
L72582 72817
L72638 72789
L72694 72789
" />
<path d="M72976 73380
L72919 73352
L72891 73295
L72891 72789
" />
<path d="M73144 72986
L73285 73380
" />
<path d="M73426 72986
L73285 73380
L73229 73520
L73201 73548
L73144 73577
" />
<path d="M73651 72986
L73651 73577
" />
<path d="M73651 73014
L73707 72986
L73819 72986
L73876 73014
L73904 73042
L73932 73099
L73932 73267
L73904 73323
L73876 73352
L73819 73380
L73707 73380
L73651 73352
" />
<path d="M74185 73380
L74185 72986
" />
<path d="M74185 72789
L74157 72817
L74185 72845
L74213 72817
L74185 72789
L74185 72845
" />
<path d="M74325 73436
L74775 73436
" />
<path d="M74916 72986
L74916 73577
" />
<path d="M74916 73014
L74972 72986
L75085 72986
L75141 73014
L75169 73042
L75197 73099
L75197 73267
L75169 73323
L75141 73352
L75085 73380
L74972 73380
L74916 73352
" />
<path d="M75450 73380
L75450 72986
" />
<path d="M75450 73099
L75478 73042
L75507 73014
L75563 72986
L75619 72986
" />
<path d="M75816 73380
L75816 72986
" />
<path d="M75816 72789
L75788 72817
L75816 72845
L75844 72817
L75816 72789
L75816 72845
" />
<path d="M76097 72986
L76097 73380
" />
<path d="M76097 73042
L76125 73014
L76181 72986
L76266 72986
L76322 73014
L76350 73070
L76350 73380
" />
<path d="M76547 72986
L76772 72986
" />
<path d="M76631 72789
L76631 73295
L76660 73352
L76716 73380
L76772 73380
" />
<path d="M76969 73323
L76997 73352
L76969 73380
L76941 73352
L76969 73323
L76969 73380
" />
<path d="M77250 73380
L77250 72789
" />
<path d="M77306 73155
L77475 73380
" />
<path d="M77475 72986
L77250 73211
" />
<path d="M77728 73380
L77728 72986
" />
<path d="M77728 72789
L77700 72817
L77728 72845
L77756 72817
L77728 72789
L77728 72845
" />
<path d="M78262 73352
L78206 73380
L78094 73380
L78037 73352
L78009 73323
L77981 73267
L77981 73099
L78009 73042
L78037 73014
L78094 72986
L78206 72986
L78262 73014
" />
<path d="M78769 73380
L78769 73070
L78741 73014
L78684 72986
L78572 72986
L78516 73014
" />
<path d="M78769 73352
L78712 73380
L78572 73380
L78516 73352
L78487 73295
L78487 73239
L78516 73183
L78572 73155
L78712 73155
L78769 73127
" />
<path d="M79303 73380
L79303 72789
" />
<path d="M79303 73352
L79247 73380
L79134 73380
L79078 73352
L79050 73323
L79022 73267
L79022 73099
L79050 73042
L79078 73014
L79134 72986
L79247 72986
L79303 73014
" />
<path d="M79444 73436
L79894 73436
" />
<path d="M80034 72986
L80034 73577
" />
<path d="M80034 73014
L80090 72986
L80203 72986
L80259 73014
L80287 73042
L80315 73099
L80315 73267
L80287 73323
L80259 73352
L80203 73380
L80090 73380
L80034 73352
" />
<path d="M80822 73352
L80765 73380
L80653 73380
L80597 73352
L80568 73323
L80540 73267
L80540 73099
L80568 73042
L80597 73014
L80653 72986
L80765 72986
L80822 73014
" />
<path d="M81075 73380
L81075 72789
" />
<path d="M81075 73014
L81131 72986
L81243 72986
L81300 73014
L81328 73042
L81356 73099
L81356 73267
L81328 73323
L81300 73352
L81243 73380
L81131 73380
L81075 73352
" />
</g>
<g style="fill:#000000; fill-opacity:0.0; 
stroke:#000000; stroke-width:39.3701; stroke-opacity:1; 
stroke-linecap:round; stroke-linejoin:round;">
</g>
<g style="fill:#000000; fill-opacity:0.0; 
stroke:#000000; stroke-width:59.0551; stroke-opacity:1; 
stroke-linecap:round; stroke-linejoin:round;">
<path d="M69685 71459
L112205 71459
" />
</g>
<g style="fill:#000000; fill-opacity:0.0; 
stroke:#000000; stroke-width:39.3701; stroke-opacity:1; 
stroke-linecap:round; stroke-linejoin:round;">
</g>
<g style="fill:#000000; fill-opacity:0.0; 
stroke:#000000; stroke-width:59.0551; stroke-opacity:1; 
stroke-linecap:round; stroke-linejoin:round;">
<path d="M70192 72289
L70276 72317
L70417 72317
L70473 72289
L70501 72260
L70529 72204
L70529 72148
L70501 72092
L70473 72064
L70417 72036
L70304 72007
L70248 71979
L70220 71951
L70192 71895
L70192 71839
L70220 71782
L70248 71754
L70304 71726
L70445 71726
L70529 71754
" />
<path d="M70782 72317
L70782 71726
" />
<path d="M71035 72317
L71035 72007
L71007 71951
L70951 71923
L70867 71923
L70810 71951
L70782 71979
" />
<path d="M71541 72289
L71485 72317
L71373 72317
L71316 72289
L71288 72232
L71288 72007
L71316 71951
L71373 71923
L71485 71923
L71541 71951
L71570 72007
L71570 72064
L71288 72120
" />
<path d="M72048 72289
L71991 72317
L71879 72317
L71823 72289
L71795 72232
L71795 72007
L71823 71951
L71879 71923
L71991 71923
L72048 71951
L72076 72007
L72076 72064
L71795 72120
" />
<path d="M72244 71923
L72469 71923
" />
<path d="M72329 71726
L72329 72232
L72357 72289
L72413 72317
L72469 72317
" />
<path d="M72666 72260
L72694 72289
L72666 72317
L72638 72289
L72666 72260
L72666 72317
" />
<path d="M72666 71951
L72694 71979
L72666 72007
L72638 71979
L72666 71951
L72666 72007
" />
</g>
<g style="fill:#000000; fill-opacity:0.0; 
stroke:#000000; stroke-width:39.3701; stroke-opacity:1; 
stroke-linecap:round; stroke-linejoin:round;">
</g>
<g style="fill:#000000; fill-opacity:0.0; 
stroke:#000000; stroke-width:59.0551; stroke-opacity:1; 
stroke-linecap:round; stroke-linejoin:round;">
<path d="M77559 75396
L77559 76577
" />
</g>
<g style="fill:#000000; fill-opacity:0.0; 
stroke:#000000; stroke-width:39.3701; stroke-opacity:1; 
stroke-linecap:round; stroke-linejoin:round;">
</g>
<g style="fill:#000000; fill-opacity:0.0; 
stroke:#000000; stroke-width:59.0551; stroke-opacity:1; 
stroke-linecap:round; stroke-linejoin:round;">
<path d="M102756 75396
L102756 77955
" />
</g>
<g style="fill:#C2C200; fill-opacity:0.0; 
stroke:#C2C200; stroke-width:59.0551; stroke-opacity:1; 
stroke-linecap:round; stroke-linejoin:round;">
</g>
<g style="fill:#C2C200; fill-opacity:0.0; 
stroke:#C2C200; stroke-width:39.3701; stroke-opacity:1; 
stroke-linecap:round; stroke-linejoin:round;">
<path d="M29921 11023
L32677 11023
" />
<path d="M29921 8267
L29921 11023
" />
<path d="M27559 12598
L19291 12598
" />
<path d="M28346 11811
L27559 12598
" />
<path d="M28346 9448
L28346 11811
" />
<path d="M27559 9448
L28346 9448
" />
<path d="M26771 8661
L27559 9448
" />
<path d="M26771 7480
L26771 8661
" />
<path d="M17716 11811
L15748 11811
" />
<path d="M17716 8267
L17716 11811
" />
<path d="M19291 9448
L19291 12598
" />
<path d="M20078 9448
L19291 9448
" />
<path d="M20866 8661
L20078 9448
" />
<path d="M20866 7480
L20866 8661
" />
<path d="M12598 8661
L15748 11811
" />
<path d="M19291 6692
L17716 8267
" />
<path d="M20078 6692
L19291 6692
" />
<path d="M28346 6692
L29921 8267
" />
<path d="M27559 6692
L28346 6692
" />
<path d="M26771 7480
L27559 6692
" />
<path d="M20078 6692
L20866 7480
" />
<circle cx="19763.8" cy="8031.5" r="433.071" /> 
<circle cx="27952.8" cy="8031.5" r="433.071" /> 
<path d="M38188 18897
L37007 20078
" />
<path d="M38188 14173
L38188 18897
" />
<path d="M39763 12598
L38188 14173
" />
<path d="M32677 11023
L35826 7874
" />
<path d="M11417 15748
L8267 12598
" />
<path d="M11417 19291
L11417 15748
" />
<path d="M12598 20472
L11417 19291
" />
<path d="M12598 27559
L12598 20472
" />
<path d="M10629 29133
L12598 27559
" />
<path d="M10629 33858
L10629 29133
" />
<path d="M8661 35826
L10629 33858
" />
<path d="M26771 36220
L20472 36220
" />
<path d="M28346 37795
L26771 36220
" />
<path d="M33858 37795
L28346 37795
" />
<path d="M35826 39763
L33858 37795
" />
<path d="M38188 33464
L40551 35826
" />
<path d="M38188 29921
L38188 33464
" />
<path d="M37007 28740
L38188 29921
" />
<path d="M37007 20078
L37007 28740
" />
<path d="M35826 43700
L35826 39763
" />
<path d="M19291 37401
L20472 36220
" />
<path d="M14960 37401
L19291 37401
" />
<path d="M12598 39763
L14960 37401
" />
<path d="M8661 38976
L4724 38976
" />
<path d="M8661 35826
L4724 35826
" />
<path d="M4724 38976
L4724 35826
" />
<path d="M12598 43700
L9448 43700
" />
<path d="M12598 39763
L12598 43700
" />
<path d="M9448 39763
L9448 43700
" />
<path d="M38976 39763
L38976 43700
" />
<path d="M38976 43700
L35826 43700
" />
<path d="M43700 35826
L43700 38976
" />
<path d="M40551 35826
L43700 35826
" />
<path d="M39763 38976
L43700 38976
" />
<path d="M9448 8661
L9448 4724
" />
<path d="M12598 8661
L12598 4724
" />
<path d="M9448 4724
L12598 4724
" />
<path d="M4724 12598
L4724 9448
" />
<path d="M8267 12598
L4724 12598
" />
<path d="M8661 9448
L4724 9448
" />
<path d="M35826 4724
L38976 4724
" />
<path d="M35826 7874
L35826 4724
" />
<path d="M38976 8661
L38976 4724
" />
<path d="M43700 9448
L43700 12598
" />
<path d="M39763 9448
L43700 9448
" />
<path d="M8661 9448
L9448 8661
" />
<path d="M38976 8661
L39763 9448
" />
<path d="M38976 39763
L39763 38976
" />
<path d="M9448 39763
L8661 38976
" />
<path d="M39763 12598
L43700 12598
" />
<circle cx="37401.6" cy="11023.6" r="669.291" /> 
<circle cx="11023.6" cy="11023.6" r="669.291" /> 
<circle cx="11023.6" cy="37401.6" r="669.291" /> 
<circle cx="37401.6" cy="37401.6" r="669.291" /> 
</g>
<g style="fill:#840000; fill-opacity:0.0; 
stroke:#840000; stroke-width:39.3701; stroke-opacity:1; 
stroke-linecap:round; stroke-linejoin:round;">
</g>
<g style="fill:#840000; fill-opacity:0.0; 
stroke:#840000; stroke-width:0; stroke-opacity:1; 
stroke-linecap:round; stroke-linejoin:round;">
</g>
<g style="fill:#840000; fill-opacity:1.0; 
stroke:#840000; stroke-width:0; stroke-opacity:1; 
stroke-linecap:round; stroke-linejoin:round;">
<polyline style="fill-rule:evenodd;"
points="12559,32224
12559,31161
13425,31161
13425,32224
12559,32224
" /> 
<polyline style="fill-rule:evenodd;"
points="14133,32224
14133,31161
15000,31161
15000,32224
14133,32224
" /> 
<polyline style="fill-rule:evenodd;"
points="17413,35866
16350,35866
16350,35000
17413,35000
17413,35866
" /> 
<polyline style="fill-rule:evenodd;"
points="17413,34291
16350,34291
16350,33425
17413,33425
17413,34291
" /> 
<polyline style="fill-rule:evenodd;"
points="35866,30937
35866,32000
35000,32000
35000,30937
35866,30937
" /> 
<polyline style="fill-rule:evenodd;"
points="34291,30937
34291,32000
33425,32000
33425,30937
34291,30937
" /> 
<polyline style="fill-rule:evenodd;"
points="32027,35866
30964,35866
30964,35000
32027,35000
32027,35866
" /> 
<polyline style="fill-rule:evenodd;"
points="32027,34291
30964,34291
30964,33425
32027,33425
32027,34291
" /> 
<polyline style="fill-rule:evenodd;"
points="12559,17460
12559,16397
13425,16397
13425,17460
12559,17460
" /> 
<polyline style="fill-rule:evenodd;"
points="14133,17460
14133,16397
15000,16397
15000,17460
14133,17460
" /> 
<polyline style="fill-rule:evenodd;"
points="16397,12559
17460,12559
17460,13425
16397,13425
16397,12559
" /> 
<polyline style="fill-rule:evenodd;"
points="16397,14133
17460,14133
17460,15000
16397,15000
16397,14133
" /> 
<polyline style="fill-rule:evenodd;"
points="35866,16397
35866,17460
35000,17460
35000,16397
35866,16397
" /> 
<polyline style="fill-rule:evenodd;"
points="34291,16397
34291,17460
33425,17460
33425,16397
34291,16397
" /> 
<polyline style="fill-rule:evenodd;"
points="31358,12559
32421,12559
32421,13425
31358,13425
31358,12559
" /> 
<polyline style="fill-rule:evenodd;"
points="31358,14133
32421,14133
32421,15000
31358,15000
31358,14133
" /> 
<polyline style="fill-rule:evenodd;"
points="12736,32893
13248,32893
13248,33405
12736,33405
12736,32893
" /> 
<polyline style="fill-rule:evenodd;"
points="12736,33996
13248,33996
13248,34507
12736,34507
12736,33996
" /> 
<polyline style="fill-rule:evenodd;"
points="15728,35177
15728,35688
15216,35688
15216,35177
15728,35177
" /> 
<polyline style="fill-rule:evenodd;"
points="14625,35177
14625,35688
14114,35688
14114,35177
14625,35177
" /> 
<polyline style="fill-rule:evenodd;"
points="35177,32618
35688,32618
35688,33129
35177,33129
35177,32618
" /> 
<polyline style="fill-rule:evenodd;"
points="35177,33720
35688,33720
35688,34232
35177,34232
35177,33720
" /> 
<polyline style="fill-rule:evenodd;"
points="32893,35688
32893,35177
33405,35177
33405,35688
32893,35688
" /> 
<polyline style="fill-rule:evenodd;"
points="33996,35688
33996,35177
34507,35177
34507,35688
33996,35688
" /> 
<polyline style="fill-rule:evenodd;"
points="13248,15767
12736,15767
12736,15255
13248,15255
13248,15767
" /> 
<polyline style="fill-rule:evenodd;"
points="13248,14665
12736,14665
12736,14153
13248,14153
13248,14665
" /> 
<polyline style="fill-rule:evenodd;"
points="15767,12736
15767,13248
15255,13248
15255,12736
15767,12736
" /> 
<polyline style="fill-rule:evenodd;"
points="14665,12736
14665,13248
14153,13248
14153,12736
14665,12736
" /> 
<polyline style="fill-rule:evenodd;"
points="35688,15531
35177,15531
35177,15019
35688,15019
35688,15531
" /> 
<polyline style="fill-rule:evenodd;"
points="35688,14429
35177,14429
35177,13917
35688,13917
35688,14429
" /> 
<polyline style="fill-rule:evenodd;"
points="32893,13248
32893,12736
33405,12736
33405,13248
32893,13248
" /> 
<polyline style="fill-rule:evenodd;"
points="33996,13248
33996,12736
34507,12736
34507,13248
33996,13248
" /> 
<circle cx="22244.1" cy="15944.9" r="334.87" /> 
</g>
<g style="fill:#840000; fill-opacity:1.0; 
stroke:#840000; stroke-width:39.3701; stroke-opacity:1; 
stroke-linecap:round; stroke-linejoin:round;">
</g>
<g style="fill:#840000; fill-opacity:1.0; 
stroke:#840000; stroke-width:0; stroke-opacity:1; 
stroke-linecap:round; stroke-linejoin:round;">
<circle cx="22248.1" cy="13944.9" r="334.87" /> 
</g>
<g style="fill:#840000; fill-opacity:1.0; 
stroke:#840000; stroke-width:39.3701; stroke-opacity:1; 
stroke-linecap:round; stroke-linejoin:round;">
</g>
<g style="fill:#840000; fill-opacity:1.0; 
stroke:#840000; stroke-width:0; stroke-opacity:1; 
stroke-linecap:round; stroke-linejoin:round;">
<polyline style="fill-rule:evenodd;"
points="5885,38169
5137,38169
5137,37421
5885,37421
5885,38169
" /> 
</g>
<g style="fill:#840000; fill-opacity:1.0; 
stroke:#840000; stroke-width:748.031; stroke-opacity:1; 
stroke-linecap:round; stroke-linejoin:round;">
</g>
<g style="fill:#840000; fill-opacity:0.0; 
stroke:#840000; stroke-width:748.031; stroke-opacity:1; 
stroke-linecap:round; stroke-linejoin:round;">
<path d="M5511 36795
L5511 36795
" />
</g>
<g style="fill:#840000; fill-opacity:0.0; 
stroke:#840000; stroke-width:0; stroke-opacity:1; 
stroke-linecap:round; stroke-linejoin:round;">
</g>
<g style="fill:#840000; fill-opacity:1.0; 
stroke:#840000; stroke-width:0; stroke-opacity:1; 
stroke-linecap:round; stroke-linejoin:round;">
<polyline style="fill-rule:evenodd;"
points="10255,43287
10255,42539
11003,42539
11003,43287
10255,43287
" /> 
</g>
<g style="fill:#840000; fill-opacity:1.0; 
stroke:#840000; stroke-width:748.031; stroke-opacity:1; 
stroke-linecap:round; stroke-linejoin:round;">
</g>
<g style="fill:#840000; fill-opacity:0.0; 
stroke:#840000; stroke-width:748.031; stroke-opacity:1; 
stroke-linecap:round; stroke-linejoin:round;">
<path d="M11629 42913
L11629 42913
" />
</g>
<g style="fill:#840000; fill-opacity:0.0; 
stroke:#840000; stroke-width:0; stroke-opacity:1; 
stroke-linecap:round; stroke-linejoin:round;">
</g>
<g style="fill:#840000; fill-opacity:1.0; 
stroke:#840000; stroke-width:0; stroke-opacity:1; 
stroke-linecap:round; stroke-linejoin:round;">
<polyline style="fill-rule:evenodd;"
points="43287,38169
42539,38169
42539,37421
43287,37421
43287,38169
" /> 
</g>
<g style="fill:#840000; fill-opacity:1.0; 
stroke:#840000; stroke-width:748.031; stroke-opacity:1; 
stroke-linecap:round; stroke-linejoin:round;">
</g>
<g style="fill:#840000; fill-opacity:0.0; 
stroke:#840000; stroke-width:748.031; stroke-opacity:1; 
stroke-linecap:round; stroke-linejoin:round;">
<path d="M42913 36795
L42913 36795
" />
</g>
<g style="fill:#840000; fill-opacity:0.0; 
stroke:#840000; stroke-width:0; stroke-opacity:1; 
stroke-linecap:round; stroke-linejoin:round;">
</g>
<g style="fill:#840000; fill-opacity:1.0; 
stroke:#840000; stroke-width:0; stroke-opacity:1; 
stroke-linecap:round; stroke-linejoin:round;">
<polyline style="fill-rule:evenodd;"
points="38169,42539
38169,43287
37421,43287
37421,42539
38169,42539
" /> 
</g>
<g style="fill:#840000; fill-opacity:1.0; 
stroke:#840000; stroke-width:748.031; stroke-opacity:1; 
stroke-linecap:round; stroke-linejoin:round;">
</g>
<g style="fill:#840000; fill-opacity:0.0; 
stroke:#840000; stroke-width:748.031; stroke-opacity:1; 
stroke-linecap:round; stroke-linejoin:round;">
<path d="M36795 42913
L36795 42913
" />
</g>
<g style="fill:#840000; fill-opacity:0.0; 
stroke:#840000; stroke-width:0; stroke-opacity:1; 
stroke-linecap:round; stroke-linejoin:round;">
</g>
<g style="fill:#840000; fill-opacity:1.0; 
stroke:#840000; stroke-width:0; stroke-opacity:1; 
stroke-linecap:round; stroke-linejoin:round;">
<polyline style="fill-rule:evenodd;"
points="5137,10255
5885,10255
5885,11003
5137,11003
5137,10255
" /> 
</g>
<g style="fill:#840000; fill-opacity:1.0; 
stroke:#840000; stroke-width:748.031; stroke-opacity:1; 
stroke-linecap:round; stroke-linejoin:round;">
</g>
<g style="fill:#840000; fill-opacity:0.0; 
stroke:#840000; stroke-width:748.031; stroke-opacity:1; 
stroke-linecap:round; stroke-linejoin:round;">
<path d="M5511 11629
L5511 11629
" />
</g>
<g style="fill:#840000; fill-opacity:0.0; 
stroke:#840000; stroke-width:0; stroke-opacity:1; 
stroke-linecap:round; stroke-linejoin:round;">
</g>
<g style="fill:#840000; fill-opacity:1.0; 
stroke:#840000; stroke-width:0; stroke-opacity:1; 
stroke-linecap:round; stroke-linejoin:round;">
<polyline style="fill-rule:evenodd;"
points="10255,5885
10255,5137
11003,5137
11003,5885
10255,5885
" /> 
</g>
<g style="fill:#840000; fill-opacity:1.0; 
stroke:#840000; stroke-width:748.031; stroke-opacity:1; 
stroke-linecap:round; stroke-linejoin:round;">
</g>
<g style="fill:#840000; fill-opacity:0.0; 
stroke:#840000; stroke-width:748.031; stroke-opacity:1; 
stroke-linecap:round; stroke-linejoin:round;">
<path d="M11629 5511
L11629 5511
" />
</g>
<g style="fill:#840000; fill-opacity:0.0; 
stroke:#840000; stroke-width:0; stroke-opacity:1; 
stroke-linecap:round; stroke-linejoin:round;">
</g>
<g style="fill:#840000; fill-opacity:1.0; 
stroke:#840000; stroke-width:0; stroke-opacity:1; 
stroke-linecap:round; stroke-linejoin:round;">
<polyline style="fill-rule:evenodd;"
points="42539,10255
43287,10255
43287,11003
42539,11003
42539,10255
" /> 
</g>
<g style="fill:#840000; fill-opacity:1.0; 
stroke:#840000; stroke-width:748.031; stroke-opacity:1; 
stroke-linecap:round; stroke-linejoin:round;">
</g>
<g style="fill:#840000; fill-opacity:0.0; 
stroke:#840000; stroke-width:748.031; stroke-opacity:1; 
stroke-linecap:round; stroke-linejoin:round;">
<path d="M42913 11629
L42913 11629
" />
</g>
<g style="fill:#840000; fill-opacity:0.0; 
stroke:#840000; stroke-width:0; stroke-opacity:1; 
stroke-linecap:round; stroke-linejoin:round;">
</g>
<g style="fill:#840000; fill-opacity:1.0; 
stroke:#840000; stroke-width:0; stroke-opacity:1; 
stroke-linecap:round; stroke-linejoin:round;">
<polyline style="fill-rule:evenodd;"
points="38169,5137
38169,5885
37421,5885
37421,5137
38169,5137
" /> 
</g>
<g style="fill:#840000; fill-opacity:1.0; 
stroke:#840000; stroke-width:748.031; stroke-opacity:1; 
stroke-linecap:round; stroke-linejoin:round;">
</g>
<g style="fill:#840000; fill-opacity:0.0; 
stroke:#840000; stroke-width:748.031; stroke-opacity:1; 
stroke-linecap:round; stroke-linejoin:round;">
<path d="M36795 5511
L36795 5511
" />
</g>
<g style="fill:#840000; fill-opacity:0.0; 
stroke:#840000; stroke-width:0; stroke-opacity:1; 
stroke-linecap:round; stroke-linejoin:round;">
</g>
<g style="fill:#840000; fill-opacity:1.0; 
stroke:#840000; stroke-width:0; stroke-opacity:1; 
stroke-linecap:round; stroke-linejoin:round;">
<polyline style="fill-rule:evenodd;"
points="22460,19059
22460,18311
23208,18311
23208,19059
22460,19059
" /> 
</g>
<g style="fill:#840000; fill-opacity:1.0; 
stroke:#840000; stroke-width:748.031; stroke-opacity:1; 
stroke-linecap:round; stroke-linejoin:round;">
</g>
<g style="fill:#840000; fill-opacity:0.0; 
stroke:#840000; stroke-width:748.031; stroke-opacity:1; 
stroke-linecap:round; stroke-linejoin:round;">
<path d="M22834 19685
L22834 19685
" />
</g>
<g style="fill:#840000; fill-opacity:0.0; 
stroke:#840000; stroke-width:0; stroke-opacity:1; 
stroke-linecap:round; stroke-linejoin:round;">
</g>
<g style="fill:#840000; fill-opacity:1.0; 
stroke:#840000; stroke-width:0; stroke-opacity:1; 
stroke-linecap:round; stroke-linejoin:round;">
<polyline style="fill-rule:evenodd;"
points="14980,29114
14980,29507
14153,29507
14153,29114
14980,29114
" /> 
<polyline style="fill-rule:evenodd;"
points="14980,28366
14980,28759
14153,28759
14153,28366
14980,28366
" /> 
<polyline style="fill-rule:evenodd;"
points="13799,28740
13799,29133
12972,29133
12972,28740
13799,28740
" /> 
<polyline style="fill-rule:evenodd;"
points="20039,33838
20433,33838
20433,34665
20039,34665
20039,33838
" /> 
<polyline style="fill-rule:evenodd;"
points="19291,33838
19685,33838
19685,34665
19291,34665
19291,33838
" /> 
<polyline style="fill-rule:evenodd;"
points="19665,35019
20059,35019
20059,35846
19665,35846
19665,35019
" /> 
<polyline style="fill-rule:evenodd;"
points="34035,28976
34035,28582
34862,28582
34862,28976
34035,28976
" /> 
<polyline style="fill-rule:evenodd;"
points="34035,29724
34035,29330
34862,29330
34862,29724
34035,29724
" /> 
<polyline style="fill-rule:evenodd;"
points="35216,29350
35216,28956
36043,28956
36043,29350
35216,29350
" /> 
<polyline style="fill-rule:evenodd;"
points="28110,33444
28503,33444
28503,34271
28110,34271
28110,33444
" /> 
<polyline style="fill-rule:evenodd;"
points="27362,33444
27755,33444
27755,34271
27362,34271
27362,33444
" /> 
<polyline style="fill-rule:evenodd;"
points="27736,34625
28129,34625
28129,35452
27736,35452
27736,34625
" /> 
<polyline style="fill-rule:evenodd;"
points="14783,19645
14783,20039
13956,20039
13956,19645
14783,19645
" /> 
<polyline style="fill-rule:evenodd;"
points="14783,18897
14783,19291
13956,19291
13956,18897
14783,18897
" /> 
<polyline style="fill-rule:evenodd;"
points="13602,19271
13602,19665
12775,19665
12775,19271
13602,19271
" /> 
<polyline style="fill-rule:evenodd;"
points="19527,15374
19133,15374
19133,14547
19527,14547
19527,15374
" /> 
<polyline style="fill-rule:evenodd;"
points="20275,15374
19881,15374
19881,14547
20275,14547
20275,15374
" /> 
<polyline style="fill-rule:evenodd;"
points="19901,14192
19507,14192
19507,13366
19901,13366
19901,14192
" /> 
<polyline style="fill-rule:evenodd;"
points="33444,19488
33444,19094
34271,19094
34271,19488
33444,19488
" /> 
<polyline style="fill-rule:evenodd;"
points="33444,20236
33444,19842
34271,19842
34271,20236
33444,20236
" /> 
<polyline style="fill-rule:evenodd;"
points="34625,19862
34625,19468
35452,19468
35452,19862
34625,19862
" /> 
<polyline style="fill-rule:evenodd;"
points="29153,14586
28759,14586
28759,13759
29153,13759
29153,14586
" /> 
<polyline style="fill-rule:evenodd;"
points="29901,14586
29507,14586
29507,13759
29901,13759
29901,14586
" /> 
<polyline style="fill-rule:evenodd;"
points="29527,13405
29133,13405
29133,12578
29527,12578
29527,13405
" /> 
<polyline style="fill-rule:evenodd;"
points="19645,29114
19645,28366
20511,28366
20511,29114
19645,29114
" /> 
<polyline style="fill-rule:evenodd;"
points="21220,29114
21220,28366
22086,28366
22086,29114
21220,29114
" /> 
<polyline style="fill-rule:evenodd;"
points="27145,31338
26397,31338
26397,30472
27145,30472
27145,31338
" /> 
<polyline style="fill-rule:evenodd;"
points="27145,29763
26397,29763
26397,28897
27145,28897
27145,29763
" /> 
<polyline style="fill-rule:evenodd;"
points="30295,31338
29547,31338
29547,30472
30295,30472
30295,31338
" /> 
<polyline style="fill-rule:evenodd;"
points="30295,29763
29547,29763
29547,28897
30295,28897
30295,29763
" /> 
<polyline style="fill-rule:evenodd;"
points="28720,31338
27972,31338
27972,30472
28720,30472
28720,31338
" /> 
<polyline style="fill-rule:evenodd;"
points="28720,29763
27972,29763
27972,28897
28720,28897
28720,29763
" /> 
<polyline style="fill-rule:evenodd;"
points="17677,19862
17677,19114
18543,19114
18543,19862
17677,19862
" /> 
<polyline style="fill-rule:evenodd;"
points="19251,19862
19251,19114
20118,19114
20118,19862
19251,19862
" /> 
<polyline style="fill-rule:evenodd;"
points="17677,17893
17677,17145
18543,17145
18543,17893
17677,17893
" /> 
<polyline style="fill-rule:evenodd;"
points="19251,17893
19251,17145
20118,17145
20118,17893
19251,17893
" /> 
<polyline style="fill-rule:evenodd;"
points="29547,17677
30295,17677
30295,18543
29547,18543
29547,17677
" /> 
<polyline style="fill-rule:evenodd;"
points="29547,19251
30295,19251
30295,20118
29547,20118
29547,19251
" /> 
<polyline style="fill-rule:evenodd;"
points="26200,14133
26948,14133
26948,15000
26200,15000
26200,14133
" /> 
<polyline style="fill-rule:evenodd;"
points="26200,15708
26948,15708
26948,16574
26200,16574
26200,15708
" /> 
<polyline style="fill-rule:evenodd;"
points="17696,30157
16948,30157
16948,29291
17696,29291
17696,30157
" /> 
<polyline style="fill-rule:evenodd;"
points="17696,28582
16948,28582
16948,27716
17696,27716
17696,28582
" /> 
<polyline style="fill-rule:evenodd;"
points="21496,32106
21496,32854
20629,32854
20629,32106
21496,32106
" /> 
<polyline style="fill-rule:evenodd;"
points="19921,32106
19921,32854
19055,32854
19055,32106
19921,32106
" /> 
<polyline style="fill-rule:evenodd;"
points="32303,28307
33051,28307
33051,29173
32303,29173
32303,28307
" /> 
<polyline style="fill-rule:evenodd;"
points="32303,29881
33051,29881
33051,30748
32303,30748
32303,29881
" /> 
<polyline style="fill-rule:evenodd;"
points="28779,32106
28779,32854
27913,32854
27913,32106
28779,32106
" /> 
<polyline style="fill-rule:evenodd;"
points="27204,32106
27204,32854
26338,32854
26338,32106
27204,32106
" /> 
<polyline style="fill-rule:evenodd;"
points="16712,20511
15964,20511
15964,19645
16712,19645
16712,20511
" /> 
<polyline style="fill-rule:evenodd;"
points="16712,18937
15964,18937
15964,18070
16712,18070
16712,18937
" /> 
<polyline style="fill-rule:evenodd;"
points="17677,16515
17677,15767
18543,15767
18543,16515
17677,16515
" /> 
<polyline style="fill-rule:evenodd;"
points="19251,16515
19251,15767
20118,15767
20118,16515
19251,16515
" /> 
<polyline style="fill-rule:evenodd;"
points="31515,17677
32263,17677
32263,18543
31515,18543
31515,17677
" /> 
<polyline style="fill-rule:evenodd;"
points="31515,19251
32263,19251
32263,20118
31515,20118
31515,19251
" /> 
<polyline style="fill-rule:evenodd;"
points="28700,16122
28700,15374
29566,15374
29566,16122
28700,16122
" /> 
<polyline style="fill-rule:evenodd;"
points="30275,16122
30275,15374
31141,15374
31141,16122
30275,16122
" /> 
<polyline style="fill-rule:evenodd;"
points="15334,22421
14586,22421
14586,21673
15334,21673
15334,22421
" /> 
</g>
<g style="fill:#840000; fill-opacity:1.0; 
stroke:#840000; stroke-width:748.031; stroke-opacity:1; 
stroke-linecap:round; stroke-linejoin:round;">
</g>
<g style="fill:#840000; fill-opacity:0.0; 
stroke:#840000; stroke-width:748.031; stroke-opacity:1; 
stroke-linecap:round; stroke-linejoin:round;">
<path d="M15960 22047
L15960 22047
" />
<path d="M16960 22047
L16960 22047
" />
<path d="M17960 22047
L17960 22047
" />
</g>
<g style="fill:#840000; fill-opacity:0.0; 
stroke:#840000; stroke-width:0; stroke-opacity:1; 
stroke-linecap:round; stroke-linejoin:round;">
</g>
<g style="fill:#840000; fill-opacity:1.0; 
stroke:#840000; stroke-width:0; stroke-opacity:1; 
stroke-linecap:round; stroke-linejoin:round;">
<polyline style="fill-rule:evenodd;"
points="36003,26161
35255,26161
35255,25413
36003,25413
36003,26161
" /> 
</g>
<g style="fill:#840000; fill-opacity:1.0; 
stroke:#840000; stroke-width:748.031; stroke-opacity:1; 
stroke-linecap:round; stroke-linejoin:round;">
</g>
<g style="fill:#840000; fill-opacity:0.0; 
stroke:#840000; stroke-width:748.031; stroke-opacity:1; 
stroke-linecap:round; stroke-linejoin:round;">
<path d="M35629 24787
L35629 24787
" />
<path d="M34629 25787
L34629 25787
" />
<path d="M34629 24787
L34629 24787
" />
<path d="M33629 25787
L33629 25787
" />
<path d="M33629 24787
L33629 24787
" />
<path d="M32629 25787
L32629 25787
" />
<path d="M32629 24787
L32629 24787
" />
<path d="M31629 25787
L31629 25787
" />
<path d="M31629 24787
L31629 24787
" />
<path d="M30629 25787
L30629 25787
" />
<path d="M30629 24787
L30629 24787
" />
<path d="M29629 25787
L29629 25787
" />
<path d="M29629 24787
L29629 24787
" />
<path d="M28629 25787
L28629 25787
" />
<path d="M28629 24787
L28629 24787
" />
<path d="M27629 25787
L27629 25787
" />
<path d="M27629 24787
L27629 24787
" />
<path d="M26629 25787
L26629 25787
" />
<path d="M26629 24787
L26629 24787
" />
</g> 
</svg>
