<?xml version="1.0" standalone="no"?>
 <!DOCTYPE svg PUBLIC "-//W3C//DTD SVG 1.1//EN" 
 "http://www.w3.org/Graphics/SVG/1.1/DTD/svg11.dtd"> 
<svg xmlns="http://www.w3.org/2000/svg" version="1.1" 
    width="29.7002cm" height="21.0007cm" viewBox="0 0 116930 82680 ">
<title>SVG Picture created as flypi_print-B.Fab.svg date 2017/09/21 21:37:16 </title>
  <desc>Picture generated by PCBNEW </desc>
<g style="fill:#000000; fill-opacity:1;stroke:#000000; stroke-opacity:1;
stroke-linecap:round; stroke-linejoin:round; "
 transform="translate(0 0) scale(1 1)">
</g>
<g style="fill:#000000; fill-opacity:0.0; 
stroke:#000000; stroke-width:-0.000393701; stroke-opacity:1; 
stroke-linecap:round; stroke-linejoin:round;">
</g>
<g style="fill:#000000; fill-opacity:0.0; 
stroke:#000000; stroke-width:39.3701; stroke-opacity:1; 
stroke-linecap:round; stroke-linejoin:round;">
</g>
<g style="fill:#000000; fill-opacity:0.0; 
stroke:#000000; stroke-width:59.0551; stroke-opacity:1; 
stroke-linecap:round; stroke-linejoin:round;">
<rect x="69685.9" y="65357.2" width="42519.7" height="12598.4" rx="0" />
</g>
<g style="fill:#000000; fill-opacity:0.0; 
stroke:#000000; stroke-width:39.3701; stroke-opacity:1; 
stroke-linecap:round; stroke-linejoin:round;">
</g>
<g style="fill:#000000; fill-opacity:0.0; 
stroke:#000000; stroke-width:59.0551; stroke-opacity:1; 
stroke-linecap:round; stroke-linejoin:round;">
<rect x="3937.01" y="3937.01" width="109056" height="74806" rx="0" />
</g>
<g style="fill:#000000; fill-opacity:0.0; 
stroke:#000000; stroke-width:39.3701; stroke-opacity:1; 
stroke-linecap:round; stroke-linejoin:round;">
</g>
<g style="fill:#000000; fill-opacity:0.0; 
stroke:#000000; stroke-width:59.0551; stroke-opacity:1; 
stroke-linecap:round; stroke-linejoin:round;">
<rect x="4724.41" y="4724.41" width="107481" height="73231.2" rx="0" />
</g>
<g style="fill:#000000; fill-opacity:0.0; 
stroke:#000000; stroke-width:39.3701; stroke-opacity:1; 
stroke-linecap:round; stroke-linejoin:round;">
</g>
<g style="fill:#000000; fill-opacity:0.0; 
stroke:#000000; stroke-width:59.0551; stroke-opacity:1; 
stroke-linecap:round; stroke-linejoin:round;">
<path d="M23622 4724
L23622 3937
" />
</g>
<g style="fill:#000000; fill-opacity:0.0; 
stroke:#000000; stroke-width:39.3701; stroke-opacity:1; 
stroke-linecap:round; stroke-linejoin:round;">
</g>
<g style="fill:#000000; fill-opacity:0.0; 
stroke:#000000; stroke-width:59.0551; stroke-opacity:1; 
stroke-linecap:round; stroke-linejoin:round;">
<path d="M43307 4724
L43307 3937
" />
</g>
<g style="fill:#000000; fill-opacity:0.0; 
stroke:#000000; stroke-width:39.3701; stroke-opacity:1; 
stroke-linecap:round; stroke-linejoin:round;">
</g>
<g style="fill:#000000; fill-opacity:0.0; 
stroke:#000000; stroke-width:59.0551; stroke-opacity:1; 
stroke-linecap:round; stroke-linejoin:round;">
<path d="M62992 4724
L62992 3937
" />
</g>
<g style="fill:#000000; fill-opacity:0.0; 
stroke:#000000; stroke-width:39.3701; stroke-opacity:1; 
stroke-linecap:round; stroke-linejoin:round;">
</g>
<g style="fill:#000000; fill-opacity:0.0; 
stroke:#000000; stroke-width:59.0551; stroke-opacity:1; 
stroke-linecap:round; stroke-linejoin:round;">
<path d="M82677 4724
L82677 3937
" />
</g>
<g style="fill:#000000; fill-opacity:0.0; 
stroke:#000000; stroke-width:39.3701; stroke-opacity:1; 
stroke-linecap:round; stroke-linejoin:round;">
</g>
<g style="fill:#000000; fill-opacity:0.0; 
stroke:#000000; stroke-width:59.0551; stroke-opacity:1; 
stroke-linecap:round; stroke-linejoin:round;">
<path d="M102362 4724
L102362 3937
" />
</g>
<g style="fill:#000000; fill-opacity:0.0; 
stroke:#000000; stroke-width:39.3701; stroke-opacity:1; 
stroke-linecap:round; stroke-linejoin:round;">
</g>
<g style="fill:#000000; fill-opacity:0.0; 
stroke:#000000; stroke-width:59.0551; stroke-opacity:1; 
stroke-linecap:round; stroke-linejoin:round;">
<path d="M14169 4562
L13877 4562
" />
<path d="M14023 4562
L14023 4050
L13974 4123
L13925 4172
L13877 4196
" />
</g>
<g style="fill:#000000; fill-opacity:0.0; 
stroke:#000000; stroke-width:39.3701; stroke-opacity:1; 
stroke-linecap:round; stroke-linejoin:round;">
</g>
<g style="fill:#000000; fill-opacity:0.0; 
stroke:#000000; stroke-width:59.0551; stroke-opacity:1; 
stroke-linecap:round; stroke-linejoin:round;">
<path d="M33562 4099
L33586 4074
L33635 4050
L33757 4050
L33805 4074
L33830 4099
L33854 4147
L33854 4196
L33830 4269
L33537 4562
L33854 4562
" />
</g>
<g style="fill:#000000; fill-opacity:0.0; 
stroke:#000000; stroke-width:39.3701; stroke-opacity:1; 
stroke-linecap:round; stroke-linejoin:round;">
</g>
<g style="fill:#000000; fill-opacity:0.0; 
stroke:#000000; stroke-width:59.0551; stroke-opacity:1; 
stroke-linecap:round; stroke-linejoin:round;">
<path d="M53222 4050
L53539 4050
L53368 4245
L53442 4245
L53490 4269
L53515 4294
L53539 4342
L53539 4464
L53515 4513
L53490 4537
L53442 4562
L53295 4562
L53247 4537
L53222 4513
" />
</g>
<g style="fill:#000000; fill-opacity:0.0; 
stroke:#000000; stroke-width:39.3701; stroke-opacity:1; 
stroke-linecap:round; stroke-linejoin:round;">
</g>
<g style="fill:#000000; fill-opacity:0.0; 
stroke:#000000; stroke-width:59.0551; stroke-opacity:1; 
stroke-linecap:round; stroke-linejoin:round;">
<path d="M73175 4221
L73175 4562
" />
<path d="M73053 4026
L72932 4391
L73248 4391
" />
</g>
<g style="fill:#000000; fill-opacity:0.0; 
stroke:#000000; stroke-width:39.3701; stroke-opacity:1; 
stroke-linecap:round; stroke-linejoin:round;">
</g>
<g style="fill:#000000; fill-opacity:0.0; 
stroke:#000000; stroke-width:59.0551; stroke-opacity:1; 
stroke-linecap:round; stroke-linejoin:round;">
<path d="M92885 4050
L92641 4050
L92617 4294
L92641 4269
L92690 4245
L92812 4245
L92860 4269
L92885 4294
L92909 4342
L92909 4464
L92885 4513
L92860 4537
L92812 4562
L92690 4562
L92641 4537
L92617 4513
" />
</g>
<g style="fill:#000000; fill-opacity:0.0; 
stroke:#000000; stroke-width:39.3701; stroke-opacity:1; 
stroke-linecap:round; stroke-linejoin:round;">
</g>
<g style="fill:#000000; fill-opacity:0.0; 
stroke:#000000; stroke-width:59.0551; stroke-opacity:1; 
stroke-linecap:round; stroke-linejoin:round;">
<path d="M112545 4050
L112448 4050
L112399 4074
L112375 4099
L112326 4172
L112302 4269
L112302 4464
L112326 4513
L112350 4537
L112399 4562
L112497 4562
L112545 4537
L112570 4513
L112594 4464
L112594 4342
L112570 4294
L112545 4269
L112497 4245
L112399 4245
L112350 4269
L112326 4294
L112302 4342
" />
</g>
<g style="fill:#000000; fill-opacity:0.0; 
stroke:#000000; stroke-width:39.3701; stroke-opacity:1; 
stroke-linecap:round; stroke-linejoin:round;">
</g>
<g style="fill:#000000; fill-opacity:0.0; 
stroke:#000000; stroke-width:59.0551; stroke-opacity:1; 
stroke-linecap:round; stroke-linejoin:round;">
<path d="M23622 77955
L23622 78742
" />
</g>
<g style="fill:#000000; fill-opacity:0.0; 
stroke:#000000; stroke-width:39.3701; stroke-opacity:1; 
stroke-linecap:round; stroke-linejoin:round;">
</g>
<g style="fill:#000000; fill-opacity:0.0; 
stroke:#000000; stroke-width:59.0551; stroke-opacity:1; 
stroke-linecap:round; stroke-linejoin:round;">
<path d="M43307 77955
L43307 78742
" />
</g>
<g style="fill:#000000; fill-opacity:0.0; 
stroke:#000000; stroke-width:39.3701; stroke-opacity:1; 
stroke-linecap:round; stroke-linejoin:round;">
</g>
<g style="fill:#000000; fill-opacity:0.0; 
stroke:#000000; stroke-width:59.0551; stroke-opacity:1; 
stroke-linecap:round; stroke-linejoin:round;">
<path d="M62992 77955
L62992 78742
" />
</g>
<g style="fill:#000000; fill-opacity:0.0; 
stroke:#000000; stroke-width:39.3701; stroke-opacity:1; 
stroke-linecap:round; stroke-linejoin:round;">
</g>
<g style="fill:#000000; fill-opacity:0.0; 
stroke:#000000; stroke-width:59.0551; stroke-opacity:1; 
stroke-linecap:round; stroke-linejoin:round;">
<path d="M82677 77955
L82677 78742
" />
</g>
<g style="fill:#000000; fill-opacity:0.0; 
stroke:#000000; stroke-width:39.3701; stroke-opacity:1; 
stroke-linecap:round; stroke-linejoin:round;">
</g>
<g style="fill:#000000; fill-opacity:0.0; 
stroke:#000000; stroke-width:59.0551; stroke-opacity:1; 
stroke-linecap:round; stroke-linejoin:round;">
<path d="M102362 77955
L102362 78742
" />
</g>
<g style="fill:#000000; fill-opacity:0.0; 
stroke:#000000; stroke-width:39.3701; stroke-opacity:1; 
stroke-linecap:round; stroke-linejoin:round;">
</g>
<g style="fill:#000000; fill-opacity:0.0; 
stroke:#000000; stroke-width:59.0551; stroke-opacity:1; 
stroke-linecap:round; stroke-linejoin:round;">
<path d="M14169 78580
L13877 78580
" />
<path d="M14023 78580
L14023 78069
L13974 78142
L13925 78190
L13877 78215
" />
</g>
<g style="fill:#000000; fill-opacity:0.0; 
stroke:#000000; stroke-width:39.3701; stroke-opacity:1; 
stroke-linecap:round; stroke-linejoin:round;">
</g>
<g style="fill:#000000; fill-opacity:0.0; 
stroke:#000000; stroke-width:59.0551; stroke-opacity:1; 
stroke-linecap:round; stroke-linejoin:round;">
<path d="M33562 78117
L33586 78093
L33635 78069
L33757 78069
L33805 78093
L33830 78117
L33854 78166
L33854 78215
L33830 78288
L33537 78580
L33854 78580
" />
</g>
<g style="fill:#000000; fill-opacity:0.0; 
stroke:#000000; stroke-width:39.3701; stroke-opacity:1; 
stroke-linecap:round; stroke-linejoin:round;">
</g>
<g style="fill:#000000; fill-opacity:0.0; 
stroke:#000000; stroke-width:59.0551; stroke-opacity:1; 
stroke-linecap:round; stroke-linejoin:round;">
<path d="M53222 78069
L53539 78069
L53368 78263
L53442 78263
L53490 78288
L53515 78312
L53539 78361
L53539 78483
L53515 78532
L53490 78556
L53442 78580
L53295 78580
L53247 78556
L53222 78532
" />
</g>
<g style="fill:#000000; fill-opacity:0.0; 
stroke:#000000; stroke-width:39.3701; stroke-opacity:1; 
stroke-linecap:round; stroke-linejoin:round;">
</g>
<g style="fill:#000000; fill-opacity:0.0; 
stroke:#000000; stroke-width:59.0551; stroke-opacity:1; 
stroke-linecap:round; stroke-linejoin:round;">
<path d="M73175 78239
L73175 78580
" />
<path d="M73053 78044
L72932 78410
L73248 78410
" />
</g>
<g style="fill:#000000; fill-opacity:0.0; 
stroke:#000000; stroke-width:39.3701; stroke-opacity:1; 
stroke-linecap:round; stroke-linejoin:round;">
</g>
<g style="fill:#000000; fill-opacity:0.0; 
stroke:#000000; stroke-width:59.0551; stroke-opacity:1; 
stroke-linecap:round; stroke-linejoin:round;">
<path d="M92885 78069
L92641 78069
L92617 78312
L92641 78288
L92690 78263
L92812 78263
L92860 78288
L92885 78312
L92909 78361
L92909 78483
L92885 78532
L92860 78556
L92812 78580
L92690 78580
L92641 78556
L92617 78532
" />
</g>
<g style="fill:#000000; fill-opacity:0.0; 
stroke:#000000; stroke-width:39.3701; stroke-opacity:1; 
stroke-linecap:round; stroke-linejoin:round;">
</g>
<g style="fill:#000000; fill-opacity:0.0; 
stroke:#000000; stroke-width:59.0551; stroke-opacity:1; 
stroke-linecap:round; stroke-linejoin:round;">
<path d="M112545 78069
L112448 78069
L112399 78093
L112375 78117
L112326 78190
L112302 78288
L112302 78483
L112326 78532
L112350 78556
L112399 78580
L112497 78580
L112545 78556
L112570 78532
L112594 78483
L112594 78361
L112570 78312
L112545 78288
L112497 78263
L112399 78263
L112350 78288
L112326 78312
L112302 78361
" />
</g>
<g style="fill:#000000; fill-opacity:0.0; 
stroke:#000000; stroke-width:39.3701; stroke-opacity:1; 
stroke-linecap:round; stroke-linejoin:round;">
</g>
<g style="fill:#000000; fill-opacity:0.0; 
stroke:#000000; stroke-width:59.0551; stroke-opacity:1; 
stroke-linecap:round; stroke-linejoin:round;">
<path d="M3937 23622
L4724 23622
" />
</g>
<g style="fill:#000000; fill-opacity:0.0; 
stroke:#000000; stroke-width:39.3701; stroke-opacity:1; 
stroke-linecap:round; stroke-linejoin:round;">
</g>
<g style="fill:#000000; fill-opacity:0.0; 
stroke:#000000; stroke-width:59.0551; stroke-opacity:1; 
stroke-linecap:round; stroke-linejoin:round;">
<path d="M3937 43307
L4724 43307
" />
</g>
<g style="fill:#000000; fill-opacity:0.0; 
stroke:#000000; stroke-width:39.3701; stroke-opacity:1; 
stroke-linecap:round; stroke-linejoin:round;">
</g>
<g style="fill:#000000; fill-opacity:0.0; 
stroke:#000000; stroke-width:59.0551; stroke-opacity:1; 
stroke-linecap:round; stroke-linejoin:round;">
<path d="M3937 62992
L4724 62992
" />
</g>
<g style="fill:#000000; fill-opacity:0.0; 
stroke:#000000; stroke-width:39.3701; stroke-opacity:1; 
stroke-linecap:round; stroke-linejoin:round;">
</g>
<g style="fill:#000000; fill-opacity:0.0; 
stroke:#000000; stroke-width:59.0551; stroke-opacity:1; 
stroke-linecap:round; stroke-linejoin:round;">
<path d="M4208 13864
L4452 13864
" />
<path d="M4160 14011
L4330 13499
L4501 14011
" />
</g>
<g style="fill:#000000; fill-opacity:0.0; 
stroke:#000000; stroke-width:39.3701; stroke-opacity:1; 
stroke-linecap:round; stroke-linejoin:round;">
</g>
<g style="fill:#000000; fill-opacity:0.0; 
stroke:#000000; stroke-width:59.0551; stroke-opacity:1; 
stroke-linecap:round; stroke-linejoin:round;">
<path d="M4367 33428
L4440 33452
L4464 33476
L4489 33525
L4489 33598
L4464 33647
L4440 33671
L4391 33696
L4196 33696
L4196 33184
L4367 33184
L4416 33208
L4440 33233
L4464 33281
L4464 33330
L4440 33379
L4416 33403
L4367 33428
L4196 33428
" />
</g>
<g style="fill:#000000; fill-opacity:0.0; 
stroke:#000000; stroke-width:39.3701; stroke-opacity:1; 
stroke-linecap:round; stroke-linejoin:round;">
</g>
<g style="fill:#000000; fill-opacity:0.0; 
stroke:#000000; stroke-width:59.0551; stroke-opacity:1; 
stroke-linecap:round; stroke-linejoin:round;">
<path d="M4489 53332
L4464 53356
L4391 53381
L4342 53381
L4269 53356
L4221 53308
L4196 53259
L4172 53161
L4172 53088
L4196 52991
L4221 52942
L4269 52893
L4342 52869
L4391 52869
L4464 52893
L4489 52918
" />
</g>
<g style="fill:#000000; fill-opacity:0.0; 
stroke:#000000; stroke-width:39.3701; stroke-opacity:1; 
stroke-linecap:round; stroke-linejoin:round;">
</g>
<g style="fill:#000000; fill-opacity:0.0; 
stroke:#000000; stroke-width:59.0551; stroke-opacity:1; 
stroke-linecap:round; stroke-linejoin:round;">
<path d="M4196 73066
L4196 72554
L4318 72554
L4391 72578
L4440 72627
L4464 72676
L4489 72773
L4489 72846
L4464 72944
L4440 72993
L4391 73041
L4318 73066
L4196 73066
" />
</g>
<g style="fill:#000000; fill-opacity:0.0; 
stroke:#000000; stroke-width:39.3701; stroke-opacity:1; 
stroke-linecap:round; stroke-linejoin:round;">
</g>
<g style="fill:#000000; fill-opacity:0.0; 
stroke:#000000; stroke-width:59.0551; stroke-opacity:1; 
stroke-linecap:round; stroke-linejoin:round;">
<path d="M112992 23622
L112205 23622
" />
</g>
<g style="fill:#000000; fill-opacity:0.0; 
stroke:#000000; stroke-width:39.3701; stroke-opacity:1; 
stroke-linecap:round; stroke-linejoin:round;">
</g>
<g style="fill:#000000; fill-opacity:0.0; 
stroke:#000000; stroke-width:59.0551; stroke-opacity:1; 
stroke-linecap:round; stroke-linejoin:round;">
<path d="M112992 43307
L112205 43307
" />
</g>
<g style="fill:#000000; fill-opacity:0.0; 
stroke:#000000; stroke-width:39.3701; stroke-opacity:1; 
stroke-linecap:round; stroke-linejoin:round;">
</g>
<g style="fill:#000000; fill-opacity:0.0; 
stroke:#000000; stroke-width:59.0551; stroke-opacity:1; 
stroke-linecap:round; stroke-linejoin:round;">
<path d="M112992 62992
L112205 62992
" />
</g>
<g style="fill:#000000; fill-opacity:0.0; 
stroke:#000000; stroke-width:39.3701; stroke-opacity:1; 
stroke-linecap:round; stroke-linejoin:round;">
</g>
<g style="fill:#000000; fill-opacity:0.0; 
stroke:#000000; stroke-width:59.0551; stroke-opacity:1; 
stroke-linecap:round; stroke-linejoin:round;">
<path d="M112477 13864
L112721 13864
" />
<path d="M112428 14011
L112599 13499
L112769 14011
" />
</g>
<g style="fill:#000000; fill-opacity:0.0; 
stroke:#000000; stroke-width:39.3701; stroke-opacity:1; 
stroke-linecap:round; stroke-linejoin:round;">
</g>
<g style="fill:#000000; fill-opacity:0.0; 
stroke:#000000; stroke-width:59.0551; stroke-opacity:1; 
stroke-linecap:round; stroke-linejoin:round;">
<path d="M112635 33428
L112708 33452
L112733 33476
L112757 33525
L112757 33598
L112733 33647
L112708 33671
L112660 33696
L112465 33696
L112465 33184
L112635 33184
L112684 33208
L112708 33233
L112733 33281
L112733 33330
L112708 33379
L112684 33403
L112635 33428
L112465 33428
" />
</g>
<g style="fill:#000000; fill-opacity:0.0; 
stroke:#000000; stroke-width:39.3701; stroke-opacity:1; 
stroke-linecap:round; stroke-linejoin:round;">
</g>
<g style="fill:#000000; fill-opacity:0.0; 
stroke:#000000; stroke-width:59.0551; stroke-opacity:1; 
stroke-linecap:round; stroke-linejoin:round;">
<path d="M112757 53332
L112733 53356
L112660 53381
L112611 53381
L112538 53356
L112489 53308
L112465 53259
L112440 53161
L112440 53088
L112465 52991
L112489 52942
L112538 52893
L112611 52869
L112660 52869
L112733 52893
L112757 52918
" />
</g>
<g style="fill:#000000; fill-opacity:0.0; 
stroke:#000000; stroke-width:39.3701; stroke-opacity:1; 
stroke-linecap:round; stroke-linejoin:round;">
</g>
<g style="fill:#000000; fill-opacity:0.0; 
stroke:#000000; stroke-width:59.0551; stroke-opacity:1; 
stroke-linecap:round; stroke-linejoin:round;">
<path d="M112465 73066
L112465 72554
L112587 72554
L112660 72578
L112708 72627
L112733 72676
L112757 72773
L112757 72846
L112733 72944
L112708 72993
L112660 73041
L112587 73066
L112465 73066
" />
</g>
<g style="fill:#000000; fill-opacity:0.0; 
stroke:#000000; stroke-width:39.3701; stroke-opacity:1; 
stroke-linecap:round; stroke-linejoin:round;">
</g>
<g style="fill:#000000; fill-opacity:0.0; 
stroke:#000000; stroke-width:59.0551; stroke-opacity:1; 
stroke-linecap:round; stroke-linejoin:round;">
<path d="M78881 76293
L78881 75703
L79022 75703
L79106 75731
L79162 75787
L79190 75843
L79219 75956
L79219 76040
L79190 76153
L79162 76209
L79106 76265
L79022 76293
L78881 76293
" />
<path d="M79725 76293
L79725 75984
L79697 75928
L79640 75899
L79528 75899
L79472 75928
" />
<path d="M79725 76265
L79669 76293
L79528 76293
L79472 76265
L79444 76209
L79444 76153
L79472 76096
L79528 76068
L79669 76068
L79725 76040
" />
<path d="M79922 75899
L80147 75899
" />
<path d="M80006 75703
L80006 76209
L80034 76265
L80090 76293
L80147 76293
" />
<path d="M80568 76265
L80512 76293
L80400 76293
L80343 76265
L80315 76209
L80315 75984
L80343 75928
L80400 75899
L80512 75899
L80568 75928
L80597 75984
L80597 76040
L80315 76096
" />
<path d="M80850 76237
L80878 76265
L80850 76293
L80822 76265
L80850 76237
L80850 76293
" />
<path d="M80850 75928
L80878 75956
L80850 75984
L80822 75956
L80850 75928
L80850 75984
" />
</g>
<g style="fill:#000000; fill-opacity:0.0; 
stroke:#000000; stroke-width:39.3701; stroke-opacity:1; 
stroke-linecap:round; stroke-linejoin:round;">
</g>
<g style="fill:#000000; fill-opacity:0.0; 
stroke:#000000; stroke-width:59.0551; stroke-opacity:1; 
stroke-linecap:round; stroke-linejoin:round;">
<path d="M69685 76577
L112205 76577
" />
</g>
<g style="fill:#000000; fill-opacity:0.0; 
stroke:#000000; stroke-width:39.3701; stroke-opacity:1; 
stroke-linecap:round; stroke-linejoin:round;">
</g>
<g style="fill:#000000; fill-opacity:0.0; 
stroke:#000000; stroke-width:59.0551; stroke-opacity:1; 
stroke-linecap:round; stroke-linejoin:round;">
<path d="M70220 77395
L70220 76805
" />
<path d="M70557 77395
L70304 77058
" />
<path d="M70557 76805
L70220 77142
" />
<path d="M70810 77395
L70810 77002
" />
<path d="M70810 76805
L70782 76833
L70810 76861
L70838 76833
L70810 76805
L70810 76861
" />
<path d="M71429 77339
L71401 77367
L71316 77395
L71260 77395
L71176 77367
L71120 77311
L71091 77255
L71063 77142
L71063 77058
L71091 76946
L71120 76889
L71176 76833
L71260 76805
L71316 76805
L71401 76833
L71429 76861
" />
<path d="M71935 77395
L71935 77086
L71907 77030
L71851 77002
L71738 77002
L71682 77030
" />
<path d="M71935 77367
L71879 77395
L71738 77395
L71682 77367
L71654 77311
L71654 77255
L71682 77199
L71738 77171
L71879 77171
L71935 77142
" />
<path d="M72469 77395
L72469 76805
" />
<path d="M72469 77367
L72413 77395
L72301 77395
L72244 77367
L72216 77339
L72188 77283
L72188 77114
L72216 77058
L72244 77030
L72301 77002
L72413 77002
L72469 77030
" />
<path d="M73201 77086
L73397 77086
" />
<path d="M73482 77395
L73201 77395
L73201 76805
L73482 76805
" />
<path d="M73735 77339
L73763 77367
L73735 77395
L73707 77367
L73735 77339
L73735 77395
" />
<path d="M74016 77395
L74016 76805
L74157 76805
L74241 76833
L74297 76889
L74325 76946
L74354 77058
L74354 77142
L74325 77255
L74297 77311
L74241 77367
L74157 77395
L74016 77395
" />
<path d="M74607 77339
L74635 77367
L74607 77395
L74579 77367
L74607 77339
L74607 77395
" />
<path d="M74860 77227
L75141 77227
" />
<path d="M74804 77395
L75000 76805
L75197 77395
" />
<path d="M75394 77339
L75422 77367
L75394 77395
L75366 77367
L75394 77339
L75394 77395
" />
<path d="M76575 77395
L76575 76805
" />
<path d="M76631 77171
L76800 77395
" />
<path d="M76800 77002
L76575 77227
" />
<path d="M77053 77395
L77053 77002
" />
<path d="M77053 76805
L77025 76833
L77053 76861
L77081 76833
L77053 76805
L77053 76861
" />
<path d="M77588 77367
L77531 77395
L77419 77395
L77363 77367
L77334 77339
L77306 77283
L77306 77114
L77334 77058
L77363 77030
L77419 77002
L77531 77002
L77588 77030
" />
<path d="M78094 77395
L78094 77086
L78066 77030
L78009 77002
L77897 77002
L77841 77030
" />
<path d="M78094 77367
L78037 77395
L77897 77395
L77841 77367
L77813 77311
L77813 77255
L77841 77199
L77897 77171
L78037 77171
L78094 77142
" />
<path d="M78628 77395
L78628 76805
" />
<path d="M78628 77367
L78572 77395
L78459 77395
L78403 77367
L78375 77339
L78347 77283
L78347 77114
L78375 77058
L78403 77030
L78459 77002
L78572 77002
L78628 77030
" />
<path d="M79612 77002
L79612 77395
" />
<path d="M79472 76777
L79331 77199
L79697 77199
" />
<path d="M79922 77339
L79950 77367
L79922 77395
L79894 77367
L79922 77339
L79922 77395
" />
<path d="M80315 76805
L80372 76805
L80428 76833
L80456 76861
L80484 76917
L80512 77030
L80512 77171
L80484 77283
L80456 77339
L80428 77367
L80372 77395
L80315 77395
L80259 77367
L80231 77339
L80203 77283
L80175 77171
L80175 77030
L80203 76917
L80231 76861
L80259 76833
L80315 76805
" />
<path d="M80765 77339
L80793 77367
L80765 77395
L80737 77367
L80765 77339
L80765 77395
" />
<path d="M80990 76805
L81384 76805
L81131 77395
" />
</g>
<g style="fill:#000000; fill-opacity:0.0; 
stroke:#000000; stroke-width:39.3701; stroke-opacity:1; 
stroke-linecap:round; stroke-linejoin:round;">
</g>
<g style="fill:#000000; fill-opacity:0.0; 
stroke:#000000; stroke-width:59.0551; stroke-opacity:1; 
stroke-linecap:round; stroke-linejoin:round;">
<path d="M69685 75396
L112205 75396
" />
</g>
<g style="fill:#000000; fill-opacity:0.0; 
stroke:#000000; stroke-width:39.3701; stroke-opacity:1; 
stroke-linecap:round; stroke-linejoin:round;">
</g>
<g style="fill:#000000; fill-opacity:0.0; 
stroke:#000000; stroke-width:118.11; stroke-opacity:1; 
stroke-linecap:round; stroke-linejoin:round;">
<path d="M104022 76293
L103825 76012
" />
<path d="M103684 76293
L103684 75703
L103909 75703
L103965 75731
L103994 75759
L104022 75815
L104022 75899
L103994 75956
L103965 75984
L103909 76012
L103684 76012
" />
<path d="M104500 76265
L104444 76293
L104331 76293
L104275 76265
L104247 76209
L104247 75984
L104275 75928
L104331 75899
L104444 75899
L104500 75928
L104528 75984
L104528 76040
L104247 76096
" />
<path d="M104725 75899
L104865 76293
L105006 75899
" />
<path d="M105231 76237
L105259 76265
L105231 76293
L105203 76265
L105231 76237
L105231 76293
" />
<path d="M105231 75928
L105259 75956
L105231 75984
L105203 75956
L105231 75928
L105231 75984
" />
</g>
<g style="fill:#000000; fill-opacity:0.0; 
stroke:#000000; stroke-width:39.3701; stroke-opacity:1; 
stroke-linecap:round; stroke-linejoin:round;">
</g>
<g style="fill:#000000; fill-opacity:0.0; 
stroke:#000000; stroke-width:59.0551; stroke-opacity:1; 
stroke-linecap:round; stroke-linejoin:round;">
<path d="M70192 76265
L70276 76293
L70417 76293
L70473 76265
L70501 76237
L70529 76181
L70529 76124
L70501 76068
L70473 76040
L70417 76012
L70304 75984
L70248 75956
L70220 75928
L70192 75871
L70192 75815
L70220 75759
L70248 75731
L70304 75703
L70445 75703
L70529 75731
" />
<path d="M70782 76293
L70782 75899
" />
<path d="M70782 75703
L70754 75731
L70782 75759
L70810 75731
L70782 75703
L70782 75759
" />
<path d="M71007 75899
L71316 75899
L71007 76293
L71316 76293
" />
<path d="M71766 76265
L71710 76293
L71598 76293
L71541 76265
L71513 76209
L71513 75984
L71541 75928
L71598 75899
L71710 75899
L71766 75928
L71795 75984
L71795 76040
L71513 76096
" />
<path d="M72048 76237
L72076 76265
L72048 76293
L72019 76265
L72048 76237
L72048 76293
" />
<path d="M72048 75928
L72076 75956
L72048 75984
L72019 75956
L72048 75928
L72048 75984
" />
<path d="M72751 76124
L73032 76124
" />
<path d="M72694 76293
L72891 75703
L73088 76293
" />
<path d="M73538 75899
L73538 76293
" />
<path d="M73397 75674
L73257 76096
L73622 76096
" />
</g>
<g style="fill:#000000; fill-opacity:0.0; 
stroke:#000000; stroke-width:39.3701; stroke-opacity:1; 
stroke-linecap:round; stroke-linejoin:round;">
</g>
<g style="fill:#000000; fill-opacity:0.0; 
stroke:#000000; stroke-width:59.0551; stroke-opacity:1; 
stroke-linecap:round; stroke-linejoin:round;">
<path d="M103684 77395
L103684 76805
" />
<path d="M104219 77395
L104219 76805
" />
<path d="M104219 77367
L104162 77395
L104050 77395
L103994 77367
L103965 77339
L103937 77283
L103937 77114
L103965 77058
L103994 77030
L104050 77002
L104162 77002
L104219 77030
" />
<path d="M104500 77339
L104528 77367
L104500 77395
L104472 77367
L104500 77339
L104500 77395
" />
<path d="M104500 77030
L104528 77058
L104500 77086
L104472 77058
L104500 77030
L104500 77086
" />
<path d="M105540 77395
L105203 77395
" />
<path d="M105372 77395
L105372 76805
L105315 76889
L105259 76946
L105203 76974
" />
<path d="M106215 76777
L105709 77536
" />
<path d="M106721 77395
L106384 77395
" />
<path d="M106553 77395
L106553 76805
L106496 76889
L106440 76946
L106384 76974
" />
</g>
<g style="fill:#000000; fill-opacity:0.0; 
stroke:#000000; stroke-width:39.3701; stroke-opacity:1; 
stroke-linecap:round; stroke-linejoin:round;">
</g>
<g style="fill:#000000; fill-opacity:0.0; 
stroke:#000000; stroke-width:59.0551; stroke-opacity:1; 
stroke-linecap:round; stroke-linejoin:round;">
<path d="M69685 73821
L112205 73821
" />
</g>
<g style="fill:#000000; fill-opacity:0.0; 
stroke:#000000; stroke-width:39.3701; stroke-opacity:1; 
stroke-linecap:round; stroke-linejoin:round;">
</g>
<g style="fill:#000000; fill-opacity:0.0; 
stroke:#000000; stroke-width:157.48; stroke-opacity:1; 
stroke-linecap:round; stroke-linejoin:round;">
<path d="M70257 74099
L70707 74099
" />
<path d="M70384 74886
L70482 74099
" />
<path d="M70871 74886
L70937 74361
" />
<path d="M70970 74099
L70927 74136
L70960 74174
L71002 74136
L70970 74099
L70960 74174
" />
<path d="M71199 74361
L71499 74361
" />
<path d="M71345 74099
L71260 74774
L71288 74849
L71359 74886
L71434 74886
" />
<path d="M71809 74886
L71738 74849
L71710 74774
L71795 74099
" />
<path d="M72413 74849
L72334 74886
L72184 74886
L72113 74849
L72085 74774
L72123 74474
L72169 74399
L72249 74361
L72399 74361
L72469 74399
L72498 74474
L72488 74549
L72104 74624
" />
<path d="M72793 74811
L72826 74849
L72783 74886
L72751 74849
L72793 74811
L72783 74886
" />
<path d="M72844 74399
L72877 74436
L72835 74474
L72802 74436
L72844 74399
L72835 74474
" />
</g>
<g style="fill:#000000; fill-opacity:0.0; 
stroke:#000000; stroke-width:39.3701; stroke-opacity:1; 
stroke-linecap:round; stroke-linejoin:round;">
</g>
<g style="fill:#000000; fill-opacity:0.0; 
stroke:#000000; stroke-width:59.0551; stroke-opacity:1; 
stroke-linecap:round; stroke-linejoin:round;">
<path d="M70417 73070
L70220 73070
" />
<path d="M70220 73380
L70220 72789
L70501 72789
" />
<path d="M70726 73380
L70726 72986
" />
<path d="M70726 72789
L70698 72817
L70726 72845
L70754 72817
L70726 72789
L70726 72845
" />
<path d="M71091 73380
L71035 73352
L71007 73295
L71007 72789
" />
<path d="M71541 73352
L71485 73380
L71373 73380
L71316 73352
L71288 73295
L71288 73070
L71316 73014
L71373 72986
L71485 72986
L71541 73014
L71570 73070
L71570 73127
L71288 73183
" />
<path d="M71823 73323
L71851 73352
L71823 73380
L71795 73352
L71823 73323
L71823 73380
" />
<path d="M71823 73014
L71851 73042
L71823 73070
L71795 73042
L71823 73014
L71823 73070
" />
<path d="M72469 72986
L72694 72986
" />
<path d="M72554 73380
L72554 72874
L72582 72817
L72638 72789
L72694 72789
" />
<path d="M72976 73380
L72919 73352
L72891 73295
L72891 72789
" />
<path d="M73144 72986
L73285 73380
" />
<path d="M73426 72986
L73285 73380
L73229 73520
L73201 73548
L73144 73577
" />
<path d="M73651 72986
L73651 73577
" />
<path d="M73651 73014
L73707 72986
L73819 72986
L73876 73014
L73904 73042
L73932 73099
L73932 73267
L73904 73323
L73876 73352
L73819 73380
L73707 73380
L73651 73352
" />
<path d="M74185 73380
L74185 72986
" />
<path d="M74185 72789
L74157 72817
L74185 72845
L74213 72817
L74185 72789
L74185 72845
" />
<path d="M74325 73436
L74775 73436
" />
<path d="M74916 72986
L74916 73577
" />
<path d="M74916 73014
L74972 72986
L75085 72986
L75141 73014
L75169 73042
L75197 73099
L75197 73267
L75169 73323
L75141 73352
L75085 73380
L74972 73380
L74916 73352
" />
<path d="M75450 73380
L75450 72986
" />
<path d="M75450 73099
L75478 73042
L75507 73014
L75563 72986
L75619 72986
" />
<path d="M75816 73380
L75816 72986
" />
<path d="M75816 72789
L75788 72817
L75816 72845
L75844 72817
L75816 72789
L75816 72845
" />
<path d="M76097 72986
L76097 73380
" />
<path d="M76097 73042
L76125 73014
L76181 72986
L76266 72986
L76322 73014
L76350 73070
L76350 73380
" />
<path d="M76547 72986
L76772 72986
" />
<path d="M76631 72789
L76631 73295
L76660 73352
L76716 73380
L76772 73380
" />
<path d="M76969 73323
L76997 73352
L76969 73380
L76941 73352
L76969 73323
L76969 73380
" />
<path d="M77250 73380
L77250 72789
" />
<path d="M77306 73155
L77475 73380
" />
<path d="M77475 72986
L77250 73211
" />
<path d="M77728 73380
L77728 72986
" />
<path d="M77728 72789
L77700 72817
L77728 72845
L77756 72817
L77728 72789
L77728 72845
" />
<path d="M78262 73352
L78206 73380
L78094 73380
L78037 73352
L78009 73323
L77981 73267
L77981 73099
L78009 73042
L78037 73014
L78094 72986
L78206 72986
L78262 73014
" />
<path d="M78769 73380
L78769 73070
L78741 73014
L78684 72986
L78572 72986
L78516 73014
" />
<path d="M78769 73352
L78712 73380
L78572 73380
L78516 73352
L78487 73295
L78487 73239
L78516 73183
L78572 73155
L78712 73155
L78769 73127
" />
<path d="M79303 73380
L79303 72789
" />
<path d="M79303 73352
L79247 73380
L79134 73380
L79078 73352
L79050 73323
L79022 73267
L79022 73099
L79050 73042
L79078 73014
L79134 72986
L79247 72986
L79303 73014
" />
<path d="M79444 73436
L79894 73436
" />
<path d="M80034 72986
L80034 73577
" />
<path d="M80034 73014
L80090 72986
L80203 72986
L80259 73014
L80287 73042
L80315 73099
L80315 73267
L80287 73323
L80259 73352
L80203 73380
L80090 73380
L80034 73352
" />
<path d="M80822 73352
L80765 73380
L80653 73380
L80597 73352
L80568 73323
L80540 73267
L80540 73099
L80568 73042
L80597 73014
L80653 72986
L80765 72986
L80822 73014
" />
<path d="M81075 73380
L81075 72789
" />
<path d="M81075 73014
L81131 72986
L81243 72986
L81300 73014
L81328 73042
L81356 73099
L81356 73267
L81328 73323
L81300 73352
L81243 73380
L81131 73380
L81075 73352
" />
</g>
<g style="fill:#000000; fill-opacity:0.0; 
stroke:#000000; stroke-width:39.3701; stroke-opacity:1; 
stroke-linecap:round; stroke-linejoin:round;">
</g>
<g style="fill:#000000; fill-opacity:0.0; 
stroke:#000000; stroke-width:59.0551; stroke-opacity:1; 
stroke-linecap:round; stroke-linejoin:round;">
<path d="M69685 71459
L112205 71459
" />
</g>
<g style="fill:#000000; fill-opacity:0.0; 
stroke:#000000; stroke-width:39.3701; stroke-opacity:1; 
stroke-linecap:round; stroke-linejoin:round;">
</g>
<g style="fill:#000000; fill-opacity:0.0; 
stroke:#000000; stroke-width:59.0551; stroke-opacity:1; 
stroke-linecap:round; stroke-linejoin:round;">
<path d="M70192 72289
L70276 72317
L70417 72317
L70473 72289
L70501 72260
L70529 72204
L70529 72148
L70501 72092
L70473 72064
L70417 72036
L70304 72007
L70248 71979
L70220 71951
L70192 71895
L70192 71839
L70220 71782
L70248 71754
L70304 71726
L70445 71726
L70529 71754
" />
<path d="M70782 72317
L70782 71726
" />
<path d="M71035 72317
L71035 72007
L71007 71951
L70951 71923
L70867 71923
L70810 71951
L70782 71979
" />
<path d="M71541 72289
L71485 72317
L71373 72317
L71316 72289
L71288 72232
L71288 72007
L71316 71951
L71373 71923
L71485 71923
L71541 71951
L71570 72007
L71570 72064
L71288 72120
" />
<path d="M72048 72289
L71991 72317
L71879 72317
L71823 72289
L71795 72232
L71795 72007
L71823 71951
L71879 71923
L71991 71923
L72048 71951
L72076 72007
L72076 72064
L71795 72120
" />
<path d="M72244 71923
L72469 71923
" />
<path d="M72329 71726
L72329 72232
L72357 72289
L72413 72317
L72469 72317
" />
<path d="M72666 72260
L72694 72289
L72666 72317
L72638 72289
L72666 72260
L72666 72317
" />
<path d="M72666 71951
L72694 71979
L72666 72007
L72638 71979
L72666 71951
L72666 72007
" />
</g>
<g style="fill:#000000; fill-opacity:0.0; 
stroke:#000000; stroke-width:39.3701; stroke-opacity:1; 
stroke-linecap:round; stroke-linejoin:round;">
</g>
<g style="fill:#000000; fill-opacity:0.0; 
stroke:#000000; stroke-width:59.0551; stroke-opacity:1; 
stroke-linecap:round; stroke-linejoin:round;">
<path d="M77559 75396
L77559 76577
" />
</g>
<g style="fill:#000000; fill-opacity:0.0; 
stroke:#000000; stroke-width:39.3701; stroke-opacity:1; 
stroke-linecap:round; stroke-linejoin:round;">
</g>
<g style="fill:#000000; fill-opacity:0.0; 
stroke:#000000; stroke-width:59.0551; stroke-opacity:1; 
stroke-linecap:round; stroke-linejoin:round;">
<path d="M102756 75396
L102756 77955
" />
</g>
<g style="fill:#C2C200; fill-opacity:0.0; 
stroke:#C2C200; stroke-width:59.0551; stroke-opacity:1; 
stroke-linecap:round; stroke-linejoin:round;">
</g>
<g style="fill:#C2C200; fill-opacity:0.0; 
stroke:#C2C200; stroke-width:39.3701; stroke-opacity:1; 
stroke-linecap:round; stroke-linejoin:round;">
<path d="M29921 11023
L32677 11023
" />
<path d="M29921 8267
L29921 11023
" />
<path d="M27559 12598
L19291 12598
" />
<path d="M28346 11811
L27559 12598
" />
<path d="M28346 9448
L28346 11811
" />
<path d="M27559 9448
L28346 9448
" />
<path d="M26771 8661
L27559 9448
" />
<path d="M26771 7480
L26771 8661
" />
<path d="M17716 11811
L15748 11811
" />
<path d="M17716 8267
L17716 11811
" />
<path d="M19291 9448
L19291 12598
" />
<path d="M20078 9448
L19291 9448
" />
<path d="M20866 8661
L20078 9448
" />
<path d="M20866 7480
L20866 8661
" />
<path d="M12598 8661
L15748 11811
" />
<path d="M19291 6692
L17716 8267
" />
<path d="M20078 6692
L19291 6692
" />
<path d="M28346 6692
L29921 8267
" />
<path d="M27559 6692
L28346 6692
" />
<path d="M26771 7480
L27559 6692
" />
<path d="M20078 6692
L20866 7480
" />
<circle cx="19763.8" cy="8031.5" r="433.071" /> 
<circle cx="27952.8" cy="8031.5" r="433.071" /> 
<path d="M38188 18897
L37007 20078
" />
<path d="M38188 14173
L38188 18897
" />
<path d="M39763 12598
L38188 14173
" />
<path d="M32677 11023
L35826 7874
" />
<path d="M11417 15748
L8267 12598
" />
<path d="M11417 19291
L11417 15748
" />
<path d="M12598 20472
L11417 19291
" />
<path d="M12598 27559
L12598 20472
" />
<path d="M10629 29133
L12598 27559
" />
<path d="M10629 33858
L10629 29133
" />
<path d="M8661 35826
L10629 33858
" />
<path d="M26771 36220
L20472 36220
" />
<path d="M28346 37795
L26771 36220
" />
<path d="M33858 37795
L28346 37795
" />
<path d="M35826 39763
L33858 37795
" />
<path d="M38188 33464
L40551 35826
" />
<path d="M38188 29921
L38188 33464
" />
<path d="M37007 28740
L38188 29921
" />
<path d="M37007 20078
L37007 28740
" />
<path d="M35826 43700
L35826 39763
" />
<path d="M19291 37401
L20472 36220
" />
<path d="M14960 37401
L19291 37401
" />
<path d="M12598 39763
L14960 37401
" />
<path d="M8661 38976
L4724 38976
" />
<path d="M8661 35826
L4724 35826
" />
<path d="M4724 38976
L4724 35826
" />
<path d="M12598 43700
L9448 43700
" />
<path d="M12598 39763
L12598 43700
" />
<path d="M9448 39763
L9448 43700
" />
<path d="M38976 39763
L38976 43700
" />
<path d="M38976 43700
L35826 43700
" />
<path d="M43700 35826
L43700 38976
" />
<path d="M40551 35826
L43700 35826
" />
<path d="M39763 38976
L43700 38976
" />
<path d="M9448 8661
L9448 4724
" />
<path d="M12598 8661
L12598 4724
" />
<path d="M9448 4724
L12598 4724
" />
<path d="M4724 12598
L4724 9448
" />
<path d="M8267 12598
L4724 12598
" />
<path d="M8661 9448
L4724 9448
" />
<path d="M35826 4724
L38976 4724
" />
<path d="M35826 7874
L35826 4724
" />
<path d="M38976 8661
L38976 4724
" />
<path d="M43700 9448
L43700 12598
" />
<path d="M39763 9448
L43700 9448
" />
<path d="M8661 9448
L9448 8661
" />
<path d="M38976 8661
L39763 9448
" />
<path d="M38976 39763
L39763 38976
" />
<path d="M9448 39763
L8661 38976
" />
<path d="M39763 12598
L43700 12598
" />
<circle cx="37401.6" cy="11023.6" r="669.291" /> 
<circle cx="11023.6" cy="11023.6" r="669.291" /> 
<circle cx="11023.6" cy="37401.6" r="669.291" /> 
<circle cx="37401.6" cy="37401.6" r="669.291" /> 
</g>
<g style="fill:#840000; fill-opacity:0.0; 
stroke:#840000; stroke-width:39.3701; stroke-opacity:1; 
stroke-linecap:round; stroke-linejoin:round;">
</g>
<g style="fill:#840000; fill-opacity:0.0; 
stroke:#840000; stroke-width:59.0551; stroke-opacity:1; 
stroke-linecap:round; stroke-linejoin:round;">
<path d="M25843 20256
L25806 20256
L25768 20275
L25749 20294
L25731 20331
L25712 20406
L25712 20500
L25731 20575
L25749 20613
L25768 20631
L25806 20650
L25843 20650
L25881 20631
L25899 20613
L25918 20575
L25937 20500
L25937 20406
L25918 20331
L25899 20294
L25881 20275
L25843 20256
" />
<path d="M25543 20613
L25524 20631
L25543 20650
L25562 20631
L25543 20613
L25543 20650
" />
<path d="M25149 20650
L25374 20650
" />
<path d="M25262 20650
L25262 20256
L25299 20313
L25337 20350
L25374 20369
" />
<path d="M24812 20388
L24812 20650
" />
<path d="M24981 20388
L24981 20594
L24962 20631
L24925 20650
L24868 20650
L24831 20631
L24812 20613
" />
<path d="M24493 20444
L24625 20444
" />
<path d="M24625 20650
L24625 20256
L24437 20256
" />
<path d="M25262 22483
L25281 22501
L25337 22520
L25374 22520
L25431 22501
L25468 22464
L25487 22426
L25506 22351
L25506 22295
L25487 22220
L25468 22183
L25431 22145
L25374 22126
L25337 22126
L25281 22145
L25262 22164
" />
<path d="M24887 22520
L25112 22520
" />
<path d="M25000 22520
L25000 22126
L25037 22183
L25074 22220
L25112 22239
" />
<path d="M25618 17500
L25843 17500
" />
<path d="M25731 17500
L25731 17107
L25768 17163
L25806 17200
L25843 17219
" />
<path d="M25374 17107
L25337 17107
L25299 17125
L25281 17144
L25262 17182
L25243 17257
L25243 17350
L25262 17425
L25281 17463
L25299 17482
L25337 17500
L25374 17500
L25412 17482
L25431 17463
L25449 17425
L25468 17350
L25468 17257
L25449 17182
L25431 17144
L25412 17125
L25374 17107
" />
<path d="M24906 17238
L24906 17500
" />
<path d="M25074 17238
L25074 17444
L25056 17482
L25018 17500
L24962 17500
L24925 17482
L24906 17463
" />
<path d="M24587 17294
L24718 17294
" />
<path d="M24718 17500
L24718 17107
L24531 17107
" />
<path d="M25262 19333
L25281 19352
L25337 19371
L25374 19371
L25431 19352
L25468 19314
L25487 19277
L25506 19202
L25506 19146
L25487 19071
L25468 19033
L25431 18996
L25374 18977
L25337 18977
L25281 18996
L25262 19014
" />
<path d="M25112 19014
L25093 18996
L25056 18977
L24962 18977
L24925 18996
L24906 19014
L24887 19052
L24887 19089
L24906 19146
L25131 19371
L24887 19371
" />
<path d="M27123 20195
L27104 20177
L27066 20158
L26973 20158
L26935 20177
L26916 20195
L26898 20233
L26898 20270
L26916 20327
L27141 20552
L26898 20552
" />
<path d="M26748 20195
L26729 20177
L26691 20158
L26598 20158
L26560 20177
L26541 20195
L26523 20233
L26523 20270
L26541 20327
L26766 20552
L26523 20552
" />
<path d="M26185 20289
L26185 20552
" />
<path d="M26354 20289
L26354 20495
L26335 20533
L26298 20552
L26242 20552
L26204 20533
L26185 20514
" />
<path d="M25867 20345
L25998 20345
" />
<path d="M25998 20552
L25998 20158
L25810 20158
" />
<path d="M26541 19136
L26560 19155
L26616 19174
L26654 19174
L26710 19155
L26748 19117
L26766 19080
L26785 19005
L26785 18949
L26766 18874
L26748 18836
L26710 18799
L26654 18780
L26616 18780
L26560 18799
L26541 18817
" />
<path d="M26410 18780
L26167 18780
L26298 18930
L26242 18930
L26204 18949
L26185 18967
L26167 19005
L26167 19099
L26185 19136
L26204 19155
L26242 19174
L26354 19174
L26392 19155
L26410 19136
" />
<path d="M27615 23800
L27577 23800
L27540 23818
L27521 23837
L27502 23875
L27484 23950
L27484 24043
L27502 24118
L27521 24156
L27540 24175
L27577 24193
L27615 24193
L27652 24175
L27671 24156
L27690 24118
L27709 24043
L27709 23950
L27690 23875
L27671 23837
L27652 23818
L27615 23800
" />
<path d="M27315 24156
L27296 24175
L27315 24193
L27334 24175
L27315 24156
L27315 24193
" />
<path d="M26921 24193
L27146 24193
" />
<path d="M27034 24193
L27034 23800
L27071 23856
L27109 23893
L27146 23912
" />
<path d="M26584 23931
L26584 24193
" />
<path d="M26752 23931
L26752 24137
L26734 24175
L26696 24193
L26640 24193
L26602 24175
L26584 24156
" />
<path d="M26265 23987
L26396 23987
" />
<path d="M26396 24193
L26396 23800
L26209 23800
" />
<path d="M27034 22286
L27052 22305
L27109 22323
L27146 22323
L27202 22305
L27240 22267
L27259 22230
L27277 22155
L27277 22098
L27259 22023
L27240 21986
L27202 21948
L27146 21930
L27109 21930
L27052 21948
L27034 21967
" />
<path d="M26696 22061
L26696 22323
" />
<path d="M26790 21911
L26884 22192
L26640 22192
" />
<path d="M31634 21439
L31634 21214
" />
<path d="M31634 21327
L31241 21327
L31297 21289
L31334 21252
L31353 21214
" />
<path d="M31634 21608
L31241 21608
L31634 21833
L31241 21833
" />
<path d="M31241 22208
L31241 22020
L31428 22002
L31409 22020
L31391 22058
L31391 22152
L31409 22189
L31428 22208
L31466 22227
L31559 22227
L31597 22208
L31616 22189
L31634 22152
L31634 22058
L31616 22020
L31597 22002
" />
<path d="M31409 22452
L31391 22414
L31372 22395
L31334 22377
L31316 22377
L31278 22395
L31259 22414
L31241 22452
L31241 22527
L31259 22564
L31278 22583
L31316 22602
L31334 22602
L31372 22583
L31391 22564
L31409 22527
L31409 22452
L31428 22414
L31447 22395
L31484 22377
L31559 22377
L31597 22395
L31616 22414
L31634 22452
L31634 22527
L31616 22564
L31597 22583
L31559 22602
L31484 22602
L31447 22583
L31428 22564
L31409 22527
" />
<path d="M31634 22977
L31634 22752
" />
<path d="M31634 22864
L31241 22864
L31297 22827
L31334 22789
L31353 22752
" />
<path d="M31241 23108
L31241 23370
L31634 23202
" />
<path d="M35442 15610
L35198 15610
L35329 15760
L35273 15760
L35236 15779
L35217 15797
L35198 15835
L35198 15929
L35217 15966
L35236 15985
L35273 16004
L35386 16004
L35423 15985
L35442 15966
" />
<path d="M35029 15966
L35011 15985
L35029 16004
L35048 15985
L35029 15966
L35029 16004
" />
<path d="M34880 15610
L34636 15610
L34767 15760
L34711 15760
L34673 15779
L34655 15797
L34636 15835
L34636 15929
L34655 15966
L34673 15985
L34711 16004
L34823 16004
L34861 15985
L34880 15966
" />
<path d="M34298 15741
L34298 16004
" />
<path d="M34467 15741
L34467 15947
L34448 15985
L34411 16004
L34355 16004
L34317 15985
L34298 15966
" />
<path d="M34111 16004
L34111 15610
" />
<path d="M34111 15797
L33886 15797
" />
<path d="M33886 16004
L33886 15610
" />
<path d="M27005 15886
L27230 15886
" />
<path d="M27118 15886
L27118 15493
L27155 15549
L27193 15586
L27230 15605
" />
<path d="M26762 15493
L26724 15493
L26687 15511
L26668 15530
L26649 15568
L26631 15643
L26631 15736
L26649 15811
L26668 15849
L26687 15868
L26724 15886
L26762 15886
L26799 15868
L26818 15849
L26837 15811
L26856 15736
L26856 15643
L26837 15568
L26818 15530
L26799 15511
L26762 15493
" />
<path d="M26462 15886
L26462 15493
" />
<path d="M26424 15736
L26312 15886
" />
<path d="M26312 15624
L26462 15774
" />
</g>
<g style="fill:#840000; fill-opacity:0.0; 
stroke:#840000; stroke-width:41.3386; stroke-opacity:1; 
stroke-linecap:round; stroke-linejoin:round;">
<path d="M26817 15085
L26909 14954
" />
<path d="M26975 15085
L26975 14809
L26870 14809
L26843 14822
L26830 14835
L26817 14862
L26817 14901
L26830 14927
L26843 14940
L26870 14954
L26975 14954
" />
<path d="M26555 15085
L26712 15085
" />
<path d="M26633 15085
L26633 14809
L26660 14849
L26686 14875
L26712 14888
" />
</g>
<g style="fill:#840000; fill-opacity:0.0; 
stroke:#840000; stroke-width:59.0551; stroke-opacity:1; 
stroke-linecap:round; stroke-linejoin:round;">
<path d="M29351 21625
L29351 21400
" />
<path d="M29351 21512
L28957 21512
L29013 21475
L29051 21437
L29070 21400
" />
<path d="M29351 22000
L29351 21775
" />
<path d="M29351 21887
L28957 21887
L29013 21850
L29051 21812
L29070 21775
" />
<path d="M28957 22244
L28957 22281
L28976 22319
L28995 22337
L29032 22356
L29107 22375
L29201 22375
L29276 22356
L29313 22337
L29332 22319
L29351 22281
L29351 22244
L29332 22206
L29313 22187
L29276 22169
L29201 22150
L29107 22150
L29032 22169
L28995 22187
L28976 22206
L28957 22244
" />
<path d="M29351 22544
L28957 22544
" />
<path d="M29201 22581
L29351 22694
" />
<path d="M29088 22694
L29238 22544
" />
</g>
<g style="fill:#840000; fill-opacity:0.0; 
stroke:#840000; stroke-width:41.3386; stroke-opacity:1; 
stroke-linecap:round; stroke-linejoin:round;">
<path d="M30045 22001
L29914 21909
" />
<path d="M30045 21843
L29770 21843
L29770 21948
L29783 21975
L29796 21988
L29822 22001
L29862 22001
L29888 21988
L29901 21975
L29914 21948
L29914 21843
" />
<path d="M29796 22106
L29783 22119
L29770 22145
L29770 22211
L29783 22237
L29796 22250
L29822 22263
L29849 22263
L29888 22250
L30045 22093
L30045 22263
" />
</g>
<g style="fill:#840000; fill-opacity:0.0; 
stroke:#840000; stroke-width:59.0551; stroke-opacity:1; 
stroke-linecap:round; stroke-linejoin:round;">
<path d="M27005 17658
L27230 17658
" />
<path d="M27118 17658
L27118 17264
L27155 17320
L27193 17358
L27230 17377
" />
<path d="M26649 17264
L26837 17264
L26856 17452
L26837 17433
L26799 17414
L26706 17414
L26668 17433
L26649 17452
L26631 17489
L26631 17583
L26649 17620
L26668 17639
L26706 17658
L26799 17658
L26837 17639
L26856 17620
" />
<path d="M26462 17658
L26462 17264
" />
<path d="M26424 17508
L26312 17658
" />
<path d="M26312 17395
L26462 17545
" />
</g>
<g style="fill:#840000; fill-opacity:0.0; 
stroke:#840000; stroke-width:41.3386; stroke-opacity:1; 
stroke-linecap:round; stroke-linejoin:round;">
<path d="M26817 16856
L26909 16725
" />
<path d="M26975 16856
L26975 16581
L26870 16581
L26843 16594
L26830 16607
L26817 16633
L26817 16673
L26830 16699
L26843 16712
L26870 16725
L26975 16725
" />
<path d="M26568 16581
L26699 16581
L26712 16712
L26699 16699
L26673 16686
L26607 16686
L26581 16699
L26568 16712
L26555 16738
L26555 16804
L26568 16830
L26581 16843
L26607 16856
L26673 16856
L26699 16843
L26712 16830
" />
</g>
<g style="fill:#840000; fill-opacity:0.0; 
stroke:#840000; stroke-width:59.0551; stroke-opacity:1; 
stroke-linecap:round; stroke-linejoin:round;">
<path d="M29538 14798
L29538 14667
" />
<path d="M29745 14667
L29351 14667
L29351 14854
" />
<path d="M29745 15004
L29351 15004
L29351 15154
L29370 15192
L29388 15210
L29426 15229
L29482 15229
L29520 15210
L29538 15192
L29557 15154
L29557 15004
" />
<path d="M29351 15567
L29351 15492
L29370 15454
L29388 15435
L29445 15398
L29520 15379
L29670 15379
L29707 15398
L29726 15417
L29745 15454
L29745 15529
L29726 15567
L29707 15585
L29670 15604
L29576 15604
L29538 15585
L29520 15567
L29501 15529
L29501 15454
L29520 15417
L29538 15398
L29576 15379
" />
<path d="M29388 15754
L29370 15773
L29351 15810
L29351 15904
L29370 15942
L29388 15960
L29426 15979
L29463 15979
L29520 15960
L29745 15735
L29745 15979
" />
<path d="M29745 16167
L29745 16242
L29726 16279
L29707 16298
L29651 16335
L29576 16354
L29426 16354
L29388 16335
L29370 16317
L29351 16279
L29351 16204
L29370 16167
L29388 16148
L29426 16129
L29520 16129
L29557 16148
L29576 16167
L29595 16204
L29595 16279
L29576 16317
L29557 16335
L29520 16354
" />
<path d="M29745 16729
L29745 16504
" />
<path d="M29745 16616
L29351 16616
L29407 16579
L29445 16541
L29463 16504
" />
</g>
<g style="fill:#840000; fill-opacity:0.0; 
stroke:#840000; stroke-width:29.5276; stroke-opacity:1; 
stroke-linecap:round; stroke-linejoin:round;">
<path d="M30600 15538
L30760 15538
L30778 15548
L30788 15557
L30797 15576
L30797 15613
L30788 15632
L30778 15642
L30760 15651
L30600 15651
" />
<path d="M30797 15848
L30797 15735
" />
<path d="M30797 15792
L30600 15792
L30628 15773
L30647 15754
L30657 15735
" />
</g>
<g style="fill:#840000; fill-opacity:0.0; 
stroke:#840000; stroke-width:59.0551; stroke-opacity:1; 
stroke-linecap:round; stroke-linejoin:round;">
<path d="M25853 23703
L25871 23684
L25890 23628
L25890 23590
L25871 23534
L25834 23497
L25796 23478
L25721 23459
L25665 23459
L25590 23478
L25553 23497
L25515 23534
L25497 23590
L25497 23628
L25515 23684
L25534 23703
" />
<path d="M25497 23946
L25497 24021
L25515 24059
L25553 24096
L25628 24115
L25759 24115
L25834 24096
L25871 24059
L25890 24021
L25890 23946
L25871 23909
L25834 23871
L25759 23853
L25628 23853
L25553 23871
L25515 23909
L25497 23946
" />
<path d="M25890 24284
L25497 24284
L25890 24509
L25497 24509
" />
<path d="M25890 24696
L25497 24696
L25890 24921
L25497 24921
" />
<path d="M25928 25015
L25928 25315
" />
<path d="M25497 25484
L25497 25521
L25515 25559
L25534 25577
L25571 25596
L25646 25615
L25740 25615
L25815 25596
L25853 25577
L25871 25559
L25890 25521
L25890 25484
L25871 25446
L25853 25428
L25815 25409
L25740 25390
L25646 25390
L25571 25409
L25534 25428
L25515 25446
L25497 25484
" />
<path d="M25534 25765
L25515 25784
L25497 25821
L25497 25915
L25515 25952
L25534 25971
L25571 25990
L25609 25990
L25665 25971
L25890 25746
L25890 25990
" />
<path d="M25497 26121
L25890 26384
" />
<path d="M25497 26384
L25890 26121
" />
<path d="M25890 26740
L25890 26515
" />
<path d="M25890 26627
L25497 26627
L25553 26590
L25590 26552
L25609 26515
" />
<path d="M25497 26984
L25497 27021
L25515 27059
L25534 27077
L25571 27096
L25646 27115
L25740 27115
L25815 27096
L25853 27077
L25871 27059
L25890 27021
L25890 26984
L25871 26946
L25853 26927
L25815 26909
L25740 26890
L25646 26890
L25571 26909
L25534 26927
L25515 26946
L25497 26984
" />
<path d="M36725 24996
L36331 24996
L36331 25146
L36350 25184
L36369 25203
L36406 25221
L36462 25221
L36500 25203
L36519 25184
L36537 25146
L36537 24996
" />
<path d="M36369 25371
L36350 25390
L36331 25428
L36331 25521
L36350 25559
L36369 25577
L36406 25596
L36444 25596
L36500 25577
L36725 25353
L36725 25596
" />
</g>
<g style="fill:#840000; fill-opacity:0.0; 
stroke:#840000; stroke-width:39.3701; stroke-opacity:1; 
stroke-linecap:round; stroke-linejoin:round;">
<path d="M24566 20964
L24566 21948
" />
<path d="M25826 20964
L24566 20964
" />
<path d="M25826 21948
L25826 20964
" />
<path d="M24566 21948
L25826 21948
" />
<path d="M24566 17814
L24566 18799
" />
<path d="M25826 17814
L24566 17814
" />
<path d="M25826 18799
L25826 17814
" />
<path d="M24566 18799
L25826 18799
" />
<path d="M26870 19929
L26870 19440
" />
<path d="M26082 19929
L26870 19929
" />
<path d="M26082 19440
L26082 19929
" />
<path d="M26870 19440
L26082 19440
" />
<path d="M27598 23523
L27598 22539
" />
<path d="M26338 23523
L27598 23523
" />
<path d="M26338 22539
L26338 23523
" />
<path d="M27598 22539
L26338 22539
" />
<path d="M32283 22185
L32283 21988
" />
<path d="M32125 22185
L32283 22421
" />
<path d="M32440 22185
L32125 22185
" />
<path d="M32283 22421
L32440 22185
" />
<path d="M32283 22421
L32066 22421
" />
<path d="M32283 22421
L32500 22421
" />
<path d="M32283 22578
L32283 22421
" />
<path d="M31929 22834
L32637 22834
" />
<path d="M31929 21732
L31929 22834
" />
<path d="M32637 21732
L31929 21732
" />
<path d="M32637 22834
L32637 21732
" />
<path d="M27401 15275
L27401 14645
" />
<path d="M26141 15275
L27401 15275
" />
<path d="M26141 14645
L26141 15275
" />
<path d="M27401 14645
L26141 14645
" />
<path d="M29606 22677
L30236 22677
" />
<path d="M29606 21417
L29606 22677
" />
<path d="M30236 21417
L29606 21417
" />
<path d="M30236 22677
L30236 21417
" />
<path d="M27401 17047
L27401 16417
" />
<path d="M26141 17047
L27401 17047
" />
<path d="M26141 16417
L26141 17047
" />
<path d="M27401 16417
L26141 16417
" />
<path d="M31062 16043
L31318 15787
" />
<path d="M31318 15334
L31318 15787
" />
<path d="M31062 16043
L30098 16043
" />
<path d="M30098 15334
L30098 16043
" />
<path d="M31318 15334
L30098 15334
" />
<path d="M36129 26287
L26129 26287
" />
<path d="M26129 26287
L26129 24287
" />
<path d="M26129 24287
L36129 24287
" />
<path d="M36129 24287
L36129 26287
" />
</g> 
</svg>
