M48
;DRILL file {KiCad 4.0.1-stable} date 2017/05/05 18:15:27
;FORMAT={-:-/ absolute / metric / decimal}
FMAT,2
METRIC,TZ
T1C0.635
T2C1.000
T3C1.001
%
G90
G05
M71
T1
X30.Y-37.
X37.05Y-86.
X46.Y-33.
X46.43Y-65.14
X78.Y-43.5
X84.Y-39.
X86.Y-86.
T2
X14.Y-27.
X14.Y-29.54
X14.Y-93.46
X14.Y-96.
X27.Y-14.
X27.Y-109.
X29.54Y-14.
X29.54Y-109.
X38.Y-56.
X40.54Y-56.
X43.08Y-56.
X45.62Y-56.
X58.Y-47.46
X58.Y-50.
X67.64Y-62.96
X67.64Y-65.5
X70.18Y-62.96
X70.18Y-65.5
X72.72Y-62.96
X72.72Y-65.5
X75.26Y-62.96
X75.26Y-65.5
X77.8Y-62.96
X77.8Y-65.5
X80.34Y-62.96
X80.34Y-65.5
X82.88Y-62.96
X82.88Y-65.5
X85.42Y-62.96
X85.42Y-65.5
X87.96Y-62.96
X87.96Y-65.5
X90.5Y-62.96
X90.5Y-65.5
X93.46Y-14.
X93.46Y-109.
X96.Y-14.
X96.Y-109.
X109.Y-27.
X109.Y-29.54
X109.Y-93.46
X109.Y-96.
T3
X56.5Y-40.5
X56.51Y-35.42
T0
M30
