G04 #@! TF.FileFunction,Copper,L2,Bot,Signal*
%FSLAX45Y45*%
G04 Gerber Fmt 4.5, Leading zero omitted, Abs format (unit mm)*
G04 Created by KiCad (PCBNEW 4.0.1-stable) date 2017/05/05 18:15:20*
%MOMM*%
G01*
G04 APERTURE LIST*
%ADD10C,0.100000*%
%ADD11R,2.000000X2.500000*%
%ADD12R,1.500000X1.250000*%
%ADD13R,1.100000X1.100000*%
%ADD14C,1.501140*%
%ADD15R,5.400040X2.900680*%
%ADD16R,1.700000X1.700000*%
%ADD17O,1.700000X1.700000*%
%ADD18R,2.000000X1.700000*%
%ADD19R,1.700000X2.000000*%
%ADD20R,0.650000X1.560000*%
%ADD21C,1.400000*%
%ADD22C,0.889000*%
%ADD23C,1.200000*%
%ADD24C,0.550000*%
%ADD25C,0.400000*%
G04 APERTURE END LIST*
D10*
D11*
X6200000Y-5450000D03*
X6600000Y-5450000D03*
X6200000Y-4650000D03*
X6600000Y-4650000D03*
D12*
X6850000Y-5000000D03*
X6600000Y-5000000D03*
D11*
X7050000Y-5850000D03*
X6650000Y-5850000D03*
D13*
X8200000Y-5800000D03*
X8200000Y-5520000D03*
D14*
X5650000Y-4050000D03*
X5651016Y-3542000D03*
D15*
X8800000Y-4700000D03*
X8800000Y-3699748D03*
D16*
X1400000Y-9600000D03*
D17*
X1400000Y-9346000D03*
D16*
X2700000Y-10900000D03*
D17*
X2954000Y-10900000D03*
D16*
X10900000Y-9600000D03*
D17*
X10900000Y-9346000D03*
D16*
X9600000Y-10900000D03*
D17*
X9346000Y-10900000D03*
D16*
X1400000Y-2700000D03*
D17*
X1400000Y-2954000D03*
D16*
X2700000Y-1400000D03*
D17*
X2954000Y-1400000D03*
D16*
X10900000Y-2700000D03*
D17*
X10900000Y-2954000D03*
D16*
X9600000Y-1400000D03*
D17*
X9346000Y-1400000D03*
D16*
X5800000Y-4746000D03*
D17*
X5800000Y-5000000D03*
D18*
X7000000Y-3800000D03*
X6600000Y-3800000D03*
D19*
X7600000Y-5800000D03*
X7600000Y-5400000D03*
D18*
X7000000Y-4250000D03*
X6600000Y-4250000D03*
D20*
X7895000Y-4120000D03*
X7800000Y-4120000D03*
X7705000Y-4120000D03*
X7705000Y-3850000D03*
X7895000Y-3850000D03*
X7800000Y-3850000D03*
D16*
X3800000Y-5600000D03*
D17*
X4054000Y-5600000D03*
X4308000Y-5600000D03*
X4562000Y-5600000D03*
D16*
X9050000Y-6550000D03*
D17*
X9050000Y-6296000D03*
X8796000Y-6550000D03*
X8796000Y-6296000D03*
X8542000Y-6550000D03*
X8542000Y-6296000D03*
X8288000Y-6550000D03*
X8288000Y-6296000D03*
X8034000Y-6550000D03*
X8034000Y-6296000D03*
X7780000Y-6550000D03*
X7780000Y-6296000D03*
X7526000Y-6550000D03*
X7526000Y-6296000D03*
X7272000Y-6550000D03*
X7272000Y-6296000D03*
X7018000Y-6550000D03*
X7018000Y-6296000D03*
X6764000Y-6550000D03*
X6764000Y-6296000D03*
D21*
X8400000Y-3900000D03*
X3000000Y-3700000D03*
X4600000Y-3300000D03*
X3705000Y-8600000D03*
X8600000Y-8600000D03*
D22*
X7800000Y-4350000D03*
D21*
X4643000Y-6514000D03*
D23*
X7705000Y-3850000D02*
X7772499Y-3850000D01*
D24*
X7800000Y-4120000D02*
X7800000Y-4350000D01*
D23*
X6650000Y-5850000D02*
X6650000Y-6182000D01*
X6650000Y-6182000D02*
X6764000Y-6296000D01*
X6600000Y-5450000D02*
X6600000Y-5800000D01*
X6600000Y-5800000D02*
X6650000Y-5850000D01*
X6600000Y-5000000D02*
X6600000Y-5450000D01*
X6600000Y-4650000D02*
X6600000Y-5000000D01*
X6600000Y-4250000D02*
X6600000Y-4650000D01*
X6600000Y-3800000D02*
X6600000Y-4250000D01*
X8796000Y-5996000D02*
X8600000Y-5800000D01*
X8600000Y-5800000D02*
X8200000Y-5800000D01*
X8796000Y-6296000D02*
X8796000Y-5996000D01*
X7600000Y-5800000D02*
X8200000Y-5800000D01*
X7050000Y-5850000D02*
X7550000Y-5850000D01*
X7550000Y-5850000D02*
X7600000Y-5800000D01*
X7050000Y-5850000D02*
X7050000Y-5200000D01*
X7050000Y-5200000D02*
X6850000Y-5000000D01*
X8200000Y-5520000D02*
X8200000Y-5300000D01*
X8200000Y-5300000D02*
X8800000Y-4700000D01*
X7922500Y-4212502D02*
X7922500Y-4120000D01*
X8800000Y-4700000D02*
X8409998Y-4700000D01*
X8409998Y-4700000D02*
X7922500Y-4212502D01*
X5100000Y-7500000D02*
X3800000Y-6200000D01*
X3800000Y-6200000D02*
X3800000Y-5600000D01*
X8900000Y-7500000D02*
X5100000Y-7500000D01*
X9100000Y-7300000D02*
X8900000Y-7500000D01*
X9100000Y-6805000D02*
X9100000Y-7300000D01*
X9050000Y-6550000D02*
X9050000Y-6755000D01*
X9050000Y-6755000D02*
X9100000Y-6805000D01*
X8542000Y-6550000D02*
X8542000Y-6806000D01*
X5603000Y-6895000D02*
X4308000Y-5600000D01*
X8542000Y-6806000D02*
X8453000Y-6895000D01*
X8453000Y-6895000D02*
X5603000Y-6895000D01*
X5278000Y-7149000D02*
X4643000Y-6514000D01*
X8580000Y-7149000D02*
X5278000Y-7149000D01*
X8796000Y-6933000D02*
X8580000Y-7149000D01*
X8796000Y-6550000D02*
X8796000Y-6933000D01*
X7950000Y-3600000D02*
X7950000Y-3795000D01*
X7950000Y-3795000D02*
X7922500Y-3822500D01*
X7900000Y-3550000D02*
X7950000Y-3600000D01*
X7470000Y-3550000D02*
X7900000Y-3550000D01*
X7000000Y-3800000D02*
X7220000Y-3800000D01*
X7220000Y-3800000D02*
X7470000Y-3550000D01*
X7575000Y-4250000D02*
X7600000Y-4275000D01*
X7600000Y-4275000D02*
X7600000Y-5400000D01*
X7000000Y-4250000D02*
X7575000Y-4250000D01*
X7575000Y-4250000D02*
X7677500Y-4147500D01*
D25*
G36*
X2544200Y-1300917D02*
X2544200Y-1376900D01*
X2561900Y-1394600D01*
X2694600Y-1394600D01*
X2694600Y-1392600D01*
X2705400Y-1392600D01*
X2705400Y-1394600D01*
X2707400Y-1394600D01*
X2707400Y-1405400D01*
X2705400Y-1405400D01*
X2705400Y-1538100D01*
X2723100Y-1555800D01*
X2799083Y-1555800D01*
X2825105Y-1545021D01*
X2836405Y-1533721D01*
X2882395Y-1564451D01*
X2950513Y-1578000D01*
X2957487Y-1578000D01*
X3025605Y-1564451D01*
X3083352Y-1525865D01*
X3102000Y-1497957D01*
X3102000Y-2200000D01*
X3102000Y-2200000D01*
X3109460Y-2237503D01*
X3130703Y-2269297D01*
X3930703Y-3069296D01*
X3930703Y-3069296D01*
X3951739Y-3083352D01*
X3962497Y-3090540D01*
X4000000Y-3098000D01*
X4069716Y-3098000D01*
X4185858Y-3214142D01*
X4192474Y-3218530D01*
X4200000Y-3220000D01*
X4805978Y-3220000D01*
X4809460Y-3237503D01*
X4830704Y-3269296D01*
X4862497Y-3290540D01*
X4900000Y-3298000D01*
X6999999Y-3298000D01*
X7000000Y-3298000D01*
X7037503Y-3290540D01*
X7069296Y-3269296D01*
X7118593Y-3220000D01*
X7900000Y-3220000D01*
X7907781Y-3218424D01*
X7914142Y-3214142D01*
X8230284Y-2898000D01*
X8299999Y-2898000D01*
X8300000Y-2898000D01*
X8337503Y-2890540D01*
X8369296Y-2869296D01*
X8438593Y-2800000D01*
X9232000Y-2800000D01*
X9252400Y-2902559D01*
X9310495Y-2989505D01*
X9397441Y-3047600D01*
X9500000Y-3068000D01*
X9602559Y-3047600D01*
X9689505Y-2989505D01*
X9747600Y-2902559D01*
X9768000Y-2800000D01*
X9747600Y-2697441D01*
X9689505Y-2610495D01*
X9675170Y-2600917D01*
X10744200Y-2600917D01*
X10744200Y-2676900D01*
X10761900Y-2694600D01*
X10894600Y-2694600D01*
X10894600Y-2561900D01*
X10876900Y-2544200D01*
X10800917Y-2544200D01*
X10774895Y-2554979D01*
X10754979Y-2574895D01*
X10744200Y-2600917D01*
X9675170Y-2600917D01*
X9602559Y-2552400D01*
X9500000Y-2532000D01*
X9397441Y-2552400D01*
X9310495Y-2610495D01*
X9252400Y-2697441D01*
X9232000Y-2800000D01*
X8438593Y-2800000D01*
X9169296Y-2069297D01*
X9169297Y-2069296D01*
X9190540Y-2037503D01*
X9198000Y-2000000D01*
X9198000Y-1497957D01*
X9216648Y-1525865D01*
X9274395Y-1564451D01*
X9342513Y-1578000D01*
X9349487Y-1578000D01*
X9417605Y-1564451D01*
X9463595Y-1533721D01*
X9474895Y-1545021D01*
X9500917Y-1555800D01*
X9576900Y-1555800D01*
X9594600Y-1538100D01*
X9594600Y-1405400D01*
X9605400Y-1405400D01*
X9605400Y-1538100D01*
X9623100Y-1555800D01*
X9699083Y-1555800D01*
X9725105Y-1545021D01*
X9745021Y-1525105D01*
X9755800Y-1499083D01*
X9755800Y-1423100D01*
X9738100Y-1405400D01*
X9605400Y-1405400D01*
X9594600Y-1405400D01*
X9592600Y-1405400D01*
X9592600Y-1394600D01*
X9594600Y-1394600D01*
X9594600Y-1392600D01*
X9605400Y-1392600D01*
X9605400Y-1394600D01*
X9738100Y-1394600D01*
X9755800Y-1376900D01*
X9755800Y-1300917D01*
X9754592Y-1298000D01*
X9802000Y-1298000D01*
X9802000Y-2200000D01*
X9802000Y-2200000D01*
X9809460Y-2237503D01*
X9830704Y-2269297D01*
X10030704Y-2469297D01*
X10062497Y-2490540D01*
X10100000Y-2498000D01*
X11002000Y-2498000D01*
X11002000Y-2545408D01*
X10999083Y-2544200D01*
X10923100Y-2544200D01*
X10905400Y-2561900D01*
X10905400Y-2694600D01*
X10907400Y-2694600D01*
X10907400Y-2705400D01*
X10905400Y-2705400D01*
X10905400Y-2707400D01*
X10894600Y-2707400D01*
X10894600Y-2705400D01*
X10761900Y-2705400D01*
X10744200Y-2723100D01*
X10744200Y-2799083D01*
X10754979Y-2825105D01*
X10766279Y-2836405D01*
X10735549Y-2882395D01*
X10722000Y-2950513D01*
X10722000Y-2957487D01*
X10735549Y-3025605D01*
X10774135Y-3083352D01*
X10802043Y-3102000D01*
X10100000Y-3102000D01*
X10062497Y-3109460D01*
X10030704Y-3130703D01*
X10030703Y-3130704D01*
X9630704Y-3530703D01*
X9609460Y-3562497D01*
X9602000Y-3600000D01*
X9602000Y-3600000D01*
X9602000Y-4759407D01*
X9330704Y-5030704D01*
X9309460Y-5062497D01*
X9302000Y-5100000D01*
X9302000Y-5100001D01*
X9302000Y-5169716D01*
X9085858Y-5385858D01*
X9081470Y-5392474D01*
X9080000Y-5400000D01*
X9080000Y-6120480D01*
X9050000Y-6114513D01*
X8981882Y-6128062D01*
X8949000Y-6150033D01*
X8949000Y-5996000D01*
X8937354Y-5937449D01*
X8918044Y-5908551D01*
X8904187Y-5887813D01*
X8708187Y-5691813D01*
X8658551Y-5658646D01*
X8653535Y-5657649D01*
X8600000Y-5647000D01*
X8314852Y-5647000D01*
X8321116Y-5642969D01*
X8342351Y-5611891D01*
X8349822Y-5575000D01*
X8349822Y-5535977D01*
X8353000Y-5520000D01*
X8353000Y-5363375D01*
X8776519Y-4939856D01*
X9070002Y-4939856D01*
X9104466Y-4933371D01*
X9136119Y-4913003D01*
X9157353Y-4881925D01*
X9164824Y-4845034D01*
X9164824Y-4554966D01*
X9158339Y-4520502D01*
X9137971Y-4488850D01*
X9106893Y-4467615D01*
X9070002Y-4460144D01*
X8529998Y-4460144D01*
X8495534Y-4466629D01*
X8463882Y-4486997D01*
X8443378Y-4517005D01*
X8075500Y-4149127D01*
X8075500Y-4120000D01*
X8063854Y-4061449D01*
X8030687Y-4011813D01*
X8009463Y-3997631D01*
X8001227Y-3984831D01*
X8014851Y-3964891D01*
X8020383Y-3937572D01*
X8030687Y-3930687D01*
X8058187Y-3903187D01*
X8091354Y-3853551D01*
X8097530Y-3822500D01*
X8103000Y-3795000D01*
X8103000Y-3722848D01*
X8459198Y-3722848D01*
X8459198Y-3858865D01*
X8469977Y-3884887D01*
X8489893Y-3904803D01*
X8515915Y-3915582D01*
X8776900Y-3915582D01*
X8794600Y-3897882D01*
X8794600Y-3705148D01*
X8805400Y-3705148D01*
X8805400Y-3897882D01*
X8823100Y-3915582D01*
X9084085Y-3915582D01*
X9110107Y-3904803D01*
X9130023Y-3884887D01*
X9140802Y-3858865D01*
X9140802Y-3722848D01*
X9123102Y-3705148D01*
X8805400Y-3705148D01*
X8794600Y-3705148D01*
X8476898Y-3705148D01*
X8459198Y-3722848D01*
X8103000Y-3722848D01*
X8103000Y-3600000D01*
X8091354Y-3541449D01*
X8090807Y-3540631D01*
X8459198Y-3540631D01*
X8459198Y-3676648D01*
X8476898Y-3694348D01*
X8794600Y-3694348D01*
X8794600Y-3501614D01*
X8805400Y-3501614D01*
X8805400Y-3694348D01*
X9123102Y-3694348D01*
X9140802Y-3676648D01*
X9140802Y-3540631D01*
X9130023Y-3514609D01*
X9110107Y-3494693D01*
X9084085Y-3483914D01*
X8823100Y-3483914D01*
X8805400Y-3501614D01*
X8794600Y-3501614D01*
X8776900Y-3483914D01*
X8515915Y-3483914D01*
X8489893Y-3494693D01*
X8469977Y-3514609D01*
X8459198Y-3540631D01*
X8090807Y-3540631D01*
X8072623Y-3513418D01*
X8058187Y-3491813D01*
X8008187Y-3441813D01*
X7958551Y-3408646D01*
X7900000Y-3397000D01*
X7470000Y-3397000D01*
X7411449Y-3408646D01*
X7361813Y-3441813D01*
X7160111Y-3643514D01*
X7136891Y-3627649D01*
X7100000Y-3620178D01*
X6900000Y-3620178D01*
X6865536Y-3626663D01*
X6833883Y-3647031D01*
X6812649Y-3678109D01*
X6805178Y-3715000D01*
X6805178Y-3885000D01*
X6811663Y-3919464D01*
X6832031Y-3951116D01*
X6863109Y-3972351D01*
X6900000Y-3979822D01*
X7100000Y-3979822D01*
X7134464Y-3973337D01*
X7166068Y-3953000D01*
X7220000Y-3953000D01*
X7278551Y-3941354D01*
X7328187Y-3908187D01*
X7533375Y-3703000D01*
X7654071Y-3703000D01*
X7632395Y-3711979D01*
X7612479Y-3731895D01*
X7601700Y-3757917D01*
X7601700Y-3826900D01*
X7619400Y-3844600D01*
X7699600Y-3844600D01*
X7699600Y-3842600D01*
X7710400Y-3842600D01*
X7710400Y-3844600D01*
X7712400Y-3844600D01*
X7712400Y-3855400D01*
X7710400Y-3855400D01*
X7710400Y-3857400D01*
X7699600Y-3857400D01*
X7699600Y-3855400D01*
X7619400Y-3855400D01*
X7601700Y-3873100D01*
X7601700Y-3942083D01*
X7612479Y-3968105D01*
X7613698Y-3969324D01*
X7606383Y-3974031D01*
X7585149Y-4005109D01*
X7579616Y-4032428D01*
X7569312Y-4039313D01*
X7511625Y-4097000D01*
X7165212Y-4097000D01*
X7136891Y-4077649D01*
X7100000Y-4070178D01*
X6900000Y-4070178D01*
X6865536Y-4076663D01*
X6833883Y-4097031D01*
X6812649Y-4128109D01*
X6805178Y-4165000D01*
X6805178Y-4335000D01*
X6811663Y-4369464D01*
X6832031Y-4401117D01*
X6863109Y-4422351D01*
X6900000Y-4429822D01*
X7100000Y-4429822D01*
X7134464Y-4423337D01*
X7166068Y-4403000D01*
X7447000Y-4403000D01*
X7447000Y-5234788D01*
X7427649Y-5263109D01*
X7420178Y-5300000D01*
X7420178Y-5500000D01*
X7426663Y-5534464D01*
X7447031Y-5566117D01*
X7478109Y-5587351D01*
X7515000Y-5594822D01*
X7685000Y-5594822D01*
X7719464Y-5588337D01*
X7751116Y-5567969D01*
X7772351Y-5536891D01*
X7779822Y-5500000D01*
X7779822Y-5300000D01*
X7773337Y-5265536D01*
X7753000Y-5233932D01*
X7753000Y-4479313D01*
X7772540Y-4487426D01*
X7827220Y-4487474D01*
X7877757Y-4466592D01*
X7916456Y-4427961D01*
X7917961Y-4424338D01*
X8301811Y-4808187D01*
X8335952Y-4831000D01*
X8351447Y-4841354D01*
X8409998Y-4853000D01*
X8430625Y-4853000D01*
X8091813Y-5191813D01*
X8058646Y-5241449D01*
X8047000Y-5300000D01*
X8047000Y-5520000D01*
X8050178Y-5535977D01*
X8050178Y-5575000D01*
X8056663Y-5609464D01*
X8077031Y-5641116D01*
X8085642Y-5647000D01*
X7761409Y-5647000D01*
X7752969Y-5633883D01*
X7721891Y-5612649D01*
X7685000Y-5605178D01*
X7515000Y-5605178D01*
X7480536Y-5611663D01*
X7448883Y-5632031D01*
X7427649Y-5663109D01*
X7420786Y-5697000D01*
X7239553Y-5697000D01*
X7238337Y-5690536D01*
X7217969Y-5658883D01*
X7203000Y-5648655D01*
X7203000Y-5200000D01*
X7191354Y-5141449D01*
X7158187Y-5091813D01*
X7019822Y-4953447D01*
X7019822Y-4937500D01*
X7013337Y-4903036D01*
X6992969Y-4871384D01*
X6961891Y-4850149D01*
X6925000Y-4842678D01*
X6775000Y-4842678D01*
X6763084Y-4844920D01*
X6766116Y-4842969D01*
X6787351Y-4811891D01*
X6794822Y-4775000D01*
X6794822Y-4525000D01*
X6788337Y-4490536D01*
X6767969Y-4458884D01*
X6753000Y-4448656D01*
X6753000Y-4411409D01*
X6766116Y-4402969D01*
X6787351Y-4371891D01*
X6794822Y-4335000D01*
X6794822Y-4165000D01*
X6788337Y-4130536D01*
X6767969Y-4098883D01*
X6753000Y-4088655D01*
X6753000Y-3961409D01*
X6766116Y-3952969D01*
X6787351Y-3921891D01*
X6794822Y-3885000D01*
X6794822Y-3715000D01*
X6788337Y-3680536D01*
X6767969Y-3648883D01*
X6736891Y-3627649D01*
X6700000Y-3620178D01*
X6500000Y-3620178D01*
X6465536Y-3626663D01*
X6433883Y-3647031D01*
X6412649Y-3678109D01*
X6405178Y-3715000D01*
X6405178Y-3885000D01*
X6411663Y-3919464D01*
X6432031Y-3951116D01*
X6447000Y-3961344D01*
X6447000Y-4088591D01*
X6433883Y-4097031D01*
X6412649Y-4128109D01*
X6405178Y-4165000D01*
X6405178Y-4335000D01*
X6411663Y-4369464D01*
X6432031Y-4401117D01*
X6447000Y-4411345D01*
X6447000Y-4448591D01*
X6433883Y-4457031D01*
X6412649Y-4488109D01*
X6405178Y-4525000D01*
X6405178Y-4775000D01*
X6411663Y-4809464D01*
X6432031Y-4841117D01*
X6447000Y-4851345D01*
X6447000Y-4886923D01*
X6437649Y-4900609D01*
X6430178Y-4937500D01*
X6430178Y-5062500D01*
X6436663Y-5096964D01*
X6447000Y-5113028D01*
X6447000Y-5248591D01*
X6433883Y-5257031D01*
X6412649Y-5288109D01*
X6405178Y-5325000D01*
X6405178Y-5575000D01*
X6411663Y-5609464D01*
X6432031Y-5641116D01*
X6447000Y-5651344D01*
X6447000Y-5800000D01*
X6455178Y-5841114D01*
X6455178Y-5975000D01*
X6461663Y-6009464D01*
X6482031Y-6041116D01*
X6497000Y-6051344D01*
X6497000Y-6182000D01*
X6505433Y-6224395D01*
X6508646Y-6240551D01*
X6541813Y-6290187D01*
X6594663Y-6343037D01*
X6599549Y-6367605D01*
X6636563Y-6423000D01*
X6599549Y-6478395D01*
X6586000Y-6546513D01*
X6586000Y-6553487D01*
X6599549Y-6621605D01*
X6638135Y-6679352D01*
X6695882Y-6717938D01*
X6764000Y-6731487D01*
X6832118Y-6717938D01*
X6889865Y-6679352D01*
X6891000Y-6677654D01*
X6892135Y-6679352D01*
X6949882Y-6717938D01*
X7018000Y-6731487D01*
X7086118Y-6717938D01*
X7143865Y-6679352D01*
X7145000Y-6677654D01*
X7146135Y-6679352D01*
X7203882Y-6717938D01*
X7272000Y-6731487D01*
X7340118Y-6717938D01*
X7397865Y-6679352D01*
X7399000Y-6677654D01*
X7400135Y-6679352D01*
X7457882Y-6717938D01*
X7526000Y-6731487D01*
X7594118Y-6717938D01*
X7651865Y-6679352D01*
X7653000Y-6677654D01*
X7654135Y-6679352D01*
X7711882Y-6717938D01*
X7780000Y-6731487D01*
X7848118Y-6717938D01*
X7905865Y-6679352D01*
X7907000Y-6677654D01*
X7908135Y-6679352D01*
X7965882Y-6717938D01*
X8034000Y-6731487D01*
X8102118Y-6717938D01*
X8159865Y-6679352D01*
X8161000Y-6677654D01*
X8162135Y-6679352D01*
X8219882Y-6717938D01*
X8288000Y-6731487D01*
X8356118Y-6717938D01*
X8389000Y-6695966D01*
X8389000Y-6742000D01*
X5666375Y-6742000D01*
X4667401Y-5743026D01*
X4687865Y-5729352D01*
X4726451Y-5671605D01*
X4740000Y-5603487D01*
X4740000Y-5596513D01*
X4726451Y-5528395D01*
X4689504Y-5473100D01*
X6029200Y-5473100D01*
X6029200Y-5589083D01*
X6039979Y-5615105D01*
X6059895Y-5635021D01*
X6085917Y-5645800D01*
X6176900Y-5645800D01*
X6194600Y-5628100D01*
X6194600Y-5455400D01*
X6205400Y-5455400D01*
X6205400Y-5628100D01*
X6223100Y-5645800D01*
X6314083Y-5645800D01*
X6340105Y-5635021D01*
X6360021Y-5615105D01*
X6370800Y-5589083D01*
X6370800Y-5473100D01*
X6353100Y-5455400D01*
X6205400Y-5455400D01*
X6194600Y-5455400D01*
X6046900Y-5455400D01*
X6029200Y-5473100D01*
X4689504Y-5473100D01*
X4687865Y-5470648D01*
X4630118Y-5432062D01*
X4562000Y-5418513D01*
X4493882Y-5432062D01*
X4436135Y-5470648D01*
X4435000Y-5472346D01*
X4433865Y-5470648D01*
X4376118Y-5432062D01*
X4308000Y-5418513D01*
X4239882Y-5432062D01*
X4182135Y-5470648D01*
X4181000Y-5472346D01*
X4179865Y-5470648D01*
X4122118Y-5432062D01*
X4054000Y-5418513D01*
X3985882Y-5432062D01*
X3955296Y-5452499D01*
X3952969Y-5448884D01*
X3921891Y-5427649D01*
X3885000Y-5420178D01*
X3715000Y-5420178D01*
X3680536Y-5426663D01*
X3648883Y-5447031D01*
X3627649Y-5478109D01*
X3620178Y-5515000D01*
X3620178Y-5685000D01*
X3626663Y-5719464D01*
X3647000Y-5751068D01*
X3647000Y-6200000D01*
X3655066Y-6240551D01*
X3658646Y-6258551D01*
X3691813Y-6308187D01*
X4991813Y-7608187D01*
X5035687Y-7637503D01*
X5041449Y-7641354D01*
X5100000Y-7653000D01*
X8900000Y-7653000D01*
X8958551Y-7641354D01*
X9008187Y-7608187D01*
X9080000Y-7536375D01*
X9080000Y-7900000D01*
X9081576Y-7907781D01*
X9085858Y-7914142D01*
X9602000Y-8430284D01*
X9602000Y-8500000D01*
X9602000Y-8500000D01*
X9609460Y-8537503D01*
X9630704Y-8569297D01*
X10230703Y-9169296D01*
X10230704Y-9169297D01*
X10262497Y-9190540D01*
X10300000Y-9198000D01*
X10802043Y-9198000D01*
X10774135Y-9216648D01*
X10735549Y-9274395D01*
X10722000Y-9342513D01*
X10722000Y-9349487D01*
X10735549Y-9417605D01*
X10766279Y-9463595D01*
X10754979Y-9474895D01*
X10744200Y-9500917D01*
X10744200Y-9576900D01*
X10761900Y-9594600D01*
X10894600Y-9594600D01*
X10894600Y-9592600D01*
X10905400Y-9592600D01*
X10905400Y-9594600D01*
X10907400Y-9594600D01*
X10907400Y-9605400D01*
X10905400Y-9605400D01*
X10905400Y-9738100D01*
X10923100Y-9755800D01*
X10999083Y-9755800D01*
X11002000Y-9754592D01*
X11002000Y-9802000D01*
X10100000Y-9802000D01*
X10062497Y-9809460D01*
X10030704Y-9830704D01*
X9830704Y-10030704D01*
X9809460Y-10062497D01*
X9802000Y-10100000D01*
X9802000Y-10100001D01*
X9802000Y-11002000D01*
X9754592Y-11002000D01*
X9755800Y-10999083D01*
X9755800Y-10923100D01*
X9738100Y-10905400D01*
X9605400Y-10905400D01*
X9605400Y-10907400D01*
X9594600Y-10907400D01*
X9594600Y-10905400D01*
X9592600Y-10905400D01*
X9592600Y-10894600D01*
X9594600Y-10894600D01*
X9594600Y-10761900D01*
X9605400Y-10761900D01*
X9605400Y-10894600D01*
X9738100Y-10894600D01*
X9755800Y-10876900D01*
X9755800Y-10800917D01*
X9745021Y-10774895D01*
X9725105Y-10754979D01*
X9699083Y-10744200D01*
X9623100Y-10744200D01*
X9605400Y-10761900D01*
X9594600Y-10761900D01*
X9576900Y-10744200D01*
X9500917Y-10744200D01*
X9474895Y-10754979D01*
X9463595Y-10766279D01*
X9417605Y-10735549D01*
X9349487Y-10722000D01*
X9342513Y-10722000D01*
X9274395Y-10735549D01*
X9216648Y-10774135D01*
X9198000Y-10802043D01*
X9198000Y-10100001D01*
X9198000Y-10100000D01*
X9190540Y-10062497D01*
X9169297Y-10030704D01*
X8669297Y-9530704D01*
X8637503Y-9509460D01*
X8600000Y-9502000D01*
X8600000Y-9502000D01*
X8530284Y-9502000D01*
X8528284Y-9500000D01*
X9232000Y-9500000D01*
X9252400Y-9602559D01*
X9310495Y-9689505D01*
X9397441Y-9747600D01*
X9500000Y-9768000D01*
X9602559Y-9747600D01*
X9689505Y-9689505D01*
X9733875Y-9623100D01*
X10744200Y-9623100D01*
X10744200Y-9699083D01*
X10754979Y-9725105D01*
X10774895Y-9745021D01*
X10800917Y-9755800D01*
X10876900Y-9755800D01*
X10894600Y-9738100D01*
X10894600Y-9605400D01*
X10761900Y-9605400D01*
X10744200Y-9623100D01*
X9733875Y-9623100D01*
X9747600Y-9602559D01*
X9768000Y-9500000D01*
X9747600Y-9397441D01*
X9689505Y-9310495D01*
X9602559Y-9252400D01*
X9500000Y-9232000D01*
X9397441Y-9252400D01*
X9310495Y-9310495D01*
X9252400Y-9397441D01*
X9232000Y-9500000D01*
X8528284Y-9500000D01*
X8114142Y-9085858D01*
X8107526Y-9081470D01*
X8100000Y-9080000D01*
X4200000Y-9080000D01*
X4192219Y-9081576D01*
X4185858Y-9085858D01*
X3869716Y-9402000D01*
X3800000Y-9402000D01*
X3762497Y-9409460D01*
X3730703Y-9430704D01*
X3730703Y-9430704D01*
X3130703Y-10030704D01*
X3109460Y-10062497D01*
X3102000Y-10100000D01*
X3102000Y-10100001D01*
X3102000Y-10802043D01*
X3083352Y-10774135D01*
X3025605Y-10735549D01*
X2957487Y-10722000D01*
X2950513Y-10722000D01*
X2882395Y-10735549D01*
X2836405Y-10766279D01*
X2825105Y-10754979D01*
X2799083Y-10744200D01*
X2723100Y-10744200D01*
X2705400Y-10761900D01*
X2705400Y-10894600D01*
X2707400Y-10894600D01*
X2707400Y-10905400D01*
X2705400Y-10905400D01*
X2705400Y-10907400D01*
X2694600Y-10907400D01*
X2694600Y-10905400D01*
X2561900Y-10905400D01*
X2544200Y-10923100D01*
X2544200Y-10999083D01*
X2545408Y-11002000D01*
X2498000Y-11002000D01*
X2498000Y-10800917D01*
X2544200Y-10800917D01*
X2544200Y-10876900D01*
X2561900Y-10894600D01*
X2694600Y-10894600D01*
X2694600Y-10761900D01*
X2676900Y-10744200D01*
X2600917Y-10744200D01*
X2574895Y-10754979D01*
X2554979Y-10774895D01*
X2544200Y-10800917D01*
X2498000Y-10800917D01*
X2498000Y-10100000D01*
X2490540Y-10062497D01*
X2469297Y-10030704D01*
X2269297Y-9830704D01*
X2237503Y-9809460D01*
X2200000Y-9802000D01*
X2200000Y-9802000D01*
X1298000Y-9802000D01*
X1298000Y-9754592D01*
X1300917Y-9755800D01*
X1376900Y-9755800D01*
X1394600Y-9738100D01*
X1394600Y-9605400D01*
X1405400Y-9605400D01*
X1405400Y-9738100D01*
X1423100Y-9755800D01*
X1499083Y-9755800D01*
X1525105Y-9745021D01*
X1545021Y-9725105D01*
X1555800Y-9699083D01*
X1555800Y-9623100D01*
X1538100Y-9605400D01*
X1405400Y-9605400D01*
X1394600Y-9605400D01*
X1392600Y-9605400D01*
X1392600Y-9594600D01*
X1394600Y-9594600D01*
X1394600Y-9592600D01*
X1405400Y-9592600D01*
X1405400Y-9594600D01*
X1538100Y-9594600D01*
X1555800Y-9576900D01*
X1555800Y-9500917D01*
X1555420Y-9500000D01*
X2532000Y-9500000D01*
X2552400Y-9602559D01*
X2610495Y-9689505D01*
X2697441Y-9747600D01*
X2800000Y-9768000D01*
X2902559Y-9747600D01*
X2989505Y-9689505D01*
X3047600Y-9602559D01*
X3068000Y-9500000D01*
X3047600Y-9397441D01*
X2989505Y-9310495D01*
X2902559Y-9252400D01*
X2800000Y-9232000D01*
X2697441Y-9252400D01*
X2610495Y-9310495D01*
X2552400Y-9397441D01*
X2532000Y-9500000D01*
X1555420Y-9500000D01*
X1545021Y-9474895D01*
X1533721Y-9463595D01*
X1564451Y-9417605D01*
X1578000Y-9349487D01*
X1578000Y-9342513D01*
X1564451Y-9274395D01*
X1525865Y-9216648D01*
X1497957Y-9198000D01*
X2200000Y-9198000D01*
X2200000Y-9198000D01*
X2237503Y-9190540D01*
X2269297Y-9169297D01*
X2769297Y-8669297D01*
X2790540Y-8637503D01*
X2798000Y-8600000D01*
X2798000Y-8600000D01*
X2798000Y-8530284D01*
X3214142Y-8114142D01*
X3218530Y-8107526D01*
X3220000Y-8100000D01*
X3220000Y-7109501D01*
X3261220Y-7076525D01*
X3264745Y-7072338D01*
X3269296Y-7069296D01*
X3276961Y-7057826D01*
X3285845Y-7047272D01*
X3287499Y-7042054D01*
X3290540Y-7037503D01*
X3293232Y-7023972D01*
X3297401Y-7010822D01*
X3296932Y-7005369D01*
X3298000Y-7000000D01*
X3298000Y-5310917D01*
X6029200Y-5310917D01*
X6029200Y-5426900D01*
X6046900Y-5444600D01*
X6194600Y-5444600D01*
X6194600Y-5271900D01*
X6205400Y-5271900D01*
X6205400Y-5444600D01*
X6353100Y-5444600D01*
X6370800Y-5426900D01*
X6370800Y-5310917D01*
X6360021Y-5284895D01*
X6340105Y-5264979D01*
X6314083Y-5254200D01*
X6223100Y-5254200D01*
X6205400Y-5271900D01*
X6194600Y-5271900D01*
X6176900Y-5254200D01*
X6085917Y-5254200D01*
X6059895Y-5264979D01*
X6039979Y-5284895D01*
X6029200Y-5310917D01*
X3298000Y-5310917D01*
X3298000Y-5200001D01*
X3298000Y-5200000D01*
X3290540Y-5162497D01*
X3290540Y-5162497D01*
X3269296Y-5130704D01*
X3269296Y-5130703D01*
X3220000Y-5081407D01*
X3220000Y-5000000D01*
X5618513Y-5000000D01*
X5632062Y-5068118D01*
X5670648Y-5125865D01*
X5728395Y-5164451D01*
X5796513Y-5178000D01*
X5803487Y-5178000D01*
X5871605Y-5164451D01*
X5929352Y-5125865D01*
X5967938Y-5068118D01*
X5981487Y-5000000D01*
X5967938Y-4931882D01*
X5947501Y-4901296D01*
X5951116Y-4898969D01*
X5972351Y-4867891D01*
X5979822Y-4831000D01*
X5979822Y-4673100D01*
X6029200Y-4673100D01*
X6029200Y-4789083D01*
X6039979Y-4815105D01*
X6059895Y-4835021D01*
X6085917Y-4845800D01*
X6176900Y-4845800D01*
X6194600Y-4828100D01*
X6194600Y-4655400D01*
X6205400Y-4655400D01*
X6205400Y-4828100D01*
X6223100Y-4845800D01*
X6314083Y-4845800D01*
X6340105Y-4835021D01*
X6360021Y-4815105D01*
X6370800Y-4789083D01*
X6370800Y-4673100D01*
X6353100Y-4655400D01*
X6205400Y-4655400D01*
X6194600Y-4655400D01*
X6046900Y-4655400D01*
X6029200Y-4673100D01*
X5979822Y-4673100D01*
X5979822Y-4661000D01*
X5973337Y-4626536D01*
X5952969Y-4594884D01*
X5921891Y-4573649D01*
X5885000Y-4566178D01*
X5715000Y-4566178D01*
X5680536Y-4572663D01*
X5648883Y-4593031D01*
X5627649Y-4624109D01*
X5620178Y-4661000D01*
X5620178Y-4831000D01*
X5626663Y-4865464D01*
X5647031Y-4897117D01*
X5652703Y-4900992D01*
X5632062Y-4931882D01*
X5618513Y-5000000D01*
X3220000Y-5000000D01*
X3220000Y-4510917D01*
X6029200Y-4510917D01*
X6029200Y-4626900D01*
X6046900Y-4644600D01*
X6194600Y-4644600D01*
X6194600Y-4471900D01*
X6205400Y-4471900D01*
X6205400Y-4644600D01*
X6353100Y-4644600D01*
X6370800Y-4626900D01*
X6370800Y-4510917D01*
X6360021Y-4484895D01*
X6340105Y-4464979D01*
X6314083Y-4454200D01*
X6223100Y-4454200D01*
X6205400Y-4471900D01*
X6194600Y-4471900D01*
X6176900Y-4454200D01*
X6085917Y-4454200D01*
X6059895Y-4464979D01*
X6039979Y-4484895D01*
X6029200Y-4510917D01*
X3220000Y-4510917D01*
X3220000Y-4300000D01*
X3218424Y-4292219D01*
X3214142Y-4285858D01*
X3011566Y-4083282D01*
X5481914Y-4083282D01*
X5507445Y-4145072D01*
X5554679Y-4192389D01*
X5616425Y-4218028D01*
X5683282Y-4218086D01*
X5745072Y-4192555D01*
X5792389Y-4145321D01*
X5818028Y-4083575D01*
X5818086Y-4016718D01*
X5792555Y-3954928D01*
X5745321Y-3907611D01*
X5683575Y-3881972D01*
X5616718Y-3881914D01*
X5554928Y-3907445D01*
X5507611Y-3954679D01*
X5481972Y-4016425D01*
X5481914Y-4083282D01*
X3011566Y-4083282D01*
X2998000Y-4069716D01*
X2998000Y-4000000D01*
X2990540Y-3962497D01*
X2969296Y-3930703D01*
X2969296Y-3930703D01*
X2676974Y-3638381D01*
X5562272Y-3638381D01*
X5568030Y-3665407D01*
X5621573Y-3687771D01*
X5679598Y-3687942D01*
X5733272Y-3665895D01*
X5734002Y-3665407D01*
X5739760Y-3638381D01*
X5651016Y-3549637D01*
X5562272Y-3638381D01*
X2676974Y-3638381D01*
X2609175Y-3570582D01*
X5505074Y-3570582D01*
X5527121Y-3624256D01*
X5527609Y-3624986D01*
X5554635Y-3630744D01*
X5643379Y-3542000D01*
X5658653Y-3542000D01*
X5747397Y-3630744D01*
X5774423Y-3624986D01*
X5796787Y-3571443D01*
X5796958Y-3513418D01*
X5774911Y-3459744D01*
X5774423Y-3459014D01*
X5747397Y-3453256D01*
X5658653Y-3542000D01*
X5643379Y-3542000D01*
X5554635Y-3453256D01*
X5527609Y-3459014D01*
X5505245Y-3512557D01*
X5505074Y-3570582D01*
X2609175Y-3570582D01*
X2484212Y-3445619D01*
X5562272Y-3445619D01*
X5651016Y-3534363D01*
X5739760Y-3445619D01*
X5734002Y-3418593D01*
X5680459Y-3396229D01*
X5622434Y-3396058D01*
X5568760Y-3418105D01*
X5568030Y-3418593D01*
X5562272Y-3445619D01*
X2484212Y-3445619D01*
X2169297Y-3130703D01*
X2137503Y-3109460D01*
X2100000Y-3102000D01*
X2100000Y-3102000D01*
X1497957Y-3102000D01*
X1525865Y-3083352D01*
X1564451Y-3025605D01*
X1578000Y-2957487D01*
X1578000Y-2950513D01*
X1564451Y-2882395D01*
X1533721Y-2836405D01*
X1545021Y-2825105D01*
X1555420Y-2800000D01*
X2532000Y-2800000D01*
X2552400Y-2902559D01*
X2610495Y-2989505D01*
X2697441Y-3047600D01*
X2800000Y-3068000D01*
X2902559Y-3047600D01*
X2989505Y-2989505D01*
X3047600Y-2902559D01*
X3068000Y-2800000D01*
X3047600Y-2697441D01*
X2989505Y-2610495D01*
X2902559Y-2552400D01*
X2800000Y-2532000D01*
X2697441Y-2552400D01*
X2610495Y-2610495D01*
X2552400Y-2697441D01*
X2532000Y-2800000D01*
X1555420Y-2800000D01*
X1555800Y-2799083D01*
X1555800Y-2723100D01*
X1538100Y-2705400D01*
X1405400Y-2705400D01*
X1405400Y-2707400D01*
X1394600Y-2707400D01*
X1394600Y-2705400D01*
X1392600Y-2705400D01*
X1392600Y-2694600D01*
X1394600Y-2694600D01*
X1394600Y-2561900D01*
X1405400Y-2561900D01*
X1405400Y-2694600D01*
X1538100Y-2694600D01*
X1555800Y-2676900D01*
X1555800Y-2600917D01*
X1545021Y-2574895D01*
X1525105Y-2554979D01*
X1499083Y-2544200D01*
X1423100Y-2544200D01*
X1405400Y-2561900D01*
X1394600Y-2561900D01*
X1376900Y-2544200D01*
X1300917Y-2544200D01*
X1298000Y-2545408D01*
X1298000Y-2498000D01*
X2200000Y-2498000D01*
X2200000Y-2498000D01*
X2237503Y-2490540D01*
X2269297Y-2469297D01*
X2469297Y-2269297D01*
X2490540Y-2237503D01*
X2498000Y-2200000D01*
X2498000Y-1423100D01*
X2544200Y-1423100D01*
X2544200Y-1499083D01*
X2554979Y-1525105D01*
X2574895Y-1545021D01*
X2600917Y-1555800D01*
X2676900Y-1555800D01*
X2694600Y-1538100D01*
X2694600Y-1405400D01*
X2561900Y-1405400D01*
X2544200Y-1423100D01*
X2498000Y-1423100D01*
X2498000Y-1298000D01*
X2545408Y-1298000D01*
X2544200Y-1300917D01*
X2544200Y-1300917D01*
G37*
X2544200Y-1300917D02*
X2544200Y-1376900D01*
X2561900Y-1394600D01*
X2694600Y-1394600D01*
X2694600Y-1392600D01*
X2705400Y-1392600D01*
X2705400Y-1394600D01*
X2707400Y-1394600D01*
X2707400Y-1405400D01*
X2705400Y-1405400D01*
X2705400Y-1538100D01*
X2723100Y-1555800D01*
X2799083Y-1555800D01*
X2825105Y-1545021D01*
X2836405Y-1533721D01*
X2882395Y-1564451D01*
X2950513Y-1578000D01*
X2957487Y-1578000D01*
X3025605Y-1564451D01*
X3083352Y-1525865D01*
X3102000Y-1497957D01*
X3102000Y-2200000D01*
X3102000Y-2200000D01*
X3109460Y-2237503D01*
X3130703Y-2269297D01*
X3930703Y-3069296D01*
X3930703Y-3069296D01*
X3951739Y-3083352D01*
X3962497Y-3090540D01*
X4000000Y-3098000D01*
X4069716Y-3098000D01*
X4185858Y-3214142D01*
X4192474Y-3218530D01*
X4200000Y-3220000D01*
X4805978Y-3220000D01*
X4809460Y-3237503D01*
X4830704Y-3269296D01*
X4862497Y-3290540D01*
X4900000Y-3298000D01*
X6999999Y-3298000D01*
X7000000Y-3298000D01*
X7037503Y-3290540D01*
X7069296Y-3269296D01*
X7118593Y-3220000D01*
X7900000Y-3220000D01*
X7907781Y-3218424D01*
X7914142Y-3214142D01*
X8230284Y-2898000D01*
X8299999Y-2898000D01*
X8300000Y-2898000D01*
X8337503Y-2890540D01*
X8369296Y-2869296D01*
X8438593Y-2800000D01*
X9232000Y-2800000D01*
X9252400Y-2902559D01*
X9310495Y-2989505D01*
X9397441Y-3047600D01*
X9500000Y-3068000D01*
X9602559Y-3047600D01*
X9689505Y-2989505D01*
X9747600Y-2902559D01*
X9768000Y-2800000D01*
X9747600Y-2697441D01*
X9689505Y-2610495D01*
X9675170Y-2600917D01*
X10744200Y-2600917D01*
X10744200Y-2676900D01*
X10761900Y-2694600D01*
X10894600Y-2694600D01*
X10894600Y-2561900D01*
X10876900Y-2544200D01*
X10800917Y-2544200D01*
X10774895Y-2554979D01*
X10754979Y-2574895D01*
X10744200Y-2600917D01*
X9675170Y-2600917D01*
X9602559Y-2552400D01*
X9500000Y-2532000D01*
X9397441Y-2552400D01*
X9310495Y-2610495D01*
X9252400Y-2697441D01*
X9232000Y-2800000D01*
X8438593Y-2800000D01*
X9169296Y-2069297D01*
X9169297Y-2069296D01*
X9190540Y-2037503D01*
X9198000Y-2000000D01*
X9198000Y-1497957D01*
X9216648Y-1525865D01*
X9274395Y-1564451D01*
X9342513Y-1578000D01*
X9349487Y-1578000D01*
X9417605Y-1564451D01*
X9463595Y-1533721D01*
X9474895Y-1545021D01*
X9500917Y-1555800D01*
X9576900Y-1555800D01*
X9594600Y-1538100D01*
X9594600Y-1405400D01*
X9605400Y-1405400D01*
X9605400Y-1538100D01*
X9623100Y-1555800D01*
X9699083Y-1555800D01*
X9725105Y-1545021D01*
X9745021Y-1525105D01*
X9755800Y-1499083D01*
X9755800Y-1423100D01*
X9738100Y-1405400D01*
X9605400Y-1405400D01*
X9594600Y-1405400D01*
X9592600Y-1405400D01*
X9592600Y-1394600D01*
X9594600Y-1394600D01*
X9594600Y-1392600D01*
X9605400Y-1392600D01*
X9605400Y-1394600D01*
X9738100Y-1394600D01*
X9755800Y-1376900D01*
X9755800Y-1300917D01*
X9754592Y-1298000D01*
X9802000Y-1298000D01*
X9802000Y-2200000D01*
X9802000Y-2200000D01*
X9809460Y-2237503D01*
X9830704Y-2269297D01*
X10030704Y-2469297D01*
X10062497Y-2490540D01*
X10100000Y-2498000D01*
X11002000Y-2498000D01*
X11002000Y-2545408D01*
X10999083Y-2544200D01*
X10923100Y-2544200D01*
X10905400Y-2561900D01*
X10905400Y-2694600D01*
X10907400Y-2694600D01*
X10907400Y-2705400D01*
X10905400Y-2705400D01*
X10905400Y-2707400D01*
X10894600Y-2707400D01*
X10894600Y-2705400D01*
X10761900Y-2705400D01*
X10744200Y-2723100D01*
X10744200Y-2799083D01*
X10754979Y-2825105D01*
X10766279Y-2836405D01*
X10735549Y-2882395D01*
X10722000Y-2950513D01*
X10722000Y-2957487D01*
X10735549Y-3025605D01*
X10774135Y-3083352D01*
X10802043Y-3102000D01*
X10100000Y-3102000D01*
X10062497Y-3109460D01*
X10030704Y-3130703D01*
X10030703Y-3130704D01*
X9630704Y-3530703D01*
X9609460Y-3562497D01*
X9602000Y-3600000D01*
X9602000Y-3600000D01*
X9602000Y-4759407D01*
X9330704Y-5030704D01*
X9309460Y-5062497D01*
X9302000Y-5100000D01*
X9302000Y-5100001D01*
X9302000Y-5169716D01*
X9085858Y-5385858D01*
X9081470Y-5392474D01*
X9080000Y-5400000D01*
X9080000Y-6120480D01*
X9050000Y-6114513D01*
X8981882Y-6128062D01*
X8949000Y-6150033D01*
X8949000Y-5996000D01*
X8937354Y-5937449D01*
X8918044Y-5908551D01*
X8904187Y-5887813D01*
X8708187Y-5691813D01*
X8658551Y-5658646D01*
X8653535Y-5657649D01*
X8600000Y-5647000D01*
X8314852Y-5647000D01*
X8321116Y-5642969D01*
X8342351Y-5611891D01*
X8349822Y-5575000D01*
X8349822Y-5535977D01*
X8353000Y-5520000D01*
X8353000Y-5363375D01*
X8776519Y-4939856D01*
X9070002Y-4939856D01*
X9104466Y-4933371D01*
X9136119Y-4913003D01*
X9157353Y-4881925D01*
X9164824Y-4845034D01*
X9164824Y-4554966D01*
X9158339Y-4520502D01*
X9137971Y-4488850D01*
X9106893Y-4467615D01*
X9070002Y-4460144D01*
X8529998Y-4460144D01*
X8495534Y-4466629D01*
X8463882Y-4486997D01*
X8443378Y-4517005D01*
X8075500Y-4149127D01*
X8075500Y-4120000D01*
X8063854Y-4061449D01*
X8030687Y-4011813D01*
X8009463Y-3997631D01*
X8001227Y-3984831D01*
X8014851Y-3964891D01*
X8020383Y-3937572D01*
X8030687Y-3930687D01*
X8058187Y-3903187D01*
X8091354Y-3853551D01*
X8097530Y-3822500D01*
X8103000Y-3795000D01*
X8103000Y-3722848D01*
X8459198Y-3722848D01*
X8459198Y-3858865D01*
X8469977Y-3884887D01*
X8489893Y-3904803D01*
X8515915Y-3915582D01*
X8776900Y-3915582D01*
X8794600Y-3897882D01*
X8794600Y-3705148D01*
X8805400Y-3705148D01*
X8805400Y-3897882D01*
X8823100Y-3915582D01*
X9084085Y-3915582D01*
X9110107Y-3904803D01*
X9130023Y-3884887D01*
X9140802Y-3858865D01*
X9140802Y-3722848D01*
X9123102Y-3705148D01*
X8805400Y-3705148D01*
X8794600Y-3705148D01*
X8476898Y-3705148D01*
X8459198Y-3722848D01*
X8103000Y-3722848D01*
X8103000Y-3600000D01*
X8091354Y-3541449D01*
X8090807Y-3540631D01*
X8459198Y-3540631D01*
X8459198Y-3676648D01*
X8476898Y-3694348D01*
X8794600Y-3694348D01*
X8794600Y-3501614D01*
X8805400Y-3501614D01*
X8805400Y-3694348D01*
X9123102Y-3694348D01*
X9140802Y-3676648D01*
X9140802Y-3540631D01*
X9130023Y-3514609D01*
X9110107Y-3494693D01*
X9084085Y-3483914D01*
X8823100Y-3483914D01*
X8805400Y-3501614D01*
X8794600Y-3501614D01*
X8776900Y-3483914D01*
X8515915Y-3483914D01*
X8489893Y-3494693D01*
X8469977Y-3514609D01*
X8459198Y-3540631D01*
X8090807Y-3540631D01*
X8072623Y-3513418D01*
X8058187Y-3491813D01*
X8008187Y-3441813D01*
X7958551Y-3408646D01*
X7900000Y-3397000D01*
X7470000Y-3397000D01*
X7411449Y-3408646D01*
X7361813Y-3441813D01*
X7160111Y-3643514D01*
X7136891Y-3627649D01*
X7100000Y-3620178D01*
X6900000Y-3620178D01*
X6865536Y-3626663D01*
X6833883Y-3647031D01*
X6812649Y-3678109D01*
X6805178Y-3715000D01*
X6805178Y-3885000D01*
X6811663Y-3919464D01*
X6832031Y-3951116D01*
X6863109Y-3972351D01*
X6900000Y-3979822D01*
X7100000Y-3979822D01*
X7134464Y-3973337D01*
X7166068Y-3953000D01*
X7220000Y-3953000D01*
X7278551Y-3941354D01*
X7328187Y-3908187D01*
X7533375Y-3703000D01*
X7654071Y-3703000D01*
X7632395Y-3711979D01*
X7612479Y-3731895D01*
X7601700Y-3757917D01*
X7601700Y-3826900D01*
X7619400Y-3844600D01*
X7699600Y-3844600D01*
X7699600Y-3842600D01*
X7710400Y-3842600D01*
X7710400Y-3844600D01*
X7712400Y-3844600D01*
X7712400Y-3855400D01*
X7710400Y-3855400D01*
X7710400Y-3857400D01*
X7699600Y-3857400D01*
X7699600Y-3855400D01*
X7619400Y-3855400D01*
X7601700Y-3873100D01*
X7601700Y-3942083D01*
X7612479Y-3968105D01*
X7613698Y-3969324D01*
X7606383Y-3974031D01*
X7585149Y-4005109D01*
X7579616Y-4032428D01*
X7569312Y-4039313D01*
X7511625Y-4097000D01*
X7165212Y-4097000D01*
X7136891Y-4077649D01*
X7100000Y-4070178D01*
X6900000Y-4070178D01*
X6865536Y-4076663D01*
X6833883Y-4097031D01*
X6812649Y-4128109D01*
X6805178Y-4165000D01*
X6805178Y-4335000D01*
X6811663Y-4369464D01*
X6832031Y-4401117D01*
X6863109Y-4422351D01*
X6900000Y-4429822D01*
X7100000Y-4429822D01*
X7134464Y-4423337D01*
X7166068Y-4403000D01*
X7447000Y-4403000D01*
X7447000Y-5234788D01*
X7427649Y-5263109D01*
X7420178Y-5300000D01*
X7420178Y-5500000D01*
X7426663Y-5534464D01*
X7447031Y-5566117D01*
X7478109Y-5587351D01*
X7515000Y-5594822D01*
X7685000Y-5594822D01*
X7719464Y-5588337D01*
X7751116Y-5567969D01*
X7772351Y-5536891D01*
X7779822Y-5500000D01*
X7779822Y-5300000D01*
X7773337Y-5265536D01*
X7753000Y-5233932D01*
X7753000Y-4479313D01*
X7772540Y-4487426D01*
X7827220Y-4487474D01*
X7877757Y-4466592D01*
X7916456Y-4427961D01*
X7917961Y-4424338D01*
X8301811Y-4808187D01*
X8335952Y-4831000D01*
X8351447Y-4841354D01*
X8409998Y-4853000D01*
X8430625Y-4853000D01*
X8091813Y-5191813D01*
X8058646Y-5241449D01*
X8047000Y-5300000D01*
X8047000Y-5520000D01*
X8050178Y-5535977D01*
X8050178Y-5575000D01*
X8056663Y-5609464D01*
X8077031Y-5641116D01*
X8085642Y-5647000D01*
X7761409Y-5647000D01*
X7752969Y-5633883D01*
X7721891Y-5612649D01*
X7685000Y-5605178D01*
X7515000Y-5605178D01*
X7480536Y-5611663D01*
X7448883Y-5632031D01*
X7427649Y-5663109D01*
X7420786Y-5697000D01*
X7239553Y-5697000D01*
X7238337Y-5690536D01*
X7217969Y-5658883D01*
X7203000Y-5648655D01*
X7203000Y-5200000D01*
X7191354Y-5141449D01*
X7158187Y-5091813D01*
X7019822Y-4953447D01*
X7019822Y-4937500D01*
X7013337Y-4903036D01*
X6992969Y-4871384D01*
X6961891Y-4850149D01*
X6925000Y-4842678D01*
X6775000Y-4842678D01*
X6763084Y-4844920D01*
X6766116Y-4842969D01*
X6787351Y-4811891D01*
X6794822Y-4775000D01*
X6794822Y-4525000D01*
X6788337Y-4490536D01*
X6767969Y-4458884D01*
X6753000Y-4448656D01*
X6753000Y-4411409D01*
X6766116Y-4402969D01*
X6787351Y-4371891D01*
X6794822Y-4335000D01*
X6794822Y-4165000D01*
X6788337Y-4130536D01*
X6767969Y-4098883D01*
X6753000Y-4088655D01*
X6753000Y-3961409D01*
X6766116Y-3952969D01*
X6787351Y-3921891D01*
X6794822Y-3885000D01*
X6794822Y-3715000D01*
X6788337Y-3680536D01*
X6767969Y-3648883D01*
X6736891Y-3627649D01*
X6700000Y-3620178D01*
X6500000Y-3620178D01*
X6465536Y-3626663D01*
X6433883Y-3647031D01*
X6412649Y-3678109D01*
X6405178Y-3715000D01*
X6405178Y-3885000D01*
X6411663Y-3919464D01*
X6432031Y-3951116D01*
X6447000Y-3961344D01*
X6447000Y-4088591D01*
X6433883Y-4097031D01*
X6412649Y-4128109D01*
X6405178Y-4165000D01*
X6405178Y-4335000D01*
X6411663Y-4369464D01*
X6432031Y-4401117D01*
X6447000Y-4411345D01*
X6447000Y-4448591D01*
X6433883Y-4457031D01*
X6412649Y-4488109D01*
X6405178Y-4525000D01*
X6405178Y-4775000D01*
X6411663Y-4809464D01*
X6432031Y-4841117D01*
X6447000Y-4851345D01*
X6447000Y-4886923D01*
X6437649Y-4900609D01*
X6430178Y-4937500D01*
X6430178Y-5062500D01*
X6436663Y-5096964D01*
X6447000Y-5113028D01*
X6447000Y-5248591D01*
X6433883Y-5257031D01*
X6412649Y-5288109D01*
X6405178Y-5325000D01*
X6405178Y-5575000D01*
X6411663Y-5609464D01*
X6432031Y-5641116D01*
X6447000Y-5651344D01*
X6447000Y-5800000D01*
X6455178Y-5841114D01*
X6455178Y-5975000D01*
X6461663Y-6009464D01*
X6482031Y-6041116D01*
X6497000Y-6051344D01*
X6497000Y-6182000D01*
X6505433Y-6224395D01*
X6508646Y-6240551D01*
X6541813Y-6290187D01*
X6594663Y-6343037D01*
X6599549Y-6367605D01*
X6636563Y-6423000D01*
X6599549Y-6478395D01*
X6586000Y-6546513D01*
X6586000Y-6553487D01*
X6599549Y-6621605D01*
X6638135Y-6679352D01*
X6695882Y-6717938D01*
X6764000Y-6731487D01*
X6832118Y-6717938D01*
X6889865Y-6679352D01*
X6891000Y-6677654D01*
X6892135Y-6679352D01*
X6949882Y-6717938D01*
X7018000Y-6731487D01*
X7086118Y-6717938D01*
X7143865Y-6679352D01*
X7145000Y-6677654D01*
X7146135Y-6679352D01*
X7203882Y-6717938D01*
X7272000Y-6731487D01*
X7340118Y-6717938D01*
X7397865Y-6679352D01*
X7399000Y-6677654D01*
X7400135Y-6679352D01*
X7457882Y-6717938D01*
X7526000Y-6731487D01*
X7594118Y-6717938D01*
X7651865Y-6679352D01*
X7653000Y-6677654D01*
X7654135Y-6679352D01*
X7711882Y-6717938D01*
X7780000Y-6731487D01*
X7848118Y-6717938D01*
X7905865Y-6679352D01*
X7907000Y-6677654D01*
X7908135Y-6679352D01*
X7965882Y-6717938D01*
X8034000Y-6731487D01*
X8102118Y-6717938D01*
X8159865Y-6679352D01*
X8161000Y-6677654D01*
X8162135Y-6679352D01*
X8219882Y-6717938D01*
X8288000Y-6731487D01*
X8356118Y-6717938D01*
X8389000Y-6695966D01*
X8389000Y-6742000D01*
X5666375Y-6742000D01*
X4667401Y-5743026D01*
X4687865Y-5729352D01*
X4726451Y-5671605D01*
X4740000Y-5603487D01*
X4740000Y-5596513D01*
X4726451Y-5528395D01*
X4689504Y-5473100D01*
X6029200Y-5473100D01*
X6029200Y-5589083D01*
X6039979Y-5615105D01*
X6059895Y-5635021D01*
X6085917Y-5645800D01*
X6176900Y-5645800D01*
X6194600Y-5628100D01*
X6194600Y-5455400D01*
X6205400Y-5455400D01*
X6205400Y-5628100D01*
X6223100Y-5645800D01*
X6314083Y-5645800D01*
X6340105Y-5635021D01*
X6360021Y-5615105D01*
X6370800Y-5589083D01*
X6370800Y-5473100D01*
X6353100Y-5455400D01*
X6205400Y-5455400D01*
X6194600Y-5455400D01*
X6046900Y-5455400D01*
X6029200Y-5473100D01*
X4689504Y-5473100D01*
X4687865Y-5470648D01*
X4630118Y-5432062D01*
X4562000Y-5418513D01*
X4493882Y-5432062D01*
X4436135Y-5470648D01*
X4435000Y-5472346D01*
X4433865Y-5470648D01*
X4376118Y-5432062D01*
X4308000Y-5418513D01*
X4239882Y-5432062D01*
X4182135Y-5470648D01*
X4181000Y-5472346D01*
X4179865Y-5470648D01*
X4122118Y-5432062D01*
X4054000Y-5418513D01*
X3985882Y-5432062D01*
X3955296Y-5452499D01*
X3952969Y-5448884D01*
X3921891Y-5427649D01*
X3885000Y-5420178D01*
X3715000Y-5420178D01*
X3680536Y-5426663D01*
X3648883Y-5447031D01*
X3627649Y-5478109D01*
X3620178Y-5515000D01*
X3620178Y-5685000D01*
X3626663Y-5719464D01*
X3647000Y-5751068D01*
X3647000Y-6200000D01*
X3655066Y-6240551D01*
X3658646Y-6258551D01*
X3691813Y-6308187D01*
X4991813Y-7608187D01*
X5035687Y-7637503D01*
X5041449Y-7641354D01*
X5100000Y-7653000D01*
X8900000Y-7653000D01*
X8958551Y-7641354D01*
X9008187Y-7608187D01*
X9080000Y-7536375D01*
X9080000Y-7900000D01*
X9081576Y-7907781D01*
X9085858Y-7914142D01*
X9602000Y-8430284D01*
X9602000Y-8500000D01*
X9602000Y-8500000D01*
X9609460Y-8537503D01*
X9630704Y-8569297D01*
X10230703Y-9169296D01*
X10230704Y-9169297D01*
X10262497Y-9190540D01*
X10300000Y-9198000D01*
X10802043Y-9198000D01*
X10774135Y-9216648D01*
X10735549Y-9274395D01*
X10722000Y-9342513D01*
X10722000Y-9349487D01*
X10735549Y-9417605D01*
X10766279Y-9463595D01*
X10754979Y-9474895D01*
X10744200Y-9500917D01*
X10744200Y-9576900D01*
X10761900Y-9594600D01*
X10894600Y-9594600D01*
X10894600Y-9592600D01*
X10905400Y-9592600D01*
X10905400Y-9594600D01*
X10907400Y-9594600D01*
X10907400Y-9605400D01*
X10905400Y-9605400D01*
X10905400Y-9738100D01*
X10923100Y-9755800D01*
X10999083Y-9755800D01*
X11002000Y-9754592D01*
X11002000Y-9802000D01*
X10100000Y-9802000D01*
X10062497Y-9809460D01*
X10030704Y-9830704D01*
X9830704Y-10030704D01*
X9809460Y-10062497D01*
X9802000Y-10100000D01*
X9802000Y-10100001D01*
X9802000Y-11002000D01*
X9754592Y-11002000D01*
X9755800Y-10999083D01*
X9755800Y-10923100D01*
X9738100Y-10905400D01*
X9605400Y-10905400D01*
X9605400Y-10907400D01*
X9594600Y-10907400D01*
X9594600Y-10905400D01*
X9592600Y-10905400D01*
X9592600Y-10894600D01*
X9594600Y-10894600D01*
X9594600Y-10761900D01*
X9605400Y-10761900D01*
X9605400Y-10894600D01*
X9738100Y-10894600D01*
X9755800Y-10876900D01*
X9755800Y-10800917D01*
X9745021Y-10774895D01*
X9725105Y-10754979D01*
X9699083Y-10744200D01*
X9623100Y-10744200D01*
X9605400Y-10761900D01*
X9594600Y-10761900D01*
X9576900Y-10744200D01*
X9500917Y-10744200D01*
X9474895Y-10754979D01*
X9463595Y-10766279D01*
X9417605Y-10735549D01*
X9349487Y-10722000D01*
X9342513Y-10722000D01*
X9274395Y-10735549D01*
X9216648Y-10774135D01*
X9198000Y-10802043D01*
X9198000Y-10100001D01*
X9198000Y-10100000D01*
X9190540Y-10062497D01*
X9169297Y-10030704D01*
X8669297Y-9530704D01*
X8637503Y-9509460D01*
X8600000Y-9502000D01*
X8600000Y-9502000D01*
X8530284Y-9502000D01*
X8528284Y-9500000D01*
X9232000Y-9500000D01*
X9252400Y-9602559D01*
X9310495Y-9689505D01*
X9397441Y-9747600D01*
X9500000Y-9768000D01*
X9602559Y-9747600D01*
X9689505Y-9689505D01*
X9733875Y-9623100D01*
X10744200Y-9623100D01*
X10744200Y-9699083D01*
X10754979Y-9725105D01*
X10774895Y-9745021D01*
X10800917Y-9755800D01*
X10876900Y-9755800D01*
X10894600Y-9738100D01*
X10894600Y-9605400D01*
X10761900Y-9605400D01*
X10744200Y-9623100D01*
X9733875Y-9623100D01*
X9747600Y-9602559D01*
X9768000Y-9500000D01*
X9747600Y-9397441D01*
X9689505Y-9310495D01*
X9602559Y-9252400D01*
X9500000Y-9232000D01*
X9397441Y-9252400D01*
X9310495Y-9310495D01*
X9252400Y-9397441D01*
X9232000Y-9500000D01*
X8528284Y-9500000D01*
X8114142Y-9085858D01*
X8107526Y-9081470D01*
X8100000Y-9080000D01*
X4200000Y-9080000D01*
X4192219Y-9081576D01*
X4185858Y-9085858D01*
X3869716Y-9402000D01*
X3800000Y-9402000D01*
X3762497Y-9409460D01*
X3730703Y-9430704D01*
X3730703Y-9430704D01*
X3130703Y-10030704D01*
X3109460Y-10062497D01*
X3102000Y-10100000D01*
X3102000Y-10100001D01*
X3102000Y-10802043D01*
X3083352Y-10774135D01*
X3025605Y-10735549D01*
X2957487Y-10722000D01*
X2950513Y-10722000D01*
X2882395Y-10735549D01*
X2836405Y-10766279D01*
X2825105Y-10754979D01*
X2799083Y-10744200D01*
X2723100Y-10744200D01*
X2705400Y-10761900D01*
X2705400Y-10894600D01*
X2707400Y-10894600D01*
X2707400Y-10905400D01*
X2705400Y-10905400D01*
X2705400Y-10907400D01*
X2694600Y-10907400D01*
X2694600Y-10905400D01*
X2561900Y-10905400D01*
X2544200Y-10923100D01*
X2544200Y-10999083D01*
X2545408Y-11002000D01*
X2498000Y-11002000D01*
X2498000Y-10800917D01*
X2544200Y-10800917D01*
X2544200Y-10876900D01*
X2561900Y-10894600D01*
X2694600Y-10894600D01*
X2694600Y-10761900D01*
X2676900Y-10744200D01*
X2600917Y-10744200D01*
X2574895Y-10754979D01*
X2554979Y-10774895D01*
X2544200Y-10800917D01*
X2498000Y-10800917D01*
X2498000Y-10100000D01*
X2490540Y-10062497D01*
X2469297Y-10030704D01*
X2269297Y-9830704D01*
X2237503Y-9809460D01*
X2200000Y-9802000D01*
X2200000Y-9802000D01*
X1298000Y-9802000D01*
X1298000Y-9754592D01*
X1300917Y-9755800D01*
X1376900Y-9755800D01*
X1394600Y-9738100D01*
X1394600Y-9605400D01*
X1405400Y-9605400D01*
X1405400Y-9738100D01*
X1423100Y-9755800D01*
X1499083Y-9755800D01*
X1525105Y-9745021D01*
X1545021Y-9725105D01*
X1555800Y-9699083D01*
X1555800Y-9623100D01*
X1538100Y-9605400D01*
X1405400Y-9605400D01*
X1394600Y-9605400D01*
X1392600Y-9605400D01*
X1392600Y-9594600D01*
X1394600Y-9594600D01*
X1394600Y-9592600D01*
X1405400Y-9592600D01*
X1405400Y-9594600D01*
X1538100Y-9594600D01*
X1555800Y-9576900D01*
X1555800Y-9500917D01*
X1555420Y-9500000D01*
X2532000Y-9500000D01*
X2552400Y-9602559D01*
X2610495Y-9689505D01*
X2697441Y-9747600D01*
X2800000Y-9768000D01*
X2902559Y-9747600D01*
X2989505Y-9689505D01*
X3047600Y-9602559D01*
X3068000Y-9500000D01*
X3047600Y-9397441D01*
X2989505Y-9310495D01*
X2902559Y-9252400D01*
X2800000Y-9232000D01*
X2697441Y-9252400D01*
X2610495Y-9310495D01*
X2552400Y-9397441D01*
X2532000Y-9500000D01*
X1555420Y-9500000D01*
X1545021Y-9474895D01*
X1533721Y-9463595D01*
X1564451Y-9417605D01*
X1578000Y-9349487D01*
X1578000Y-9342513D01*
X1564451Y-9274395D01*
X1525865Y-9216648D01*
X1497957Y-9198000D01*
X2200000Y-9198000D01*
X2200000Y-9198000D01*
X2237503Y-9190540D01*
X2269297Y-9169297D01*
X2769297Y-8669297D01*
X2790540Y-8637503D01*
X2798000Y-8600000D01*
X2798000Y-8600000D01*
X2798000Y-8530284D01*
X3214142Y-8114142D01*
X3218530Y-8107526D01*
X3220000Y-8100000D01*
X3220000Y-7109501D01*
X3261220Y-7076525D01*
X3264745Y-7072338D01*
X3269296Y-7069296D01*
X3276961Y-7057826D01*
X3285845Y-7047272D01*
X3287499Y-7042054D01*
X3290540Y-7037503D01*
X3293232Y-7023972D01*
X3297401Y-7010822D01*
X3296932Y-7005369D01*
X3298000Y-7000000D01*
X3298000Y-5310917D01*
X6029200Y-5310917D01*
X6029200Y-5426900D01*
X6046900Y-5444600D01*
X6194600Y-5444600D01*
X6194600Y-5271900D01*
X6205400Y-5271900D01*
X6205400Y-5444600D01*
X6353100Y-5444600D01*
X6370800Y-5426900D01*
X6370800Y-5310917D01*
X6360021Y-5284895D01*
X6340105Y-5264979D01*
X6314083Y-5254200D01*
X6223100Y-5254200D01*
X6205400Y-5271900D01*
X6194600Y-5271900D01*
X6176900Y-5254200D01*
X6085917Y-5254200D01*
X6059895Y-5264979D01*
X6039979Y-5284895D01*
X6029200Y-5310917D01*
X3298000Y-5310917D01*
X3298000Y-5200001D01*
X3298000Y-5200000D01*
X3290540Y-5162497D01*
X3290540Y-5162497D01*
X3269296Y-5130704D01*
X3269296Y-5130703D01*
X3220000Y-5081407D01*
X3220000Y-5000000D01*
X5618513Y-5000000D01*
X5632062Y-5068118D01*
X5670648Y-5125865D01*
X5728395Y-5164451D01*
X5796513Y-5178000D01*
X5803487Y-5178000D01*
X5871605Y-5164451D01*
X5929352Y-5125865D01*
X5967938Y-5068118D01*
X5981487Y-5000000D01*
X5967938Y-4931882D01*
X5947501Y-4901296D01*
X5951116Y-4898969D01*
X5972351Y-4867891D01*
X5979822Y-4831000D01*
X5979822Y-4673100D01*
X6029200Y-4673100D01*
X6029200Y-4789083D01*
X6039979Y-4815105D01*
X6059895Y-4835021D01*
X6085917Y-4845800D01*
X6176900Y-4845800D01*
X6194600Y-4828100D01*
X6194600Y-4655400D01*
X6205400Y-4655400D01*
X6205400Y-4828100D01*
X6223100Y-4845800D01*
X6314083Y-4845800D01*
X6340105Y-4835021D01*
X6360021Y-4815105D01*
X6370800Y-4789083D01*
X6370800Y-4673100D01*
X6353100Y-4655400D01*
X6205400Y-4655400D01*
X6194600Y-4655400D01*
X6046900Y-4655400D01*
X6029200Y-4673100D01*
X5979822Y-4673100D01*
X5979822Y-4661000D01*
X5973337Y-4626536D01*
X5952969Y-4594884D01*
X5921891Y-4573649D01*
X5885000Y-4566178D01*
X5715000Y-4566178D01*
X5680536Y-4572663D01*
X5648883Y-4593031D01*
X5627649Y-4624109D01*
X5620178Y-4661000D01*
X5620178Y-4831000D01*
X5626663Y-4865464D01*
X5647031Y-4897117D01*
X5652703Y-4900992D01*
X5632062Y-4931882D01*
X5618513Y-5000000D01*
X3220000Y-5000000D01*
X3220000Y-4510917D01*
X6029200Y-4510917D01*
X6029200Y-4626900D01*
X6046900Y-4644600D01*
X6194600Y-4644600D01*
X6194600Y-4471900D01*
X6205400Y-4471900D01*
X6205400Y-4644600D01*
X6353100Y-4644600D01*
X6370800Y-4626900D01*
X6370800Y-4510917D01*
X6360021Y-4484895D01*
X6340105Y-4464979D01*
X6314083Y-4454200D01*
X6223100Y-4454200D01*
X6205400Y-4471900D01*
X6194600Y-4471900D01*
X6176900Y-4454200D01*
X6085917Y-4454200D01*
X6059895Y-4464979D01*
X6039979Y-4484895D01*
X6029200Y-4510917D01*
X3220000Y-4510917D01*
X3220000Y-4300000D01*
X3218424Y-4292219D01*
X3214142Y-4285858D01*
X3011566Y-4083282D01*
X5481914Y-4083282D01*
X5507445Y-4145072D01*
X5554679Y-4192389D01*
X5616425Y-4218028D01*
X5683282Y-4218086D01*
X5745072Y-4192555D01*
X5792389Y-4145321D01*
X5818028Y-4083575D01*
X5818086Y-4016718D01*
X5792555Y-3954928D01*
X5745321Y-3907611D01*
X5683575Y-3881972D01*
X5616718Y-3881914D01*
X5554928Y-3907445D01*
X5507611Y-3954679D01*
X5481972Y-4016425D01*
X5481914Y-4083282D01*
X3011566Y-4083282D01*
X2998000Y-4069716D01*
X2998000Y-4000000D01*
X2990540Y-3962497D01*
X2969296Y-3930703D01*
X2969296Y-3930703D01*
X2676974Y-3638381D01*
X5562272Y-3638381D01*
X5568030Y-3665407D01*
X5621573Y-3687771D01*
X5679598Y-3687942D01*
X5733272Y-3665895D01*
X5734002Y-3665407D01*
X5739760Y-3638381D01*
X5651016Y-3549637D01*
X5562272Y-3638381D01*
X2676974Y-3638381D01*
X2609175Y-3570582D01*
X5505074Y-3570582D01*
X5527121Y-3624256D01*
X5527609Y-3624986D01*
X5554635Y-3630744D01*
X5643379Y-3542000D01*
X5658653Y-3542000D01*
X5747397Y-3630744D01*
X5774423Y-3624986D01*
X5796787Y-3571443D01*
X5796958Y-3513418D01*
X5774911Y-3459744D01*
X5774423Y-3459014D01*
X5747397Y-3453256D01*
X5658653Y-3542000D01*
X5643379Y-3542000D01*
X5554635Y-3453256D01*
X5527609Y-3459014D01*
X5505245Y-3512557D01*
X5505074Y-3570582D01*
X2609175Y-3570582D01*
X2484212Y-3445619D01*
X5562272Y-3445619D01*
X5651016Y-3534363D01*
X5739760Y-3445619D01*
X5734002Y-3418593D01*
X5680459Y-3396229D01*
X5622434Y-3396058D01*
X5568760Y-3418105D01*
X5568030Y-3418593D01*
X5562272Y-3445619D01*
X2484212Y-3445619D01*
X2169297Y-3130703D01*
X2137503Y-3109460D01*
X2100000Y-3102000D01*
X2100000Y-3102000D01*
X1497957Y-3102000D01*
X1525865Y-3083352D01*
X1564451Y-3025605D01*
X1578000Y-2957487D01*
X1578000Y-2950513D01*
X1564451Y-2882395D01*
X1533721Y-2836405D01*
X1545021Y-2825105D01*
X1555420Y-2800000D01*
X2532000Y-2800000D01*
X2552400Y-2902559D01*
X2610495Y-2989505D01*
X2697441Y-3047600D01*
X2800000Y-3068000D01*
X2902559Y-3047600D01*
X2989505Y-2989505D01*
X3047600Y-2902559D01*
X3068000Y-2800000D01*
X3047600Y-2697441D01*
X2989505Y-2610495D01*
X2902559Y-2552400D01*
X2800000Y-2532000D01*
X2697441Y-2552400D01*
X2610495Y-2610495D01*
X2552400Y-2697441D01*
X2532000Y-2800000D01*
X1555420Y-2800000D01*
X1555800Y-2799083D01*
X1555800Y-2723100D01*
X1538100Y-2705400D01*
X1405400Y-2705400D01*
X1405400Y-2707400D01*
X1394600Y-2707400D01*
X1394600Y-2705400D01*
X1392600Y-2705400D01*
X1392600Y-2694600D01*
X1394600Y-2694600D01*
X1394600Y-2561900D01*
X1405400Y-2561900D01*
X1405400Y-2694600D01*
X1538100Y-2694600D01*
X1555800Y-2676900D01*
X1555800Y-2600917D01*
X1545021Y-2574895D01*
X1525105Y-2554979D01*
X1499083Y-2544200D01*
X1423100Y-2544200D01*
X1405400Y-2561900D01*
X1394600Y-2561900D01*
X1376900Y-2544200D01*
X1300917Y-2544200D01*
X1298000Y-2545408D01*
X1298000Y-2498000D01*
X2200000Y-2498000D01*
X2200000Y-2498000D01*
X2237503Y-2490540D01*
X2269297Y-2469297D01*
X2469297Y-2269297D01*
X2490540Y-2237503D01*
X2498000Y-2200000D01*
X2498000Y-1423100D01*
X2544200Y-1423100D01*
X2544200Y-1499083D01*
X2554979Y-1525105D01*
X2574895Y-1545021D01*
X2600917Y-1555800D01*
X2676900Y-1555800D01*
X2694600Y-1538100D01*
X2694600Y-1405400D01*
X2561900Y-1405400D01*
X2544200Y-1423100D01*
X2498000Y-1423100D01*
X2498000Y-1298000D01*
X2545408Y-1298000D01*
X2544200Y-1300917D01*
M02*
