G04 #@! TF.FileFunction,Profile,NP*
%FSLAX45Y45*%
G04 Gerber Fmt 4.5, Leading zero omitted, Abs format (unit mm)*
G04 Created by KiCad (PCBNEW 4.0.1-stable) date 2017/05/05 18:15:20*
%MOMM*%
G01*
G04 APERTURE LIST*
%ADD10C,0.100000*%
G04 APERTURE END LIST*
D10*
X7600000Y-2800000D02*
X8300000Y-2800000D01*
X7600000Y-2100000D02*
X7600000Y-2800000D01*
X7000000Y-3200000D02*
X4900000Y-3200000D01*
X7200000Y-3000000D02*
X7000000Y-3200000D01*
X7200000Y-2400000D02*
X7200000Y-3000000D01*
X7000000Y-2400000D02*
X7200000Y-2400000D01*
X6800000Y-2200000D02*
X7000000Y-2400000D01*
X6800000Y-1900000D02*
X6800000Y-2200000D01*
X4500000Y-3000000D02*
X4000000Y-3000000D01*
X4500000Y-2100000D02*
X4500000Y-3000000D01*
X4900000Y-2400000D02*
X4900000Y-3200000D01*
X5100000Y-2400000D02*
X4900000Y-2400000D01*
X5300000Y-2200000D02*
X5100000Y-2400000D01*
X5300000Y-1900000D02*
X5300000Y-2200000D01*
X3200000Y-2200000D02*
X4000000Y-3000000D01*
X4900000Y-1700000D02*
X4500000Y-2100000D01*
X5100000Y-1700000D02*
X4900000Y-1700000D01*
X7200000Y-1700000D02*
X7600000Y-2100000D01*
X7000000Y-1700000D02*
X7200000Y-1700000D01*
X6800000Y-1900000D02*
X7000000Y-1700000D01*
X5100000Y-1700000D02*
X5300000Y-1900000D01*
X5130000Y-2040000D02*
G75*
G03X5130000Y-2040000I-110000J0D01*
G01*
X7210000Y-2040000D02*
G75*
G03X7210000Y-2040000I-110000J0D01*
G01*
X9700000Y-4800000D02*
X9400000Y-5100000D01*
X9700000Y-3600000D02*
X9700000Y-4800000D01*
X10100000Y-3200000D02*
X9700000Y-3600000D01*
X8300000Y-2800000D02*
X9100000Y-2000000D01*
X2900000Y-4000000D02*
X2100000Y-3200000D01*
X2900000Y-4900000D02*
X2900000Y-4000000D01*
X3200000Y-5200000D02*
X2900000Y-4900000D01*
X3200000Y-7000000D02*
X3200000Y-5200000D01*
X2700000Y-7400000D02*
X3200000Y-7000000D01*
X2700000Y-8600000D02*
X2700000Y-7400000D01*
X2200000Y-9100000D02*
X2700000Y-8600000D01*
X6800000Y-9200000D02*
X5200000Y-9200000D01*
X7200000Y-9600000D02*
X6800000Y-9200000D01*
X8600000Y-9600000D02*
X7200000Y-9600000D01*
X9100000Y-10100000D02*
X8600000Y-9600000D01*
X9700000Y-8500000D02*
X10300000Y-9100000D01*
X9700000Y-7600000D02*
X9700000Y-8500000D01*
X9400000Y-7300000D02*
X9700000Y-7600000D01*
X9400000Y-5100000D02*
X9400000Y-7300000D01*
X9100000Y-11100000D02*
X9100000Y-10100000D01*
X4900000Y-9500000D02*
X5200000Y-9200000D01*
X3800000Y-9500000D02*
X4900000Y-9500000D01*
X3200000Y-10100000D02*
X3800000Y-9500000D01*
X2200000Y-9900000D02*
X1200000Y-9900000D01*
X2200000Y-9100000D02*
X1200000Y-9100000D01*
X1200000Y-9900000D02*
X1200000Y-9100000D01*
X3200000Y-11100000D02*
X2400000Y-11100000D01*
X3200000Y-10100000D02*
X3200000Y-11100000D01*
X2400000Y-10100000D02*
X2400000Y-11100000D01*
X9900000Y-10100000D02*
X9900000Y-11100000D01*
X9900000Y-11100000D02*
X9100000Y-11100000D01*
X11100000Y-9100000D02*
X11100000Y-9900000D01*
X10300000Y-9100000D02*
X11100000Y-9100000D01*
X10100000Y-9900000D02*
X11100000Y-9900000D01*
X2400000Y-2200000D02*
X2400000Y-1200000D01*
X3200000Y-2200000D02*
X3200000Y-1200000D01*
X2400000Y-1200000D02*
X3200000Y-1200000D01*
X1200000Y-3200000D02*
X1200000Y-2400000D01*
X2100000Y-3200000D02*
X1200000Y-3200000D01*
X2200000Y-2400000D02*
X1200000Y-2400000D01*
X9100000Y-1200000D02*
X9900000Y-1200000D01*
X9100000Y-2000000D02*
X9100000Y-1200000D01*
X9900000Y-2200000D02*
X9900000Y-1200000D01*
X11100000Y-2400000D02*
X11100000Y-3200000D01*
X10100000Y-2400000D02*
X11100000Y-2400000D01*
X2200000Y-2400000D02*
X2400000Y-2200000D01*
X9900000Y-2200000D02*
X10100000Y-2400000D01*
X9900000Y-10100000D02*
X10100000Y-9900000D01*
X2400000Y-10100000D02*
X2200000Y-9900000D01*
X10100000Y-3200000D02*
X11100000Y-3200000D01*
X9670000Y-2800000D02*
G75*
G03X9670000Y-2800000I-170000J0D01*
G01*
X2970000Y-2800000D02*
G75*
G03X2970000Y-2800000I-170000J0D01*
G01*
X2970000Y-9500000D02*
G75*
G03X2970000Y-9500000I-170000J0D01*
G01*
X9670000Y-9500000D02*
G75*
G03X9670000Y-9500000I-170000J0D01*
G01*
M02*
