G04 #@! TF.FileFunction,Copper,L1,Top,Signal*
%FSLAX45Y45*%
G04 Gerber Fmt 4.5, Leading zero omitted, Abs format (unit mm)*
G04 Created by KiCad (PCBNEW 4.0.1-stable) date 2017/05/05 18:15:20*
%MOMM*%
G01*
G04 APERTURE LIST*
%ADD10C,0.100000*%
%ADD11R,2.000000X2.500000*%
%ADD12R,2.500000X2.000000*%
%ADD13R,1.100000X1.100000*%
%ADD14C,1.501140*%
%ADD15R,1.700000X1.700000*%
%ADD16O,1.700000X1.700000*%
%ADD17R,1.900000X0.800000*%
%ADD18R,0.800000X1.900000*%
%ADD19R,2.000000X1.700000*%
%ADD20R,1.700000X2.000000*%
%ADD21C,1.400000*%
%ADD22C,0.889000*%
%ADD23C,1.200000*%
%ADD24C,0.350000*%
G04 APERTURE END LIST*
D10*
D11*
X3300000Y-8050000D03*
X3700000Y-8050000D03*
D12*
X4288000Y-9000000D03*
X4288000Y-8600000D03*
D11*
X9000000Y-7993000D03*
X8600000Y-7993000D03*
D12*
X8000000Y-9000000D03*
X8000000Y-8600000D03*
D11*
X3300000Y-4300000D03*
X3700000Y-4300000D03*
D12*
X4300000Y-3300000D03*
X4300000Y-3700000D03*
D11*
X9000000Y-4300000D03*
X8600000Y-4300000D03*
D12*
X8100000Y-3300000D03*
X8100000Y-3700000D03*
D13*
X3300000Y-8420000D03*
X3300000Y-8700000D03*
X3930000Y-9000000D03*
X3650000Y-9000000D03*
X9000000Y-8350000D03*
X9000000Y-8630000D03*
X8420000Y-9000000D03*
X8700000Y-9000000D03*
X3300000Y-3940000D03*
X3300000Y-3660000D03*
X3940000Y-3300000D03*
X3660000Y-3300000D03*
X9000000Y-3880000D03*
X9000000Y-3600000D03*
X8420000Y-3300000D03*
X8700000Y-3300000D03*
D14*
X5650000Y-4050000D03*
X5651016Y-3542000D03*
D15*
X1400000Y-9600000D03*
D16*
X1400000Y-9346000D03*
D15*
X2700000Y-10900000D03*
D16*
X2954000Y-10900000D03*
D15*
X10900000Y-9600000D03*
D16*
X10900000Y-9346000D03*
D15*
X9600000Y-10900000D03*
D16*
X9346000Y-10900000D03*
D15*
X1400000Y-2700000D03*
D16*
X1400000Y-2954000D03*
D15*
X2700000Y-1400000D03*
D16*
X2954000Y-1400000D03*
D15*
X10900000Y-2700000D03*
D16*
X10900000Y-2954000D03*
D15*
X9600000Y-1400000D03*
D16*
X9346000Y-1400000D03*
D15*
X5800000Y-4746000D03*
D16*
X5800000Y-5000000D03*
D17*
X3700000Y-7445000D03*
X3700000Y-7255000D03*
X3400000Y-7350000D03*
D18*
X5140000Y-8700000D03*
X4950000Y-8700000D03*
X5045000Y-9000000D03*
D17*
X8750000Y-7310000D03*
X8750000Y-7500000D03*
X9050000Y-7405000D03*
D18*
X7190000Y-8600000D03*
X7000000Y-8600000D03*
X7095000Y-8900000D03*
D17*
X3650000Y-5040000D03*
X3650000Y-4850000D03*
X3350000Y-4945000D03*
D18*
X4910000Y-3800000D03*
X5100000Y-3800000D03*
X5005000Y-3500000D03*
D17*
X8600000Y-4900000D03*
X8600000Y-5090000D03*
X8900000Y-4995000D03*
D18*
X7355000Y-3600000D03*
X7545000Y-3600000D03*
X7450000Y-3300000D03*
D19*
X5100000Y-7300000D03*
X5500000Y-7300000D03*
D20*
X6800000Y-7850000D03*
X6800000Y-7450000D03*
X7600000Y-7850000D03*
X7600000Y-7450000D03*
X7200000Y-7850000D03*
X7200000Y-7450000D03*
D19*
X4600000Y-4950000D03*
X5000000Y-4950000D03*
X4600000Y-4450000D03*
X5000000Y-4450000D03*
D20*
X7600000Y-4600000D03*
X7600000Y-5000000D03*
X6750000Y-3700000D03*
X6750000Y-4100000D03*
X4400000Y-7550000D03*
X4400000Y-7150000D03*
D19*
X5350000Y-8250000D03*
X4950000Y-8250000D03*
D20*
X8300000Y-7300000D03*
X8300000Y-7700000D03*
D19*
X7200000Y-8250000D03*
X6800000Y-8250000D03*
D20*
X4150000Y-5100000D03*
X4150000Y-4700000D03*
D19*
X4600000Y-4100000D03*
X5000000Y-4100000D03*
D20*
X8100000Y-4600000D03*
X8100000Y-5000000D03*
D19*
X7400000Y-4000000D03*
X7800000Y-4000000D03*
D15*
X3800000Y-5600000D03*
D16*
X4054000Y-5600000D03*
X4308000Y-5600000D03*
X4562000Y-5600000D03*
D15*
X9050000Y-6550000D03*
D16*
X9050000Y-6296000D03*
X8796000Y-6550000D03*
X8796000Y-6296000D03*
X8542000Y-6550000D03*
X8542000Y-6296000D03*
X8288000Y-6550000D03*
X8288000Y-6296000D03*
X8034000Y-6550000D03*
X8034000Y-6296000D03*
X7780000Y-6550000D03*
X7780000Y-6296000D03*
X7526000Y-6550000D03*
X7526000Y-6296000D03*
X7272000Y-6550000D03*
X7272000Y-6296000D03*
X7018000Y-6550000D03*
X7018000Y-6296000D03*
X6764000Y-6550000D03*
X6764000Y-6296000D03*
D21*
X8400000Y-3900000D03*
X3000000Y-3700000D03*
X4600000Y-3300000D03*
X3705000Y-8600000D03*
X8600000Y-8600000D03*
D22*
X7800000Y-4350000D03*
D21*
X4643000Y-6514000D03*
D23*
X3300000Y-3940000D02*
X3240000Y-3940000D01*
X3240000Y-3940000D02*
X3000000Y-3700000D01*
X4300000Y-3300000D02*
X4600000Y-3300000D01*
X3705000Y-8600000D02*
X3505000Y-8400000D01*
X3930000Y-8825000D02*
X3705000Y-8600000D01*
X8600000Y-8600000D02*
X8420000Y-8780000D01*
X8800000Y-8400000D02*
X8600000Y-8600000D01*
X8420000Y-3300000D02*
X8420000Y-3400000D01*
X8400000Y-3420000D02*
X8420000Y-3400000D01*
X8400000Y-3900000D02*
X8400000Y-3420000D01*
X8980000Y-3900000D02*
X8400000Y-3900000D01*
X3505000Y-8400000D02*
X3485000Y-8420000D01*
X3485000Y-8420000D02*
X3300000Y-8420000D01*
X3930000Y-9000000D02*
X3930000Y-8825000D01*
X8420000Y-8780000D02*
X8420000Y-9000000D01*
X8800000Y-8375000D02*
X8800000Y-8400000D01*
X9000000Y-8350000D02*
X8825000Y-8350000D01*
X8825000Y-8350000D02*
X8800000Y-8375000D01*
X8980000Y-3900000D02*
X9000000Y-3880000D01*
X9000000Y-8350000D02*
X9000000Y-7993000D01*
X8000000Y-9000000D02*
X8420000Y-9000000D01*
X3300000Y-8420000D02*
X3300000Y-8050000D01*
X3930000Y-9000000D02*
X4288000Y-9000000D01*
X9000000Y-3880000D02*
X9000000Y-4300000D01*
X8420000Y-3300000D02*
X8100000Y-3300000D01*
X3940000Y-3300000D02*
X4300000Y-3300000D01*
X3300000Y-4300000D02*
X3300000Y-3940000D01*
X6800000Y-8250000D02*
X6800000Y-8400000D01*
X6800000Y-8400000D02*
X7000000Y-8600000D01*
X8495000Y-7700000D02*
X8300000Y-7700000D01*
X8750000Y-7500000D02*
X8695000Y-7500000D01*
X8695000Y-7500000D02*
X8495000Y-7700000D01*
X4400000Y-7150000D02*
X3805000Y-7150000D01*
X3805000Y-7150000D02*
X3700000Y-7255000D01*
X4950000Y-8700000D02*
X4950000Y-8250000D01*
X4950000Y-8700000D02*
X4950000Y-8645000D01*
X8600000Y-5090000D02*
X8190000Y-5090000D01*
X8190000Y-5090000D02*
X8100000Y-5000000D01*
X7545000Y-3745000D02*
X7800000Y-4000000D01*
X7545000Y-3600000D02*
X7545000Y-3745000D01*
X1400000Y-9346000D02*
X2354000Y-9346000D01*
X2354000Y-9346000D02*
X3000000Y-8700000D01*
X3000000Y-7700000D02*
X3000000Y-8700000D01*
X3500000Y-7700000D02*
X3000000Y-7700000D01*
X3500000Y-7700000D02*
X3595000Y-7700000D01*
X3595000Y-7700000D02*
X3700000Y-7805000D01*
X3700000Y-7805000D02*
X3700000Y-8050000D01*
X3400000Y-7600000D02*
X3400000Y-7350000D01*
X3400000Y-7600000D02*
X3500000Y-7700000D01*
X3000000Y-8700000D02*
X3300000Y-8700000D01*
X3650000Y-8000000D02*
X3700000Y-8050000D01*
X2954000Y-10900000D02*
X2954000Y-9973178D01*
X2954000Y-9973178D02*
X2940411Y-9959589D01*
X4900000Y-9000000D02*
X5000000Y-9000000D01*
X5000000Y-9000000D02*
X5045000Y-9000000D01*
X3650000Y-9250000D02*
X4750000Y-9250000D01*
X4750000Y-9250000D02*
X5000000Y-9000000D01*
X2940411Y-9959589D02*
X3650000Y-9250000D01*
X3650000Y-9250000D02*
X3650000Y-9000000D01*
X4500000Y-8600000D02*
X4900000Y-9000000D01*
X4288000Y-8600000D02*
X4500000Y-8600000D01*
X10700000Y-9346000D02*
X10900000Y-9346000D01*
X10046000Y-9346000D02*
X10700000Y-9346000D01*
X9330000Y-8630000D02*
X9330000Y-7845000D01*
X9330000Y-7845000D02*
X9050000Y-7565000D01*
X9050000Y-7565000D02*
X9050000Y-7405000D01*
X10046000Y-9346000D02*
X9330000Y-8630000D01*
X9330000Y-8630000D02*
X9000000Y-8630000D01*
X8600000Y-7993000D02*
X9050000Y-7543000D01*
X9050000Y-7543000D02*
X9050000Y-7405000D01*
X9346000Y-10700000D02*
X9346000Y-10900000D01*
X9346000Y-9946000D02*
X9346000Y-10700000D01*
X8700000Y-9300000D02*
X7655000Y-9300000D01*
X7655000Y-9300000D02*
X7255000Y-8900000D01*
X7255000Y-8900000D02*
X7095000Y-8900000D01*
X8700000Y-9300000D02*
X8700000Y-9000000D01*
X9346000Y-9946000D02*
X8700000Y-9300000D01*
X8000000Y-8600000D02*
X7700000Y-8600000D01*
X7700000Y-8600000D02*
X7400000Y-8900000D01*
X7400000Y-8900000D02*
X7095000Y-8900000D01*
X1450000Y-2954000D02*
X2254000Y-2954000D01*
X3100000Y-3300000D02*
X3200000Y-3400000D01*
X2254000Y-2954000D02*
X2600000Y-3300000D01*
X2600000Y-3300000D02*
X3100000Y-3300000D01*
X3200000Y-3400000D02*
X3215000Y-3400000D01*
X3215000Y-3400000D02*
X3300000Y-3485000D01*
X3300000Y-3485000D02*
X3300000Y-3660000D01*
X3700000Y-4300000D02*
X3700000Y-4060000D01*
X3700000Y-4060000D02*
X3300000Y-3660000D01*
X3350000Y-4945000D02*
X3350000Y-4750000D01*
X3645000Y-4600000D02*
X3500000Y-4600000D01*
X3350000Y-4750000D02*
X3500000Y-4600000D01*
X3700000Y-4300000D02*
X3700000Y-4545000D01*
X3700000Y-4545000D02*
X3645000Y-4600000D01*
X2954000Y-1600000D02*
X2954000Y-1500000D01*
X2954000Y-1600000D02*
X2954000Y-2354000D01*
X2954000Y-2354000D02*
X3660000Y-3060000D01*
X3660000Y-3060000D02*
X3660000Y-3300000D01*
X5000000Y-3500000D02*
X5005000Y-3500000D01*
X4745000Y-3500000D02*
X5000000Y-3500000D01*
X4300000Y-3700000D02*
X4545000Y-3700000D01*
X4545000Y-3700000D02*
X4745000Y-3500000D01*
X3885000Y-3700000D02*
X4300000Y-3700000D01*
X3660000Y-3300000D02*
X3660000Y-3475000D01*
X3660000Y-3475000D02*
X3885000Y-3700000D01*
X10600000Y-2954000D02*
X10700000Y-2954000D01*
X9946000Y-2954000D02*
X10600000Y-2954000D01*
X10600000Y-2954000D02*
X10900000Y-2954000D01*
X9946000Y-2954000D02*
X9400000Y-3500000D01*
X9400000Y-3500000D02*
X9300000Y-3600000D01*
X9400000Y-4287000D02*
X9400000Y-3500000D01*
X8900000Y-4750000D02*
X8937000Y-4750000D01*
X8937000Y-4750000D02*
X9400000Y-4287000D01*
X9300000Y-3600000D02*
X9000000Y-3600000D01*
X8900000Y-4995000D02*
X8900000Y-4750000D01*
X8900000Y-4750000D02*
X8750000Y-4600000D01*
X8750000Y-4600000D02*
X8655000Y-4600000D01*
X8655000Y-4600000D02*
X8600000Y-4545000D01*
X8600000Y-4545000D02*
X8600000Y-4300000D01*
X9346000Y-1600000D02*
X9346000Y-1400000D01*
X9346000Y-2354000D02*
X9346000Y-1600000D01*
X7650000Y-3300000D02*
X7900000Y-3050000D01*
X8700000Y-3000000D02*
X8700000Y-3100000D01*
X8700000Y-3100000D02*
X8700000Y-3300000D01*
X7900000Y-3050000D02*
X8650000Y-3050000D01*
X8650000Y-3050000D02*
X8700000Y-3100000D01*
X9346000Y-2354000D02*
X8700000Y-3000000D01*
X7750000Y-3595000D02*
X7750000Y-3400000D01*
X7450000Y-3300000D02*
X7650000Y-3300000D01*
X7650000Y-3300000D02*
X7750000Y-3400000D01*
X8100000Y-3700000D02*
X7855000Y-3700000D01*
X7855000Y-3700000D02*
X7750000Y-3595000D01*
X5650000Y-4050000D02*
X5650000Y-4596000D01*
X5650000Y-4596000D02*
X5800000Y-4746000D01*
X8550000Y-6558000D02*
X8542000Y-6550000D01*
X4643000Y-6514000D02*
X4643000Y-5681000D01*
X4643000Y-5681000D02*
X4562000Y-5600000D01*
X7600000Y-5000000D02*
X7600000Y-5220000D01*
X7600000Y-5220000D02*
X8034000Y-5654000D01*
X8034000Y-5654000D02*
X8034000Y-6296000D01*
X7780000Y-6920000D02*
X7600000Y-7100000D01*
X7600000Y-7100000D02*
X7600000Y-7450000D01*
X7780000Y-6550000D02*
X7780000Y-6920000D01*
X6750000Y-4750000D02*
X6750000Y-4100000D01*
X7700000Y-5700000D02*
X6750000Y-4750000D01*
X7700000Y-6095792D02*
X7700000Y-5700000D01*
X7780000Y-6296000D02*
X7780000Y-6175792D01*
X7780000Y-6175792D02*
X7700000Y-6095792D01*
X7200000Y-7100000D02*
X7200000Y-7450000D01*
X7526000Y-6774000D02*
X7200000Y-7100000D01*
X7526000Y-6550000D02*
X7526000Y-6774000D01*
X7226000Y-7424000D02*
X7200000Y-7450000D01*
X6800000Y-7142208D02*
X6800000Y-7450000D01*
X7272000Y-6550000D02*
X7272000Y-6670208D01*
X7272000Y-6670208D02*
X6800000Y-7142208D01*
X6900000Y-5500000D02*
X7272000Y-5872000D01*
X7272000Y-5872000D02*
X7272000Y-6296000D01*
X5500000Y-5500000D02*
X6900000Y-5500000D01*
X5400000Y-5400000D02*
X5500000Y-5500000D01*
X5400000Y-4630000D02*
X5400000Y-5400000D01*
X5000000Y-4450000D02*
X5220000Y-4450000D01*
X5220000Y-4450000D02*
X5400000Y-4630000D01*
X5000000Y-4950000D02*
X5000000Y-5900000D01*
X7018000Y-6175792D02*
X7018000Y-6296000D01*
X5000000Y-5900000D02*
X6742208Y-5900000D01*
X6742208Y-5900000D02*
X7018000Y-6175792D01*
X5500000Y-7300000D02*
X6014000Y-7300000D01*
X6014000Y-7300000D02*
X6764000Y-6550000D01*
X4400000Y-7550000D02*
X4850000Y-7550000D01*
X4850000Y-7550000D02*
X5100000Y-7300000D01*
X4400000Y-7550000D02*
X3805000Y-7550000D01*
X3805000Y-7550000D02*
X3700000Y-7445000D01*
X3700000Y-7445000D02*
X3755000Y-7445000D01*
X6800000Y-7850000D02*
X6500000Y-7850000D01*
X6500000Y-7850000D02*
X6100000Y-8250000D01*
X6100000Y-8250000D02*
X5350000Y-8250000D01*
X5350000Y-8250000D02*
X5350000Y-8490000D01*
X5350000Y-8490000D02*
X5140000Y-8700000D01*
X8300000Y-7300000D02*
X8150000Y-7300000D01*
X8150000Y-7300000D02*
X7600000Y-7850000D01*
X8750000Y-7310000D02*
X8310000Y-7310000D01*
X8310000Y-7310000D02*
X8300000Y-7300000D01*
X7200000Y-8250000D02*
X7200000Y-7850000D01*
X7190000Y-8600000D02*
X7190000Y-8260000D01*
X7190000Y-8260000D02*
X7200000Y-8250000D01*
X4150000Y-5100000D02*
X4450000Y-5100000D01*
X4450000Y-5100000D02*
X4600000Y-4950000D01*
X3650000Y-5040000D02*
X3650000Y-5050000D01*
X3650000Y-5050000D02*
X3700000Y-5100000D01*
X3700000Y-5100000D02*
X4150000Y-5100000D01*
X4600000Y-3950000D02*
X4600000Y-4100000D01*
X4910000Y-3800000D02*
X4750000Y-3800000D01*
X4750000Y-3800000D02*
X4600000Y-3950000D01*
X4600000Y-4100000D02*
X4600000Y-4450000D01*
X8100000Y-4600000D02*
X7600000Y-4600000D01*
X8300000Y-4655000D02*
X8155000Y-4655000D01*
X8155000Y-4655000D02*
X8100000Y-4600000D01*
X8600000Y-4900000D02*
X8545000Y-4900000D01*
X8545000Y-4900000D02*
X8300000Y-4655000D01*
X7355000Y-3600000D02*
X7355000Y-3700000D01*
X7355000Y-3700000D02*
X7355000Y-3955000D01*
X6750000Y-3700000D02*
X7355000Y-3700000D01*
X7355000Y-3955000D02*
X7400000Y-4000000D01*
D24*
G36*
X3509500Y-3475000D02*
X3520956Y-3532594D01*
X3542008Y-3564101D01*
X3553580Y-3581420D01*
X3778580Y-3806419D01*
X3778580Y-3806420D01*
X3799894Y-3820661D01*
X3827406Y-3839044D01*
X3885000Y-3850500D01*
X3885000Y-3850500D01*
X4099953Y-3850500D01*
X4108858Y-3864339D01*
X4139101Y-3885003D01*
X4175000Y-3892273D01*
X4425000Y-3892273D01*
X4458537Y-3885962D01*
X4470334Y-3878372D01*
X4460956Y-3892406D01*
X4451792Y-3938478D01*
X4435661Y-3948858D01*
X4414997Y-3979101D01*
X4407727Y-4015000D01*
X4407727Y-4185000D01*
X4414038Y-4218537D01*
X4433858Y-4249339D01*
X4449500Y-4260027D01*
X4449500Y-4289953D01*
X4435661Y-4298858D01*
X4414997Y-4329101D01*
X4407727Y-4365000D01*
X4407727Y-4535000D01*
X4414038Y-4568537D01*
X4433858Y-4599339D01*
X4464101Y-4620003D01*
X4500000Y-4627273D01*
X4700000Y-4627273D01*
X4733537Y-4620962D01*
X4764339Y-4601142D01*
X4785003Y-4570899D01*
X4792273Y-4535000D01*
X4792273Y-4365000D01*
X4785962Y-4331463D01*
X4766142Y-4300661D01*
X4750500Y-4289973D01*
X4750500Y-4260047D01*
X4764339Y-4251142D01*
X4785003Y-4220899D01*
X4792273Y-4185000D01*
X4792273Y-4124975D01*
X4831700Y-4124975D01*
X4831700Y-4198586D01*
X4842098Y-4223689D01*
X4861311Y-4242902D01*
X4886414Y-4253300D01*
X4975025Y-4253300D01*
X4992100Y-4236225D01*
X4992100Y-4107900D01*
X5007900Y-4107900D01*
X5007900Y-4236225D01*
X5024975Y-4253300D01*
X5113586Y-4253300D01*
X5138689Y-4242902D01*
X5157902Y-4223689D01*
X5168300Y-4198586D01*
X5168300Y-4124975D01*
X5151225Y-4107900D01*
X5007900Y-4107900D01*
X4992100Y-4107900D01*
X4848775Y-4107900D01*
X4831700Y-4124975D01*
X4792273Y-4124975D01*
X4792273Y-4015000D01*
X4785962Y-3981463D01*
X4784167Y-3978672D01*
X4803718Y-3959121D01*
X4803858Y-3959339D01*
X4834101Y-3980003D01*
X4840068Y-3981212D01*
X4831700Y-4001414D01*
X4831700Y-4075025D01*
X4848775Y-4092100D01*
X4992100Y-4092100D01*
X4992100Y-4090100D01*
X5007900Y-4090100D01*
X5007900Y-4092100D01*
X5151225Y-4092100D01*
X5168300Y-4075025D01*
X5168300Y-4001414D01*
X5157902Y-3976311D01*
X5144891Y-3963300D01*
X5153586Y-3963300D01*
X5178689Y-3952902D01*
X5197902Y-3933689D01*
X5208300Y-3908586D01*
X5208300Y-3824975D01*
X5191225Y-3807900D01*
X5107900Y-3807900D01*
X5107900Y-3809900D01*
X5092100Y-3809900D01*
X5092100Y-3807900D01*
X5090100Y-3807900D01*
X5090100Y-3792100D01*
X5092100Y-3792100D01*
X5092100Y-3790100D01*
X5107900Y-3790100D01*
X5107900Y-3792100D01*
X5191225Y-3792100D01*
X5208300Y-3775025D01*
X5208300Y-3691414D01*
X5197902Y-3666311D01*
X5178689Y-3647098D01*
X5153586Y-3636700D01*
X5126040Y-3636700D01*
X5130003Y-3630899D01*
X5137273Y-3595000D01*
X5137273Y-3574787D01*
X5485430Y-3574787D01*
X5510582Y-3635658D01*
X5557113Y-3682271D01*
X5617940Y-3707528D01*
X5683803Y-3707586D01*
X5744674Y-3682434D01*
X5791287Y-3635903D01*
X5816544Y-3575076D01*
X5816602Y-3509213D01*
X5791450Y-3448342D01*
X5744919Y-3401729D01*
X5684092Y-3376472D01*
X5618229Y-3376414D01*
X5557358Y-3401566D01*
X5510745Y-3448097D01*
X5485488Y-3508924D01*
X5485430Y-3574787D01*
X5137273Y-3574787D01*
X5137273Y-3567727D01*
X5144044Y-3557594D01*
X5155500Y-3500000D01*
X5144044Y-3442406D01*
X5137273Y-3432273D01*
X5137273Y-3405000D01*
X5130962Y-3371463D01*
X5111142Y-3340661D01*
X5080899Y-3319997D01*
X5045000Y-3312727D01*
X4965000Y-3312727D01*
X4931463Y-3319038D01*
X4900661Y-3338858D01*
X4893390Y-3349500D01*
X4753233Y-3349500D01*
X4760472Y-3332065D01*
X4760528Y-3268215D01*
X4739573Y-3217500D01*
X4807981Y-3217500D01*
X4811770Y-3236546D01*
X4832471Y-3267529D01*
X4863454Y-3288230D01*
X4900000Y-3295500D01*
X7000000Y-3295500D01*
X7036546Y-3288230D01*
X7067529Y-3267529D01*
X7117557Y-3217500D01*
X7317727Y-3217500D01*
X7317727Y-3232273D01*
X7310956Y-3242406D01*
X7299500Y-3300000D01*
X7310956Y-3357594D01*
X7317727Y-3367727D01*
X7317727Y-3395000D01*
X7321063Y-3412727D01*
X7315000Y-3412727D01*
X7281463Y-3419038D01*
X7250661Y-3438858D01*
X7229997Y-3469101D01*
X7222727Y-3505000D01*
X7222727Y-3532273D01*
X7215956Y-3542406D01*
X7214545Y-3549500D01*
X6910047Y-3549500D01*
X6901142Y-3535661D01*
X6870899Y-3514997D01*
X6835000Y-3507727D01*
X6665000Y-3507727D01*
X6631463Y-3514038D01*
X6600661Y-3533858D01*
X6579997Y-3564101D01*
X6572727Y-3600000D01*
X6572727Y-3800000D01*
X6579038Y-3833537D01*
X6598858Y-3864339D01*
X6629101Y-3885003D01*
X6665000Y-3892273D01*
X6835000Y-3892273D01*
X6868537Y-3885962D01*
X6899339Y-3866142D01*
X6910027Y-3850500D01*
X7204500Y-3850500D01*
X7204500Y-3955000D01*
X7207727Y-3971224D01*
X7207727Y-4085000D01*
X7214038Y-4118537D01*
X7233858Y-4149339D01*
X7264101Y-4170003D01*
X7300000Y-4177273D01*
X7500000Y-4177273D01*
X7533537Y-4170962D01*
X7564339Y-4151142D01*
X7585003Y-4120899D01*
X7592273Y-4085000D01*
X7592273Y-4024975D01*
X7631700Y-4024975D01*
X7631700Y-4098586D01*
X7642098Y-4123689D01*
X7661311Y-4142902D01*
X7686414Y-4153300D01*
X7775025Y-4153300D01*
X7792100Y-4136225D01*
X7792100Y-4007900D01*
X7807900Y-4007900D01*
X7807900Y-4136225D01*
X7824975Y-4153300D01*
X7913586Y-4153300D01*
X7938689Y-4142902D01*
X7957902Y-4123689D01*
X7968300Y-4098586D01*
X7968300Y-4024975D01*
X7951225Y-4007900D01*
X7807900Y-4007900D01*
X7792100Y-4007900D01*
X7648775Y-4007900D01*
X7631700Y-4024975D01*
X7592273Y-4024975D01*
X7592273Y-3915000D01*
X7589717Y-3901414D01*
X7631700Y-3901414D01*
X7631700Y-3975025D01*
X7648775Y-3992100D01*
X7792100Y-3992100D01*
X7792100Y-3863775D01*
X7775025Y-3846700D01*
X7686414Y-3846700D01*
X7661311Y-3857098D01*
X7642098Y-3876311D01*
X7631700Y-3901414D01*
X7589717Y-3901414D01*
X7585962Y-3881463D01*
X7566142Y-3850661D01*
X7535899Y-3829997D01*
X7505500Y-3823841D01*
X7505500Y-3763300D01*
X7520025Y-3763300D01*
X7537100Y-3746225D01*
X7537100Y-3607900D01*
X7535100Y-3607900D01*
X7535100Y-3592100D01*
X7537100Y-3592100D01*
X7537100Y-3590100D01*
X7552900Y-3590100D01*
X7552900Y-3592100D01*
X7554900Y-3592100D01*
X7554900Y-3607900D01*
X7552900Y-3607900D01*
X7552900Y-3746225D01*
X7569975Y-3763300D01*
X7598586Y-3763300D01*
X7623689Y-3752902D01*
X7642902Y-3733689D01*
X7652552Y-3710391D01*
X7748580Y-3806420D01*
X7797406Y-3839044D01*
X7835896Y-3846700D01*
X7824975Y-3846700D01*
X7807900Y-3863775D01*
X7807900Y-3992100D01*
X7951225Y-3992100D01*
X7968300Y-3975025D01*
X7968300Y-3901414D01*
X7963553Y-3889955D01*
X7975000Y-3892273D01*
X8225000Y-3892273D01*
X8239509Y-3889543D01*
X8239472Y-3931785D01*
X8263855Y-3990797D01*
X8308965Y-4035986D01*
X8367934Y-4060472D01*
X8431785Y-4060528D01*
X8456055Y-4050500D01*
X8849500Y-4050500D01*
X8849500Y-4099953D01*
X8835661Y-4108858D01*
X8814997Y-4139101D01*
X8807727Y-4175000D01*
X8807727Y-4425000D01*
X8814038Y-4458537D01*
X8821628Y-4470334D01*
X8807594Y-4460956D01*
X8785867Y-4456634D01*
X8792273Y-4425000D01*
X8792273Y-4175000D01*
X8785962Y-4141463D01*
X8766142Y-4110661D01*
X8735899Y-4089997D01*
X8700000Y-4082727D01*
X8500000Y-4082727D01*
X8466463Y-4089038D01*
X8435661Y-4108858D01*
X8414997Y-4139101D01*
X8407727Y-4175000D01*
X8407727Y-4425000D01*
X8414038Y-4458537D01*
X8433858Y-4489339D01*
X8449500Y-4500027D01*
X8449500Y-4545000D01*
X8460956Y-4602594D01*
X8462009Y-4604170D01*
X8406420Y-4548580D01*
X8357594Y-4515956D01*
X8300000Y-4504500D01*
X8277273Y-4504500D01*
X8277273Y-4500000D01*
X8270962Y-4466463D01*
X8251142Y-4435661D01*
X8220899Y-4414997D01*
X8185000Y-4407727D01*
X8015000Y-4407727D01*
X7981463Y-4414038D01*
X7950661Y-4433858D01*
X7939973Y-4449500D01*
X7760047Y-4449500D01*
X7751142Y-4435661D01*
X7720899Y-4414997D01*
X7685000Y-4407727D01*
X7515000Y-4407727D01*
X7481463Y-4414038D01*
X7450661Y-4433858D01*
X7429997Y-4464101D01*
X7422727Y-4500000D01*
X7422727Y-4700000D01*
X7429038Y-4733537D01*
X7448858Y-4764339D01*
X7479101Y-4785003D01*
X7515000Y-4792273D01*
X7685000Y-4792273D01*
X7718537Y-4785962D01*
X7749339Y-4766142D01*
X7760027Y-4750500D01*
X7939953Y-4750500D01*
X7948858Y-4764339D01*
X7979101Y-4785003D01*
X8015000Y-4792273D01*
X8094756Y-4792273D01*
X8097406Y-4794044D01*
X8155000Y-4805500D01*
X8237661Y-4805500D01*
X8438580Y-5006420D01*
X8446839Y-5011938D01*
X8436700Y-5036414D01*
X8436700Y-5065025D01*
X8453775Y-5082100D01*
X8592100Y-5082100D01*
X8592100Y-5080100D01*
X8607900Y-5080100D01*
X8607900Y-5082100D01*
X8609900Y-5082100D01*
X8609900Y-5097900D01*
X8607900Y-5097900D01*
X8607900Y-5181225D01*
X8624975Y-5198300D01*
X8708586Y-5198300D01*
X8733689Y-5187902D01*
X8752902Y-5168689D01*
X8763300Y-5143586D01*
X8763300Y-5116040D01*
X8769101Y-5120003D01*
X8805000Y-5127273D01*
X8832273Y-5127273D01*
X8842406Y-5134044D01*
X8900000Y-5145500D01*
X8957594Y-5134044D01*
X8967727Y-5127273D01*
X8995000Y-5127273D01*
X9028537Y-5120962D01*
X9059339Y-5101142D01*
X9080003Y-5070899D01*
X9082500Y-5058569D01*
X9082500Y-6123526D01*
X9050000Y-6117062D01*
X8982839Y-6130421D01*
X8925903Y-6168465D01*
X8923000Y-6172809D01*
X8920097Y-6168465D01*
X8863161Y-6130421D01*
X8796000Y-6117062D01*
X8728839Y-6130421D01*
X8671903Y-6168465D01*
X8669000Y-6172809D01*
X8666097Y-6168465D01*
X8609161Y-6130421D01*
X8542000Y-6117062D01*
X8474839Y-6130421D01*
X8417903Y-6168465D01*
X8415000Y-6172809D01*
X8412097Y-6168465D01*
X8355161Y-6130421D01*
X8288000Y-6117062D01*
X8220839Y-6130421D01*
X8184500Y-6154702D01*
X8184500Y-5654000D01*
X8184500Y-5654000D01*
X8173044Y-5596406D01*
X8173044Y-5596406D01*
X8140420Y-5547580D01*
X7753253Y-5160414D01*
X7770003Y-5135899D01*
X7777273Y-5100000D01*
X7777273Y-5024975D01*
X7946700Y-5024975D01*
X7946700Y-5113586D01*
X7957098Y-5138689D01*
X7976311Y-5157902D01*
X8001414Y-5168300D01*
X8075025Y-5168300D01*
X8092100Y-5151225D01*
X8092100Y-5007900D01*
X8107900Y-5007900D01*
X8107900Y-5151225D01*
X8124975Y-5168300D01*
X8198586Y-5168300D01*
X8223689Y-5157902D01*
X8242902Y-5138689D01*
X8252724Y-5114975D01*
X8436700Y-5114975D01*
X8436700Y-5143586D01*
X8447098Y-5168689D01*
X8466311Y-5187902D01*
X8491414Y-5198300D01*
X8575025Y-5198300D01*
X8592100Y-5181225D01*
X8592100Y-5097900D01*
X8453775Y-5097900D01*
X8436700Y-5114975D01*
X8252724Y-5114975D01*
X8253300Y-5113586D01*
X8253300Y-5024975D01*
X8236225Y-5007900D01*
X8107900Y-5007900D01*
X8092100Y-5007900D01*
X7963775Y-5007900D01*
X7946700Y-5024975D01*
X7777273Y-5024975D01*
X7777273Y-4900000D01*
X7774717Y-4886414D01*
X7946700Y-4886414D01*
X7946700Y-4975025D01*
X7963775Y-4992100D01*
X8092100Y-4992100D01*
X8092100Y-4848775D01*
X8107900Y-4848775D01*
X8107900Y-4992100D01*
X8236225Y-4992100D01*
X8253300Y-4975025D01*
X8253300Y-4886414D01*
X8242902Y-4861311D01*
X8223689Y-4842098D01*
X8198586Y-4831700D01*
X8124975Y-4831700D01*
X8107900Y-4848775D01*
X8092100Y-4848775D01*
X8075025Y-4831700D01*
X8001414Y-4831700D01*
X7976311Y-4842098D01*
X7957098Y-4861311D01*
X7946700Y-4886414D01*
X7774717Y-4886414D01*
X7770962Y-4866463D01*
X7751142Y-4835661D01*
X7720899Y-4814997D01*
X7685000Y-4807727D01*
X7515000Y-4807727D01*
X7481463Y-4814038D01*
X7450661Y-4833858D01*
X7429997Y-4864101D01*
X7422727Y-4900000D01*
X7422727Y-5100000D01*
X7429038Y-5133537D01*
X7448858Y-5164339D01*
X7449500Y-5164778D01*
X7449500Y-5220000D01*
X7453637Y-5240798D01*
X6900500Y-4687661D01*
X6900500Y-4264443D01*
X6920003Y-4235899D01*
X6927273Y-4200000D01*
X6927273Y-4000000D01*
X6920962Y-3966463D01*
X6901142Y-3935661D01*
X6870899Y-3914997D01*
X6835000Y-3907727D01*
X6665000Y-3907727D01*
X6631463Y-3914038D01*
X6600661Y-3933858D01*
X6579997Y-3964101D01*
X6572727Y-4000000D01*
X6572727Y-4200000D01*
X6579038Y-4233537D01*
X6598858Y-4264339D01*
X6599500Y-4264778D01*
X6599500Y-4750000D01*
X6610956Y-4807594D01*
X6638957Y-4849500D01*
X6643580Y-4856420D01*
X7549500Y-5762339D01*
X7549500Y-6095792D01*
X7554873Y-6122805D01*
X7526000Y-6117062D01*
X7458839Y-6130421D01*
X7422500Y-6154702D01*
X7422500Y-5872000D01*
X7411044Y-5814406D01*
X7378420Y-5765580D01*
X7378419Y-5765580D01*
X7006420Y-5393580D01*
X6957594Y-5360956D01*
X6900000Y-5349500D01*
X5562339Y-5349500D01*
X5550500Y-5337661D01*
X5550500Y-5031752D01*
X5650024Y-5031752D01*
X5671498Y-5083597D01*
X5713271Y-5126409D01*
X5768248Y-5149976D01*
X5792100Y-5136022D01*
X5792100Y-5007900D01*
X5807900Y-5007900D01*
X5807900Y-5136022D01*
X5831752Y-5149976D01*
X5886729Y-5126409D01*
X5928501Y-5083597D01*
X5949976Y-5031752D01*
X5935996Y-5007900D01*
X5807900Y-5007900D01*
X5792100Y-5007900D01*
X5664004Y-5007900D01*
X5650024Y-5031752D01*
X5550500Y-5031752D01*
X5550500Y-4709339D01*
X5622727Y-4781566D01*
X5622727Y-4831000D01*
X5629038Y-4864537D01*
X5648858Y-4895339D01*
X5674774Y-4913047D01*
X5671498Y-4916403D01*
X5650024Y-4968248D01*
X5664004Y-4992100D01*
X5792100Y-4992100D01*
X5792100Y-4990100D01*
X5807900Y-4990100D01*
X5807900Y-4992100D01*
X5935996Y-4992100D01*
X5949976Y-4968248D01*
X5928501Y-4916403D01*
X5924993Y-4912808D01*
X5949339Y-4897142D01*
X5970003Y-4866899D01*
X5977273Y-4831000D01*
X5977273Y-4661000D01*
X5970962Y-4627463D01*
X5951142Y-4596661D01*
X5920899Y-4575997D01*
X5885000Y-4568727D01*
X5835566Y-4568727D01*
X5800500Y-4533661D01*
X5800500Y-4119268D01*
X5815528Y-4083076D01*
X5815586Y-4017213D01*
X5790434Y-3956342D01*
X5743903Y-3909729D01*
X5683076Y-3884472D01*
X5617213Y-3884414D01*
X5556342Y-3909566D01*
X5509729Y-3956097D01*
X5484472Y-4016924D01*
X5484414Y-4082787D01*
X5499500Y-4119297D01*
X5499500Y-4516661D01*
X5326420Y-4343580D01*
X5277594Y-4310956D01*
X5220000Y-4299500D01*
X5164443Y-4299500D01*
X5135899Y-4279997D01*
X5100000Y-4272727D01*
X4900000Y-4272727D01*
X4866463Y-4279038D01*
X4835661Y-4298858D01*
X4814997Y-4329101D01*
X4807727Y-4365000D01*
X4807727Y-4535000D01*
X4814038Y-4568537D01*
X4833858Y-4599339D01*
X4864101Y-4620003D01*
X4900000Y-4627273D01*
X5100000Y-4627273D01*
X5133537Y-4620962D01*
X5160666Y-4603505D01*
X5249500Y-4692339D01*
X5249500Y-5400000D01*
X5260956Y-5457594D01*
X5285002Y-5493580D01*
X5293580Y-5506420D01*
X5393580Y-5606419D01*
X5393580Y-5606420D01*
X5426205Y-5628218D01*
X5442406Y-5639044D01*
X5500000Y-5650500D01*
X5500001Y-5650500D01*
X6837661Y-5650500D01*
X7121500Y-5934339D01*
X7121500Y-6066453D01*
X6848628Y-5793580D01*
X6824222Y-5777273D01*
X6799802Y-5760956D01*
X6742208Y-5749500D01*
X5150500Y-5749500D01*
X5150500Y-5110047D01*
X5164339Y-5101142D01*
X5185003Y-5070899D01*
X5192273Y-5035000D01*
X5192273Y-4865000D01*
X5185962Y-4831463D01*
X5166142Y-4800661D01*
X5135899Y-4779997D01*
X5100000Y-4772727D01*
X4900000Y-4772727D01*
X4866463Y-4779038D01*
X4835661Y-4798858D01*
X4814997Y-4829101D01*
X4807727Y-4865000D01*
X4807727Y-5035000D01*
X4814038Y-5068537D01*
X4833858Y-5099339D01*
X4849500Y-5110027D01*
X4849500Y-5900000D01*
X4860956Y-5957594D01*
X4893580Y-6006420D01*
X4942406Y-6039044D01*
X5000000Y-6050500D01*
X6679869Y-6050500D01*
X6782916Y-6153547D01*
X6771900Y-6160004D01*
X6771900Y-6288100D01*
X6773900Y-6288100D01*
X6773900Y-6303900D01*
X6771900Y-6303900D01*
X6771900Y-6305900D01*
X6756100Y-6305900D01*
X6756100Y-6303900D01*
X6627978Y-6303900D01*
X6614024Y-6327752D01*
X6637591Y-6382729D01*
X6662702Y-6407230D01*
X6639903Y-6422465D01*
X6601859Y-6479401D01*
X6596918Y-6504243D01*
X5951661Y-7149500D01*
X5664443Y-7149500D01*
X5635899Y-7129997D01*
X5600000Y-7122727D01*
X5400000Y-7122727D01*
X5366463Y-7129038D01*
X5335661Y-7148858D01*
X5314997Y-7179101D01*
X5307727Y-7215000D01*
X5307727Y-7385000D01*
X5314038Y-7418537D01*
X5333858Y-7449339D01*
X5364101Y-7470003D01*
X5400000Y-7477273D01*
X5600000Y-7477273D01*
X5633537Y-7470962D01*
X5664339Y-7451142D01*
X5664778Y-7450500D01*
X6014000Y-7450500D01*
X6071594Y-7439044D01*
X6120420Y-7406420D01*
X6806319Y-6720520D01*
X6831161Y-6715579D01*
X6888097Y-6677535D01*
X6891000Y-6673191D01*
X6893903Y-6677535D01*
X6950839Y-6715579D01*
X7003346Y-6726023D01*
X6693580Y-7035788D01*
X6660956Y-7084614D01*
X6649500Y-7142208D01*
X6649500Y-7285557D01*
X6629997Y-7314101D01*
X6622727Y-7350000D01*
X6622727Y-7550000D01*
X6629038Y-7583537D01*
X6648858Y-7614339D01*
X6679101Y-7635003D01*
X6715000Y-7642273D01*
X6885000Y-7642273D01*
X6918537Y-7635962D01*
X6949339Y-7616142D01*
X6970003Y-7585899D01*
X6977273Y-7550000D01*
X6977273Y-7350000D01*
X6970962Y-7316463D01*
X6951142Y-7285661D01*
X6950500Y-7285222D01*
X6950500Y-7204547D01*
X7049500Y-7105547D01*
X7049500Y-7285557D01*
X7029997Y-7314101D01*
X7022727Y-7350000D01*
X7022727Y-7550000D01*
X7029038Y-7583537D01*
X7048858Y-7614339D01*
X7079101Y-7635003D01*
X7115000Y-7642273D01*
X7285000Y-7642273D01*
X7318537Y-7635962D01*
X7349339Y-7616142D01*
X7370003Y-7585899D01*
X7377273Y-7550000D01*
X7377273Y-7350000D01*
X7370962Y-7316463D01*
X7351142Y-7285661D01*
X7350500Y-7285222D01*
X7350500Y-7162339D01*
X7458603Y-7054236D01*
X7449500Y-7100000D01*
X7449500Y-7285557D01*
X7429997Y-7314101D01*
X7422727Y-7350000D01*
X7422727Y-7550000D01*
X7429038Y-7583537D01*
X7448858Y-7614339D01*
X7479101Y-7635003D01*
X7515000Y-7642273D01*
X7594888Y-7642273D01*
X7579434Y-7657727D01*
X7515000Y-7657727D01*
X7481463Y-7664038D01*
X7450661Y-7683858D01*
X7429997Y-7714101D01*
X7422727Y-7750000D01*
X7422727Y-7950000D01*
X7429038Y-7983537D01*
X7448858Y-8014339D01*
X7479101Y-8035003D01*
X7515000Y-8042273D01*
X7685000Y-8042273D01*
X7718537Y-8035962D01*
X7749339Y-8016142D01*
X7770003Y-7985899D01*
X7777273Y-7950000D01*
X7777273Y-7885566D01*
X7937864Y-7724975D01*
X8146700Y-7724975D01*
X8146700Y-7813586D01*
X8157098Y-7838689D01*
X8176311Y-7857902D01*
X8201414Y-7868300D01*
X8275025Y-7868300D01*
X8292100Y-7851225D01*
X8292100Y-7707900D01*
X8163775Y-7707900D01*
X8146700Y-7724975D01*
X7937864Y-7724975D01*
X8076425Y-7586414D01*
X8146700Y-7586414D01*
X8146700Y-7675025D01*
X8163775Y-7692100D01*
X8292100Y-7692100D01*
X8292100Y-7548775D01*
X8307900Y-7548775D01*
X8307900Y-7692100D01*
X8436225Y-7692100D01*
X8453300Y-7675025D01*
X8453300Y-7586414D01*
X8442902Y-7561311D01*
X8423689Y-7542098D01*
X8398586Y-7531700D01*
X8324975Y-7531700D01*
X8307900Y-7548775D01*
X8292100Y-7548775D01*
X8275025Y-7531700D01*
X8201414Y-7531700D01*
X8176311Y-7542098D01*
X8157098Y-7561311D01*
X8146700Y-7586414D01*
X8076425Y-7586414D01*
X8137864Y-7524975D01*
X8586700Y-7524975D01*
X8586700Y-7553586D01*
X8597098Y-7578689D01*
X8616311Y-7597902D01*
X8641414Y-7608300D01*
X8725025Y-7608300D01*
X8742100Y-7591225D01*
X8742100Y-7507900D01*
X8603775Y-7507900D01*
X8586700Y-7524975D01*
X8137864Y-7524975D01*
X8178349Y-7484490D01*
X8179101Y-7485003D01*
X8215000Y-7492273D01*
X8385000Y-7492273D01*
X8418537Y-7485962D01*
X8449339Y-7466142D01*
X8453194Y-7460500D01*
X8586700Y-7460500D01*
X8586700Y-7475025D01*
X8603775Y-7492100D01*
X8742100Y-7492100D01*
X8742100Y-7490100D01*
X8757900Y-7490100D01*
X8757900Y-7492100D01*
X8759900Y-7492100D01*
X8759900Y-7507900D01*
X8757900Y-7507900D01*
X8757900Y-7591225D01*
X8773418Y-7606743D01*
X8604434Y-7775727D01*
X8500000Y-7775727D01*
X8466463Y-7782038D01*
X8453300Y-7790508D01*
X8453300Y-7724975D01*
X8436225Y-7707900D01*
X8307900Y-7707900D01*
X8307900Y-7851225D01*
X8324975Y-7868300D01*
X8398586Y-7868300D01*
X8408498Y-7864194D01*
X8407727Y-7868000D01*
X8407727Y-8118000D01*
X8414038Y-8151537D01*
X8433858Y-8182339D01*
X8464101Y-8203003D01*
X8500000Y-8210273D01*
X8700000Y-8210273D01*
X8733537Y-8203962D01*
X8764339Y-8184142D01*
X8785003Y-8153899D01*
X8792273Y-8118000D01*
X8792273Y-8013566D01*
X8807727Y-7998112D01*
X8807727Y-8118000D01*
X8814038Y-8151537D01*
X8833858Y-8182339D01*
X8849500Y-8193027D01*
X8849500Y-8199500D01*
X8825000Y-8199500D01*
X8767406Y-8210956D01*
X8718580Y-8243580D01*
X8718580Y-8243581D01*
X8693580Y-8268580D01*
X8660956Y-8317406D01*
X8658771Y-8328389D01*
X8533236Y-8453925D01*
X8509203Y-8463855D01*
X8464014Y-8508965D01*
X8453944Y-8533217D01*
X8313580Y-8673580D01*
X8280956Y-8722406D01*
X8269500Y-8780000D01*
X8269500Y-8849500D01*
X8200047Y-8849500D01*
X8191142Y-8835661D01*
X8160899Y-8814997D01*
X8125000Y-8807727D01*
X7875000Y-8807727D01*
X7841463Y-8814038D01*
X7810661Y-8833858D01*
X7789997Y-8864101D01*
X7782727Y-8900000D01*
X7782727Y-9082500D01*
X7650339Y-9082500D01*
X7540339Y-8972500D01*
X7762339Y-8750500D01*
X7799953Y-8750500D01*
X7808858Y-8764339D01*
X7839101Y-8785003D01*
X7875000Y-8792273D01*
X8125000Y-8792273D01*
X8158537Y-8785962D01*
X8189339Y-8766142D01*
X8210003Y-8735899D01*
X8217273Y-8700000D01*
X8217273Y-8500000D01*
X8210962Y-8466463D01*
X8191142Y-8435661D01*
X8160899Y-8414997D01*
X8125000Y-8407727D01*
X7875000Y-8407727D01*
X7841463Y-8414038D01*
X7810661Y-8433858D01*
X7799973Y-8449500D01*
X7700000Y-8449500D01*
X7700000Y-8449500D01*
X7651962Y-8459055D01*
X7642406Y-8460956D01*
X7593580Y-8493580D01*
X7593580Y-8493581D01*
X7337661Y-8749500D01*
X7302294Y-8749500D01*
X7315003Y-8730899D01*
X7322273Y-8695000D01*
X7322273Y-8667727D01*
X7329044Y-8657594D01*
X7340500Y-8600000D01*
X7340500Y-8416482D01*
X7364339Y-8401142D01*
X7385003Y-8370899D01*
X7392273Y-8335000D01*
X7392273Y-8165000D01*
X7385962Y-8131463D01*
X7366142Y-8100661D01*
X7350500Y-8089973D01*
X7350500Y-8014443D01*
X7370003Y-7985899D01*
X7377273Y-7950000D01*
X7377273Y-7750000D01*
X7370962Y-7716463D01*
X7351142Y-7685661D01*
X7320899Y-7664997D01*
X7285000Y-7657727D01*
X7115000Y-7657727D01*
X7081463Y-7664038D01*
X7050661Y-7683858D01*
X7029997Y-7714101D01*
X7022727Y-7750000D01*
X7022727Y-7950000D01*
X7029038Y-7983537D01*
X7048858Y-8014339D01*
X7049500Y-8014778D01*
X7049500Y-8089953D01*
X7035661Y-8098858D01*
X7014997Y-8129101D01*
X7007727Y-8165000D01*
X7007727Y-8335000D01*
X7014038Y-8368537D01*
X7033858Y-8399339D01*
X7039500Y-8403194D01*
X7039500Y-8436700D01*
X7024975Y-8436700D01*
X7007900Y-8453775D01*
X7007900Y-8592100D01*
X7009900Y-8592100D01*
X7009900Y-8607900D01*
X7007900Y-8607900D01*
X7007900Y-8609900D01*
X6992100Y-8609900D01*
X6992100Y-8607900D01*
X6908775Y-8607900D01*
X6891700Y-8624975D01*
X6891700Y-8708586D01*
X6902098Y-8733689D01*
X6921311Y-8752902D01*
X6946414Y-8763300D01*
X6973960Y-8763300D01*
X6969997Y-8769101D01*
X6962727Y-8805000D01*
X6962727Y-8832273D01*
X6955956Y-8842406D01*
X6944500Y-8900000D01*
X6955956Y-8957594D01*
X6962727Y-8967727D01*
X6962727Y-8995000D01*
X6969038Y-9028537D01*
X6988858Y-9059339D01*
X7019101Y-9080003D01*
X7031431Y-9082500D01*
X5177273Y-9082500D01*
X5177273Y-9067727D01*
X5184044Y-9057594D01*
X5195500Y-9000000D01*
X5184044Y-8942406D01*
X5177273Y-8932273D01*
X5177273Y-8905000D01*
X5173937Y-8887273D01*
X5180000Y-8887273D01*
X5213537Y-8880962D01*
X5244339Y-8861142D01*
X5265003Y-8830899D01*
X5272273Y-8795000D01*
X5272273Y-8780566D01*
X5456419Y-8596420D01*
X5456420Y-8596420D01*
X5489044Y-8547594D01*
X5500219Y-8491414D01*
X6891700Y-8491414D01*
X6891700Y-8575025D01*
X6908775Y-8592100D01*
X6992100Y-8592100D01*
X6992100Y-8453775D01*
X6975025Y-8436700D01*
X6946414Y-8436700D01*
X6921311Y-8447098D01*
X6902098Y-8466311D01*
X6891700Y-8491414D01*
X5500219Y-8491414D01*
X5500500Y-8490000D01*
X5500500Y-8410047D01*
X5514339Y-8401142D01*
X5514778Y-8400500D01*
X6100000Y-8400500D01*
X6157594Y-8389044D01*
X6206420Y-8356420D01*
X6287864Y-8274975D01*
X6631700Y-8274975D01*
X6631700Y-8348586D01*
X6642098Y-8373689D01*
X6661311Y-8392902D01*
X6686414Y-8403300D01*
X6775025Y-8403300D01*
X6792100Y-8386225D01*
X6792100Y-8257900D01*
X6807900Y-8257900D01*
X6807900Y-8386225D01*
X6824975Y-8403300D01*
X6913586Y-8403300D01*
X6938689Y-8392902D01*
X6957902Y-8373689D01*
X6968300Y-8348586D01*
X6968300Y-8274975D01*
X6951225Y-8257900D01*
X6807900Y-8257900D01*
X6792100Y-8257900D01*
X6648775Y-8257900D01*
X6631700Y-8274975D01*
X6287864Y-8274975D01*
X6411425Y-8151414D01*
X6631700Y-8151414D01*
X6631700Y-8225025D01*
X6648775Y-8242100D01*
X6792100Y-8242100D01*
X6792100Y-8113775D01*
X6807900Y-8113775D01*
X6807900Y-8242100D01*
X6951225Y-8242100D01*
X6968300Y-8225025D01*
X6968300Y-8151414D01*
X6957902Y-8126311D01*
X6938689Y-8107098D01*
X6913586Y-8096700D01*
X6824975Y-8096700D01*
X6807900Y-8113775D01*
X6792100Y-8113775D01*
X6775025Y-8096700D01*
X6686414Y-8096700D01*
X6661311Y-8107098D01*
X6642098Y-8126311D01*
X6631700Y-8151414D01*
X6411425Y-8151414D01*
X6562339Y-8000500D01*
X6639953Y-8000500D01*
X6648858Y-8014339D01*
X6679101Y-8035003D01*
X6715000Y-8042273D01*
X6885000Y-8042273D01*
X6918537Y-8035962D01*
X6949339Y-8016142D01*
X6970003Y-7985899D01*
X6977273Y-7950000D01*
X6977273Y-7750000D01*
X6970962Y-7716463D01*
X6951142Y-7685661D01*
X6920899Y-7664997D01*
X6885000Y-7657727D01*
X6715000Y-7657727D01*
X6681463Y-7664038D01*
X6650661Y-7683858D01*
X6639973Y-7699500D01*
X6500000Y-7699500D01*
X6442406Y-7710956D01*
X6393580Y-7743580D01*
X6037661Y-8099500D01*
X5514443Y-8099500D01*
X5485899Y-8079997D01*
X5450000Y-8072727D01*
X5250000Y-8072727D01*
X5216463Y-8079038D01*
X5185661Y-8098858D01*
X5164997Y-8129101D01*
X5157727Y-8165000D01*
X5157727Y-8335000D01*
X5164038Y-8368537D01*
X5183858Y-8399339D01*
X5199500Y-8410027D01*
X5199500Y-8427661D01*
X5114434Y-8512727D01*
X5100000Y-8512727D01*
X5066463Y-8519038D01*
X5035661Y-8538858D01*
X5029486Y-8547895D01*
X5028689Y-8547098D01*
X5003586Y-8536700D01*
X4974975Y-8536700D01*
X4957900Y-8553775D01*
X4957900Y-8692100D01*
X4959900Y-8692100D01*
X4959900Y-8707900D01*
X4957900Y-8707900D01*
X4957900Y-8709900D01*
X4942100Y-8709900D01*
X4942100Y-8707900D01*
X4858775Y-8707900D01*
X4841700Y-8724975D01*
X4841700Y-8728861D01*
X4704254Y-8591414D01*
X4841700Y-8591414D01*
X4841700Y-8675025D01*
X4858775Y-8692100D01*
X4942100Y-8692100D01*
X4942100Y-8553775D01*
X4925025Y-8536700D01*
X4896414Y-8536700D01*
X4871311Y-8547098D01*
X4852098Y-8566311D01*
X4841700Y-8591414D01*
X4704254Y-8591414D01*
X4606420Y-8493580D01*
X4601066Y-8490003D01*
X4557594Y-8460956D01*
X4500000Y-8449500D01*
X4488047Y-8449500D01*
X4479142Y-8435661D01*
X4448899Y-8414997D01*
X4413000Y-8407727D01*
X4163000Y-8407727D01*
X4129463Y-8414038D01*
X4098661Y-8433858D01*
X4077997Y-8464101D01*
X4070727Y-8500000D01*
X4070727Y-8700000D01*
X4077038Y-8733537D01*
X4096858Y-8764339D01*
X4127101Y-8785003D01*
X4163000Y-8792273D01*
X4413000Y-8792273D01*
X4446537Y-8785962D01*
X4462714Y-8775553D01*
X4737161Y-9050000D01*
X4704661Y-9082500D01*
X4505273Y-9082500D01*
X4505273Y-8900000D01*
X4498962Y-8866463D01*
X4479142Y-8835661D01*
X4448899Y-8814997D01*
X4413000Y-8807727D01*
X4163000Y-8807727D01*
X4129463Y-8814038D01*
X4098661Y-8833858D01*
X4087973Y-8849500D01*
X4080500Y-8849500D01*
X4080500Y-8825001D01*
X4080500Y-8825000D01*
X4069044Y-8767406D01*
X4054891Y-8746225D01*
X4036420Y-8718580D01*
X4036419Y-8718580D01*
X3851075Y-8533236D01*
X3841145Y-8509203D01*
X3796035Y-8464014D01*
X3771783Y-8453944D01*
X3611420Y-8293580D01*
X3592526Y-8280956D01*
X3583575Y-8274975D01*
X4781700Y-8274975D01*
X4781700Y-8348586D01*
X4792098Y-8373689D01*
X4811311Y-8392902D01*
X4836414Y-8403300D01*
X4925025Y-8403300D01*
X4942100Y-8386225D01*
X4942100Y-8257900D01*
X4957900Y-8257900D01*
X4957900Y-8386225D01*
X4974975Y-8403300D01*
X5063586Y-8403300D01*
X5088689Y-8392902D01*
X5107902Y-8373689D01*
X5118300Y-8348586D01*
X5118300Y-8274975D01*
X5101225Y-8257900D01*
X4957900Y-8257900D01*
X4942100Y-8257900D01*
X4798775Y-8257900D01*
X4781700Y-8274975D01*
X3583575Y-8274975D01*
X3562594Y-8260956D01*
X3505000Y-8249500D01*
X3450500Y-8260341D01*
X3450500Y-8250047D01*
X3464339Y-8241142D01*
X3485003Y-8210899D01*
X3492273Y-8175000D01*
X3492273Y-7925000D01*
X3485962Y-7891463D01*
X3466142Y-7860661D01*
X3451271Y-7850500D01*
X3499999Y-7850500D01*
X3500000Y-7850500D01*
X3500000Y-7850500D01*
X3532661Y-7850500D01*
X3538921Y-7856760D01*
X3535661Y-7858858D01*
X3514997Y-7889101D01*
X3507727Y-7925000D01*
X3507727Y-7958639D01*
X3499500Y-8000000D01*
X3507727Y-8041360D01*
X3507727Y-8175000D01*
X3514038Y-8208537D01*
X3533858Y-8239339D01*
X3564101Y-8260003D01*
X3600000Y-8267273D01*
X3800000Y-8267273D01*
X3833537Y-8260962D01*
X3864339Y-8241142D01*
X3885003Y-8210899D01*
X3892273Y-8175000D01*
X3892273Y-8151414D01*
X4781700Y-8151414D01*
X4781700Y-8225025D01*
X4798775Y-8242100D01*
X4942100Y-8242100D01*
X4942100Y-8113775D01*
X4957900Y-8113775D01*
X4957900Y-8242100D01*
X5101225Y-8242100D01*
X5118300Y-8225025D01*
X5118300Y-8151414D01*
X5107902Y-8126311D01*
X5088689Y-8107098D01*
X5063586Y-8096700D01*
X4974975Y-8096700D01*
X4957900Y-8113775D01*
X4942100Y-8113775D01*
X4925025Y-8096700D01*
X4836414Y-8096700D01*
X4811311Y-8107098D01*
X4792098Y-8126311D01*
X4781700Y-8151414D01*
X3892273Y-8151414D01*
X3892273Y-7925000D01*
X3885962Y-7891463D01*
X3866142Y-7860661D01*
X3850500Y-7849973D01*
X3850500Y-7805000D01*
X3839044Y-7747406D01*
X3807702Y-7700500D01*
X4239953Y-7700500D01*
X4248858Y-7714339D01*
X4279101Y-7735003D01*
X4315000Y-7742273D01*
X4485000Y-7742273D01*
X4518537Y-7735962D01*
X4549339Y-7716142D01*
X4560027Y-7700500D01*
X4850000Y-7700500D01*
X4907594Y-7689044D01*
X4956420Y-7656420D01*
X5135566Y-7477273D01*
X5200000Y-7477273D01*
X5233537Y-7470962D01*
X5264339Y-7451142D01*
X5285003Y-7420899D01*
X5292273Y-7385000D01*
X5292273Y-7215000D01*
X5285962Y-7181463D01*
X5266142Y-7150661D01*
X5235899Y-7129997D01*
X5200000Y-7122727D01*
X5000000Y-7122727D01*
X4966463Y-7129038D01*
X4935661Y-7148858D01*
X4914997Y-7179101D01*
X4907727Y-7215000D01*
X4907727Y-7279434D01*
X4787661Y-7399500D01*
X4560047Y-7399500D01*
X4551142Y-7385661D01*
X4520899Y-7364997D01*
X4485000Y-7357727D01*
X4315000Y-7357727D01*
X4281463Y-7364038D01*
X4250661Y-7383858D01*
X4239973Y-7399500D01*
X3896449Y-7399500D01*
X3894044Y-7387406D01*
X3861420Y-7338580D01*
X3853161Y-7333062D01*
X3863300Y-7308586D01*
X3863300Y-7279975D01*
X3846225Y-7262900D01*
X3707900Y-7262900D01*
X3707900Y-7264900D01*
X3692100Y-7264900D01*
X3692100Y-7262900D01*
X3690100Y-7262900D01*
X3690100Y-7247100D01*
X3692100Y-7247100D01*
X3692100Y-7163775D01*
X3707900Y-7163775D01*
X3707900Y-7247100D01*
X3846225Y-7247100D01*
X3863300Y-7230025D01*
X3863300Y-7201414D01*
X3852902Y-7176311D01*
X3851566Y-7174975D01*
X4246700Y-7174975D01*
X4246700Y-7263586D01*
X4257098Y-7288689D01*
X4276311Y-7307902D01*
X4301414Y-7318300D01*
X4375025Y-7318300D01*
X4392100Y-7301225D01*
X4392100Y-7157900D01*
X4407900Y-7157900D01*
X4407900Y-7301225D01*
X4424975Y-7318300D01*
X4498586Y-7318300D01*
X4523689Y-7307902D01*
X4542902Y-7288689D01*
X4553300Y-7263586D01*
X4553300Y-7174975D01*
X4536225Y-7157900D01*
X4407900Y-7157900D01*
X4392100Y-7157900D01*
X4263775Y-7157900D01*
X4246700Y-7174975D01*
X3851566Y-7174975D01*
X3833689Y-7157098D01*
X3808586Y-7146700D01*
X3724975Y-7146700D01*
X3707900Y-7163775D01*
X3692100Y-7163775D01*
X3675025Y-7146700D01*
X3591414Y-7146700D01*
X3566311Y-7157098D01*
X3547098Y-7176311D01*
X3536700Y-7201414D01*
X3536700Y-7228960D01*
X3530899Y-7224997D01*
X3495000Y-7217727D01*
X3467727Y-7217727D01*
X3457594Y-7210956D01*
X3400000Y-7199500D01*
X3342406Y-7210956D01*
X3332273Y-7217727D01*
X3305000Y-7217727D01*
X3271463Y-7224038D01*
X3240661Y-7243858D01*
X3219997Y-7274101D01*
X3217500Y-7286431D01*
X3217500Y-7108300D01*
X3259658Y-7074573D01*
X3263094Y-7070492D01*
X3267529Y-7067529D01*
X3274997Y-7056351D01*
X3283655Y-7046066D01*
X3285267Y-7040981D01*
X3288230Y-7036546D01*
X3288257Y-7036414D01*
X4246700Y-7036414D01*
X4246700Y-7125025D01*
X4263775Y-7142100D01*
X4392100Y-7142100D01*
X4392100Y-6998775D01*
X4407900Y-6998775D01*
X4407900Y-7142100D01*
X4536225Y-7142100D01*
X4553300Y-7125025D01*
X4553300Y-7036414D01*
X4542902Y-7011311D01*
X4523689Y-6992098D01*
X4498586Y-6981700D01*
X4424975Y-6981700D01*
X4407900Y-6998775D01*
X4392100Y-6998775D01*
X4375025Y-6981700D01*
X4301414Y-6981700D01*
X4276311Y-6992098D01*
X4257098Y-7011311D01*
X4246700Y-7036414D01*
X3288257Y-7036414D01*
X3290853Y-7023361D01*
X3294916Y-7010546D01*
X3294459Y-7005232D01*
X3295500Y-7000000D01*
X3295500Y-5515000D01*
X3622727Y-5515000D01*
X3622727Y-5685000D01*
X3629038Y-5718537D01*
X3648858Y-5749339D01*
X3679101Y-5770003D01*
X3715000Y-5777273D01*
X3885000Y-5777273D01*
X3918537Y-5770962D01*
X3949339Y-5751142D01*
X3967047Y-5725226D01*
X3970403Y-5728501D01*
X4022248Y-5749976D01*
X4046100Y-5735996D01*
X4046100Y-5607900D01*
X4044100Y-5607900D01*
X4044100Y-5592100D01*
X4046100Y-5592100D01*
X4046100Y-5464004D01*
X4061900Y-5464004D01*
X4061900Y-5592100D01*
X4063900Y-5592100D01*
X4063900Y-5607900D01*
X4061900Y-5607900D01*
X4061900Y-5735996D01*
X4085752Y-5749976D01*
X4137597Y-5728501D01*
X4166018Y-5700770D01*
X4183903Y-5727535D01*
X4240839Y-5765579D01*
X4308000Y-5778938D01*
X4375161Y-5765579D01*
X4432097Y-5727535D01*
X4435000Y-5723191D01*
X4437903Y-5727535D01*
X4492500Y-5764016D01*
X4492500Y-6457919D01*
X4482528Y-6481934D01*
X4482472Y-6545785D01*
X4506855Y-6604797D01*
X4551965Y-6649986D01*
X4610935Y-6674472D01*
X4674785Y-6674528D01*
X4733797Y-6650145D01*
X4778986Y-6605035D01*
X4803472Y-6546065D01*
X4803528Y-6482215D01*
X4793500Y-6457945D01*
X4793500Y-6264248D01*
X6614024Y-6264248D01*
X6627978Y-6288100D01*
X6756100Y-6288100D01*
X6756100Y-6160004D01*
X6732248Y-6146024D01*
X6680403Y-6167498D01*
X6637591Y-6209271D01*
X6614024Y-6264248D01*
X4793500Y-6264248D01*
X4793500Y-5681000D01*
X4782044Y-5623406D01*
X4749420Y-5574580D01*
X4729082Y-5554243D01*
X4724141Y-5529401D01*
X4686097Y-5472465D01*
X4629161Y-5434421D01*
X4562000Y-5421062D01*
X4494839Y-5434421D01*
X4437903Y-5472465D01*
X4435000Y-5476809D01*
X4432097Y-5472465D01*
X4375161Y-5434421D01*
X4308000Y-5421062D01*
X4240839Y-5434421D01*
X4183903Y-5472465D01*
X4166018Y-5499230D01*
X4137597Y-5471499D01*
X4085752Y-5450024D01*
X4061900Y-5464004D01*
X4046100Y-5464004D01*
X4022248Y-5450024D01*
X3970403Y-5471499D01*
X3966808Y-5475007D01*
X3951142Y-5450661D01*
X3920899Y-5429997D01*
X3885000Y-5422727D01*
X3715000Y-5422727D01*
X3681463Y-5429038D01*
X3650661Y-5448858D01*
X3629997Y-5479101D01*
X3622727Y-5515000D01*
X3295500Y-5515000D01*
X3295500Y-5200000D01*
X3288230Y-5163454D01*
X3267529Y-5132471D01*
X3217500Y-5082443D01*
X3217500Y-5068909D01*
X3219101Y-5070003D01*
X3255000Y-5077273D01*
X3282273Y-5077273D01*
X3292406Y-5084044D01*
X3350000Y-5095500D01*
X3407594Y-5084044D01*
X3417727Y-5077273D01*
X3445000Y-5077273D01*
X3462727Y-5073937D01*
X3462727Y-5080000D01*
X3469038Y-5113537D01*
X3488858Y-5144339D01*
X3519101Y-5165003D01*
X3555000Y-5172273D01*
X3559434Y-5172273D01*
X3593580Y-5206420D01*
X3642406Y-5239044D01*
X3651962Y-5240945D01*
X3700000Y-5250500D01*
X3700000Y-5250500D01*
X3989953Y-5250500D01*
X3998858Y-5264339D01*
X4029101Y-5285003D01*
X4065000Y-5292273D01*
X4235000Y-5292273D01*
X4268537Y-5285962D01*
X4299339Y-5266142D01*
X4310027Y-5250500D01*
X4450000Y-5250500D01*
X4507594Y-5239044D01*
X4556420Y-5206420D01*
X4635566Y-5127273D01*
X4700000Y-5127273D01*
X4733537Y-5120962D01*
X4764339Y-5101142D01*
X4785003Y-5070899D01*
X4792273Y-5035000D01*
X4792273Y-4865000D01*
X4785962Y-4831463D01*
X4766142Y-4800661D01*
X4735899Y-4779997D01*
X4700000Y-4772727D01*
X4500000Y-4772727D01*
X4466463Y-4779038D01*
X4435661Y-4798858D01*
X4414997Y-4829101D01*
X4407727Y-4865000D01*
X4407727Y-4929434D01*
X4387661Y-4949500D01*
X4310047Y-4949500D01*
X4301142Y-4935661D01*
X4270899Y-4914997D01*
X4235000Y-4907727D01*
X4065000Y-4907727D01*
X4031463Y-4914038D01*
X4000661Y-4933858D01*
X3989973Y-4949500D01*
X3820047Y-4949500D01*
X3811142Y-4935661D01*
X3802105Y-4929486D01*
X3802902Y-4928689D01*
X3813300Y-4903586D01*
X3813300Y-4874975D01*
X3796225Y-4857900D01*
X3657900Y-4857900D01*
X3657900Y-4859900D01*
X3642100Y-4859900D01*
X3642100Y-4857900D01*
X3640100Y-4857900D01*
X3640100Y-4842100D01*
X3642100Y-4842100D01*
X3642100Y-4840100D01*
X3657900Y-4840100D01*
X3657900Y-4842100D01*
X3796225Y-4842100D01*
X3813300Y-4825025D01*
X3813300Y-4796414D01*
X3802902Y-4771311D01*
X3783689Y-4752098D01*
X3758586Y-4741700D01*
X3689241Y-4741700D01*
X3702594Y-4739044D01*
X3723649Y-4724975D01*
X3996700Y-4724975D01*
X3996700Y-4813586D01*
X4007098Y-4838689D01*
X4026311Y-4857902D01*
X4051414Y-4868300D01*
X4125025Y-4868300D01*
X4142100Y-4851225D01*
X4142100Y-4707900D01*
X4157900Y-4707900D01*
X4157900Y-4851225D01*
X4174975Y-4868300D01*
X4248586Y-4868300D01*
X4273689Y-4857902D01*
X4292902Y-4838689D01*
X4303300Y-4813586D01*
X4303300Y-4724975D01*
X4286225Y-4707900D01*
X4157900Y-4707900D01*
X4142100Y-4707900D01*
X4013775Y-4707900D01*
X3996700Y-4724975D01*
X3723649Y-4724975D01*
X3751420Y-4706420D01*
X3751420Y-4706420D01*
X3806419Y-4651420D01*
X3806420Y-4651420D01*
X3839044Y-4602594D01*
X3842262Y-4586414D01*
X3996700Y-4586414D01*
X3996700Y-4675025D01*
X4013775Y-4692100D01*
X4142100Y-4692100D01*
X4142100Y-4548775D01*
X4157900Y-4548775D01*
X4157900Y-4692100D01*
X4286225Y-4692100D01*
X4303300Y-4675025D01*
X4303300Y-4586414D01*
X4292902Y-4561311D01*
X4273689Y-4542098D01*
X4248586Y-4531700D01*
X4174975Y-4531700D01*
X4157900Y-4548775D01*
X4142100Y-4548775D01*
X4125025Y-4531700D01*
X4051414Y-4531700D01*
X4026311Y-4542098D01*
X4007098Y-4561311D01*
X3996700Y-4586414D01*
X3842262Y-4586414D01*
X3850500Y-4545000D01*
X3850500Y-4500047D01*
X3864339Y-4491142D01*
X3885003Y-4460899D01*
X3892273Y-4425000D01*
X3892273Y-4175000D01*
X3885962Y-4141463D01*
X3866142Y-4110661D01*
X3850500Y-4099973D01*
X3850500Y-4060000D01*
X3839044Y-4002406D01*
X3806420Y-3953580D01*
X3450500Y-3597661D01*
X3450500Y-3485000D01*
X3450500Y-3485000D01*
X3439044Y-3427406D01*
X3417391Y-3395000D01*
X3406420Y-3378580D01*
X3406419Y-3378580D01*
X3321420Y-3293580D01*
X3285381Y-3269500D01*
X3276214Y-3263375D01*
X3230339Y-3217500D01*
X3509500Y-3217500D01*
X3509500Y-3475000D01*
X3509500Y-3475000D01*
G37*
X3509500Y-3475000D02*
X3520956Y-3532594D01*
X3542008Y-3564101D01*
X3553580Y-3581420D01*
X3778580Y-3806419D01*
X3778580Y-3806420D01*
X3799894Y-3820661D01*
X3827406Y-3839044D01*
X3885000Y-3850500D01*
X3885000Y-3850500D01*
X4099953Y-3850500D01*
X4108858Y-3864339D01*
X4139101Y-3885003D01*
X4175000Y-3892273D01*
X4425000Y-3892273D01*
X4458537Y-3885962D01*
X4470334Y-3878372D01*
X4460956Y-3892406D01*
X4451792Y-3938478D01*
X4435661Y-3948858D01*
X4414997Y-3979101D01*
X4407727Y-4015000D01*
X4407727Y-4185000D01*
X4414038Y-4218537D01*
X4433858Y-4249339D01*
X4449500Y-4260027D01*
X4449500Y-4289953D01*
X4435661Y-4298858D01*
X4414997Y-4329101D01*
X4407727Y-4365000D01*
X4407727Y-4535000D01*
X4414038Y-4568537D01*
X4433858Y-4599339D01*
X4464101Y-4620003D01*
X4500000Y-4627273D01*
X4700000Y-4627273D01*
X4733537Y-4620962D01*
X4764339Y-4601142D01*
X4785003Y-4570899D01*
X4792273Y-4535000D01*
X4792273Y-4365000D01*
X4785962Y-4331463D01*
X4766142Y-4300661D01*
X4750500Y-4289973D01*
X4750500Y-4260047D01*
X4764339Y-4251142D01*
X4785003Y-4220899D01*
X4792273Y-4185000D01*
X4792273Y-4124975D01*
X4831700Y-4124975D01*
X4831700Y-4198586D01*
X4842098Y-4223689D01*
X4861311Y-4242902D01*
X4886414Y-4253300D01*
X4975025Y-4253300D01*
X4992100Y-4236225D01*
X4992100Y-4107900D01*
X5007900Y-4107900D01*
X5007900Y-4236225D01*
X5024975Y-4253300D01*
X5113586Y-4253300D01*
X5138689Y-4242902D01*
X5157902Y-4223689D01*
X5168300Y-4198586D01*
X5168300Y-4124975D01*
X5151225Y-4107900D01*
X5007900Y-4107900D01*
X4992100Y-4107900D01*
X4848775Y-4107900D01*
X4831700Y-4124975D01*
X4792273Y-4124975D01*
X4792273Y-4015000D01*
X4785962Y-3981463D01*
X4784167Y-3978672D01*
X4803718Y-3959121D01*
X4803858Y-3959339D01*
X4834101Y-3980003D01*
X4840068Y-3981212D01*
X4831700Y-4001414D01*
X4831700Y-4075025D01*
X4848775Y-4092100D01*
X4992100Y-4092100D01*
X4992100Y-4090100D01*
X5007900Y-4090100D01*
X5007900Y-4092100D01*
X5151225Y-4092100D01*
X5168300Y-4075025D01*
X5168300Y-4001414D01*
X5157902Y-3976311D01*
X5144891Y-3963300D01*
X5153586Y-3963300D01*
X5178689Y-3952902D01*
X5197902Y-3933689D01*
X5208300Y-3908586D01*
X5208300Y-3824975D01*
X5191225Y-3807900D01*
X5107900Y-3807900D01*
X5107900Y-3809900D01*
X5092100Y-3809900D01*
X5092100Y-3807900D01*
X5090100Y-3807900D01*
X5090100Y-3792100D01*
X5092100Y-3792100D01*
X5092100Y-3790100D01*
X5107900Y-3790100D01*
X5107900Y-3792100D01*
X5191225Y-3792100D01*
X5208300Y-3775025D01*
X5208300Y-3691414D01*
X5197902Y-3666311D01*
X5178689Y-3647098D01*
X5153586Y-3636700D01*
X5126040Y-3636700D01*
X5130003Y-3630899D01*
X5137273Y-3595000D01*
X5137273Y-3574787D01*
X5485430Y-3574787D01*
X5510582Y-3635658D01*
X5557113Y-3682271D01*
X5617940Y-3707528D01*
X5683803Y-3707586D01*
X5744674Y-3682434D01*
X5791287Y-3635903D01*
X5816544Y-3575076D01*
X5816602Y-3509213D01*
X5791450Y-3448342D01*
X5744919Y-3401729D01*
X5684092Y-3376472D01*
X5618229Y-3376414D01*
X5557358Y-3401566D01*
X5510745Y-3448097D01*
X5485488Y-3508924D01*
X5485430Y-3574787D01*
X5137273Y-3574787D01*
X5137273Y-3567727D01*
X5144044Y-3557594D01*
X5155500Y-3500000D01*
X5144044Y-3442406D01*
X5137273Y-3432273D01*
X5137273Y-3405000D01*
X5130962Y-3371463D01*
X5111142Y-3340661D01*
X5080899Y-3319997D01*
X5045000Y-3312727D01*
X4965000Y-3312727D01*
X4931463Y-3319038D01*
X4900661Y-3338858D01*
X4893390Y-3349500D01*
X4753233Y-3349500D01*
X4760472Y-3332065D01*
X4760528Y-3268215D01*
X4739573Y-3217500D01*
X4807981Y-3217500D01*
X4811770Y-3236546D01*
X4832471Y-3267529D01*
X4863454Y-3288230D01*
X4900000Y-3295500D01*
X7000000Y-3295500D01*
X7036546Y-3288230D01*
X7067529Y-3267529D01*
X7117557Y-3217500D01*
X7317727Y-3217500D01*
X7317727Y-3232273D01*
X7310956Y-3242406D01*
X7299500Y-3300000D01*
X7310956Y-3357594D01*
X7317727Y-3367727D01*
X7317727Y-3395000D01*
X7321063Y-3412727D01*
X7315000Y-3412727D01*
X7281463Y-3419038D01*
X7250661Y-3438858D01*
X7229997Y-3469101D01*
X7222727Y-3505000D01*
X7222727Y-3532273D01*
X7215956Y-3542406D01*
X7214545Y-3549500D01*
X6910047Y-3549500D01*
X6901142Y-3535661D01*
X6870899Y-3514997D01*
X6835000Y-3507727D01*
X6665000Y-3507727D01*
X6631463Y-3514038D01*
X6600661Y-3533858D01*
X6579997Y-3564101D01*
X6572727Y-3600000D01*
X6572727Y-3800000D01*
X6579038Y-3833537D01*
X6598858Y-3864339D01*
X6629101Y-3885003D01*
X6665000Y-3892273D01*
X6835000Y-3892273D01*
X6868537Y-3885962D01*
X6899339Y-3866142D01*
X6910027Y-3850500D01*
X7204500Y-3850500D01*
X7204500Y-3955000D01*
X7207727Y-3971224D01*
X7207727Y-4085000D01*
X7214038Y-4118537D01*
X7233858Y-4149339D01*
X7264101Y-4170003D01*
X7300000Y-4177273D01*
X7500000Y-4177273D01*
X7533537Y-4170962D01*
X7564339Y-4151142D01*
X7585003Y-4120899D01*
X7592273Y-4085000D01*
X7592273Y-4024975D01*
X7631700Y-4024975D01*
X7631700Y-4098586D01*
X7642098Y-4123689D01*
X7661311Y-4142902D01*
X7686414Y-4153300D01*
X7775025Y-4153300D01*
X7792100Y-4136225D01*
X7792100Y-4007900D01*
X7807900Y-4007900D01*
X7807900Y-4136225D01*
X7824975Y-4153300D01*
X7913586Y-4153300D01*
X7938689Y-4142902D01*
X7957902Y-4123689D01*
X7968300Y-4098586D01*
X7968300Y-4024975D01*
X7951225Y-4007900D01*
X7807900Y-4007900D01*
X7792100Y-4007900D01*
X7648775Y-4007900D01*
X7631700Y-4024975D01*
X7592273Y-4024975D01*
X7592273Y-3915000D01*
X7589717Y-3901414D01*
X7631700Y-3901414D01*
X7631700Y-3975025D01*
X7648775Y-3992100D01*
X7792100Y-3992100D01*
X7792100Y-3863775D01*
X7775025Y-3846700D01*
X7686414Y-3846700D01*
X7661311Y-3857098D01*
X7642098Y-3876311D01*
X7631700Y-3901414D01*
X7589717Y-3901414D01*
X7585962Y-3881463D01*
X7566142Y-3850661D01*
X7535899Y-3829997D01*
X7505500Y-3823841D01*
X7505500Y-3763300D01*
X7520025Y-3763300D01*
X7537100Y-3746225D01*
X7537100Y-3607900D01*
X7535100Y-3607900D01*
X7535100Y-3592100D01*
X7537100Y-3592100D01*
X7537100Y-3590100D01*
X7552900Y-3590100D01*
X7552900Y-3592100D01*
X7554900Y-3592100D01*
X7554900Y-3607900D01*
X7552900Y-3607900D01*
X7552900Y-3746225D01*
X7569975Y-3763300D01*
X7598586Y-3763300D01*
X7623689Y-3752902D01*
X7642902Y-3733689D01*
X7652552Y-3710391D01*
X7748580Y-3806420D01*
X7797406Y-3839044D01*
X7835896Y-3846700D01*
X7824975Y-3846700D01*
X7807900Y-3863775D01*
X7807900Y-3992100D01*
X7951225Y-3992100D01*
X7968300Y-3975025D01*
X7968300Y-3901414D01*
X7963553Y-3889955D01*
X7975000Y-3892273D01*
X8225000Y-3892273D01*
X8239509Y-3889543D01*
X8239472Y-3931785D01*
X8263855Y-3990797D01*
X8308965Y-4035986D01*
X8367934Y-4060472D01*
X8431785Y-4060528D01*
X8456055Y-4050500D01*
X8849500Y-4050500D01*
X8849500Y-4099953D01*
X8835661Y-4108858D01*
X8814997Y-4139101D01*
X8807727Y-4175000D01*
X8807727Y-4425000D01*
X8814038Y-4458537D01*
X8821628Y-4470334D01*
X8807594Y-4460956D01*
X8785867Y-4456634D01*
X8792273Y-4425000D01*
X8792273Y-4175000D01*
X8785962Y-4141463D01*
X8766142Y-4110661D01*
X8735899Y-4089997D01*
X8700000Y-4082727D01*
X8500000Y-4082727D01*
X8466463Y-4089038D01*
X8435661Y-4108858D01*
X8414997Y-4139101D01*
X8407727Y-4175000D01*
X8407727Y-4425000D01*
X8414038Y-4458537D01*
X8433858Y-4489339D01*
X8449500Y-4500027D01*
X8449500Y-4545000D01*
X8460956Y-4602594D01*
X8462009Y-4604170D01*
X8406420Y-4548580D01*
X8357594Y-4515956D01*
X8300000Y-4504500D01*
X8277273Y-4504500D01*
X8277273Y-4500000D01*
X8270962Y-4466463D01*
X8251142Y-4435661D01*
X8220899Y-4414997D01*
X8185000Y-4407727D01*
X8015000Y-4407727D01*
X7981463Y-4414038D01*
X7950661Y-4433858D01*
X7939973Y-4449500D01*
X7760047Y-4449500D01*
X7751142Y-4435661D01*
X7720899Y-4414997D01*
X7685000Y-4407727D01*
X7515000Y-4407727D01*
X7481463Y-4414038D01*
X7450661Y-4433858D01*
X7429997Y-4464101D01*
X7422727Y-4500000D01*
X7422727Y-4700000D01*
X7429038Y-4733537D01*
X7448858Y-4764339D01*
X7479101Y-4785003D01*
X7515000Y-4792273D01*
X7685000Y-4792273D01*
X7718537Y-4785962D01*
X7749339Y-4766142D01*
X7760027Y-4750500D01*
X7939953Y-4750500D01*
X7948858Y-4764339D01*
X7979101Y-4785003D01*
X8015000Y-4792273D01*
X8094756Y-4792273D01*
X8097406Y-4794044D01*
X8155000Y-4805500D01*
X8237661Y-4805500D01*
X8438580Y-5006420D01*
X8446839Y-5011938D01*
X8436700Y-5036414D01*
X8436700Y-5065025D01*
X8453775Y-5082100D01*
X8592100Y-5082100D01*
X8592100Y-5080100D01*
X8607900Y-5080100D01*
X8607900Y-5082100D01*
X8609900Y-5082100D01*
X8609900Y-5097900D01*
X8607900Y-5097900D01*
X8607900Y-5181225D01*
X8624975Y-5198300D01*
X8708586Y-5198300D01*
X8733689Y-5187902D01*
X8752902Y-5168689D01*
X8763300Y-5143586D01*
X8763300Y-5116040D01*
X8769101Y-5120003D01*
X8805000Y-5127273D01*
X8832273Y-5127273D01*
X8842406Y-5134044D01*
X8900000Y-5145500D01*
X8957594Y-5134044D01*
X8967727Y-5127273D01*
X8995000Y-5127273D01*
X9028537Y-5120962D01*
X9059339Y-5101142D01*
X9080003Y-5070899D01*
X9082500Y-5058569D01*
X9082500Y-6123526D01*
X9050000Y-6117062D01*
X8982839Y-6130421D01*
X8925903Y-6168465D01*
X8923000Y-6172809D01*
X8920097Y-6168465D01*
X8863161Y-6130421D01*
X8796000Y-6117062D01*
X8728839Y-6130421D01*
X8671903Y-6168465D01*
X8669000Y-6172809D01*
X8666097Y-6168465D01*
X8609161Y-6130421D01*
X8542000Y-6117062D01*
X8474839Y-6130421D01*
X8417903Y-6168465D01*
X8415000Y-6172809D01*
X8412097Y-6168465D01*
X8355161Y-6130421D01*
X8288000Y-6117062D01*
X8220839Y-6130421D01*
X8184500Y-6154702D01*
X8184500Y-5654000D01*
X8184500Y-5654000D01*
X8173044Y-5596406D01*
X8173044Y-5596406D01*
X8140420Y-5547580D01*
X7753253Y-5160414D01*
X7770003Y-5135899D01*
X7777273Y-5100000D01*
X7777273Y-5024975D01*
X7946700Y-5024975D01*
X7946700Y-5113586D01*
X7957098Y-5138689D01*
X7976311Y-5157902D01*
X8001414Y-5168300D01*
X8075025Y-5168300D01*
X8092100Y-5151225D01*
X8092100Y-5007900D01*
X8107900Y-5007900D01*
X8107900Y-5151225D01*
X8124975Y-5168300D01*
X8198586Y-5168300D01*
X8223689Y-5157902D01*
X8242902Y-5138689D01*
X8252724Y-5114975D01*
X8436700Y-5114975D01*
X8436700Y-5143586D01*
X8447098Y-5168689D01*
X8466311Y-5187902D01*
X8491414Y-5198300D01*
X8575025Y-5198300D01*
X8592100Y-5181225D01*
X8592100Y-5097900D01*
X8453775Y-5097900D01*
X8436700Y-5114975D01*
X8252724Y-5114975D01*
X8253300Y-5113586D01*
X8253300Y-5024975D01*
X8236225Y-5007900D01*
X8107900Y-5007900D01*
X8092100Y-5007900D01*
X7963775Y-5007900D01*
X7946700Y-5024975D01*
X7777273Y-5024975D01*
X7777273Y-4900000D01*
X7774717Y-4886414D01*
X7946700Y-4886414D01*
X7946700Y-4975025D01*
X7963775Y-4992100D01*
X8092100Y-4992100D01*
X8092100Y-4848775D01*
X8107900Y-4848775D01*
X8107900Y-4992100D01*
X8236225Y-4992100D01*
X8253300Y-4975025D01*
X8253300Y-4886414D01*
X8242902Y-4861311D01*
X8223689Y-4842098D01*
X8198586Y-4831700D01*
X8124975Y-4831700D01*
X8107900Y-4848775D01*
X8092100Y-4848775D01*
X8075025Y-4831700D01*
X8001414Y-4831700D01*
X7976311Y-4842098D01*
X7957098Y-4861311D01*
X7946700Y-4886414D01*
X7774717Y-4886414D01*
X7770962Y-4866463D01*
X7751142Y-4835661D01*
X7720899Y-4814997D01*
X7685000Y-4807727D01*
X7515000Y-4807727D01*
X7481463Y-4814038D01*
X7450661Y-4833858D01*
X7429997Y-4864101D01*
X7422727Y-4900000D01*
X7422727Y-5100000D01*
X7429038Y-5133537D01*
X7448858Y-5164339D01*
X7449500Y-5164778D01*
X7449500Y-5220000D01*
X7453637Y-5240798D01*
X6900500Y-4687661D01*
X6900500Y-4264443D01*
X6920003Y-4235899D01*
X6927273Y-4200000D01*
X6927273Y-4000000D01*
X6920962Y-3966463D01*
X6901142Y-3935661D01*
X6870899Y-3914997D01*
X6835000Y-3907727D01*
X6665000Y-3907727D01*
X6631463Y-3914038D01*
X6600661Y-3933858D01*
X6579997Y-3964101D01*
X6572727Y-4000000D01*
X6572727Y-4200000D01*
X6579038Y-4233537D01*
X6598858Y-4264339D01*
X6599500Y-4264778D01*
X6599500Y-4750000D01*
X6610956Y-4807594D01*
X6638957Y-4849500D01*
X6643580Y-4856420D01*
X7549500Y-5762339D01*
X7549500Y-6095792D01*
X7554873Y-6122805D01*
X7526000Y-6117062D01*
X7458839Y-6130421D01*
X7422500Y-6154702D01*
X7422500Y-5872000D01*
X7411044Y-5814406D01*
X7378420Y-5765580D01*
X7378419Y-5765580D01*
X7006420Y-5393580D01*
X6957594Y-5360956D01*
X6900000Y-5349500D01*
X5562339Y-5349500D01*
X5550500Y-5337661D01*
X5550500Y-5031752D01*
X5650024Y-5031752D01*
X5671498Y-5083597D01*
X5713271Y-5126409D01*
X5768248Y-5149976D01*
X5792100Y-5136022D01*
X5792100Y-5007900D01*
X5807900Y-5007900D01*
X5807900Y-5136022D01*
X5831752Y-5149976D01*
X5886729Y-5126409D01*
X5928501Y-5083597D01*
X5949976Y-5031752D01*
X5935996Y-5007900D01*
X5807900Y-5007900D01*
X5792100Y-5007900D01*
X5664004Y-5007900D01*
X5650024Y-5031752D01*
X5550500Y-5031752D01*
X5550500Y-4709339D01*
X5622727Y-4781566D01*
X5622727Y-4831000D01*
X5629038Y-4864537D01*
X5648858Y-4895339D01*
X5674774Y-4913047D01*
X5671498Y-4916403D01*
X5650024Y-4968248D01*
X5664004Y-4992100D01*
X5792100Y-4992100D01*
X5792100Y-4990100D01*
X5807900Y-4990100D01*
X5807900Y-4992100D01*
X5935996Y-4992100D01*
X5949976Y-4968248D01*
X5928501Y-4916403D01*
X5924993Y-4912808D01*
X5949339Y-4897142D01*
X5970003Y-4866899D01*
X5977273Y-4831000D01*
X5977273Y-4661000D01*
X5970962Y-4627463D01*
X5951142Y-4596661D01*
X5920899Y-4575997D01*
X5885000Y-4568727D01*
X5835566Y-4568727D01*
X5800500Y-4533661D01*
X5800500Y-4119268D01*
X5815528Y-4083076D01*
X5815586Y-4017213D01*
X5790434Y-3956342D01*
X5743903Y-3909729D01*
X5683076Y-3884472D01*
X5617213Y-3884414D01*
X5556342Y-3909566D01*
X5509729Y-3956097D01*
X5484472Y-4016924D01*
X5484414Y-4082787D01*
X5499500Y-4119297D01*
X5499500Y-4516661D01*
X5326420Y-4343580D01*
X5277594Y-4310956D01*
X5220000Y-4299500D01*
X5164443Y-4299500D01*
X5135899Y-4279997D01*
X5100000Y-4272727D01*
X4900000Y-4272727D01*
X4866463Y-4279038D01*
X4835661Y-4298858D01*
X4814997Y-4329101D01*
X4807727Y-4365000D01*
X4807727Y-4535000D01*
X4814038Y-4568537D01*
X4833858Y-4599339D01*
X4864101Y-4620003D01*
X4900000Y-4627273D01*
X5100000Y-4627273D01*
X5133537Y-4620962D01*
X5160666Y-4603505D01*
X5249500Y-4692339D01*
X5249500Y-5400000D01*
X5260956Y-5457594D01*
X5285002Y-5493580D01*
X5293580Y-5506420D01*
X5393580Y-5606419D01*
X5393580Y-5606420D01*
X5426205Y-5628218D01*
X5442406Y-5639044D01*
X5500000Y-5650500D01*
X5500001Y-5650500D01*
X6837661Y-5650500D01*
X7121500Y-5934339D01*
X7121500Y-6066453D01*
X6848628Y-5793580D01*
X6824222Y-5777273D01*
X6799802Y-5760956D01*
X6742208Y-5749500D01*
X5150500Y-5749500D01*
X5150500Y-5110047D01*
X5164339Y-5101142D01*
X5185003Y-5070899D01*
X5192273Y-5035000D01*
X5192273Y-4865000D01*
X5185962Y-4831463D01*
X5166142Y-4800661D01*
X5135899Y-4779997D01*
X5100000Y-4772727D01*
X4900000Y-4772727D01*
X4866463Y-4779038D01*
X4835661Y-4798858D01*
X4814997Y-4829101D01*
X4807727Y-4865000D01*
X4807727Y-5035000D01*
X4814038Y-5068537D01*
X4833858Y-5099339D01*
X4849500Y-5110027D01*
X4849500Y-5900000D01*
X4860956Y-5957594D01*
X4893580Y-6006420D01*
X4942406Y-6039044D01*
X5000000Y-6050500D01*
X6679869Y-6050500D01*
X6782916Y-6153547D01*
X6771900Y-6160004D01*
X6771900Y-6288100D01*
X6773900Y-6288100D01*
X6773900Y-6303900D01*
X6771900Y-6303900D01*
X6771900Y-6305900D01*
X6756100Y-6305900D01*
X6756100Y-6303900D01*
X6627978Y-6303900D01*
X6614024Y-6327752D01*
X6637591Y-6382729D01*
X6662702Y-6407230D01*
X6639903Y-6422465D01*
X6601859Y-6479401D01*
X6596918Y-6504243D01*
X5951661Y-7149500D01*
X5664443Y-7149500D01*
X5635899Y-7129997D01*
X5600000Y-7122727D01*
X5400000Y-7122727D01*
X5366463Y-7129038D01*
X5335661Y-7148858D01*
X5314997Y-7179101D01*
X5307727Y-7215000D01*
X5307727Y-7385000D01*
X5314038Y-7418537D01*
X5333858Y-7449339D01*
X5364101Y-7470003D01*
X5400000Y-7477273D01*
X5600000Y-7477273D01*
X5633537Y-7470962D01*
X5664339Y-7451142D01*
X5664778Y-7450500D01*
X6014000Y-7450500D01*
X6071594Y-7439044D01*
X6120420Y-7406420D01*
X6806319Y-6720520D01*
X6831161Y-6715579D01*
X6888097Y-6677535D01*
X6891000Y-6673191D01*
X6893903Y-6677535D01*
X6950839Y-6715579D01*
X7003346Y-6726023D01*
X6693580Y-7035788D01*
X6660956Y-7084614D01*
X6649500Y-7142208D01*
X6649500Y-7285557D01*
X6629997Y-7314101D01*
X6622727Y-7350000D01*
X6622727Y-7550000D01*
X6629038Y-7583537D01*
X6648858Y-7614339D01*
X6679101Y-7635003D01*
X6715000Y-7642273D01*
X6885000Y-7642273D01*
X6918537Y-7635962D01*
X6949339Y-7616142D01*
X6970003Y-7585899D01*
X6977273Y-7550000D01*
X6977273Y-7350000D01*
X6970962Y-7316463D01*
X6951142Y-7285661D01*
X6950500Y-7285222D01*
X6950500Y-7204547D01*
X7049500Y-7105547D01*
X7049500Y-7285557D01*
X7029997Y-7314101D01*
X7022727Y-7350000D01*
X7022727Y-7550000D01*
X7029038Y-7583537D01*
X7048858Y-7614339D01*
X7079101Y-7635003D01*
X7115000Y-7642273D01*
X7285000Y-7642273D01*
X7318537Y-7635962D01*
X7349339Y-7616142D01*
X7370003Y-7585899D01*
X7377273Y-7550000D01*
X7377273Y-7350000D01*
X7370962Y-7316463D01*
X7351142Y-7285661D01*
X7350500Y-7285222D01*
X7350500Y-7162339D01*
X7458603Y-7054236D01*
X7449500Y-7100000D01*
X7449500Y-7285557D01*
X7429997Y-7314101D01*
X7422727Y-7350000D01*
X7422727Y-7550000D01*
X7429038Y-7583537D01*
X7448858Y-7614339D01*
X7479101Y-7635003D01*
X7515000Y-7642273D01*
X7594888Y-7642273D01*
X7579434Y-7657727D01*
X7515000Y-7657727D01*
X7481463Y-7664038D01*
X7450661Y-7683858D01*
X7429997Y-7714101D01*
X7422727Y-7750000D01*
X7422727Y-7950000D01*
X7429038Y-7983537D01*
X7448858Y-8014339D01*
X7479101Y-8035003D01*
X7515000Y-8042273D01*
X7685000Y-8042273D01*
X7718537Y-8035962D01*
X7749339Y-8016142D01*
X7770003Y-7985899D01*
X7777273Y-7950000D01*
X7777273Y-7885566D01*
X7937864Y-7724975D01*
X8146700Y-7724975D01*
X8146700Y-7813586D01*
X8157098Y-7838689D01*
X8176311Y-7857902D01*
X8201414Y-7868300D01*
X8275025Y-7868300D01*
X8292100Y-7851225D01*
X8292100Y-7707900D01*
X8163775Y-7707900D01*
X8146700Y-7724975D01*
X7937864Y-7724975D01*
X8076425Y-7586414D01*
X8146700Y-7586414D01*
X8146700Y-7675025D01*
X8163775Y-7692100D01*
X8292100Y-7692100D01*
X8292100Y-7548775D01*
X8307900Y-7548775D01*
X8307900Y-7692100D01*
X8436225Y-7692100D01*
X8453300Y-7675025D01*
X8453300Y-7586414D01*
X8442902Y-7561311D01*
X8423689Y-7542098D01*
X8398586Y-7531700D01*
X8324975Y-7531700D01*
X8307900Y-7548775D01*
X8292100Y-7548775D01*
X8275025Y-7531700D01*
X8201414Y-7531700D01*
X8176311Y-7542098D01*
X8157098Y-7561311D01*
X8146700Y-7586414D01*
X8076425Y-7586414D01*
X8137864Y-7524975D01*
X8586700Y-7524975D01*
X8586700Y-7553586D01*
X8597098Y-7578689D01*
X8616311Y-7597902D01*
X8641414Y-7608300D01*
X8725025Y-7608300D01*
X8742100Y-7591225D01*
X8742100Y-7507900D01*
X8603775Y-7507900D01*
X8586700Y-7524975D01*
X8137864Y-7524975D01*
X8178349Y-7484490D01*
X8179101Y-7485003D01*
X8215000Y-7492273D01*
X8385000Y-7492273D01*
X8418537Y-7485962D01*
X8449339Y-7466142D01*
X8453194Y-7460500D01*
X8586700Y-7460500D01*
X8586700Y-7475025D01*
X8603775Y-7492100D01*
X8742100Y-7492100D01*
X8742100Y-7490100D01*
X8757900Y-7490100D01*
X8757900Y-7492100D01*
X8759900Y-7492100D01*
X8759900Y-7507900D01*
X8757900Y-7507900D01*
X8757900Y-7591225D01*
X8773418Y-7606743D01*
X8604434Y-7775727D01*
X8500000Y-7775727D01*
X8466463Y-7782038D01*
X8453300Y-7790508D01*
X8453300Y-7724975D01*
X8436225Y-7707900D01*
X8307900Y-7707900D01*
X8307900Y-7851225D01*
X8324975Y-7868300D01*
X8398586Y-7868300D01*
X8408498Y-7864194D01*
X8407727Y-7868000D01*
X8407727Y-8118000D01*
X8414038Y-8151537D01*
X8433858Y-8182339D01*
X8464101Y-8203003D01*
X8500000Y-8210273D01*
X8700000Y-8210273D01*
X8733537Y-8203962D01*
X8764339Y-8184142D01*
X8785003Y-8153899D01*
X8792273Y-8118000D01*
X8792273Y-8013566D01*
X8807727Y-7998112D01*
X8807727Y-8118000D01*
X8814038Y-8151537D01*
X8833858Y-8182339D01*
X8849500Y-8193027D01*
X8849500Y-8199500D01*
X8825000Y-8199500D01*
X8767406Y-8210956D01*
X8718580Y-8243580D01*
X8718580Y-8243581D01*
X8693580Y-8268580D01*
X8660956Y-8317406D01*
X8658771Y-8328389D01*
X8533236Y-8453925D01*
X8509203Y-8463855D01*
X8464014Y-8508965D01*
X8453944Y-8533217D01*
X8313580Y-8673580D01*
X8280956Y-8722406D01*
X8269500Y-8780000D01*
X8269500Y-8849500D01*
X8200047Y-8849500D01*
X8191142Y-8835661D01*
X8160899Y-8814997D01*
X8125000Y-8807727D01*
X7875000Y-8807727D01*
X7841463Y-8814038D01*
X7810661Y-8833858D01*
X7789997Y-8864101D01*
X7782727Y-8900000D01*
X7782727Y-9082500D01*
X7650339Y-9082500D01*
X7540339Y-8972500D01*
X7762339Y-8750500D01*
X7799953Y-8750500D01*
X7808858Y-8764339D01*
X7839101Y-8785003D01*
X7875000Y-8792273D01*
X8125000Y-8792273D01*
X8158537Y-8785962D01*
X8189339Y-8766142D01*
X8210003Y-8735899D01*
X8217273Y-8700000D01*
X8217273Y-8500000D01*
X8210962Y-8466463D01*
X8191142Y-8435661D01*
X8160899Y-8414997D01*
X8125000Y-8407727D01*
X7875000Y-8407727D01*
X7841463Y-8414038D01*
X7810661Y-8433858D01*
X7799973Y-8449500D01*
X7700000Y-8449500D01*
X7700000Y-8449500D01*
X7651962Y-8459055D01*
X7642406Y-8460956D01*
X7593580Y-8493580D01*
X7593580Y-8493581D01*
X7337661Y-8749500D01*
X7302294Y-8749500D01*
X7315003Y-8730899D01*
X7322273Y-8695000D01*
X7322273Y-8667727D01*
X7329044Y-8657594D01*
X7340500Y-8600000D01*
X7340500Y-8416482D01*
X7364339Y-8401142D01*
X7385003Y-8370899D01*
X7392273Y-8335000D01*
X7392273Y-8165000D01*
X7385962Y-8131463D01*
X7366142Y-8100661D01*
X7350500Y-8089973D01*
X7350500Y-8014443D01*
X7370003Y-7985899D01*
X7377273Y-7950000D01*
X7377273Y-7750000D01*
X7370962Y-7716463D01*
X7351142Y-7685661D01*
X7320899Y-7664997D01*
X7285000Y-7657727D01*
X7115000Y-7657727D01*
X7081463Y-7664038D01*
X7050661Y-7683858D01*
X7029997Y-7714101D01*
X7022727Y-7750000D01*
X7022727Y-7950000D01*
X7029038Y-7983537D01*
X7048858Y-8014339D01*
X7049500Y-8014778D01*
X7049500Y-8089953D01*
X7035661Y-8098858D01*
X7014997Y-8129101D01*
X7007727Y-8165000D01*
X7007727Y-8335000D01*
X7014038Y-8368537D01*
X7033858Y-8399339D01*
X7039500Y-8403194D01*
X7039500Y-8436700D01*
X7024975Y-8436700D01*
X7007900Y-8453775D01*
X7007900Y-8592100D01*
X7009900Y-8592100D01*
X7009900Y-8607900D01*
X7007900Y-8607900D01*
X7007900Y-8609900D01*
X6992100Y-8609900D01*
X6992100Y-8607900D01*
X6908775Y-8607900D01*
X6891700Y-8624975D01*
X6891700Y-8708586D01*
X6902098Y-8733689D01*
X6921311Y-8752902D01*
X6946414Y-8763300D01*
X6973960Y-8763300D01*
X6969997Y-8769101D01*
X6962727Y-8805000D01*
X6962727Y-8832273D01*
X6955956Y-8842406D01*
X6944500Y-8900000D01*
X6955956Y-8957594D01*
X6962727Y-8967727D01*
X6962727Y-8995000D01*
X6969038Y-9028537D01*
X6988858Y-9059339D01*
X7019101Y-9080003D01*
X7031431Y-9082500D01*
X5177273Y-9082500D01*
X5177273Y-9067727D01*
X5184044Y-9057594D01*
X5195500Y-9000000D01*
X5184044Y-8942406D01*
X5177273Y-8932273D01*
X5177273Y-8905000D01*
X5173937Y-8887273D01*
X5180000Y-8887273D01*
X5213537Y-8880962D01*
X5244339Y-8861142D01*
X5265003Y-8830899D01*
X5272273Y-8795000D01*
X5272273Y-8780566D01*
X5456419Y-8596420D01*
X5456420Y-8596420D01*
X5489044Y-8547594D01*
X5500219Y-8491414D01*
X6891700Y-8491414D01*
X6891700Y-8575025D01*
X6908775Y-8592100D01*
X6992100Y-8592100D01*
X6992100Y-8453775D01*
X6975025Y-8436700D01*
X6946414Y-8436700D01*
X6921311Y-8447098D01*
X6902098Y-8466311D01*
X6891700Y-8491414D01*
X5500219Y-8491414D01*
X5500500Y-8490000D01*
X5500500Y-8410047D01*
X5514339Y-8401142D01*
X5514778Y-8400500D01*
X6100000Y-8400500D01*
X6157594Y-8389044D01*
X6206420Y-8356420D01*
X6287864Y-8274975D01*
X6631700Y-8274975D01*
X6631700Y-8348586D01*
X6642098Y-8373689D01*
X6661311Y-8392902D01*
X6686414Y-8403300D01*
X6775025Y-8403300D01*
X6792100Y-8386225D01*
X6792100Y-8257900D01*
X6807900Y-8257900D01*
X6807900Y-8386225D01*
X6824975Y-8403300D01*
X6913586Y-8403300D01*
X6938689Y-8392902D01*
X6957902Y-8373689D01*
X6968300Y-8348586D01*
X6968300Y-8274975D01*
X6951225Y-8257900D01*
X6807900Y-8257900D01*
X6792100Y-8257900D01*
X6648775Y-8257900D01*
X6631700Y-8274975D01*
X6287864Y-8274975D01*
X6411425Y-8151414D01*
X6631700Y-8151414D01*
X6631700Y-8225025D01*
X6648775Y-8242100D01*
X6792100Y-8242100D01*
X6792100Y-8113775D01*
X6807900Y-8113775D01*
X6807900Y-8242100D01*
X6951225Y-8242100D01*
X6968300Y-8225025D01*
X6968300Y-8151414D01*
X6957902Y-8126311D01*
X6938689Y-8107098D01*
X6913586Y-8096700D01*
X6824975Y-8096700D01*
X6807900Y-8113775D01*
X6792100Y-8113775D01*
X6775025Y-8096700D01*
X6686414Y-8096700D01*
X6661311Y-8107098D01*
X6642098Y-8126311D01*
X6631700Y-8151414D01*
X6411425Y-8151414D01*
X6562339Y-8000500D01*
X6639953Y-8000500D01*
X6648858Y-8014339D01*
X6679101Y-8035003D01*
X6715000Y-8042273D01*
X6885000Y-8042273D01*
X6918537Y-8035962D01*
X6949339Y-8016142D01*
X6970003Y-7985899D01*
X6977273Y-7950000D01*
X6977273Y-7750000D01*
X6970962Y-7716463D01*
X6951142Y-7685661D01*
X6920899Y-7664997D01*
X6885000Y-7657727D01*
X6715000Y-7657727D01*
X6681463Y-7664038D01*
X6650661Y-7683858D01*
X6639973Y-7699500D01*
X6500000Y-7699500D01*
X6442406Y-7710956D01*
X6393580Y-7743580D01*
X6037661Y-8099500D01*
X5514443Y-8099500D01*
X5485899Y-8079997D01*
X5450000Y-8072727D01*
X5250000Y-8072727D01*
X5216463Y-8079038D01*
X5185661Y-8098858D01*
X5164997Y-8129101D01*
X5157727Y-8165000D01*
X5157727Y-8335000D01*
X5164038Y-8368537D01*
X5183858Y-8399339D01*
X5199500Y-8410027D01*
X5199500Y-8427661D01*
X5114434Y-8512727D01*
X5100000Y-8512727D01*
X5066463Y-8519038D01*
X5035661Y-8538858D01*
X5029486Y-8547895D01*
X5028689Y-8547098D01*
X5003586Y-8536700D01*
X4974975Y-8536700D01*
X4957900Y-8553775D01*
X4957900Y-8692100D01*
X4959900Y-8692100D01*
X4959900Y-8707900D01*
X4957900Y-8707900D01*
X4957900Y-8709900D01*
X4942100Y-8709900D01*
X4942100Y-8707900D01*
X4858775Y-8707900D01*
X4841700Y-8724975D01*
X4841700Y-8728861D01*
X4704254Y-8591414D01*
X4841700Y-8591414D01*
X4841700Y-8675025D01*
X4858775Y-8692100D01*
X4942100Y-8692100D01*
X4942100Y-8553775D01*
X4925025Y-8536700D01*
X4896414Y-8536700D01*
X4871311Y-8547098D01*
X4852098Y-8566311D01*
X4841700Y-8591414D01*
X4704254Y-8591414D01*
X4606420Y-8493580D01*
X4601066Y-8490003D01*
X4557594Y-8460956D01*
X4500000Y-8449500D01*
X4488047Y-8449500D01*
X4479142Y-8435661D01*
X4448899Y-8414997D01*
X4413000Y-8407727D01*
X4163000Y-8407727D01*
X4129463Y-8414038D01*
X4098661Y-8433858D01*
X4077997Y-8464101D01*
X4070727Y-8500000D01*
X4070727Y-8700000D01*
X4077038Y-8733537D01*
X4096858Y-8764339D01*
X4127101Y-8785003D01*
X4163000Y-8792273D01*
X4413000Y-8792273D01*
X4446537Y-8785962D01*
X4462714Y-8775553D01*
X4737161Y-9050000D01*
X4704661Y-9082500D01*
X4505273Y-9082500D01*
X4505273Y-8900000D01*
X4498962Y-8866463D01*
X4479142Y-8835661D01*
X4448899Y-8814997D01*
X4413000Y-8807727D01*
X4163000Y-8807727D01*
X4129463Y-8814038D01*
X4098661Y-8833858D01*
X4087973Y-8849500D01*
X4080500Y-8849500D01*
X4080500Y-8825001D01*
X4080500Y-8825000D01*
X4069044Y-8767406D01*
X4054891Y-8746225D01*
X4036420Y-8718580D01*
X4036419Y-8718580D01*
X3851075Y-8533236D01*
X3841145Y-8509203D01*
X3796035Y-8464014D01*
X3771783Y-8453944D01*
X3611420Y-8293580D01*
X3592526Y-8280956D01*
X3583575Y-8274975D01*
X4781700Y-8274975D01*
X4781700Y-8348586D01*
X4792098Y-8373689D01*
X4811311Y-8392902D01*
X4836414Y-8403300D01*
X4925025Y-8403300D01*
X4942100Y-8386225D01*
X4942100Y-8257900D01*
X4957900Y-8257900D01*
X4957900Y-8386225D01*
X4974975Y-8403300D01*
X5063586Y-8403300D01*
X5088689Y-8392902D01*
X5107902Y-8373689D01*
X5118300Y-8348586D01*
X5118300Y-8274975D01*
X5101225Y-8257900D01*
X4957900Y-8257900D01*
X4942100Y-8257900D01*
X4798775Y-8257900D01*
X4781700Y-8274975D01*
X3583575Y-8274975D01*
X3562594Y-8260956D01*
X3505000Y-8249500D01*
X3450500Y-8260341D01*
X3450500Y-8250047D01*
X3464339Y-8241142D01*
X3485003Y-8210899D01*
X3492273Y-8175000D01*
X3492273Y-7925000D01*
X3485962Y-7891463D01*
X3466142Y-7860661D01*
X3451271Y-7850500D01*
X3499999Y-7850500D01*
X3500000Y-7850500D01*
X3500000Y-7850500D01*
X3532661Y-7850500D01*
X3538921Y-7856760D01*
X3535661Y-7858858D01*
X3514997Y-7889101D01*
X3507727Y-7925000D01*
X3507727Y-7958639D01*
X3499500Y-8000000D01*
X3507727Y-8041360D01*
X3507727Y-8175000D01*
X3514038Y-8208537D01*
X3533858Y-8239339D01*
X3564101Y-8260003D01*
X3600000Y-8267273D01*
X3800000Y-8267273D01*
X3833537Y-8260962D01*
X3864339Y-8241142D01*
X3885003Y-8210899D01*
X3892273Y-8175000D01*
X3892273Y-8151414D01*
X4781700Y-8151414D01*
X4781700Y-8225025D01*
X4798775Y-8242100D01*
X4942100Y-8242100D01*
X4942100Y-8113775D01*
X4957900Y-8113775D01*
X4957900Y-8242100D01*
X5101225Y-8242100D01*
X5118300Y-8225025D01*
X5118300Y-8151414D01*
X5107902Y-8126311D01*
X5088689Y-8107098D01*
X5063586Y-8096700D01*
X4974975Y-8096700D01*
X4957900Y-8113775D01*
X4942100Y-8113775D01*
X4925025Y-8096700D01*
X4836414Y-8096700D01*
X4811311Y-8107098D01*
X4792098Y-8126311D01*
X4781700Y-8151414D01*
X3892273Y-8151414D01*
X3892273Y-7925000D01*
X3885962Y-7891463D01*
X3866142Y-7860661D01*
X3850500Y-7849973D01*
X3850500Y-7805000D01*
X3839044Y-7747406D01*
X3807702Y-7700500D01*
X4239953Y-7700500D01*
X4248858Y-7714339D01*
X4279101Y-7735003D01*
X4315000Y-7742273D01*
X4485000Y-7742273D01*
X4518537Y-7735962D01*
X4549339Y-7716142D01*
X4560027Y-7700500D01*
X4850000Y-7700500D01*
X4907594Y-7689044D01*
X4956420Y-7656420D01*
X5135566Y-7477273D01*
X5200000Y-7477273D01*
X5233537Y-7470962D01*
X5264339Y-7451142D01*
X5285003Y-7420899D01*
X5292273Y-7385000D01*
X5292273Y-7215000D01*
X5285962Y-7181463D01*
X5266142Y-7150661D01*
X5235899Y-7129997D01*
X5200000Y-7122727D01*
X5000000Y-7122727D01*
X4966463Y-7129038D01*
X4935661Y-7148858D01*
X4914997Y-7179101D01*
X4907727Y-7215000D01*
X4907727Y-7279434D01*
X4787661Y-7399500D01*
X4560047Y-7399500D01*
X4551142Y-7385661D01*
X4520899Y-7364997D01*
X4485000Y-7357727D01*
X4315000Y-7357727D01*
X4281463Y-7364038D01*
X4250661Y-7383858D01*
X4239973Y-7399500D01*
X3896449Y-7399500D01*
X3894044Y-7387406D01*
X3861420Y-7338580D01*
X3853161Y-7333062D01*
X3863300Y-7308586D01*
X3863300Y-7279975D01*
X3846225Y-7262900D01*
X3707900Y-7262900D01*
X3707900Y-7264900D01*
X3692100Y-7264900D01*
X3692100Y-7262900D01*
X3690100Y-7262900D01*
X3690100Y-7247100D01*
X3692100Y-7247100D01*
X3692100Y-7163775D01*
X3707900Y-7163775D01*
X3707900Y-7247100D01*
X3846225Y-7247100D01*
X3863300Y-7230025D01*
X3863300Y-7201414D01*
X3852902Y-7176311D01*
X3851566Y-7174975D01*
X4246700Y-7174975D01*
X4246700Y-7263586D01*
X4257098Y-7288689D01*
X4276311Y-7307902D01*
X4301414Y-7318300D01*
X4375025Y-7318300D01*
X4392100Y-7301225D01*
X4392100Y-7157900D01*
X4407900Y-7157900D01*
X4407900Y-7301225D01*
X4424975Y-7318300D01*
X4498586Y-7318300D01*
X4523689Y-7307902D01*
X4542902Y-7288689D01*
X4553300Y-7263586D01*
X4553300Y-7174975D01*
X4536225Y-7157900D01*
X4407900Y-7157900D01*
X4392100Y-7157900D01*
X4263775Y-7157900D01*
X4246700Y-7174975D01*
X3851566Y-7174975D01*
X3833689Y-7157098D01*
X3808586Y-7146700D01*
X3724975Y-7146700D01*
X3707900Y-7163775D01*
X3692100Y-7163775D01*
X3675025Y-7146700D01*
X3591414Y-7146700D01*
X3566311Y-7157098D01*
X3547098Y-7176311D01*
X3536700Y-7201414D01*
X3536700Y-7228960D01*
X3530899Y-7224997D01*
X3495000Y-7217727D01*
X3467727Y-7217727D01*
X3457594Y-7210956D01*
X3400000Y-7199500D01*
X3342406Y-7210956D01*
X3332273Y-7217727D01*
X3305000Y-7217727D01*
X3271463Y-7224038D01*
X3240661Y-7243858D01*
X3219997Y-7274101D01*
X3217500Y-7286431D01*
X3217500Y-7108300D01*
X3259658Y-7074573D01*
X3263094Y-7070492D01*
X3267529Y-7067529D01*
X3274997Y-7056351D01*
X3283655Y-7046066D01*
X3285267Y-7040981D01*
X3288230Y-7036546D01*
X3288257Y-7036414D01*
X4246700Y-7036414D01*
X4246700Y-7125025D01*
X4263775Y-7142100D01*
X4392100Y-7142100D01*
X4392100Y-6998775D01*
X4407900Y-6998775D01*
X4407900Y-7142100D01*
X4536225Y-7142100D01*
X4553300Y-7125025D01*
X4553300Y-7036414D01*
X4542902Y-7011311D01*
X4523689Y-6992098D01*
X4498586Y-6981700D01*
X4424975Y-6981700D01*
X4407900Y-6998775D01*
X4392100Y-6998775D01*
X4375025Y-6981700D01*
X4301414Y-6981700D01*
X4276311Y-6992098D01*
X4257098Y-7011311D01*
X4246700Y-7036414D01*
X3288257Y-7036414D01*
X3290853Y-7023361D01*
X3294916Y-7010546D01*
X3294459Y-7005232D01*
X3295500Y-7000000D01*
X3295500Y-5515000D01*
X3622727Y-5515000D01*
X3622727Y-5685000D01*
X3629038Y-5718537D01*
X3648858Y-5749339D01*
X3679101Y-5770003D01*
X3715000Y-5777273D01*
X3885000Y-5777273D01*
X3918537Y-5770962D01*
X3949339Y-5751142D01*
X3967047Y-5725226D01*
X3970403Y-5728501D01*
X4022248Y-5749976D01*
X4046100Y-5735996D01*
X4046100Y-5607900D01*
X4044100Y-5607900D01*
X4044100Y-5592100D01*
X4046100Y-5592100D01*
X4046100Y-5464004D01*
X4061900Y-5464004D01*
X4061900Y-5592100D01*
X4063900Y-5592100D01*
X4063900Y-5607900D01*
X4061900Y-5607900D01*
X4061900Y-5735996D01*
X4085752Y-5749976D01*
X4137597Y-5728501D01*
X4166018Y-5700770D01*
X4183903Y-5727535D01*
X4240839Y-5765579D01*
X4308000Y-5778938D01*
X4375161Y-5765579D01*
X4432097Y-5727535D01*
X4435000Y-5723191D01*
X4437903Y-5727535D01*
X4492500Y-5764016D01*
X4492500Y-6457919D01*
X4482528Y-6481934D01*
X4482472Y-6545785D01*
X4506855Y-6604797D01*
X4551965Y-6649986D01*
X4610935Y-6674472D01*
X4674785Y-6674528D01*
X4733797Y-6650145D01*
X4778986Y-6605035D01*
X4803472Y-6546065D01*
X4803528Y-6482215D01*
X4793500Y-6457945D01*
X4793500Y-6264248D01*
X6614024Y-6264248D01*
X6627978Y-6288100D01*
X6756100Y-6288100D01*
X6756100Y-6160004D01*
X6732248Y-6146024D01*
X6680403Y-6167498D01*
X6637591Y-6209271D01*
X6614024Y-6264248D01*
X4793500Y-6264248D01*
X4793500Y-5681000D01*
X4782044Y-5623406D01*
X4749420Y-5574580D01*
X4729082Y-5554243D01*
X4724141Y-5529401D01*
X4686097Y-5472465D01*
X4629161Y-5434421D01*
X4562000Y-5421062D01*
X4494839Y-5434421D01*
X4437903Y-5472465D01*
X4435000Y-5476809D01*
X4432097Y-5472465D01*
X4375161Y-5434421D01*
X4308000Y-5421062D01*
X4240839Y-5434421D01*
X4183903Y-5472465D01*
X4166018Y-5499230D01*
X4137597Y-5471499D01*
X4085752Y-5450024D01*
X4061900Y-5464004D01*
X4046100Y-5464004D01*
X4022248Y-5450024D01*
X3970403Y-5471499D01*
X3966808Y-5475007D01*
X3951142Y-5450661D01*
X3920899Y-5429997D01*
X3885000Y-5422727D01*
X3715000Y-5422727D01*
X3681463Y-5429038D01*
X3650661Y-5448858D01*
X3629997Y-5479101D01*
X3622727Y-5515000D01*
X3295500Y-5515000D01*
X3295500Y-5200000D01*
X3288230Y-5163454D01*
X3267529Y-5132471D01*
X3217500Y-5082443D01*
X3217500Y-5068909D01*
X3219101Y-5070003D01*
X3255000Y-5077273D01*
X3282273Y-5077273D01*
X3292406Y-5084044D01*
X3350000Y-5095500D01*
X3407594Y-5084044D01*
X3417727Y-5077273D01*
X3445000Y-5077273D01*
X3462727Y-5073937D01*
X3462727Y-5080000D01*
X3469038Y-5113537D01*
X3488858Y-5144339D01*
X3519101Y-5165003D01*
X3555000Y-5172273D01*
X3559434Y-5172273D01*
X3593580Y-5206420D01*
X3642406Y-5239044D01*
X3651962Y-5240945D01*
X3700000Y-5250500D01*
X3700000Y-5250500D01*
X3989953Y-5250500D01*
X3998858Y-5264339D01*
X4029101Y-5285003D01*
X4065000Y-5292273D01*
X4235000Y-5292273D01*
X4268537Y-5285962D01*
X4299339Y-5266142D01*
X4310027Y-5250500D01*
X4450000Y-5250500D01*
X4507594Y-5239044D01*
X4556420Y-5206420D01*
X4635566Y-5127273D01*
X4700000Y-5127273D01*
X4733537Y-5120962D01*
X4764339Y-5101142D01*
X4785003Y-5070899D01*
X4792273Y-5035000D01*
X4792273Y-4865000D01*
X4785962Y-4831463D01*
X4766142Y-4800661D01*
X4735899Y-4779997D01*
X4700000Y-4772727D01*
X4500000Y-4772727D01*
X4466463Y-4779038D01*
X4435661Y-4798858D01*
X4414997Y-4829101D01*
X4407727Y-4865000D01*
X4407727Y-4929434D01*
X4387661Y-4949500D01*
X4310047Y-4949500D01*
X4301142Y-4935661D01*
X4270899Y-4914997D01*
X4235000Y-4907727D01*
X4065000Y-4907727D01*
X4031463Y-4914038D01*
X4000661Y-4933858D01*
X3989973Y-4949500D01*
X3820047Y-4949500D01*
X3811142Y-4935661D01*
X3802105Y-4929486D01*
X3802902Y-4928689D01*
X3813300Y-4903586D01*
X3813300Y-4874975D01*
X3796225Y-4857900D01*
X3657900Y-4857900D01*
X3657900Y-4859900D01*
X3642100Y-4859900D01*
X3642100Y-4857900D01*
X3640100Y-4857900D01*
X3640100Y-4842100D01*
X3642100Y-4842100D01*
X3642100Y-4840100D01*
X3657900Y-4840100D01*
X3657900Y-4842100D01*
X3796225Y-4842100D01*
X3813300Y-4825025D01*
X3813300Y-4796414D01*
X3802902Y-4771311D01*
X3783689Y-4752098D01*
X3758586Y-4741700D01*
X3689241Y-4741700D01*
X3702594Y-4739044D01*
X3723649Y-4724975D01*
X3996700Y-4724975D01*
X3996700Y-4813586D01*
X4007098Y-4838689D01*
X4026311Y-4857902D01*
X4051414Y-4868300D01*
X4125025Y-4868300D01*
X4142100Y-4851225D01*
X4142100Y-4707900D01*
X4157900Y-4707900D01*
X4157900Y-4851225D01*
X4174975Y-4868300D01*
X4248586Y-4868300D01*
X4273689Y-4857902D01*
X4292902Y-4838689D01*
X4303300Y-4813586D01*
X4303300Y-4724975D01*
X4286225Y-4707900D01*
X4157900Y-4707900D01*
X4142100Y-4707900D01*
X4013775Y-4707900D01*
X3996700Y-4724975D01*
X3723649Y-4724975D01*
X3751420Y-4706420D01*
X3751420Y-4706420D01*
X3806419Y-4651420D01*
X3806420Y-4651420D01*
X3839044Y-4602594D01*
X3842262Y-4586414D01*
X3996700Y-4586414D01*
X3996700Y-4675025D01*
X4013775Y-4692100D01*
X4142100Y-4692100D01*
X4142100Y-4548775D01*
X4157900Y-4548775D01*
X4157900Y-4692100D01*
X4286225Y-4692100D01*
X4303300Y-4675025D01*
X4303300Y-4586414D01*
X4292902Y-4561311D01*
X4273689Y-4542098D01*
X4248586Y-4531700D01*
X4174975Y-4531700D01*
X4157900Y-4548775D01*
X4142100Y-4548775D01*
X4125025Y-4531700D01*
X4051414Y-4531700D01*
X4026311Y-4542098D01*
X4007098Y-4561311D01*
X3996700Y-4586414D01*
X3842262Y-4586414D01*
X3850500Y-4545000D01*
X3850500Y-4500047D01*
X3864339Y-4491142D01*
X3885003Y-4460899D01*
X3892273Y-4425000D01*
X3892273Y-4175000D01*
X3885962Y-4141463D01*
X3866142Y-4110661D01*
X3850500Y-4099973D01*
X3850500Y-4060000D01*
X3839044Y-4002406D01*
X3806420Y-3953580D01*
X3450500Y-3597661D01*
X3450500Y-3485000D01*
X3450500Y-3485000D01*
X3439044Y-3427406D01*
X3417391Y-3395000D01*
X3406420Y-3378580D01*
X3406419Y-3378580D01*
X3321420Y-3293580D01*
X3285381Y-3269500D01*
X3276214Y-3263375D01*
X3230339Y-3217500D01*
X3509500Y-3217500D01*
X3509500Y-3475000D01*
M02*
