G04 #@! TF.FileFunction,Legend,Top*
%FSLAX45Y45*%
G04 Gerber Fmt 4.5, Leading zero omitted, Abs format (unit mm)*
G04 Created by KiCad (PCBNEW 4.0.1-stable) date 2017/05/05 18:15:20*
%MOMM*%
G01*
G04 APERTURE LIST*
%ADD10C,0.100000*%
%ADD11C,0.120000*%
%ADD12C,0.150000*%
G04 APERTURE END LIST*
D10*
D11*
X3600000Y-7902000D02*
X3400000Y-7902000D01*
X3400000Y-8198000D02*
X3600000Y-8198000D01*
X4140000Y-8700000D02*
X4140000Y-8900000D01*
X4436000Y-8900000D02*
X4436000Y-8700000D01*
X8700000Y-8141000D02*
X8900000Y-8141000D01*
X8900000Y-7845000D02*
X8700000Y-7845000D01*
X7852000Y-8700000D02*
X7852000Y-8900000D01*
X8148000Y-8900000D02*
X8148000Y-8700000D01*
X3600000Y-4152000D02*
X3400000Y-4152000D01*
X3400000Y-4448000D02*
X3600000Y-4448000D01*
X4448000Y-3600000D02*
X4448000Y-3400000D01*
X4152000Y-3400000D02*
X4152000Y-3600000D01*
X8700000Y-4448000D02*
X8900000Y-4448000D01*
X8900000Y-4152000D02*
X8700000Y-4152000D01*
X8248000Y-3600000D02*
X8248000Y-3400000D01*
X7952000Y-3400000D02*
X7952000Y-3600000D01*
X3400000Y-8340000D02*
X3200000Y-8340000D01*
X3200000Y-8340000D02*
X3200000Y-8725000D01*
X3400000Y-8340000D02*
X3400000Y-8725000D01*
X4010000Y-9100000D02*
X4010000Y-8900000D01*
X4010000Y-8900000D02*
X3625000Y-8900000D01*
X4010000Y-9100000D02*
X3625000Y-9100000D01*
X9100000Y-8270000D02*
X8900000Y-8270000D01*
X8900000Y-8270000D02*
X8900000Y-8655000D01*
X9100000Y-8270000D02*
X9100000Y-8655000D01*
X8340000Y-8900000D02*
X8340000Y-9100000D01*
X8340000Y-9100000D02*
X8725000Y-9100000D01*
X8340000Y-8900000D02*
X8725000Y-8900000D01*
X3200000Y-4020000D02*
X3400000Y-4020000D01*
X3400000Y-4020000D02*
X3400000Y-3635000D01*
X3200000Y-4020000D02*
X3200000Y-3635000D01*
X4020000Y-3400000D02*
X4020000Y-3200000D01*
X4020000Y-3200000D02*
X3635000Y-3200000D01*
X4020000Y-3400000D02*
X3635000Y-3400000D01*
X8900000Y-3960000D02*
X9100000Y-3960000D01*
X9100000Y-3960000D02*
X9100000Y-3575000D01*
X8900000Y-3960000D02*
X8900000Y-3575000D01*
X8340000Y-3200000D02*
X8340000Y-3400000D01*
X8340000Y-3400000D02*
X8725000Y-3400000D01*
X8340000Y-3200000D02*
X8725000Y-3200000D01*
D12*
X5523000Y-4177000D02*
X5523000Y-3415000D01*
X5523000Y-3415000D02*
X5777000Y-3415000D01*
X5777000Y-3415000D02*
X5777000Y-4177000D01*
X5777000Y-4177000D02*
X5523000Y-4177000D01*
D11*
X1527000Y-9733000D02*
X1533000Y-9733000D01*
X1533000Y-9733000D02*
X1533000Y-9213000D01*
X1533000Y-9213000D02*
X1267000Y-9213000D01*
X1267000Y-9213000D02*
X1267000Y-9473000D01*
X1267000Y-9473000D02*
X1527000Y-9473000D01*
X1527000Y-9473000D02*
X1527000Y-9733000D01*
X1400000Y-9733000D02*
X1267000Y-9733000D01*
X1267000Y-9733000D02*
X1267000Y-9600000D01*
X2567000Y-11027000D02*
X2567000Y-11033000D01*
X2567000Y-11033000D02*
X3087000Y-11033000D01*
X3087000Y-11033000D02*
X3087000Y-10767000D01*
X3087000Y-10767000D02*
X2827000Y-10767000D01*
X2827000Y-10767000D02*
X2827000Y-11027000D01*
X2827000Y-11027000D02*
X2567000Y-11027000D01*
X2567000Y-10900000D02*
X2567000Y-10767000D01*
X2567000Y-10767000D02*
X2700000Y-10767000D01*
X11027000Y-9733000D02*
X11033000Y-9733000D01*
X11033000Y-9733000D02*
X11033000Y-9213000D01*
X11033000Y-9213000D02*
X10767000Y-9213000D01*
X10767000Y-9213000D02*
X10767000Y-9473000D01*
X10767000Y-9473000D02*
X11027000Y-9473000D01*
X11027000Y-9473000D02*
X11027000Y-9733000D01*
X10900000Y-9733000D02*
X10767000Y-9733000D01*
X10767000Y-9733000D02*
X10767000Y-9600000D01*
X9733000Y-10773000D02*
X9733000Y-10767000D01*
X9733000Y-10767000D02*
X9213000Y-10767000D01*
X9213000Y-10767000D02*
X9213000Y-11033000D01*
X9213000Y-11033000D02*
X9473000Y-11033000D01*
X9473000Y-11033000D02*
X9473000Y-10773000D01*
X9473000Y-10773000D02*
X9733000Y-10773000D01*
X9733000Y-10900000D02*
X9733000Y-11033000D01*
X9733000Y-11033000D02*
X9600000Y-11033000D01*
X1273000Y-2567000D02*
X1267000Y-2567000D01*
X1267000Y-2567000D02*
X1267000Y-3087000D01*
X1267000Y-3087000D02*
X1533000Y-3087000D01*
X1533000Y-3087000D02*
X1533000Y-2827000D01*
X1533000Y-2827000D02*
X1273000Y-2827000D01*
X1273000Y-2827000D02*
X1273000Y-2567000D01*
X1400000Y-2567000D02*
X1533000Y-2567000D01*
X1533000Y-2567000D02*
X1533000Y-2700000D01*
X2567000Y-1527000D02*
X2567000Y-1533000D01*
X2567000Y-1533000D02*
X3087000Y-1533000D01*
X3087000Y-1533000D02*
X3087000Y-1267000D01*
X3087000Y-1267000D02*
X2827000Y-1267000D01*
X2827000Y-1267000D02*
X2827000Y-1527000D01*
X2827000Y-1527000D02*
X2567000Y-1527000D01*
X2567000Y-1400000D02*
X2567000Y-1267000D01*
X2567000Y-1267000D02*
X2700000Y-1267000D01*
X10773000Y-2567000D02*
X10767000Y-2567000D01*
X10767000Y-2567000D02*
X10767000Y-3087000D01*
X10767000Y-3087000D02*
X11033000Y-3087000D01*
X11033000Y-3087000D02*
X11033000Y-2827000D01*
X11033000Y-2827000D02*
X10773000Y-2827000D01*
X10773000Y-2827000D02*
X10773000Y-2567000D01*
X10900000Y-2567000D02*
X11033000Y-2567000D01*
X11033000Y-2567000D02*
X11033000Y-2700000D01*
X9733000Y-1273000D02*
X9733000Y-1267000D01*
X9733000Y-1267000D02*
X9213000Y-1267000D01*
X9213000Y-1267000D02*
X9213000Y-1533000D01*
X9213000Y-1533000D02*
X9473000Y-1533000D01*
X9473000Y-1533000D02*
X9473000Y-1273000D01*
X9473000Y-1273000D02*
X9733000Y-1273000D01*
X9733000Y-1400000D02*
X9733000Y-1533000D01*
X9733000Y-1533000D02*
X9600000Y-1533000D01*
X5667000Y-4873000D02*
X5667000Y-5133000D01*
X5667000Y-5133000D02*
X5933000Y-5133000D01*
X5933000Y-5133000D02*
X5933000Y-4873000D01*
X5933000Y-4873000D02*
X5667000Y-4873000D01*
X5667000Y-4746000D02*
X5667000Y-4613000D01*
X5667000Y-4613000D02*
X5800000Y-4613000D01*
X3474000Y-7192000D02*
X3474000Y-7285000D01*
X3474000Y-7508000D02*
X3474000Y-7415000D01*
X3474000Y-7508000D02*
X3790000Y-7508000D01*
X3474000Y-7192000D02*
X3620000Y-7192000D01*
X4887000Y-8926000D02*
X4980000Y-8926000D01*
X5203000Y-8926000D02*
X5110000Y-8926000D01*
X5203000Y-8926000D02*
X5203000Y-8610000D01*
X4887000Y-8926000D02*
X4887000Y-8780000D01*
X8976000Y-7563000D02*
X8976000Y-7470000D01*
X8976000Y-7247000D02*
X8976000Y-7340000D01*
X8976000Y-7247000D02*
X8660000Y-7247000D01*
X8976000Y-7563000D02*
X8830000Y-7563000D01*
X6937000Y-8826000D02*
X7030000Y-8826000D01*
X7253000Y-8826000D02*
X7160000Y-8826000D01*
X7253000Y-8826000D02*
X7253000Y-8510000D01*
X6937000Y-8826000D02*
X6937000Y-8680000D01*
X3424000Y-4787000D02*
X3424000Y-4880000D01*
X3424000Y-5103000D02*
X3424000Y-5010000D01*
X3424000Y-5103000D02*
X3740000Y-5103000D01*
X3424000Y-4787000D02*
X3570000Y-4787000D01*
X5163000Y-3574000D02*
X5070000Y-3574000D01*
X4847000Y-3574000D02*
X4940000Y-3574000D01*
X4847000Y-3574000D02*
X4847000Y-3890000D01*
X5163000Y-3574000D02*
X5163000Y-3720000D01*
X8826000Y-5153000D02*
X8826000Y-5060000D01*
X8826000Y-4837000D02*
X8826000Y-4930000D01*
X8826000Y-4837000D02*
X8510000Y-4837000D01*
X8826000Y-5153000D02*
X8680000Y-5153000D01*
X7608000Y-3374000D02*
X7515000Y-3374000D01*
X7292000Y-3374000D02*
X7385000Y-3374000D01*
X7292000Y-3374000D02*
X7292000Y-3690000D01*
X7608000Y-3374000D02*
X7608000Y-3520000D01*
X5400000Y-7407000D02*
X5200000Y-7407000D01*
X5200000Y-7193000D02*
X5400000Y-7193000D01*
X6907000Y-7550000D02*
X6907000Y-7750000D01*
X6693000Y-7750000D02*
X6693000Y-7550000D01*
X7707000Y-7550000D02*
X7707000Y-7750000D01*
X7493000Y-7750000D02*
X7493000Y-7550000D01*
X7307000Y-7550000D02*
X7307000Y-7750000D01*
X7093000Y-7750000D02*
X7093000Y-7550000D01*
X4900000Y-5057000D02*
X4700000Y-5057000D01*
X4700000Y-4843000D02*
X4900000Y-4843000D01*
X4900000Y-4557000D02*
X4700000Y-4557000D01*
X4700000Y-4343000D02*
X4900000Y-4343000D01*
X7493000Y-4900000D02*
X7493000Y-4700000D01*
X7707000Y-4700000D02*
X7707000Y-4900000D01*
X6643000Y-4000000D02*
X6643000Y-3800000D01*
X6857000Y-3800000D02*
X6857000Y-4000000D01*
X4507000Y-7250000D02*
X4507000Y-7450000D01*
X4293000Y-7450000D02*
X4293000Y-7250000D01*
X5050000Y-8143000D02*
X5250000Y-8143000D01*
X5250000Y-8357000D02*
X5050000Y-8357000D01*
X8193000Y-7600000D02*
X8193000Y-7400000D01*
X8407000Y-7400000D02*
X8407000Y-7600000D01*
X6900000Y-8143000D02*
X7100000Y-8143000D01*
X7100000Y-8357000D02*
X6900000Y-8357000D01*
X4257000Y-4800000D02*
X4257000Y-5000000D01*
X4043000Y-5000000D02*
X4043000Y-4800000D01*
X4900000Y-4207000D02*
X4700000Y-4207000D01*
X4700000Y-3993000D02*
X4900000Y-3993000D01*
X7993000Y-4900000D02*
X7993000Y-4700000D01*
X8207000Y-4700000D02*
X8207000Y-4900000D01*
X7700000Y-4107000D02*
X7500000Y-4107000D01*
X7500000Y-3893000D02*
X7700000Y-3893000D01*
X3927000Y-5733000D02*
X4695000Y-5733000D01*
X4695000Y-5733000D02*
X4695000Y-5467000D01*
X4695000Y-5467000D02*
X3927000Y-5467000D01*
X3927000Y-5467000D02*
X3927000Y-5733000D01*
X3800000Y-5733000D02*
X3667000Y-5733000D01*
X3667000Y-5733000D02*
X3667000Y-5600000D01*
D12*
X3404762Y-7865476D02*
X3395238Y-7870238D01*
X3376190Y-7870238D01*
X3366667Y-7865476D01*
X3361905Y-7860714D01*
X3357143Y-7851190D01*
X3357143Y-7822619D01*
X3361905Y-7813095D01*
X3366667Y-7808333D01*
X3376190Y-7803571D01*
X3395238Y-7803571D01*
X3404762Y-7808333D01*
X3447619Y-7870238D02*
X3447619Y-7770238D01*
X3447619Y-7808333D02*
X3457143Y-7803571D01*
X3476190Y-7803571D01*
X3485714Y-7808333D01*
X3490476Y-7813095D01*
X3495238Y-7822619D01*
X3495238Y-7851190D01*
X3490476Y-7860714D01*
X3485714Y-7865476D01*
X3476190Y-7870238D01*
X3457143Y-7870238D01*
X3447619Y-7865476D01*
X3552381Y-7870238D02*
X3542857Y-7865476D01*
X3538095Y-7855952D01*
X3538095Y-7770238D01*
X3642857Y-7870238D02*
X3585714Y-7870238D01*
X3614286Y-7870238D02*
X3614286Y-7770238D01*
X3604762Y-7784524D01*
X3595238Y-7794048D01*
X3585714Y-7798809D01*
X4103476Y-8895238D02*
X4108238Y-8904762D01*
X4108238Y-8923810D01*
X4103476Y-8933333D01*
X4098714Y-8938095D01*
X4089190Y-8942857D01*
X4060619Y-8942857D01*
X4051095Y-8938095D01*
X4046333Y-8933333D01*
X4041571Y-8923810D01*
X4041571Y-8904762D01*
X4046333Y-8895238D01*
X4108238Y-8852381D02*
X4008238Y-8852381D01*
X4046333Y-8852381D02*
X4041571Y-8842857D01*
X4041571Y-8823810D01*
X4046333Y-8814286D01*
X4051095Y-8809524D01*
X4060619Y-8804762D01*
X4089190Y-8804762D01*
X4098714Y-8809524D01*
X4103476Y-8814286D01*
X4108238Y-8823810D01*
X4108238Y-8842857D01*
X4103476Y-8852381D01*
X4108238Y-8747619D02*
X4103476Y-8757143D01*
X4093952Y-8761905D01*
X4008238Y-8761905D01*
X4017762Y-8714286D02*
X4013000Y-8709524D01*
X4008238Y-8700000D01*
X4008238Y-8676190D01*
X4013000Y-8666667D01*
X4017762Y-8661905D01*
X4027286Y-8657143D01*
X4036809Y-8657143D01*
X4051095Y-8661905D01*
X4108238Y-8719048D01*
X4108238Y-8657143D01*
X8700000Y-8258476D02*
X8690476Y-8263238D01*
X8671429Y-8263238D01*
X8661905Y-8258476D01*
X8657143Y-8253714D01*
X8652381Y-8244190D01*
X8652381Y-8215619D01*
X8657143Y-8206095D01*
X8661905Y-8201333D01*
X8671429Y-8196571D01*
X8690476Y-8196571D01*
X8700000Y-8201333D01*
X8742857Y-8263238D02*
X8742857Y-8163238D01*
X8742857Y-8201333D02*
X8752381Y-8196571D01*
X8771429Y-8196571D01*
X8780952Y-8201333D01*
X8785714Y-8206095D01*
X8790476Y-8215619D01*
X8790476Y-8244190D01*
X8785714Y-8253714D01*
X8780952Y-8258476D01*
X8771429Y-8263238D01*
X8752381Y-8263238D01*
X8742857Y-8258476D01*
X8833333Y-8263238D02*
X8833333Y-8196571D01*
X8833333Y-8215619D02*
X8838095Y-8206095D01*
X8842857Y-8201333D01*
X8852381Y-8196571D01*
X8861905Y-8196571D01*
X8947619Y-8263238D02*
X8890476Y-8263238D01*
X8919048Y-8263238D02*
X8919048Y-8163238D01*
X8909524Y-8177524D01*
X8900000Y-8187048D01*
X8890476Y-8191809D01*
X7815476Y-8900000D02*
X7820238Y-8909524D01*
X7820238Y-8928572D01*
X7815476Y-8938095D01*
X7810714Y-8942857D01*
X7801190Y-8947619D01*
X7772619Y-8947619D01*
X7763095Y-8942857D01*
X7758333Y-8938095D01*
X7753571Y-8928572D01*
X7753571Y-8909524D01*
X7758333Y-8900000D01*
X7820238Y-8857143D02*
X7720238Y-8857143D01*
X7758333Y-8857143D02*
X7753571Y-8847619D01*
X7753571Y-8828571D01*
X7758333Y-8819048D01*
X7763095Y-8814286D01*
X7772619Y-8809524D01*
X7801190Y-8809524D01*
X7810714Y-8814286D01*
X7815476Y-8819048D01*
X7820238Y-8828571D01*
X7820238Y-8847619D01*
X7815476Y-8857143D01*
X7820238Y-8766667D02*
X7753571Y-8766667D01*
X7772619Y-8766667D02*
X7763095Y-8761905D01*
X7758333Y-8757143D01*
X7753571Y-8747619D01*
X7753571Y-8738095D01*
X7729762Y-8709524D02*
X7725000Y-8704762D01*
X7720238Y-8695238D01*
X7720238Y-8671429D01*
X7725000Y-8661905D01*
X7729762Y-8657143D01*
X7739286Y-8652381D01*
X7748809Y-8652381D01*
X7763095Y-8657143D01*
X7820238Y-8714286D01*
X7820238Y-8652381D01*
X3421429Y-4115476D02*
X3411905Y-4120238D01*
X3392857Y-4120238D01*
X3383333Y-4115476D01*
X3378571Y-4110714D01*
X3373809Y-4101190D01*
X3373809Y-4072619D01*
X3378571Y-4063095D01*
X3383333Y-4058333D01*
X3392857Y-4053571D01*
X3411905Y-4053571D01*
X3421429Y-4058333D01*
X3450000Y-4053571D02*
X3488095Y-4053571D01*
X3464286Y-4120238D02*
X3464286Y-4034524D01*
X3469048Y-4025000D01*
X3478571Y-4020238D01*
X3488095Y-4020238D01*
X3535714Y-4120238D02*
X3526190Y-4115476D01*
X3521429Y-4105952D01*
X3521429Y-4020238D01*
X3626191Y-4120238D02*
X3569048Y-4120238D01*
X3597619Y-4120238D02*
X3597619Y-4020238D01*
X3588095Y-4034524D01*
X3578571Y-4044048D01*
X3569048Y-4048809D01*
X4565476Y-3578571D02*
X4570238Y-3588095D01*
X4570238Y-3607143D01*
X4565476Y-3616667D01*
X4560714Y-3621429D01*
X4551191Y-3626190D01*
X4522619Y-3626190D01*
X4513095Y-3621429D01*
X4508333Y-3616667D01*
X4503571Y-3607143D01*
X4503571Y-3588095D01*
X4508333Y-3578571D01*
X4503571Y-3550000D02*
X4503571Y-3511905D01*
X4570238Y-3535714D02*
X4484524Y-3535714D01*
X4475000Y-3530952D01*
X4470238Y-3521429D01*
X4470238Y-3511905D01*
X4570238Y-3464286D02*
X4565476Y-3473809D01*
X4555952Y-3478571D01*
X4470238Y-3478571D01*
X4479762Y-3430952D02*
X4475000Y-3426190D01*
X4470238Y-3416667D01*
X4470238Y-3392857D01*
X4475000Y-3383333D01*
X4479762Y-3378571D01*
X4489286Y-3373809D01*
X4498810Y-3373809D01*
X4513095Y-3378571D01*
X4570238Y-3435714D01*
X4570238Y-3373809D01*
X8716667Y-4565476D02*
X8707143Y-4570238D01*
X8688095Y-4570238D01*
X8678571Y-4565476D01*
X8673810Y-4560714D01*
X8669048Y-4551191D01*
X8669048Y-4522619D01*
X8673810Y-4513095D01*
X8678571Y-4508333D01*
X8688095Y-4503571D01*
X8707143Y-4503571D01*
X8716667Y-4508333D01*
X8745238Y-4503571D02*
X8783333Y-4503571D01*
X8759524Y-4570238D02*
X8759524Y-4484524D01*
X8764286Y-4475000D01*
X8773810Y-4470238D01*
X8783333Y-4470238D01*
X8816667Y-4570238D02*
X8816667Y-4503571D01*
X8816667Y-4522619D02*
X8821429Y-4513095D01*
X8826191Y-4508333D01*
X8835714Y-4503571D01*
X8845238Y-4503571D01*
X8930953Y-4570238D02*
X8873810Y-4570238D01*
X8902381Y-4570238D02*
X8902381Y-4470238D01*
X8892857Y-4484524D01*
X8883333Y-4494048D01*
X8873810Y-4498810D01*
X8365476Y-3583333D02*
X8370238Y-3592857D01*
X8370238Y-3611905D01*
X8365476Y-3621429D01*
X8360714Y-3626190D01*
X8351190Y-3630952D01*
X8322619Y-3630952D01*
X8313095Y-3626190D01*
X8308333Y-3621429D01*
X8303571Y-3611905D01*
X8303571Y-3592857D01*
X8308333Y-3583333D01*
X8303571Y-3554762D02*
X8303571Y-3516667D01*
X8370238Y-3540476D02*
X8284524Y-3540476D01*
X8275000Y-3535714D01*
X8270238Y-3526190D01*
X8270238Y-3516667D01*
X8370238Y-3483333D02*
X8303571Y-3483333D01*
X8322619Y-3483333D02*
X8313095Y-3478571D01*
X8308333Y-3473809D01*
X8303571Y-3464286D01*
X8303571Y-3454762D01*
X8279762Y-3426190D02*
X8275000Y-3421428D01*
X8270238Y-3411905D01*
X8270238Y-3388095D01*
X8275000Y-3378571D01*
X8279762Y-3373809D01*
X8289286Y-3369047D01*
X8298809Y-3369047D01*
X8313095Y-3373809D01*
X8370238Y-3430952D01*
X8370238Y-3369047D01*
X3535738Y-8644919D02*
X3435738Y-8644919D01*
X3530976Y-8644919D02*
X3535738Y-8654443D01*
X3535738Y-8673491D01*
X3530976Y-8683014D01*
X3526214Y-8687776D01*
X3516690Y-8692538D01*
X3488119Y-8692538D01*
X3478595Y-8687776D01*
X3473833Y-8683014D01*
X3469071Y-8673491D01*
X3469071Y-8654443D01*
X3473833Y-8644919D01*
X3535738Y-8597300D02*
X3435738Y-8597300D01*
X3473833Y-8597300D02*
X3469071Y-8587776D01*
X3469071Y-8568729D01*
X3473833Y-8559205D01*
X3478595Y-8554443D01*
X3488119Y-8549681D01*
X3516690Y-8549681D01*
X3526214Y-8554443D01*
X3530976Y-8559205D01*
X3535738Y-8568729D01*
X3535738Y-8587776D01*
X3530976Y-8597300D01*
X3535738Y-8492538D02*
X3530976Y-8502062D01*
X3521452Y-8506824D01*
X3435738Y-8506824D01*
X3535738Y-8402062D02*
X3535738Y-8459205D01*
X3535738Y-8430633D02*
X3435738Y-8430633D01*
X3450024Y-8440157D01*
X3459548Y-8449681D01*
X3464309Y-8459205D01*
X3705081Y-9235738D02*
X3705081Y-9135738D01*
X3705081Y-9230976D02*
X3695557Y-9235738D01*
X3676509Y-9235738D01*
X3666986Y-9230976D01*
X3662224Y-9226214D01*
X3657462Y-9216691D01*
X3657462Y-9188119D01*
X3662224Y-9178595D01*
X3666986Y-9173833D01*
X3676509Y-9169071D01*
X3695557Y-9169071D01*
X3705081Y-9173833D01*
X3752700Y-9235738D02*
X3752700Y-9135738D01*
X3752700Y-9173833D02*
X3762224Y-9169071D01*
X3781271Y-9169071D01*
X3790795Y-9173833D01*
X3795557Y-9178595D01*
X3800319Y-9188119D01*
X3800319Y-9216691D01*
X3795557Y-9226214D01*
X3790795Y-9230976D01*
X3781271Y-9235738D01*
X3762224Y-9235738D01*
X3752700Y-9230976D01*
X3857462Y-9235738D02*
X3847938Y-9230976D01*
X3843176Y-9221452D01*
X3843176Y-9135738D01*
X3890795Y-9145262D02*
X3895557Y-9140500D01*
X3905081Y-9135738D01*
X3928891Y-9135738D01*
X3938414Y-9140500D01*
X3943176Y-9145262D01*
X3947938Y-9154786D01*
X3947938Y-9164310D01*
X3943176Y-9178595D01*
X3886033Y-9235738D01*
X3947938Y-9235738D01*
X9235738Y-8579681D02*
X9135738Y-8579681D01*
X9230976Y-8579681D02*
X9235738Y-8589205D01*
X9235738Y-8608252D01*
X9230976Y-8617776D01*
X9226214Y-8622538D01*
X9216691Y-8627300D01*
X9188119Y-8627300D01*
X9178595Y-8622538D01*
X9173833Y-8617776D01*
X9169071Y-8608252D01*
X9169071Y-8589205D01*
X9173833Y-8579681D01*
X9235738Y-8532062D02*
X9135738Y-8532062D01*
X9173833Y-8532062D02*
X9169071Y-8522538D01*
X9169071Y-8503490D01*
X9173833Y-8493967D01*
X9178595Y-8489205D01*
X9188119Y-8484443D01*
X9216691Y-8484443D01*
X9226214Y-8489205D01*
X9230976Y-8493967D01*
X9235738Y-8503490D01*
X9235738Y-8522538D01*
X9230976Y-8532062D01*
X9235738Y-8441586D02*
X9169071Y-8441586D01*
X9188119Y-8441586D02*
X9178595Y-8436824D01*
X9173833Y-8432062D01*
X9169071Y-8422538D01*
X9169071Y-8413014D01*
X9235738Y-8327300D02*
X9235738Y-8384443D01*
X9235738Y-8355871D02*
X9135738Y-8355871D01*
X9150024Y-8365395D01*
X9159548Y-8374919D01*
X9164310Y-8384443D01*
X8444919Y-8854738D02*
X8444919Y-8754738D01*
X8444919Y-8849976D02*
X8435395Y-8854738D01*
X8416348Y-8854738D01*
X8406824Y-8849976D01*
X8402062Y-8845214D01*
X8397300Y-8835691D01*
X8397300Y-8807119D01*
X8402062Y-8797595D01*
X8406824Y-8792833D01*
X8416348Y-8788071D01*
X8435395Y-8788071D01*
X8444919Y-8792833D01*
X8492538Y-8854738D02*
X8492538Y-8754738D01*
X8492538Y-8792833D02*
X8502062Y-8788071D01*
X8521110Y-8788071D01*
X8530633Y-8792833D01*
X8535395Y-8797595D01*
X8540157Y-8807119D01*
X8540157Y-8835691D01*
X8535395Y-8845214D01*
X8530633Y-8849976D01*
X8521110Y-8854738D01*
X8502062Y-8854738D01*
X8492538Y-8849976D01*
X8583014Y-8854738D02*
X8583014Y-8788071D01*
X8583014Y-8807119D02*
X8587776Y-8797595D01*
X8592538Y-8792833D01*
X8602062Y-8788071D01*
X8611586Y-8788071D01*
X8640157Y-8764262D02*
X8644919Y-8759500D01*
X8654443Y-8754738D01*
X8678253Y-8754738D01*
X8687776Y-8759500D01*
X8692538Y-8764262D01*
X8697300Y-8773786D01*
X8697300Y-8783310D01*
X8692538Y-8797595D01*
X8635395Y-8854738D01*
X8697300Y-8854738D01*
X3154738Y-3893652D02*
X3054738Y-3893652D01*
X3149976Y-3893652D02*
X3154738Y-3903176D01*
X3154738Y-3922224D01*
X3149976Y-3931748D01*
X3145214Y-3936510D01*
X3135690Y-3941271D01*
X3107119Y-3941271D01*
X3097595Y-3936510D01*
X3092833Y-3931748D01*
X3088071Y-3922224D01*
X3088071Y-3903176D01*
X3092833Y-3893652D01*
X3088071Y-3860319D02*
X3088071Y-3822224D01*
X3154738Y-3846033D02*
X3069024Y-3846033D01*
X3059500Y-3841271D01*
X3054738Y-3831748D01*
X3054738Y-3822224D01*
X3154738Y-3774605D02*
X3149976Y-3784129D01*
X3140452Y-3788890D01*
X3054738Y-3788890D01*
X3154738Y-3684128D02*
X3154738Y-3741271D01*
X3154738Y-3712700D02*
X3054738Y-3712700D01*
X3069024Y-3722224D01*
X3078548Y-3731748D01*
X3083309Y-3741271D01*
X3731748Y-3535738D02*
X3731748Y-3435738D01*
X3731748Y-3530976D02*
X3722224Y-3535738D01*
X3703176Y-3535738D01*
X3693652Y-3530976D01*
X3688890Y-3526214D01*
X3684128Y-3516690D01*
X3684128Y-3488119D01*
X3688890Y-3478595D01*
X3693652Y-3473833D01*
X3703176Y-3469071D01*
X3722224Y-3469071D01*
X3731748Y-3473833D01*
X3765081Y-3469071D02*
X3803176Y-3469071D01*
X3779367Y-3535738D02*
X3779367Y-3450024D01*
X3784128Y-3440500D01*
X3793652Y-3435738D01*
X3803176Y-3435738D01*
X3850795Y-3535738D02*
X3841271Y-3530976D01*
X3836509Y-3521452D01*
X3836509Y-3435738D01*
X3884129Y-3445262D02*
X3888890Y-3440500D01*
X3898414Y-3435738D01*
X3922224Y-3435738D01*
X3931748Y-3440500D01*
X3936510Y-3445262D01*
X3941271Y-3454786D01*
X3941271Y-3464309D01*
X3936510Y-3478595D01*
X3879367Y-3535738D01*
X3941271Y-3535738D01*
X8854738Y-3838414D02*
X8754738Y-3838414D01*
X8849976Y-3838414D02*
X8854738Y-3847938D01*
X8854738Y-3866986D01*
X8849976Y-3876510D01*
X8845214Y-3881271D01*
X8835691Y-3886033D01*
X8807119Y-3886033D01*
X8797595Y-3881271D01*
X8792833Y-3876510D01*
X8788071Y-3866986D01*
X8788071Y-3847938D01*
X8792833Y-3838414D01*
X8788071Y-3805081D02*
X8788071Y-3766986D01*
X8854738Y-3790795D02*
X8769024Y-3790795D01*
X8759500Y-3786033D01*
X8754738Y-3776510D01*
X8754738Y-3766986D01*
X8854738Y-3733652D02*
X8788071Y-3733652D01*
X8807119Y-3733652D02*
X8797595Y-3728890D01*
X8792833Y-3724129D01*
X8788071Y-3714605D01*
X8788071Y-3705081D01*
X8854738Y-3619367D02*
X8854738Y-3676509D01*
X8854738Y-3647938D02*
X8754738Y-3647938D01*
X8769024Y-3657462D01*
X8778548Y-3666986D01*
X8783310Y-3676509D01*
X8461586Y-3154738D02*
X8461586Y-3054738D01*
X8461586Y-3149976D02*
X8452062Y-3154738D01*
X8433014Y-3154738D01*
X8423490Y-3149976D01*
X8418729Y-3145214D01*
X8413967Y-3135690D01*
X8413967Y-3107119D01*
X8418729Y-3097595D01*
X8423490Y-3092833D01*
X8433014Y-3088071D01*
X8452062Y-3088071D01*
X8461586Y-3092833D01*
X8494919Y-3088071D02*
X8533014Y-3088071D01*
X8509205Y-3154738D02*
X8509205Y-3069024D01*
X8513967Y-3059500D01*
X8523490Y-3054738D01*
X8533014Y-3054738D01*
X8566348Y-3154738D02*
X8566348Y-3088071D01*
X8566348Y-3107119D02*
X8571110Y-3097595D01*
X8575871Y-3092833D01*
X8585395Y-3088071D01*
X8594919Y-3088071D01*
X8623491Y-3064262D02*
X8628252Y-3059500D01*
X8637776Y-3054738D01*
X8661586Y-3054738D01*
X8671110Y-3059500D01*
X8675872Y-3064262D01*
X8680633Y-3073786D01*
X8680633Y-3083309D01*
X8675872Y-3097595D01*
X8618729Y-3154738D01*
X8680633Y-3154738D01*
X5389873Y-3844319D02*
X5389873Y-3877653D01*
X5442254Y-3877653D02*
X5342254Y-3877653D01*
X5342254Y-3830034D01*
X5442254Y-3739557D02*
X5442254Y-3796700D01*
X5442254Y-3768129D02*
X5342254Y-3768129D01*
X5356540Y-3777653D01*
X5366064Y-3787176D01*
X5370826Y-3796700D01*
X1212238Y-9634905D02*
X1145571Y-9634905D01*
X1155095Y-9634905D02*
X1150333Y-9630143D01*
X1145571Y-9620619D01*
X1145571Y-9606333D01*
X1150333Y-9596810D01*
X1159857Y-9592048D01*
X1212238Y-9592048D01*
X1159857Y-9592048D02*
X1150333Y-9587286D01*
X1145571Y-9577762D01*
X1145571Y-9563476D01*
X1150333Y-9553952D01*
X1159857Y-9549191D01*
X1212238Y-9549191D01*
X1212238Y-9501572D02*
X1112238Y-9501572D01*
X1150333Y-9501572D02*
X1145571Y-9492048D01*
X1145571Y-9473000D01*
X1150333Y-9463476D01*
X1155095Y-9458714D01*
X1164619Y-9453952D01*
X1193191Y-9453952D01*
X1202714Y-9458714D01*
X1207476Y-9463476D01*
X1212238Y-9473000D01*
X1212238Y-9492048D01*
X1207476Y-9501572D01*
X1212238Y-9396810D02*
X1207476Y-9406333D01*
X1197952Y-9411095D01*
X1112238Y-9411095D01*
X1212238Y-9306333D02*
X1212238Y-9363476D01*
X1212238Y-9334905D02*
X1112238Y-9334905D01*
X1126524Y-9344429D01*
X1136048Y-9353952D01*
X1140810Y-9363476D01*
X2665095Y-10712238D02*
X2665095Y-10645571D01*
X2665095Y-10655095D02*
X2669857Y-10650333D01*
X2679381Y-10645571D01*
X2693667Y-10645571D01*
X2703191Y-10650333D01*
X2707952Y-10659857D01*
X2707952Y-10712238D01*
X2707952Y-10659857D02*
X2712714Y-10650333D01*
X2722238Y-10645571D01*
X2736524Y-10645571D01*
X2746048Y-10650333D01*
X2750810Y-10659857D01*
X2750810Y-10712238D01*
X2798428Y-10712238D02*
X2798428Y-10612238D01*
X2798428Y-10650333D02*
X2807952Y-10645571D01*
X2827000Y-10645571D01*
X2836524Y-10650333D01*
X2841286Y-10655095D01*
X2846048Y-10664619D01*
X2846048Y-10693191D01*
X2841286Y-10702714D01*
X2836524Y-10707476D01*
X2827000Y-10712238D01*
X2807952Y-10712238D01*
X2798428Y-10707476D01*
X2903190Y-10712238D02*
X2893667Y-10707476D01*
X2888905Y-10697952D01*
X2888905Y-10612238D01*
X2936524Y-10621762D02*
X2941286Y-10617000D01*
X2950809Y-10612238D01*
X2974619Y-10612238D01*
X2984143Y-10617000D01*
X2988905Y-10621762D01*
X2993667Y-10631286D01*
X2993667Y-10640810D01*
X2988905Y-10655095D01*
X2931762Y-10712238D01*
X2993667Y-10712238D01*
X10712238Y-9639667D02*
X10645571Y-9639667D01*
X10655095Y-9639667D02*
X10650333Y-9634905D01*
X10645571Y-9625381D01*
X10645571Y-9611095D01*
X10650333Y-9601571D01*
X10659857Y-9596810D01*
X10712238Y-9596810D01*
X10659857Y-9596810D02*
X10650333Y-9592048D01*
X10645571Y-9582524D01*
X10645571Y-9568238D01*
X10650333Y-9558714D01*
X10659857Y-9553952D01*
X10712238Y-9553952D01*
X10712238Y-9506333D02*
X10612238Y-9506333D01*
X10650333Y-9506333D02*
X10645571Y-9496810D01*
X10645571Y-9477762D01*
X10650333Y-9468238D01*
X10655095Y-9463476D01*
X10664619Y-9458714D01*
X10693191Y-9458714D01*
X10702714Y-9463476D01*
X10707476Y-9468238D01*
X10712238Y-9477762D01*
X10712238Y-9496810D01*
X10707476Y-9506333D01*
X10712238Y-9415857D02*
X10645571Y-9415857D01*
X10664619Y-9415857D02*
X10655095Y-9411095D01*
X10650333Y-9406333D01*
X10645571Y-9396810D01*
X10645571Y-9387286D01*
X10712238Y-9301571D02*
X10712238Y-9358714D01*
X10712238Y-9330143D02*
X10612238Y-9330143D01*
X10626524Y-9339667D01*
X10636048Y-9349191D01*
X10640810Y-9358714D01*
X9306333Y-11178238D02*
X9306333Y-11111571D01*
X9306333Y-11121095D02*
X9311095Y-11116333D01*
X9320619Y-11111571D01*
X9334905Y-11111571D01*
X9344429Y-11116333D01*
X9349191Y-11125857D01*
X9349191Y-11178238D01*
X9349191Y-11125857D02*
X9353952Y-11116333D01*
X9363476Y-11111571D01*
X9377762Y-11111571D01*
X9387286Y-11116333D01*
X9392048Y-11125857D01*
X9392048Y-11178238D01*
X9439667Y-11178238D02*
X9439667Y-11078238D01*
X9439667Y-11116333D02*
X9449190Y-11111571D01*
X9468238Y-11111571D01*
X9477762Y-11116333D01*
X9482524Y-11121095D01*
X9487286Y-11130619D01*
X9487286Y-11159191D01*
X9482524Y-11168714D01*
X9477762Y-11173476D01*
X9468238Y-11178238D01*
X9449190Y-11178238D01*
X9439667Y-11173476D01*
X9530143Y-11178238D02*
X9530143Y-11111571D01*
X9530143Y-11130619D02*
X9534905Y-11121095D01*
X9539667Y-11116333D01*
X9549190Y-11111571D01*
X9558714Y-11111571D01*
X9587286Y-11087762D02*
X9592048Y-11083000D01*
X9601571Y-11078238D01*
X9625381Y-11078238D01*
X9634905Y-11083000D01*
X9639667Y-11087762D01*
X9644429Y-11097286D01*
X9644429Y-11106810D01*
X9639667Y-11121095D01*
X9582524Y-11178238D01*
X9644429Y-11178238D01*
X1678238Y-2972238D02*
X1611571Y-2972238D01*
X1621095Y-2972238D02*
X1616333Y-2967476D01*
X1611571Y-2957952D01*
X1611571Y-2943667D01*
X1616333Y-2934143D01*
X1625857Y-2929381D01*
X1678238Y-2929381D01*
X1625857Y-2929381D02*
X1616333Y-2924619D01*
X1611571Y-2915095D01*
X1611571Y-2900809D01*
X1616333Y-2891286D01*
X1625857Y-2886524D01*
X1678238Y-2886524D01*
X1611571Y-2853190D02*
X1611571Y-2815095D01*
X1678238Y-2838905D02*
X1592524Y-2838905D01*
X1583000Y-2834143D01*
X1578238Y-2824619D01*
X1578238Y-2815095D01*
X1678238Y-2767476D02*
X1673476Y-2777000D01*
X1663952Y-2781762D01*
X1578238Y-2781762D01*
X1678238Y-2677000D02*
X1678238Y-2734143D01*
X1678238Y-2705571D02*
X1578238Y-2705571D01*
X1592524Y-2715095D01*
X1602048Y-2724619D01*
X1606809Y-2734143D01*
X2681762Y-1212238D02*
X2681762Y-1145571D01*
X2681762Y-1155095D02*
X2686524Y-1150333D01*
X2696048Y-1145571D01*
X2710333Y-1145571D01*
X2719857Y-1150333D01*
X2724619Y-1159857D01*
X2724619Y-1212238D01*
X2724619Y-1159857D02*
X2729381Y-1150333D01*
X2738905Y-1145571D01*
X2753191Y-1145571D01*
X2762714Y-1150333D01*
X2767476Y-1159857D01*
X2767476Y-1212238D01*
X2800809Y-1145571D02*
X2838905Y-1145571D01*
X2815095Y-1212238D02*
X2815095Y-1126524D01*
X2819857Y-1117000D01*
X2829381Y-1112238D01*
X2838905Y-1112238D01*
X2886524Y-1212238D02*
X2877000Y-1207476D01*
X2872238Y-1197952D01*
X2872238Y-1112238D01*
X2919857Y-1121762D02*
X2924619Y-1117000D01*
X2934143Y-1112238D01*
X2957952Y-1112238D01*
X2967476Y-1117000D01*
X2972238Y-1121762D01*
X2977000Y-1131286D01*
X2977000Y-1140810D01*
X2972238Y-1155095D01*
X2915095Y-1212238D01*
X2977000Y-1212238D01*
X11178238Y-2977000D02*
X11111571Y-2977000D01*
X11121095Y-2977000D02*
X11116333Y-2972238D01*
X11111571Y-2962714D01*
X11111571Y-2948428D01*
X11116333Y-2938905D01*
X11125857Y-2934143D01*
X11178238Y-2934143D01*
X11125857Y-2934143D02*
X11116333Y-2929381D01*
X11111571Y-2919857D01*
X11111571Y-2905571D01*
X11116333Y-2896048D01*
X11125857Y-2891286D01*
X11178238Y-2891286D01*
X11111571Y-2857952D02*
X11111571Y-2819857D01*
X11178238Y-2843667D02*
X11092524Y-2843667D01*
X11083000Y-2838905D01*
X11078238Y-2829381D01*
X11078238Y-2819857D01*
X11178238Y-2786524D02*
X11111571Y-2786524D01*
X11130619Y-2786524D02*
X11121095Y-2781762D01*
X11116333Y-2777000D01*
X11111571Y-2767476D01*
X11111571Y-2757952D01*
X11178238Y-2672238D02*
X11178238Y-2729381D01*
X11178238Y-2700810D02*
X11078238Y-2700810D01*
X11092524Y-2710333D01*
X11102048Y-2719857D01*
X11106810Y-2729381D01*
X9323000Y-1678238D02*
X9323000Y-1611571D01*
X9323000Y-1621095D02*
X9327762Y-1616333D01*
X9337286Y-1611571D01*
X9351572Y-1611571D01*
X9361095Y-1616333D01*
X9365857Y-1625857D01*
X9365857Y-1678238D01*
X9365857Y-1625857D02*
X9370619Y-1616333D01*
X9380143Y-1611571D01*
X9394429Y-1611571D01*
X9403952Y-1616333D01*
X9408714Y-1625857D01*
X9408714Y-1678238D01*
X9442048Y-1611571D02*
X9480143Y-1611571D01*
X9456333Y-1678238D02*
X9456333Y-1592524D01*
X9461095Y-1583000D01*
X9470619Y-1578238D01*
X9480143Y-1578238D01*
X9513476Y-1678238D02*
X9513476Y-1611571D01*
X9513476Y-1630619D02*
X9518238Y-1621095D01*
X9523000Y-1616333D01*
X9532524Y-1611571D01*
X9542048Y-1611571D01*
X9570619Y-1587762D02*
X9575381Y-1583000D01*
X9584905Y-1578238D01*
X9608714Y-1578238D01*
X9618238Y-1583000D01*
X9623000Y-1587762D01*
X9627762Y-1597286D01*
X9627762Y-1606809D01*
X9623000Y-1621095D01*
X9565857Y-1678238D01*
X9627762Y-1678238D01*
X5726190Y-4558238D02*
X5726190Y-4458238D01*
X5764286Y-4458238D01*
X5773810Y-4463000D01*
X5778571Y-4467762D01*
X5783333Y-4477286D01*
X5783333Y-4491571D01*
X5778571Y-4501095D01*
X5773810Y-4505857D01*
X5764286Y-4510619D01*
X5726190Y-4510619D01*
X5816667Y-4458238D02*
X5878571Y-4458238D01*
X5845238Y-4496333D01*
X5859524Y-4496333D01*
X5869048Y-4501095D01*
X5873810Y-4505857D01*
X5878571Y-4515381D01*
X5878571Y-4539191D01*
X5873810Y-4548714D01*
X5869048Y-4553476D01*
X5859524Y-4558238D01*
X5830952Y-4558238D01*
X5821429Y-4553476D01*
X5816667Y-4548714D01*
X3452381Y-7578571D02*
X3452381Y-7678571D01*
X3452381Y-7640476D02*
X3442857Y-7645238D01*
X3423809Y-7645238D01*
X3414286Y-7640476D01*
X3409524Y-7635714D01*
X3404762Y-7626190D01*
X3404762Y-7597619D01*
X3409524Y-7588095D01*
X3414286Y-7583333D01*
X3423809Y-7578571D01*
X3442857Y-7578571D01*
X3452381Y-7583333D01*
X3500000Y-7645238D02*
X3500000Y-7545238D01*
X3500000Y-7583333D02*
X3509524Y-7578571D01*
X3528571Y-7578571D01*
X3538095Y-7583333D01*
X3542857Y-7588095D01*
X3547619Y-7597619D01*
X3547619Y-7626190D01*
X3542857Y-7635714D01*
X3538095Y-7640476D01*
X3528571Y-7645238D01*
X3509524Y-7645238D01*
X3500000Y-7640476D01*
X3604762Y-7645238D02*
X3595238Y-7640476D01*
X3590476Y-7630952D01*
X3590476Y-7545238D01*
X3695238Y-7645238D02*
X3638095Y-7645238D01*
X3666667Y-7645238D02*
X3666667Y-7545238D01*
X3657143Y-7559524D01*
X3647619Y-7569048D01*
X3638095Y-7573809D01*
X5273571Y-8947619D02*
X5373571Y-8947619D01*
X5335476Y-8947619D02*
X5340238Y-8957143D01*
X5340238Y-8976191D01*
X5335476Y-8985714D01*
X5330714Y-8990476D01*
X5321191Y-8995238D01*
X5292619Y-8995238D01*
X5283095Y-8990476D01*
X5278333Y-8985714D01*
X5273571Y-8976191D01*
X5273571Y-8957143D01*
X5278333Y-8947619D01*
X5340238Y-8900000D02*
X5240238Y-8900000D01*
X5278333Y-8900000D02*
X5273571Y-8890476D01*
X5273571Y-8871429D01*
X5278333Y-8861905D01*
X5283095Y-8857143D01*
X5292619Y-8852381D01*
X5321191Y-8852381D01*
X5330714Y-8857143D01*
X5335476Y-8861905D01*
X5340238Y-8871429D01*
X5340238Y-8890476D01*
X5335476Y-8900000D01*
X5340238Y-8795238D02*
X5335476Y-8804762D01*
X5325952Y-8809524D01*
X5240238Y-8809524D01*
X5249762Y-8761905D02*
X5245000Y-8757143D01*
X5240238Y-8747619D01*
X5240238Y-8723809D01*
X5245000Y-8714286D01*
X5249762Y-8709524D01*
X5259286Y-8704762D01*
X5268810Y-8704762D01*
X5283095Y-8709524D01*
X5340238Y-8766667D01*
X5340238Y-8704762D01*
X8797619Y-7133571D02*
X8797619Y-7233571D01*
X8797619Y-7195476D02*
X8788095Y-7200238D01*
X8769048Y-7200238D01*
X8759524Y-7195476D01*
X8754762Y-7190714D01*
X8750000Y-7181190D01*
X8750000Y-7152619D01*
X8754762Y-7143095D01*
X8759524Y-7138333D01*
X8769048Y-7133571D01*
X8788095Y-7133571D01*
X8797619Y-7138333D01*
X8845238Y-7200238D02*
X8845238Y-7100238D01*
X8845238Y-7138333D02*
X8854762Y-7133571D01*
X8873810Y-7133571D01*
X8883333Y-7138333D01*
X8888095Y-7143095D01*
X8892857Y-7152619D01*
X8892857Y-7181190D01*
X8888095Y-7190714D01*
X8883333Y-7195476D01*
X8873810Y-7200238D01*
X8854762Y-7200238D01*
X8845238Y-7195476D01*
X8935714Y-7200238D02*
X8935714Y-7133571D01*
X8935714Y-7152619D02*
X8940476Y-7143095D01*
X8945238Y-7138333D01*
X8954762Y-7133571D01*
X8964286Y-7133571D01*
X9050000Y-7200238D02*
X8992857Y-7200238D01*
X9021429Y-7200238D02*
X9021429Y-7100238D01*
X9011905Y-7114524D01*
X9002381Y-7124048D01*
X8992857Y-7128809D01*
X7323571Y-8852381D02*
X7423571Y-8852381D01*
X7385476Y-8852381D02*
X7390238Y-8861905D01*
X7390238Y-8880952D01*
X7385476Y-8890476D01*
X7380714Y-8895238D01*
X7371190Y-8900000D01*
X7342619Y-8900000D01*
X7333095Y-8895238D01*
X7328333Y-8890476D01*
X7323571Y-8880952D01*
X7323571Y-8861905D01*
X7328333Y-8852381D01*
X7390238Y-8804762D02*
X7290238Y-8804762D01*
X7328333Y-8804762D02*
X7323571Y-8795238D01*
X7323571Y-8776190D01*
X7328333Y-8766667D01*
X7333095Y-8761905D01*
X7342619Y-8757143D01*
X7371190Y-8757143D01*
X7380714Y-8761905D01*
X7385476Y-8766667D01*
X7390238Y-8776190D01*
X7390238Y-8795238D01*
X7385476Y-8804762D01*
X7390238Y-8714286D02*
X7323571Y-8714286D01*
X7342619Y-8714286D02*
X7333095Y-8709524D01*
X7328333Y-8704762D01*
X7323571Y-8695238D01*
X7323571Y-8685714D01*
X7299762Y-8657143D02*
X7295000Y-8652381D01*
X7290238Y-8642857D01*
X7290238Y-8619048D01*
X7295000Y-8609524D01*
X7299762Y-8604762D01*
X7309286Y-8600000D01*
X7318809Y-8600000D01*
X7333095Y-8604762D01*
X7390238Y-8661905D01*
X7390238Y-8600000D01*
X3419048Y-5173571D02*
X3419048Y-5273571D01*
X3419048Y-5235476D02*
X3409524Y-5240238D01*
X3390476Y-5240238D01*
X3380952Y-5235476D01*
X3376190Y-5230714D01*
X3371428Y-5221191D01*
X3371428Y-5192619D01*
X3376190Y-5183095D01*
X3380952Y-5178333D01*
X3390476Y-5173571D01*
X3409524Y-5173571D01*
X3419048Y-5178333D01*
X3452381Y-5173571D02*
X3490476Y-5173571D01*
X3466667Y-5240238D02*
X3466667Y-5154524D01*
X3471428Y-5145000D01*
X3480952Y-5140238D01*
X3490476Y-5140238D01*
X3538095Y-5240238D02*
X3528571Y-5235476D01*
X3523809Y-5225952D01*
X3523809Y-5140238D01*
X3628571Y-5240238D02*
X3571429Y-5240238D01*
X3600000Y-5240238D02*
X3600000Y-5140238D01*
X3590476Y-5154524D01*
X3580952Y-5164048D01*
X3571429Y-5168810D01*
X4733571Y-3730952D02*
X4833571Y-3730952D01*
X4795476Y-3730952D02*
X4800238Y-3740476D01*
X4800238Y-3759524D01*
X4795476Y-3769048D01*
X4790714Y-3773810D01*
X4781191Y-3778571D01*
X4752619Y-3778571D01*
X4743095Y-3773810D01*
X4738333Y-3769048D01*
X4733571Y-3759524D01*
X4733571Y-3740476D01*
X4738333Y-3730952D01*
X4733571Y-3697619D02*
X4733571Y-3659524D01*
X4800238Y-3683333D02*
X4714524Y-3683333D01*
X4705000Y-3678571D01*
X4700238Y-3669048D01*
X4700238Y-3659524D01*
X4800238Y-3611905D02*
X4795476Y-3621429D01*
X4785952Y-3626190D01*
X4700238Y-3626190D01*
X4709762Y-3578571D02*
X4705000Y-3573809D01*
X4700238Y-3564286D01*
X4700238Y-3540476D01*
X4705000Y-3530952D01*
X4709762Y-3526190D01*
X4719286Y-3521428D01*
X4728810Y-3521428D01*
X4743095Y-3526190D01*
X4800238Y-3583333D01*
X4800238Y-3521428D01*
X8664286Y-4723571D02*
X8664286Y-4823571D01*
X8664286Y-4785476D02*
X8654762Y-4790238D01*
X8635714Y-4790238D01*
X8626190Y-4785476D01*
X8621429Y-4780714D01*
X8616667Y-4771191D01*
X8616667Y-4742619D01*
X8621429Y-4733095D01*
X8626190Y-4728333D01*
X8635714Y-4723571D01*
X8654762Y-4723571D01*
X8664286Y-4728333D01*
X8697619Y-4723571D02*
X8735714Y-4723571D01*
X8711905Y-4790238D02*
X8711905Y-4704524D01*
X8716667Y-4695000D01*
X8726190Y-4690238D01*
X8735714Y-4690238D01*
X8769048Y-4790238D02*
X8769048Y-4723571D01*
X8769048Y-4742619D02*
X8773810Y-4733095D01*
X8778571Y-4728333D01*
X8788095Y-4723571D01*
X8797619Y-4723571D01*
X8883333Y-4790238D02*
X8826191Y-4790238D01*
X8854762Y-4790238D02*
X8854762Y-4690238D01*
X8845238Y-4704524D01*
X8835714Y-4714048D01*
X8826191Y-4718810D01*
X7178571Y-3535714D02*
X7278571Y-3535714D01*
X7240476Y-3535714D02*
X7245238Y-3545238D01*
X7245238Y-3564286D01*
X7240476Y-3573810D01*
X7235714Y-3578571D01*
X7226190Y-3583333D01*
X7197619Y-3583333D01*
X7188095Y-3578571D01*
X7183333Y-3573810D01*
X7178571Y-3564286D01*
X7178571Y-3545238D01*
X7183333Y-3535714D01*
X7178571Y-3502381D02*
X7178571Y-3464286D01*
X7245238Y-3488095D02*
X7159524Y-3488095D01*
X7150000Y-3483333D01*
X7145238Y-3473810D01*
X7145238Y-3464286D01*
X7245238Y-3430952D02*
X7178571Y-3430952D01*
X7197619Y-3430952D02*
X7188095Y-3426190D01*
X7183333Y-3421429D01*
X7178571Y-3411905D01*
X7178571Y-3402381D01*
X7154762Y-3373809D02*
X7150000Y-3369048D01*
X7145238Y-3359524D01*
X7145238Y-3335714D01*
X7150000Y-3326190D01*
X7154762Y-3321428D01*
X7164286Y-3316667D01*
X7173809Y-3316667D01*
X7188095Y-3321428D01*
X7245238Y-3378571D01*
X7245238Y-3316667D01*
X5126190Y-7160238D02*
X5126190Y-7093571D01*
X5126190Y-7112619D02*
X5130952Y-7103095D01*
X5135714Y-7098333D01*
X5145238Y-7093571D01*
X5154762Y-7093571D01*
X5240476Y-7160238D02*
X5183333Y-7160238D01*
X5211905Y-7160238D02*
X5211905Y-7060238D01*
X5202381Y-7074524D01*
X5192857Y-7084048D01*
X5183333Y-7088809D01*
X5283333Y-7160238D02*
X5283333Y-7060238D01*
X5283333Y-7098333D02*
X5292857Y-7093571D01*
X5311905Y-7093571D01*
X5321429Y-7098333D01*
X5326191Y-7103095D01*
X5330952Y-7112619D01*
X5330952Y-7141190D01*
X5326191Y-7150714D01*
X5321429Y-7155476D01*
X5311905Y-7160238D01*
X5292857Y-7160238D01*
X5283333Y-7155476D01*
X5388095Y-7160238D02*
X5378571Y-7155476D01*
X5373810Y-7145952D01*
X5373810Y-7060238D01*
X5478572Y-7160238D02*
X5421429Y-7160238D01*
X5450000Y-7160238D02*
X5450000Y-7060238D01*
X5440476Y-7074524D01*
X5430952Y-7084048D01*
X5421429Y-7088809D01*
X6660238Y-7823810D02*
X6593571Y-7823810D01*
X6612619Y-7823810D02*
X6603095Y-7819048D01*
X6598333Y-7814286D01*
X6593571Y-7804762D01*
X6593571Y-7795238D01*
X6660238Y-7709524D02*
X6660238Y-7766667D01*
X6660238Y-7738095D02*
X6560238Y-7738095D01*
X6574524Y-7747619D01*
X6584048Y-7757143D01*
X6588809Y-7766667D01*
X6660238Y-7666667D02*
X6560238Y-7666667D01*
X6598333Y-7666667D02*
X6593571Y-7657143D01*
X6593571Y-7638095D01*
X6598333Y-7628571D01*
X6603095Y-7623809D01*
X6612619Y-7619048D01*
X6641190Y-7619048D01*
X6650714Y-7623809D01*
X6655476Y-7628571D01*
X6660238Y-7638095D01*
X6660238Y-7657143D01*
X6655476Y-7666667D01*
X6660238Y-7561905D02*
X6655476Y-7571429D01*
X6645952Y-7576190D01*
X6560238Y-7576190D01*
X6569762Y-7528571D02*
X6565000Y-7523809D01*
X6560238Y-7514286D01*
X6560238Y-7490476D01*
X6565000Y-7480952D01*
X6569762Y-7476190D01*
X6579286Y-7471428D01*
X6588809Y-7471428D01*
X6603095Y-7476190D01*
X6660238Y-7533333D01*
X6660238Y-7471428D01*
X7460238Y-7828571D02*
X7393571Y-7828571D01*
X7412619Y-7828571D02*
X7403095Y-7823810D01*
X7398333Y-7819048D01*
X7393571Y-7809524D01*
X7393571Y-7800000D01*
X7460238Y-7714286D02*
X7460238Y-7771429D01*
X7460238Y-7742857D02*
X7360238Y-7742857D01*
X7374524Y-7752381D01*
X7384048Y-7761905D01*
X7388809Y-7771429D01*
X7460238Y-7671429D02*
X7360238Y-7671429D01*
X7398333Y-7671429D02*
X7393571Y-7661905D01*
X7393571Y-7642857D01*
X7398333Y-7633333D01*
X7403095Y-7628571D01*
X7412619Y-7623809D01*
X7441190Y-7623809D01*
X7450714Y-7628571D01*
X7455476Y-7633333D01*
X7460238Y-7642857D01*
X7460238Y-7661905D01*
X7455476Y-7671429D01*
X7460238Y-7580952D02*
X7393571Y-7580952D01*
X7412619Y-7580952D02*
X7403095Y-7576190D01*
X7398333Y-7571429D01*
X7393571Y-7561905D01*
X7393571Y-7552381D01*
X7460238Y-7466667D02*
X7460238Y-7523809D01*
X7460238Y-7495238D02*
X7360238Y-7495238D01*
X7374524Y-7504762D01*
X7384048Y-7514286D01*
X7388809Y-7523809D01*
X7060238Y-7828571D02*
X6993571Y-7828571D01*
X7012619Y-7828571D02*
X7003095Y-7823810D01*
X6998333Y-7819048D01*
X6993571Y-7809524D01*
X6993571Y-7800000D01*
X7060238Y-7714286D02*
X7060238Y-7771429D01*
X7060238Y-7742857D02*
X6960238Y-7742857D01*
X6974524Y-7752381D01*
X6984048Y-7761905D01*
X6988809Y-7771429D01*
X7060238Y-7671429D02*
X6960238Y-7671429D01*
X6998333Y-7671429D02*
X6993571Y-7661905D01*
X6993571Y-7642857D01*
X6998333Y-7633333D01*
X7003095Y-7628571D01*
X7012619Y-7623809D01*
X7041190Y-7623809D01*
X7050714Y-7628571D01*
X7055476Y-7633333D01*
X7060238Y-7642857D01*
X7060238Y-7661905D01*
X7055476Y-7671429D01*
X7060238Y-7580952D02*
X6993571Y-7580952D01*
X7012619Y-7580952D02*
X7003095Y-7576190D01*
X6998333Y-7571429D01*
X6993571Y-7561905D01*
X6993571Y-7552381D01*
X6969762Y-7523809D02*
X6965000Y-7519048D01*
X6960238Y-7509524D01*
X6960238Y-7485714D01*
X6965000Y-7476190D01*
X6969762Y-7471428D01*
X6979286Y-7466667D01*
X6988809Y-7466667D01*
X7003095Y-7471428D01*
X7060238Y-7528571D01*
X7060238Y-7466667D01*
X4642857Y-4810238D02*
X4642857Y-4743571D01*
X4642857Y-4762619D02*
X4647619Y-4753095D01*
X4652381Y-4748333D01*
X4661905Y-4743571D01*
X4671429Y-4743571D01*
X4757143Y-4810238D02*
X4700000Y-4810238D01*
X4728571Y-4810238D02*
X4728571Y-4710238D01*
X4719048Y-4724524D01*
X4709524Y-4734048D01*
X4700000Y-4738810D01*
X4785714Y-4743571D02*
X4823810Y-4743571D01*
X4800000Y-4810238D02*
X4800000Y-4724524D01*
X4804762Y-4715000D01*
X4814286Y-4710238D01*
X4823810Y-4710238D01*
X4871429Y-4810238D02*
X4861905Y-4805476D01*
X4857143Y-4795952D01*
X4857143Y-4710238D01*
X4961905Y-4810238D02*
X4904762Y-4810238D01*
X4933333Y-4810238D02*
X4933333Y-4710238D01*
X4923810Y-4724524D01*
X4914286Y-4734048D01*
X4904762Y-4738810D01*
X4642857Y-4310238D02*
X4642857Y-4243571D01*
X4642857Y-4262619D02*
X4647619Y-4253095D01*
X4652381Y-4248333D01*
X4661905Y-4243571D01*
X4671429Y-4243571D01*
X4757143Y-4310238D02*
X4700000Y-4310238D01*
X4728571Y-4310238D02*
X4728571Y-4210238D01*
X4719048Y-4224524D01*
X4709524Y-4234048D01*
X4700000Y-4238810D01*
X4785714Y-4243571D02*
X4823810Y-4243571D01*
X4800000Y-4310238D02*
X4800000Y-4224524D01*
X4804762Y-4215000D01*
X4814286Y-4210238D01*
X4823810Y-4210238D01*
X4871429Y-4310238D02*
X4861905Y-4305476D01*
X4857143Y-4295952D01*
X4857143Y-4210238D01*
X4904762Y-4219762D02*
X4909524Y-4215000D01*
X4919048Y-4210238D01*
X4942857Y-4210238D01*
X4952381Y-4215000D01*
X4957143Y-4219762D01*
X4961905Y-4229286D01*
X4961905Y-4238810D01*
X4957143Y-4253095D01*
X4900000Y-4310238D01*
X4961905Y-4310238D01*
X7830238Y-4961905D02*
X7763571Y-4961905D01*
X7782619Y-4961905D02*
X7773095Y-4957143D01*
X7768333Y-4952381D01*
X7763571Y-4942857D01*
X7763571Y-4933333D01*
X7830238Y-4847619D02*
X7830238Y-4904762D01*
X7830238Y-4876191D02*
X7730238Y-4876191D01*
X7744524Y-4885714D01*
X7754048Y-4895238D01*
X7758809Y-4904762D01*
X7763571Y-4819048D02*
X7763571Y-4780952D01*
X7830238Y-4804762D02*
X7744524Y-4804762D01*
X7735000Y-4800000D01*
X7730238Y-4790476D01*
X7730238Y-4780952D01*
X7830238Y-4747619D02*
X7763571Y-4747619D01*
X7782619Y-4747619D02*
X7773095Y-4742857D01*
X7768333Y-4738095D01*
X7763571Y-4728571D01*
X7763571Y-4719048D01*
X7830238Y-4633333D02*
X7830238Y-4690476D01*
X7830238Y-4661905D02*
X7730238Y-4661905D01*
X7744524Y-4671429D01*
X7754048Y-4680952D01*
X7758809Y-4690476D01*
X6980238Y-4061905D02*
X6913571Y-4061905D01*
X6932619Y-4061905D02*
X6923095Y-4057143D01*
X6918333Y-4052381D01*
X6913571Y-4042857D01*
X6913571Y-4033333D01*
X6980238Y-3947619D02*
X6980238Y-4004762D01*
X6980238Y-3976190D02*
X6880238Y-3976190D01*
X6894524Y-3985714D01*
X6904048Y-3995238D01*
X6908809Y-4004762D01*
X6913571Y-3919048D02*
X6913571Y-3880952D01*
X6980238Y-3904762D02*
X6894524Y-3904762D01*
X6885000Y-3900000D01*
X6880238Y-3890476D01*
X6880238Y-3880952D01*
X6980238Y-3847619D02*
X6913571Y-3847619D01*
X6932619Y-3847619D02*
X6923095Y-3842857D01*
X6918333Y-3838095D01*
X6913571Y-3828571D01*
X6913571Y-3819047D01*
X6889762Y-3790476D02*
X6885000Y-3785714D01*
X6880238Y-3776190D01*
X6880238Y-3752381D01*
X6885000Y-3742857D01*
X6889762Y-3738095D01*
X6899286Y-3733333D01*
X6908809Y-3733333D01*
X6923095Y-3738095D01*
X6980238Y-3795238D01*
X6980238Y-3733333D01*
X4260238Y-7523810D02*
X4193571Y-7523810D01*
X4212619Y-7523810D02*
X4203095Y-7519048D01*
X4198333Y-7514286D01*
X4193571Y-7504762D01*
X4193571Y-7495238D01*
X4169762Y-7466667D02*
X4165000Y-7461905D01*
X4160238Y-7452381D01*
X4160238Y-7428571D01*
X4165000Y-7419048D01*
X4169762Y-7414286D01*
X4179286Y-7409524D01*
X4188809Y-7409524D01*
X4203095Y-7414286D01*
X4260238Y-7471429D01*
X4260238Y-7409524D01*
X4260238Y-7366667D02*
X4160238Y-7366667D01*
X4198333Y-7366667D02*
X4193571Y-7357143D01*
X4193571Y-7338095D01*
X4198333Y-7328571D01*
X4203095Y-7323809D01*
X4212619Y-7319048D01*
X4241191Y-7319048D01*
X4250714Y-7323809D01*
X4255476Y-7328571D01*
X4260238Y-7338095D01*
X4260238Y-7357143D01*
X4255476Y-7366667D01*
X4260238Y-7261905D02*
X4255476Y-7271429D01*
X4245952Y-7276190D01*
X4160238Y-7276190D01*
X4260238Y-7171428D02*
X4260238Y-7228571D01*
X4260238Y-7200000D02*
X4160238Y-7200000D01*
X4174524Y-7209524D01*
X4184048Y-7219048D01*
X4188809Y-7228571D01*
X4976190Y-8480238D02*
X4976190Y-8413571D01*
X4976190Y-8432619D02*
X4980952Y-8423095D01*
X4985714Y-8418333D01*
X4995238Y-8413571D01*
X5004762Y-8413571D01*
X5033333Y-8389762D02*
X5038095Y-8385000D01*
X5047619Y-8380238D01*
X5071429Y-8380238D01*
X5080952Y-8385000D01*
X5085714Y-8389762D01*
X5090476Y-8399286D01*
X5090476Y-8408810D01*
X5085714Y-8423095D01*
X5028571Y-8480238D01*
X5090476Y-8480238D01*
X5133333Y-8480238D02*
X5133333Y-8380238D01*
X5133333Y-8418333D02*
X5142857Y-8413571D01*
X5161905Y-8413571D01*
X5171429Y-8418333D01*
X5176191Y-8423095D01*
X5180952Y-8432619D01*
X5180952Y-8461191D01*
X5176191Y-8470714D01*
X5171429Y-8475476D01*
X5161905Y-8480238D01*
X5142857Y-8480238D01*
X5133333Y-8475476D01*
X5238095Y-8480238D02*
X5228571Y-8475476D01*
X5223810Y-8465952D01*
X5223810Y-8380238D01*
X5271429Y-8389762D02*
X5276191Y-8385000D01*
X5285714Y-8380238D01*
X5309524Y-8380238D01*
X5319048Y-8385000D01*
X5323810Y-8389762D01*
X5328572Y-8399286D01*
X5328572Y-8408810D01*
X5323810Y-8423095D01*
X5266667Y-8480238D01*
X5328572Y-8480238D01*
X8530238Y-7678571D02*
X8463571Y-7678571D01*
X8482619Y-7678571D02*
X8473095Y-7673810D01*
X8468333Y-7669048D01*
X8463571Y-7659524D01*
X8463571Y-7650000D01*
X8439762Y-7621429D02*
X8435000Y-7616667D01*
X8430238Y-7607143D01*
X8430238Y-7583333D01*
X8435000Y-7573809D01*
X8439762Y-7569048D01*
X8449286Y-7564286D01*
X8458810Y-7564286D01*
X8473095Y-7569048D01*
X8530238Y-7626190D01*
X8530238Y-7564286D01*
X8530238Y-7521429D02*
X8430238Y-7521429D01*
X8468333Y-7521429D02*
X8463571Y-7511905D01*
X8463571Y-7492857D01*
X8468333Y-7483333D01*
X8473095Y-7478571D01*
X8482619Y-7473809D01*
X8511191Y-7473809D01*
X8520714Y-7478571D01*
X8525476Y-7483333D01*
X8530238Y-7492857D01*
X8530238Y-7511905D01*
X8525476Y-7521429D01*
X8530238Y-7430952D02*
X8463571Y-7430952D01*
X8482619Y-7430952D02*
X8473095Y-7426190D01*
X8468333Y-7421429D01*
X8463571Y-7411905D01*
X8463571Y-7402381D01*
X8530238Y-7316667D02*
X8530238Y-7373809D01*
X8530238Y-7345238D02*
X8430238Y-7345238D01*
X8444524Y-7354762D01*
X8454048Y-7364286D01*
X8458810Y-7373809D01*
X6821428Y-8480238D02*
X6821428Y-8413571D01*
X6821428Y-8432619D02*
X6826190Y-8423095D01*
X6830952Y-8418333D01*
X6840476Y-8413571D01*
X6850000Y-8413571D01*
X6878571Y-8389762D02*
X6883333Y-8385000D01*
X6892857Y-8380238D01*
X6916667Y-8380238D01*
X6926190Y-8385000D01*
X6930952Y-8389762D01*
X6935714Y-8399286D01*
X6935714Y-8408810D01*
X6930952Y-8423095D01*
X6873809Y-8480238D01*
X6935714Y-8480238D01*
X6978571Y-8480238D02*
X6978571Y-8380238D01*
X6978571Y-8418333D02*
X6988095Y-8413571D01*
X7007143Y-8413571D01*
X7016667Y-8418333D01*
X7021429Y-8423095D01*
X7026190Y-8432619D01*
X7026190Y-8461191D01*
X7021429Y-8470714D01*
X7016667Y-8475476D01*
X7007143Y-8480238D01*
X6988095Y-8480238D01*
X6978571Y-8475476D01*
X7069048Y-8480238D02*
X7069048Y-8413571D01*
X7069048Y-8432619D02*
X7073809Y-8423095D01*
X7078571Y-8418333D01*
X7088095Y-8413571D01*
X7097619Y-8413571D01*
X7126190Y-8389762D02*
X7130952Y-8385000D01*
X7140476Y-8380238D01*
X7164286Y-8380238D01*
X7173810Y-8385000D01*
X7178571Y-8389762D01*
X7183333Y-8399286D01*
X7183333Y-8408810D01*
X7178571Y-8423095D01*
X7121429Y-8480238D01*
X7183333Y-8480238D01*
X4010238Y-5057143D02*
X3943571Y-5057143D01*
X3962619Y-5057143D02*
X3953095Y-5052381D01*
X3948333Y-5047619D01*
X3943571Y-5038095D01*
X3943571Y-5028571D01*
X3919762Y-5000000D02*
X3915000Y-4995238D01*
X3910238Y-4985714D01*
X3910238Y-4961905D01*
X3915000Y-4952381D01*
X3919762Y-4947619D01*
X3929286Y-4942857D01*
X3938809Y-4942857D01*
X3953095Y-4947619D01*
X4010238Y-5004762D01*
X4010238Y-4942857D01*
X3943571Y-4914286D02*
X3943571Y-4876191D01*
X4010238Y-4900000D02*
X3924524Y-4900000D01*
X3915000Y-4895238D01*
X3910238Y-4885714D01*
X3910238Y-4876191D01*
X4010238Y-4828571D02*
X4005476Y-4838095D01*
X3995952Y-4842857D01*
X3910238Y-4842857D01*
X4010238Y-4738095D02*
X4010238Y-4795238D01*
X4010238Y-4766667D02*
X3910238Y-4766667D01*
X3924524Y-4776190D01*
X3934048Y-4785714D01*
X3938809Y-4795238D01*
X4642857Y-3960238D02*
X4642857Y-3893571D01*
X4642857Y-3912619D02*
X4647619Y-3903095D01*
X4652381Y-3898333D01*
X4661905Y-3893571D01*
X4671429Y-3893571D01*
X4700000Y-3869762D02*
X4704762Y-3865000D01*
X4714286Y-3860238D01*
X4738095Y-3860238D01*
X4747619Y-3865000D01*
X4752381Y-3869762D01*
X4757143Y-3879286D01*
X4757143Y-3888809D01*
X4752381Y-3903095D01*
X4695238Y-3960238D01*
X4757143Y-3960238D01*
X4785714Y-3893571D02*
X4823810Y-3893571D01*
X4800000Y-3960238D02*
X4800000Y-3874524D01*
X4804762Y-3865000D01*
X4814286Y-3860238D01*
X4823810Y-3860238D01*
X4871429Y-3960238D02*
X4861905Y-3955476D01*
X4857143Y-3945952D01*
X4857143Y-3860238D01*
X4904762Y-3869762D02*
X4909524Y-3865000D01*
X4919048Y-3860238D01*
X4942857Y-3860238D01*
X4952381Y-3865000D01*
X4957143Y-3869762D01*
X4961905Y-3879286D01*
X4961905Y-3888809D01*
X4957143Y-3903095D01*
X4900000Y-3960238D01*
X4961905Y-3960238D01*
X8330238Y-4961905D02*
X8263571Y-4961905D01*
X8282619Y-4961905D02*
X8273095Y-4957143D01*
X8268333Y-4952381D01*
X8263571Y-4942857D01*
X8263571Y-4933333D01*
X8239762Y-4904762D02*
X8235000Y-4900000D01*
X8230238Y-4890476D01*
X8230238Y-4866667D01*
X8235000Y-4857143D01*
X8239762Y-4852381D01*
X8249286Y-4847619D01*
X8258809Y-4847619D01*
X8273095Y-4852381D01*
X8330238Y-4909524D01*
X8330238Y-4847619D01*
X8263571Y-4819048D02*
X8263571Y-4780952D01*
X8330238Y-4804762D02*
X8244524Y-4804762D01*
X8235000Y-4800000D01*
X8230238Y-4790476D01*
X8230238Y-4780952D01*
X8330238Y-4747619D02*
X8263571Y-4747619D01*
X8282619Y-4747619D02*
X8273095Y-4742857D01*
X8268333Y-4738095D01*
X8263571Y-4728571D01*
X8263571Y-4719048D01*
X8330238Y-4633333D02*
X8330238Y-4690476D01*
X8330238Y-4661905D02*
X8230238Y-4661905D01*
X8244524Y-4671429D01*
X8254048Y-4680952D01*
X8258809Y-4690476D01*
X7438095Y-3860238D02*
X7438095Y-3793571D01*
X7438095Y-3812619D02*
X7442857Y-3803095D01*
X7447619Y-3798333D01*
X7457143Y-3793571D01*
X7466667Y-3793571D01*
X7495238Y-3769762D02*
X7500000Y-3765000D01*
X7509524Y-3760238D01*
X7533333Y-3760238D01*
X7542857Y-3765000D01*
X7547619Y-3769762D01*
X7552381Y-3779286D01*
X7552381Y-3788809D01*
X7547619Y-3803095D01*
X7490476Y-3860238D01*
X7552381Y-3860238D01*
X7580952Y-3793571D02*
X7619048Y-3793571D01*
X7595238Y-3860238D02*
X7595238Y-3774524D01*
X7600000Y-3765000D01*
X7609524Y-3760238D01*
X7619048Y-3760238D01*
X7652381Y-3860238D02*
X7652381Y-3793571D01*
X7652381Y-3812619D02*
X7657143Y-3803095D01*
X7661905Y-3798333D01*
X7671429Y-3793571D01*
X7680952Y-3793571D01*
X7709524Y-3769762D02*
X7714286Y-3765000D01*
X7723810Y-3760238D01*
X7747619Y-3760238D01*
X7757143Y-3765000D01*
X7761905Y-3769762D01*
X7766667Y-3779286D01*
X7766667Y-3788809D01*
X7761905Y-3803095D01*
X7704762Y-3860238D01*
X7766667Y-3860238D01*
X3612238Y-5673809D02*
X3512238Y-5673809D01*
X3512238Y-5635714D01*
X3517000Y-5626190D01*
X3521762Y-5621428D01*
X3531286Y-5616667D01*
X3545571Y-5616667D01*
X3555095Y-5621428D01*
X3559857Y-5626190D01*
X3564619Y-5635714D01*
X3564619Y-5673809D01*
X3612238Y-5521429D02*
X3612238Y-5578571D01*
X3612238Y-5550000D02*
X3512238Y-5550000D01*
X3526524Y-5559524D01*
X3536048Y-5569048D01*
X3540809Y-5578571D01*
M02*
