G04 #@! TF.FileFunction,Soldermask,Bot*
%FSLAX45Y45*%
G04 Gerber Fmt 4.5, Leading zero omitted, Abs format (unit mm)*
G04 Created by KiCad (PCBNEW 4.0.1-stable) date 2017/05/05 18:15:20*
%MOMM*%
G01*
G04 APERTURE LIST*
%ADD10C,0.100000*%
G04 APERTURE END LIST*
D10*
G36*
X2795000Y-10995000D02*
X2605000Y-10995000D01*
X2605000Y-10805000D01*
X2795000Y-10805000D01*
X2795000Y-10995000D01*
X2795000Y-10995000D01*
G37*
G36*
X9347584Y-10805008D02*
X9347585Y-10805008D01*
X9347786Y-10805009D01*
X9366211Y-10807076D01*
X9383884Y-10812682D01*
X9400132Y-10821614D01*
X9414335Y-10833532D01*
X9425952Y-10847982D01*
X9434542Y-10864412D01*
X9439777Y-10882199D01*
X9439777Y-10882202D01*
X9439778Y-10882204D01*
X9441458Y-10900663D01*
X9439520Y-10919098D01*
X9439520Y-10919099D01*
X9439519Y-10919102D01*
X9434037Y-10936814D01*
X9425218Y-10953123D01*
X9413400Y-10967409D01*
X9399032Y-10979128D01*
X9382661Y-10987832D01*
X9364912Y-10993191D01*
X9346460Y-10995000D01*
X9345536Y-10995000D01*
X9344416Y-10994992D01*
X9344415Y-10994992D01*
X9344214Y-10994991D01*
X9325789Y-10992924D01*
X9308116Y-10987318D01*
X9291868Y-10978386D01*
X9277665Y-10966468D01*
X9266048Y-10952019D01*
X9257458Y-10935588D01*
X9252223Y-10917801D01*
X9252223Y-10917798D01*
X9252222Y-10917797D01*
X9250542Y-10899337D01*
X9252480Y-10880902D01*
X9252480Y-10880901D01*
X9252481Y-10880898D01*
X9257963Y-10863186D01*
X9266782Y-10846877D01*
X9278600Y-10832591D01*
X9292968Y-10820873D01*
X9309339Y-10812168D01*
X9327088Y-10806809D01*
X9345540Y-10805000D01*
X9346464Y-10805000D01*
X9347584Y-10805008D01*
X9347584Y-10805008D01*
G37*
G36*
X9695000Y-10995000D02*
X9505000Y-10995000D01*
X9505000Y-10805000D01*
X9695000Y-10805000D01*
X9695000Y-10995000D01*
X9695000Y-10995000D01*
G37*
G36*
X2955584Y-10805008D02*
X2955585Y-10805008D01*
X2955786Y-10805009D01*
X2974211Y-10807076D01*
X2991884Y-10812682D01*
X3008132Y-10821614D01*
X3022335Y-10833532D01*
X3033952Y-10847982D01*
X3042542Y-10864412D01*
X3047777Y-10882199D01*
X3047777Y-10882202D01*
X3047778Y-10882204D01*
X3049458Y-10900663D01*
X3047520Y-10919098D01*
X3047520Y-10919099D01*
X3047519Y-10919102D01*
X3042037Y-10936814D01*
X3033218Y-10953123D01*
X3021400Y-10967409D01*
X3007032Y-10979128D01*
X2990661Y-10987832D01*
X2972912Y-10993191D01*
X2954460Y-10995000D01*
X2953536Y-10995000D01*
X2952416Y-10994992D01*
X2952415Y-10994992D01*
X2952214Y-10994991D01*
X2933789Y-10992924D01*
X2916116Y-10987318D01*
X2899868Y-10978386D01*
X2885665Y-10966468D01*
X2874048Y-10952019D01*
X2865458Y-10935588D01*
X2860223Y-10917801D01*
X2860223Y-10917798D01*
X2860222Y-10917797D01*
X2858542Y-10899337D01*
X2860480Y-10880902D01*
X2860480Y-10880901D01*
X2860481Y-10880898D01*
X2865963Y-10863186D01*
X2874782Y-10846877D01*
X2886600Y-10832591D01*
X2900968Y-10820873D01*
X2917339Y-10812168D01*
X2935088Y-10806809D01*
X2953540Y-10805000D01*
X2954464Y-10805000D01*
X2955584Y-10805008D01*
X2955584Y-10805008D01*
G37*
G36*
X1495000Y-9695000D02*
X1305000Y-9695000D01*
X1305000Y-9505000D01*
X1495000Y-9505000D01*
X1495000Y-9695000D01*
X1495000Y-9695000D01*
G37*
G36*
X10995000Y-9695000D02*
X10805000Y-9695000D01*
X10805000Y-9505000D01*
X10995000Y-9505000D01*
X10995000Y-9695000D01*
X10995000Y-9695000D01*
G37*
G36*
X10919098Y-9252480D02*
X10919099Y-9252480D01*
X10919102Y-9252481D01*
X10936814Y-9257963D01*
X10953123Y-9266782D01*
X10967409Y-9278600D01*
X10979128Y-9292968D01*
X10987832Y-9309339D01*
X10993191Y-9327088D01*
X10995000Y-9345540D01*
X10995000Y-9346464D01*
X10994992Y-9347584D01*
X10994992Y-9347585D01*
X10994991Y-9347786D01*
X10992924Y-9366211D01*
X10987318Y-9383884D01*
X10978386Y-9400132D01*
X10966468Y-9414335D01*
X10952019Y-9425952D01*
X10935588Y-9434542D01*
X10917801Y-9439777D01*
X10917798Y-9439777D01*
X10917797Y-9439778D01*
X10899337Y-9441458D01*
X10880902Y-9439520D01*
X10880901Y-9439520D01*
X10880898Y-9439519D01*
X10863186Y-9434037D01*
X10846877Y-9425218D01*
X10832591Y-9413400D01*
X10820873Y-9399032D01*
X10812168Y-9382661D01*
X10806809Y-9364912D01*
X10805000Y-9346460D01*
X10805000Y-9345536D01*
X10805008Y-9344416D01*
X10805008Y-9344415D01*
X10805009Y-9344214D01*
X10807076Y-9325789D01*
X10812682Y-9308116D01*
X10821614Y-9291868D01*
X10833532Y-9277665D01*
X10847982Y-9266048D01*
X10864412Y-9257458D01*
X10882199Y-9252223D01*
X10882202Y-9252223D01*
X10882204Y-9252222D01*
X10900663Y-9250542D01*
X10919098Y-9252480D01*
X10919098Y-9252480D01*
G37*
G36*
X1419098Y-9252480D02*
X1419099Y-9252480D01*
X1419102Y-9252481D01*
X1436814Y-9257963D01*
X1453123Y-9266782D01*
X1467409Y-9278600D01*
X1479127Y-9292968D01*
X1487832Y-9309339D01*
X1493191Y-9327088D01*
X1495000Y-9345540D01*
X1495000Y-9346464D01*
X1494992Y-9347584D01*
X1494992Y-9347585D01*
X1494991Y-9347786D01*
X1492924Y-9366211D01*
X1487318Y-9383884D01*
X1478386Y-9400132D01*
X1466468Y-9414335D01*
X1452018Y-9425952D01*
X1435588Y-9434542D01*
X1417801Y-9439777D01*
X1417798Y-9439777D01*
X1417796Y-9439778D01*
X1399337Y-9441458D01*
X1380902Y-9439520D01*
X1380901Y-9439520D01*
X1380898Y-9439519D01*
X1363186Y-9434037D01*
X1346877Y-9425218D01*
X1332591Y-9413400D01*
X1320873Y-9399032D01*
X1312168Y-9382661D01*
X1306809Y-9364912D01*
X1305000Y-9346460D01*
X1305000Y-9345536D01*
X1305008Y-9344416D01*
X1305008Y-9344415D01*
X1305009Y-9344214D01*
X1307076Y-9325789D01*
X1312682Y-9308116D01*
X1321614Y-9291868D01*
X1333532Y-9277665D01*
X1347982Y-9266048D01*
X1364412Y-9257458D01*
X1382199Y-9252223D01*
X1382202Y-9252223D01*
X1382204Y-9252222D01*
X1400663Y-9250542D01*
X1419098Y-9252480D01*
X1419098Y-9252480D01*
G37*
G36*
X8307098Y-6456480D02*
X8307099Y-6456480D01*
X8307102Y-6456481D01*
X8324814Y-6461963D01*
X8341123Y-6470782D01*
X8355409Y-6482600D01*
X8367127Y-6496968D01*
X8375832Y-6513339D01*
X8381191Y-6531088D01*
X8383000Y-6549540D01*
X8383000Y-6550464D01*
X8382992Y-6551584D01*
X8382992Y-6551585D01*
X8382991Y-6551786D01*
X8380924Y-6570211D01*
X8375318Y-6587884D01*
X8366386Y-6604132D01*
X8354468Y-6618335D01*
X8340018Y-6629952D01*
X8323588Y-6638542D01*
X8305801Y-6643777D01*
X8305798Y-6643777D01*
X8305796Y-6643778D01*
X8287337Y-6645458D01*
X8268902Y-6643520D01*
X8268901Y-6643520D01*
X8268898Y-6643519D01*
X8251186Y-6638037D01*
X8234877Y-6629218D01*
X8220591Y-6617400D01*
X8208872Y-6603032D01*
X8200168Y-6586661D01*
X8194809Y-6568912D01*
X8193000Y-6550460D01*
X8193000Y-6549536D01*
X8193008Y-6548416D01*
X8193008Y-6548415D01*
X8193009Y-6548214D01*
X8195076Y-6529789D01*
X8200682Y-6512116D01*
X8209614Y-6495868D01*
X8221532Y-6481665D01*
X8235981Y-6470048D01*
X8252412Y-6461458D01*
X8270199Y-6456223D01*
X8270202Y-6456223D01*
X8270203Y-6456222D01*
X8288663Y-6454542D01*
X8307098Y-6456480D01*
X8307098Y-6456480D01*
G37*
G36*
X6783098Y-6456480D02*
X6783099Y-6456480D01*
X6783102Y-6456481D01*
X6800814Y-6461963D01*
X6817123Y-6470782D01*
X6831409Y-6482600D01*
X6843127Y-6496968D01*
X6851832Y-6513339D01*
X6857191Y-6531088D01*
X6859000Y-6549540D01*
X6859000Y-6550464D01*
X6858992Y-6551584D01*
X6858992Y-6551585D01*
X6858991Y-6551786D01*
X6856924Y-6570211D01*
X6851318Y-6587884D01*
X6842386Y-6604132D01*
X6830468Y-6618335D01*
X6816018Y-6629952D01*
X6799588Y-6638542D01*
X6781801Y-6643777D01*
X6781798Y-6643777D01*
X6781796Y-6643778D01*
X6763337Y-6645458D01*
X6744902Y-6643520D01*
X6744901Y-6643520D01*
X6744898Y-6643519D01*
X6727186Y-6638037D01*
X6710877Y-6629218D01*
X6696591Y-6617400D01*
X6684872Y-6603032D01*
X6676168Y-6586661D01*
X6670809Y-6568912D01*
X6669000Y-6550460D01*
X6669000Y-6549536D01*
X6669008Y-6548416D01*
X6669008Y-6548415D01*
X6669009Y-6548214D01*
X6671076Y-6529789D01*
X6676682Y-6512116D01*
X6685614Y-6495868D01*
X6697532Y-6481665D01*
X6711981Y-6470048D01*
X6728412Y-6461458D01*
X6746199Y-6456223D01*
X6746202Y-6456223D01*
X6746203Y-6456222D01*
X6764663Y-6454542D01*
X6783098Y-6456480D01*
X6783098Y-6456480D01*
G37*
G36*
X7037098Y-6456480D02*
X7037099Y-6456480D01*
X7037102Y-6456481D01*
X7054814Y-6461963D01*
X7071123Y-6470782D01*
X7085409Y-6482600D01*
X7097127Y-6496968D01*
X7105832Y-6513339D01*
X7111191Y-6531088D01*
X7113000Y-6549540D01*
X7113000Y-6550464D01*
X7112992Y-6551584D01*
X7112992Y-6551585D01*
X7112991Y-6551786D01*
X7110924Y-6570211D01*
X7105318Y-6587884D01*
X7096386Y-6604132D01*
X7084468Y-6618335D01*
X7070018Y-6629952D01*
X7053588Y-6638542D01*
X7035801Y-6643777D01*
X7035798Y-6643777D01*
X7035796Y-6643778D01*
X7017337Y-6645458D01*
X6998902Y-6643520D01*
X6998901Y-6643520D01*
X6998898Y-6643519D01*
X6981186Y-6638037D01*
X6964877Y-6629218D01*
X6950591Y-6617400D01*
X6938872Y-6603032D01*
X6930168Y-6586661D01*
X6924809Y-6568912D01*
X6923000Y-6550460D01*
X6923000Y-6549536D01*
X6923008Y-6548416D01*
X6923008Y-6548415D01*
X6923009Y-6548214D01*
X6925076Y-6529789D01*
X6930682Y-6512116D01*
X6939614Y-6495868D01*
X6951532Y-6481665D01*
X6965981Y-6470048D01*
X6982412Y-6461458D01*
X7000199Y-6456223D01*
X7000202Y-6456223D01*
X7000203Y-6456222D01*
X7018663Y-6454542D01*
X7037098Y-6456480D01*
X7037098Y-6456480D01*
G37*
G36*
X7291098Y-6456480D02*
X7291099Y-6456480D01*
X7291102Y-6456481D01*
X7308814Y-6461963D01*
X7325123Y-6470782D01*
X7339409Y-6482600D01*
X7351127Y-6496968D01*
X7359832Y-6513339D01*
X7365191Y-6531088D01*
X7367000Y-6549540D01*
X7367000Y-6550464D01*
X7366992Y-6551584D01*
X7366992Y-6551585D01*
X7366991Y-6551786D01*
X7364924Y-6570211D01*
X7359318Y-6587884D01*
X7350386Y-6604132D01*
X7338468Y-6618335D01*
X7324018Y-6629952D01*
X7307588Y-6638542D01*
X7289801Y-6643777D01*
X7289798Y-6643777D01*
X7289796Y-6643778D01*
X7271337Y-6645458D01*
X7252902Y-6643520D01*
X7252901Y-6643520D01*
X7252898Y-6643519D01*
X7235186Y-6638037D01*
X7218877Y-6629218D01*
X7204591Y-6617400D01*
X7192872Y-6603032D01*
X7184168Y-6586661D01*
X7178809Y-6568912D01*
X7177000Y-6550460D01*
X7177000Y-6549536D01*
X7177008Y-6548416D01*
X7177008Y-6548415D01*
X7177009Y-6548214D01*
X7179076Y-6529789D01*
X7184682Y-6512116D01*
X7193614Y-6495868D01*
X7205532Y-6481665D01*
X7219981Y-6470048D01*
X7236412Y-6461458D01*
X7254199Y-6456223D01*
X7254202Y-6456223D01*
X7254203Y-6456222D01*
X7272663Y-6454542D01*
X7291098Y-6456480D01*
X7291098Y-6456480D01*
G37*
G36*
X7545098Y-6456480D02*
X7545099Y-6456480D01*
X7545102Y-6456481D01*
X7562814Y-6461963D01*
X7579123Y-6470782D01*
X7593409Y-6482600D01*
X7605127Y-6496968D01*
X7613832Y-6513339D01*
X7619191Y-6531088D01*
X7621000Y-6549540D01*
X7621000Y-6550464D01*
X7620992Y-6551584D01*
X7620992Y-6551585D01*
X7620991Y-6551786D01*
X7618924Y-6570211D01*
X7613318Y-6587884D01*
X7604386Y-6604132D01*
X7592468Y-6618335D01*
X7578018Y-6629952D01*
X7561588Y-6638542D01*
X7543801Y-6643777D01*
X7543798Y-6643777D01*
X7543796Y-6643778D01*
X7525337Y-6645458D01*
X7506902Y-6643520D01*
X7506901Y-6643520D01*
X7506898Y-6643519D01*
X7489186Y-6638037D01*
X7472877Y-6629218D01*
X7458591Y-6617400D01*
X7446872Y-6603032D01*
X7438168Y-6586661D01*
X7432809Y-6568912D01*
X7431000Y-6550460D01*
X7431000Y-6549536D01*
X7431008Y-6548416D01*
X7431008Y-6548415D01*
X7431009Y-6548214D01*
X7433076Y-6529789D01*
X7438682Y-6512116D01*
X7447614Y-6495868D01*
X7459532Y-6481665D01*
X7473981Y-6470048D01*
X7490412Y-6461458D01*
X7508199Y-6456223D01*
X7508202Y-6456223D01*
X7508203Y-6456222D01*
X7526663Y-6454542D01*
X7545098Y-6456480D01*
X7545098Y-6456480D01*
G37*
G36*
X7799098Y-6456480D02*
X7799099Y-6456480D01*
X7799102Y-6456481D01*
X7816814Y-6461963D01*
X7833123Y-6470782D01*
X7847409Y-6482600D01*
X7859127Y-6496968D01*
X7867832Y-6513339D01*
X7873191Y-6531088D01*
X7875000Y-6549540D01*
X7875000Y-6550464D01*
X7874992Y-6551584D01*
X7874992Y-6551585D01*
X7874991Y-6551786D01*
X7872924Y-6570211D01*
X7867318Y-6587884D01*
X7858386Y-6604132D01*
X7846468Y-6618335D01*
X7832018Y-6629952D01*
X7815588Y-6638542D01*
X7797801Y-6643777D01*
X7797798Y-6643777D01*
X7797796Y-6643778D01*
X7779337Y-6645458D01*
X7760902Y-6643520D01*
X7760901Y-6643520D01*
X7760898Y-6643519D01*
X7743186Y-6638037D01*
X7726877Y-6629218D01*
X7712591Y-6617400D01*
X7700872Y-6603032D01*
X7692168Y-6586661D01*
X7686809Y-6568912D01*
X7685000Y-6550460D01*
X7685000Y-6549536D01*
X7685008Y-6548416D01*
X7685008Y-6548415D01*
X7685009Y-6548214D01*
X7687076Y-6529789D01*
X7692682Y-6512116D01*
X7701614Y-6495868D01*
X7713532Y-6481665D01*
X7727981Y-6470048D01*
X7744412Y-6461458D01*
X7762199Y-6456223D01*
X7762202Y-6456223D01*
X7762203Y-6456222D01*
X7780663Y-6454542D01*
X7799098Y-6456480D01*
X7799098Y-6456480D01*
G37*
G36*
X8053098Y-6456480D02*
X8053099Y-6456480D01*
X8053102Y-6456481D01*
X8070814Y-6461963D01*
X8087123Y-6470782D01*
X8101409Y-6482600D01*
X8113127Y-6496968D01*
X8121832Y-6513339D01*
X8127191Y-6531088D01*
X8129000Y-6549540D01*
X8129000Y-6550464D01*
X8128992Y-6551584D01*
X8128992Y-6551585D01*
X8128991Y-6551786D01*
X8126924Y-6570211D01*
X8121318Y-6587884D01*
X8112386Y-6604132D01*
X8100468Y-6618335D01*
X8086018Y-6629952D01*
X8069588Y-6638542D01*
X8051801Y-6643777D01*
X8051798Y-6643777D01*
X8051796Y-6643778D01*
X8033337Y-6645458D01*
X8014902Y-6643520D01*
X8014901Y-6643520D01*
X8014898Y-6643519D01*
X7997186Y-6638037D01*
X7980877Y-6629218D01*
X7966591Y-6617400D01*
X7954872Y-6603032D01*
X7946168Y-6586661D01*
X7940809Y-6568912D01*
X7939000Y-6550460D01*
X7939000Y-6549536D01*
X7939008Y-6548416D01*
X7939008Y-6548415D01*
X7939009Y-6548214D01*
X7941076Y-6529789D01*
X7946682Y-6512116D01*
X7955614Y-6495868D01*
X7967532Y-6481665D01*
X7981981Y-6470048D01*
X7998412Y-6461458D01*
X8016199Y-6456223D01*
X8016202Y-6456223D01*
X8016203Y-6456222D01*
X8034663Y-6454542D01*
X8053098Y-6456480D01*
X8053098Y-6456480D01*
G37*
G36*
X8561098Y-6456480D02*
X8561099Y-6456480D01*
X8561102Y-6456481D01*
X8578814Y-6461963D01*
X8595123Y-6470782D01*
X8609409Y-6482600D01*
X8621128Y-6496968D01*
X8629832Y-6513339D01*
X8635191Y-6531088D01*
X8637000Y-6549540D01*
X8637000Y-6550464D01*
X8636992Y-6551584D01*
X8636992Y-6551585D01*
X8636991Y-6551786D01*
X8634924Y-6570211D01*
X8629318Y-6587884D01*
X8620386Y-6604132D01*
X8608468Y-6618335D01*
X8594019Y-6629952D01*
X8577588Y-6638542D01*
X8559801Y-6643777D01*
X8559798Y-6643777D01*
X8559797Y-6643778D01*
X8541337Y-6645458D01*
X8522902Y-6643520D01*
X8522901Y-6643520D01*
X8522898Y-6643519D01*
X8505186Y-6638037D01*
X8488877Y-6629218D01*
X8474591Y-6617400D01*
X8462873Y-6603032D01*
X8454168Y-6586661D01*
X8448809Y-6568912D01*
X8447000Y-6550460D01*
X8447000Y-6549536D01*
X8447008Y-6548416D01*
X8447008Y-6548415D01*
X8447009Y-6548214D01*
X8449076Y-6529789D01*
X8454682Y-6512116D01*
X8463614Y-6495868D01*
X8475532Y-6481665D01*
X8489982Y-6470048D01*
X8506412Y-6461458D01*
X8524199Y-6456223D01*
X8524202Y-6456223D01*
X8524204Y-6456222D01*
X8542663Y-6454542D01*
X8561098Y-6456480D01*
X8561098Y-6456480D01*
G37*
G36*
X8815098Y-6456480D02*
X8815099Y-6456480D01*
X8815102Y-6456481D01*
X8832814Y-6461963D01*
X8849123Y-6470782D01*
X8863409Y-6482600D01*
X8875128Y-6496968D01*
X8883832Y-6513339D01*
X8889191Y-6531088D01*
X8891000Y-6549540D01*
X8891000Y-6550464D01*
X8890992Y-6551584D01*
X8890992Y-6551585D01*
X8890991Y-6551786D01*
X8888924Y-6570211D01*
X8883318Y-6587884D01*
X8874386Y-6604132D01*
X8862468Y-6618335D01*
X8848019Y-6629952D01*
X8831588Y-6638542D01*
X8813801Y-6643777D01*
X8813798Y-6643777D01*
X8813797Y-6643778D01*
X8795337Y-6645458D01*
X8776902Y-6643520D01*
X8776901Y-6643520D01*
X8776898Y-6643519D01*
X8759186Y-6638037D01*
X8742877Y-6629218D01*
X8728591Y-6617400D01*
X8716873Y-6603032D01*
X8708168Y-6586661D01*
X8702809Y-6568912D01*
X8701000Y-6550460D01*
X8701000Y-6549536D01*
X8701008Y-6548416D01*
X8701008Y-6548415D01*
X8701009Y-6548214D01*
X8703076Y-6529789D01*
X8708682Y-6512116D01*
X8717614Y-6495868D01*
X8729532Y-6481665D01*
X8743982Y-6470048D01*
X8760412Y-6461458D01*
X8778199Y-6456223D01*
X8778202Y-6456223D01*
X8778204Y-6456222D01*
X8796663Y-6454542D01*
X8815098Y-6456480D01*
X8815098Y-6456480D01*
G37*
G36*
X9145000Y-6645000D02*
X8955000Y-6645000D01*
X8955000Y-6455000D01*
X9145000Y-6455000D01*
X9145000Y-6645000D01*
X9145000Y-6645000D01*
G37*
G36*
X8053098Y-6202480D02*
X8053099Y-6202480D01*
X8053102Y-6202481D01*
X8070814Y-6207963D01*
X8087123Y-6216782D01*
X8101409Y-6228600D01*
X8113127Y-6242968D01*
X8121832Y-6259339D01*
X8127191Y-6277088D01*
X8129000Y-6295540D01*
X8129000Y-6296464D01*
X8128992Y-6297584D01*
X8128992Y-6297585D01*
X8128991Y-6297786D01*
X8126924Y-6316211D01*
X8121318Y-6333884D01*
X8112386Y-6350132D01*
X8100468Y-6364335D01*
X8086018Y-6375952D01*
X8069588Y-6384542D01*
X8051801Y-6389777D01*
X8051798Y-6389777D01*
X8051796Y-6389778D01*
X8033337Y-6391458D01*
X8014902Y-6389520D01*
X8014901Y-6389520D01*
X8014898Y-6389519D01*
X7997186Y-6384037D01*
X7980877Y-6375218D01*
X7966591Y-6363400D01*
X7954872Y-6349032D01*
X7946168Y-6332661D01*
X7940809Y-6314912D01*
X7939000Y-6296460D01*
X7939000Y-6295536D01*
X7939008Y-6294416D01*
X7939008Y-6294415D01*
X7939009Y-6294214D01*
X7941076Y-6275789D01*
X7946682Y-6258116D01*
X7955614Y-6241868D01*
X7967532Y-6227665D01*
X7981981Y-6216048D01*
X7998412Y-6207458D01*
X8016199Y-6202223D01*
X8016202Y-6202223D01*
X8016203Y-6202222D01*
X8034663Y-6200542D01*
X8053098Y-6202480D01*
X8053098Y-6202480D01*
G37*
G36*
X8307098Y-6202480D02*
X8307099Y-6202480D01*
X8307102Y-6202481D01*
X8324814Y-6207963D01*
X8341123Y-6216782D01*
X8355409Y-6228600D01*
X8367127Y-6242968D01*
X8375832Y-6259339D01*
X8381191Y-6277088D01*
X8383000Y-6295540D01*
X8383000Y-6296464D01*
X8382992Y-6297584D01*
X8382992Y-6297585D01*
X8382991Y-6297786D01*
X8380924Y-6316211D01*
X8375318Y-6333884D01*
X8366386Y-6350132D01*
X8354468Y-6364335D01*
X8340018Y-6375952D01*
X8323588Y-6384542D01*
X8305801Y-6389777D01*
X8305798Y-6389777D01*
X8305796Y-6389778D01*
X8287337Y-6391458D01*
X8268902Y-6389520D01*
X8268901Y-6389520D01*
X8268898Y-6389519D01*
X8251186Y-6384037D01*
X8234877Y-6375218D01*
X8220591Y-6363400D01*
X8208872Y-6349032D01*
X8200168Y-6332661D01*
X8194809Y-6314912D01*
X8193000Y-6296460D01*
X8193000Y-6295536D01*
X8193008Y-6294416D01*
X8193008Y-6294415D01*
X8193009Y-6294214D01*
X8195076Y-6275789D01*
X8200682Y-6258116D01*
X8209614Y-6241868D01*
X8221532Y-6227665D01*
X8235981Y-6216048D01*
X8252412Y-6207458D01*
X8270199Y-6202223D01*
X8270202Y-6202223D01*
X8270203Y-6202222D01*
X8288663Y-6200542D01*
X8307098Y-6202480D01*
X8307098Y-6202480D01*
G37*
G36*
X8561098Y-6202480D02*
X8561099Y-6202480D01*
X8561102Y-6202481D01*
X8578814Y-6207963D01*
X8595123Y-6216782D01*
X8609409Y-6228600D01*
X8621128Y-6242968D01*
X8629832Y-6259339D01*
X8635191Y-6277088D01*
X8637000Y-6295540D01*
X8637000Y-6296464D01*
X8636992Y-6297584D01*
X8636992Y-6297585D01*
X8636991Y-6297786D01*
X8634924Y-6316211D01*
X8629318Y-6333884D01*
X8620386Y-6350132D01*
X8608468Y-6364335D01*
X8594019Y-6375952D01*
X8577588Y-6384542D01*
X8559801Y-6389777D01*
X8559798Y-6389777D01*
X8559797Y-6389778D01*
X8541337Y-6391458D01*
X8522902Y-6389520D01*
X8522901Y-6389520D01*
X8522898Y-6389519D01*
X8505186Y-6384037D01*
X8488877Y-6375218D01*
X8474591Y-6363400D01*
X8462873Y-6349032D01*
X8454168Y-6332661D01*
X8448809Y-6314912D01*
X8447000Y-6296460D01*
X8447000Y-6295536D01*
X8447008Y-6294416D01*
X8447008Y-6294415D01*
X8447009Y-6294214D01*
X8449076Y-6275789D01*
X8454682Y-6258116D01*
X8463614Y-6241868D01*
X8475532Y-6227665D01*
X8489982Y-6216048D01*
X8506412Y-6207458D01*
X8524199Y-6202223D01*
X8524202Y-6202223D01*
X8524204Y-6202222D01*
X8542663Y-6200542D01*
X8561098Y-6202480D01*
X8561098Y-6202480D01*
G37*
G36*
X6783098Y-6202480D02*
X6783099Y-6202480D01*
X6783102Y-6202481D01*
X6800814Y-6207963D01*
X6817123Y-6216782D01*
X6831409Y-6228600D01*
X6843127Y-6242968D01*
X6851832Y-6259339D01*
X6857191Y-6277088D01*
X6859000Y-6295540D01*
X6859000Y-6296464D01*
X6858992Y-6297584D01*
X6858992Y-6297585D01*
X6858991Y-6297786D01*
X6856924Y-6316211D01*
X6851318Y-6333884D01*
X6842386Y-6350132D01*
X6830468Y-6364335D01*
X6816018Y-6375952D01*
X6799588Y-6384542D01*
X6781801Y-6389777D01*
X6781798Y-6389777D01*
X6781796Y-6389778D01*
X6763337Y-6391458D01*
X6744902Y-6389520D01*
X6744901Y-6389520D01*
X6744898Y-6389519D01*
X6727186Y-6384037D01*
X6710877Y-6375218D01*
X6696591Y-6363400D01*
X6684872Y-6349032D01*
X6676168Y-6332661D01*
X6670809Y-6314912D01*
X6669000Y-6296460D01*
X6669000Y-6295536D01*
X6669008Y-6294416D01*
X6669008Y-6294415D01*
X6669009Y-6294214D01*
X6671076Y-6275789D01*
X6676682Y-6258116D01*
X6685614Y-6241868D01*
X6697532Y-6227665D01*
X6711981Y-6216048D01*
X6728412Y-6207458D01*
X6746199Y-6202223D01*
X6746202Y-6202223D01*
X6746203Y-6202222D01*
X6764663Y-6200542D01*
X6783098Y-6202480D01*
X6783098Y-6202480D01*
G37*
G36*
X7037098Y-6202480D02*
X7037099Y-6202480D01*
X7037102Y-6202481D01*
X7054814Y-6207963D01*
X7071123Y-6216782D01*
X7085409Y-6228600D01*
X7097127Y-6242968D01*
X7105832Y-6259339D01*
X7111191Y-6277088D01*
X7113000Y-6295540D01*
X7113000Y-6296464D01*
X7112992Y-6297584D01*
X7112992Y-6297585D01*
X7112991Y-6297786D01*
X7110924Y-6316211D01*
X7105318Y-6333884D01*
X7096386Y-6350132D01*
X7084468Y-6364335D01*
X7070018Y-6375952D01*
X7053588Y-6384542D01*
X7035801Y-6389777D01*
X7035798Y-6389777D01*
X7035796Y-6389778D01*
X7017337Y-6391458D01*
X6998902Y-6389520D01*
X6998901Y-6389520D01*
X6998898Y-6389519D01*
X6981186Y-6384037D01*
X6964877Y-6375218D01*
X6950591Y-6363400D01*
X6938872Y-6349032D01*
X6930168Y-6332661D01*
X6924809Y-6314912D01*
X6923000Y-6296460D01*
X6923000Y-6295536D01*
X6923008Y-6294416D01*
X6923008Y-6294415D01*
X6923009Y-6294214D01*
X6925076Y-6275789D01*
X6930682Y-6258116D01*
X6939614Y-6241868D01*
X6951532Y-6227665D01*
X6965981Y-6216048D01*
X6982412Y-6207458D01*
X7000199Y-6202223D01*
X7000202Y-6202223D01*
X7000203Y-6202222D01*
X7018663Y-6200542D01*
X7037098Y-6202480D01*
X7037098Y-6202480D01*
G37*
G36*
X7291098Y-6202480D02*
X7291099Y-6202480D01*
X7291102Y-6202481D01*
X7308814Y-6207963D01*
X7325123Y-6216782D01*
X7339409Y-6228600D01*
X7351127Y-6242968D01*
X7359832Y-6259339D01*
X7365191Y-6277088D01*
X7367000Y-6295540D01*
X7367000Y-6296464D01*
X7366992Y-6297584D01*
X7366992Y-6297585D01*
X7366991Y-6297786D01*
X7364924Y-6316211D01*
X7359318Y-6333884D01*
X7350386Y-6350132D01*
X7338468Y-6364335D01*
X7324018Y-6375952D01*
X7307588Y-6384542D01*
X7289801Y-6389777D01*
X7289798Y-6389777D01*
X7289796Y-6389778D01*
X7271337Y-6391458D01*
X7252902Y-6389520D01*
X7252901Y-6389520D01*
X7252898Y-6389519D01*
X7235186Y-6384037D01*
X7218877Y-6375218D01*
X7204591Y-6363400D01*
X7192872Y-6349032D01*
X7184168Y-6332661D01*
X7178809Y-6314912D01*
X7177000Y-6296460D01*
X7177000Y-6295536D01*
X7177008Y-6294416D01*
X7177008Y-6294415D01*
X7177009Y-6294214D01*
X7179076Y-6275789D01*
X7184682Y-6258116D01*
X7193614Y-6241868D01*
X7205532Y-6227665D01*
X7219981Y-6216048D01*
X7236412Y-6207458D01*
X7254199Y-6202223D01*
X7254202Y-6202223D01*
X7254203Y-6202222D01*
X7272663Y-6200542D01*
X7291098Y-6202480D01*
X7291098Y-6202480D01*
G37*
G36*
X8815098Y-6202480D02*
X8815099Y-6202480D01*
X8815102Y-6202481D01*
X8832814Y-6207963D01*
X8849123Y-6216782D01*
X8863409Y-6228600D01*
X8875128Y-6242968D01*
X8883832Y-6259339D01*
X8889191Y-6277088D01*
X8891000Y-6295540D01*
X8891000Y-6296464D01*
X8890992Y-6297584D01*
X8890992Y-6297585D01*
X8890991Y-6297786D01*
X8888924Y-6316211D01*
X8883318Y-6333884D01*
X8874386Y-6350132D01*
X8862468Y-6364335D01*
X8848019Y-6375952D01*
X8831588Y-6384542D01*
X8813801Y-6389777D01*
X8813798Y-6389777D01*
X8813797Y-6389778D01*
X8795337Y-6391458D01*
X8776902Y-6389520D01*
X8776901Y-6389520D01*
X8776898Y-6389519D01*
X8759186Y-6384037D01*
X8742877Y-6375218D01*
X8728591Y-6363400D01*
X8716873Y-6349032D01*
X8708168Y-6332661D01*
X8702809Y-6314912D01*
X8701000Y-6296460D01*
X8701000Y-6295536D01*
X8701008Y-6294416D01*
X8701008Y-6294415D01*
X8701009Y-6294214D01*
X8703076Y-6275789D01*
X8708682Y-6258116D01*
X8717614Y-6241868D01*
X8729532Y-6227665D01*
X8743982Y-6216048D01*
X8760412Y-6207458D01*
X8778199Y-6202223D01*
X8778202Y-6202223D01*
X8778204Y-6202222D01*
X8796663Y-6200542D01*
X8815098Y-6202480D01*
X8815098Y-6202480D01*
G37*
G36*
X9069098Y-6202480D02*
X9069099Y-6202480D01*
X9069102Y-6202481D01*
X9086814Y-6207963D01*
X9103123Y-6216782D01*
X9117409Y-6228600D01*
X9129128Y-6242968D01*
X9137832Y-6259339D01*
X9143191Y-6277088D01*
X9145000Y-6295540D01*
X9145000Y-6296464D01*
X9144992Y-6297584D01*
X9144992Y-6297585D01*
X9144991Y-6297786D01*
X9142924Y-6316211D01*
X9137318Y-6333884D01*
X9128386Y-6350132D01*
X9116468Y-6364335D01*
X9102019Y-6375952D01*
X9085588Y-6384542D01*
X9067801Y-6389777D01*
X9067798Y-6389777D01*
X9067797Y-6389778D01*
X9049337Y-6391458D01*
X9030902Y-6389520D01*
X9030901Y-6389520D01*
X9030898Y-6389519D01*
X9013186Y-6384037D01*
X8996877Y-6375218D01*
X8982591Y-6363400D01*
X8970873Y-6349032D01*
X8962168Y-6332661D01*
X8956809Y-6314912D01*
X8955000Y-6296460D01*
X8955000Y-6295536D01*
X8955008Y-6294416D01*
X8955008Y-6294415D01*
X8955009Y-6294214D01*
X8957076Y-6275789D01*
X8962682Y-6258116D01*
X8971614Y-6241868D01*
X8983532Y-6227665D01*
X8997982Y-6216048D01*
X9014412Y-6207458D01*
X9032199Y-6202223D01*
X9032202Y-6202223D01*
X9032204Y-6202222D01*
X9050663Y-6200542D01*
X9069098Y-6202480D01*
X9069098Y-6202480D01*
G37*
G36*
X7545098Y-6202480D02*
X7545099Y-6202480D01*
X7545102Y-6202481D01*
X7562814Y-6207963D01*
X7579123Y-6216782D01*
X7593409Y-6228600D01*
X7605127Y-6242968D01*
X7613832Y-6259339D01*
X7619191Y-6277088D01*
X7621000Y-6295540D01*
X7621000Y-6296464D01*
X7620992Y-6297584D01*
X7620992Y-6297585D01*
X7620991Y-6297786D01*
X7618924Y-6316211D01*
X7613318Y-6333884D01*
X7604386Y-6350132D01*
X7592468Y-6364335D01*
X7578018Y-6375952D01*
X7561588Y-6384542D01*
X7543801Y-6389777D01*
X7543798Y-6389777D01*
X7543796Y-6389778D01*
X7525337Y-6391458D01*
X7506902Y-6389520D01*
X7506901Y-6389520D01*
X7506898Y-6389519D01*
X7489186Y-6384037D01*
X7472877Y-6375218D01*
X7458591Y-6363400D01*
X7446872Y-6349032D01*
X7438168Y-6332661D01*
X7432809Y-6314912D01*
X7431000Y-6296460D01*
X7431000Y-6295536D01*
X7431008Y-6294416D01*
X7431008Y-6294415D01*
X7431009Y-6294214D01*
X7433076Y-6275789D01*
X7438682Y-6258116D01*
X7447614Y-6241868D01*
X7459532Y-6227665D01*
X7473981Y-6216048D01*
X7490412Y-6207458D01*
X7508199Y-6202223D01*
X7508202Y-6202223D01*
X7508203Y-6202222D01*
X7526663Y-6200542D01*
X7545098Y-6202480D01*
X7545098Y-6202480D01*
G37*
G36*
X7799098Y-6202480D02*
X7799099Y-6202480D01*
X7799102Y-6202481D01*
X7816814Y-6207963D01*
X7833123Y-6216782D01*
X7847409Y-6228600D01*
X7859127Y-6242968D01*
X7867832Y-6259339D01*
X7873191Y-6277088D01*
X7875000Y-6295540D01*
X7875000Y-6296464D01*
X7874992Y-6297584D01*
X7874992Y-6297585D01*
X7874991Y-6297786D01*
X7872924Y-6316211D01*
X7867318Y-6333884D01*
X7858386Y-6350132D01*
X7846468Y-6364335D01*
X7832018Y-6375952D01*
X7815588Y-6384542D01*
X7797801Y-6389777D01*
X7797798Y-6389777D01*
X7797796Y-6389778D01*
X7779337Y-6391458D01*
X7760902Y-6389520D01*
X7760901Y-6389520D01*
X7760898Y-6389519D01*
X7743186Y-6384037D01*
X7726877Y-6375218D01*
X7712591Y-6363400D01*
X7700872Y-6349032D01*
X7692168Y-6332661D01*
X7686809Y-6314912D01*
X7685000Y-6296460D01*
X7685000Y-6295536D01*
X7685008Y-6294416D01*
X7685008Y-6294415D01*
X7685009Y-6294214D01*
X7687076Y-6275789D01*
X7692682Y-6258116D01*
X7701614Y-6241868D01*
X7713532Y-6227665D01*
X7727981Y-6216048D01*
X7744412Y-6207458D01*
X7762199Y-6202223D01*
X7762202Y-6202223D01*
X7762203Y-6202222D01*
X7780663Y-6200542D01*
X7799098Y-6202480D01*
X7799098Y-6202480D01*
G37*
G36*
X7160000Y-5985000D02*
X6940000Y-5985000D01*
X6940000Y-5715000D01*
X7160000Y-5715000D01*
X7160000Y-5985000D01*
X7160000Y-5985000D01*
G37*
G36*
X6760000Y-5985000D02*
X6540000Y-5985000D01*
X6540000Y-5715000D01*
X6760000Y-5715000D01*
X6760000Y-5985000D01*
X6760000Y-5985000D01*
G37*
G36*
X7695000Y-5910000D02*
X7505000Y-5910000D01*
X7505000Y-5690000D01*
X7695000Y-5690000D01*
X7695000Y-5910000D01*
X7695000Y-5910000D01*
G37*
G36*
X8265000Y-5865000D02*
X8135000Y-5865000D01*
X8135000Y-5735000D01*
X8265000Y-5735000D01*
X8265000Y-5865000D01*
X8265000Y-5865000D01*
G37*
G36*
X4073098Y-5506480D02*
X4073099Y-5506480D01*
X4073102Y-5506481D01*
X4090814Y-5511963D01*
X4107123Y-5520782D01*
X4121409Y-5532600D01*
X4133127Y-5546968D01*
X4141832Y-5563339D01*
X4147191Y-5581088D01*
X4149000Y-5599540D01*
X4149000Y-5600464D01*
X4148992Y-5601584D01*
X4148992Y-5601585D01*
X4148991Y-5601786D01*
X4146924Y-5620211D01*
X4141318Y-5637884D01*
X4132386Y-5654132D01*
X4120468Y-5668335D01*
X4106018Y-5679952D01*
X4089588Y-5688542D01*
X4071801Y-5693777D01*
X4071798Y-5693777D01*
X4071796Y-5693778D01*
X4053337Y-5695458D01*
X4034902Y-5693520D01*
X4034901Y-5693520D01*
X4034898Y-5693519D01*
X4017186Y-5688037D01*
X4000877Y-5679218D01*
X3986591Y-5667400D01*
X3974872Y-5653032D01*
X3966168Y-5636661D01*
X3960809Y-5618912D01*
X3959000Y-5600460D01*
X3959000Y-5599536D01*
X3959008Y-5598416D01*
X3959008Y-5598415D01*
X3959009Y-5598214D01*
X3961076Y-5579789D01*
X3966682Y-5562116D01*
X3975614Y-5545868D01*
X3987532Y-5531665D01*
X4001981Y-5520048D01*
X4018412Y-5511458D01*
X4036199Y-5506223D01*
X4036202Y-5506223D01*
X4036203Y-5506222D01*
X4054663Y-5504542D01*
X4073098Y-5506480D01*
X4073098Y-5506480D01*
G37*
G36*
X4581098Y-5506480D02*
X4581099Y-5506480D01*
X4581102Y-5506481D01*
X4598814Y-5511963D01*
X4615123Y-5520782D01*
X4629409Y-5532600D01*
X4641128Y-5546968D01*
X4649832Y-5563339D01*
X4655191Y-5581088D01*
X4657000Y-5599540D01*
X4657000Y-5600464D01*
X4656992Y-5601584D01*
X4656992Y-5601585D01*
X4656991Y-5601786D01*
X4654924Y-5620211D01*
X4649318Y-5637884D01*
X4640386Y-5654132D01*
X4628468Y-5668335D01*
X4614019Y-5679952D01*
X4597588Y-5688542D01*
X4579801Y-5693777D01*
X4579798Y-5693777D01*
X4579797Y-5693778D01*
X4561337Y-5695458D01*
X4542902Y-5693520D01*
X4542901Y-5693520D01*
X4542898Y-5693519D01*
X4525186Y-5688037D01*
X4508877Y-5679218D01*
X4494591Y-5667400D01*
X4482873Y-5653032D01*
X4474168Y-5636661D01*
X4468809Y-5618912D01*
X4467000Y-5600460D01*
X4467000Y-5599536D01*
X4467008Y-5598416D01*
X4467008Y-5598415D01*
X4467009Y-5598214D01*
X4469076Y-5579789D01*
X4474682Y-5562116D01*
X4483614Y-5545868D01*
X4495532Y-5531665D01*
X4509982Y-5520048D01*
X4526412Y-5511458D01*
X4544199Y-5506223D01*
X4544202Y-5506223D01*
X4544204Y-5506222D01*
X4562663Y-5504542D01*
X4581098Y-5506480D01*
X4581098Y-5506480D01*
G37*
G36*
X4327098Y-5506480D02*
X4327099Y-5506480D01*
X4327102Y-5506481D01*
X4344814Y-5511963D01*
X4361123Y-5520782D01*
X4375409Y-5532600D01*
X4387128Y-5546968D01*
X4395832Y-5563339D01*
X4401191Y-5581088D01*
X4403000Y-5599540D01*
X4403000Y-5600464D01*
X4402992Y-5601584D01*
X4402992Y-5601585D01*
X4402991Y-5601786D01*
X4400924Y-5620211D01*
X4395318Y-5637884D01*
X4386386Y-5654132D01*
X4374468Y-5668335D01*
X4360019Y-5679952D01*
X4343588Y-5688542D01*
X4325801Y-5693777D01*
X4325798Y-5693777D01*
X4325797Y-5693778D01*
X4307337Y-5695458D01*
X4288902Y-5693520D01*
X4288901Y-5693520D01*
X4288898Y-5693519D01*
X4271186Y-5688037D01*
X4254877Y-5679218D01*
X4240591Y-5667400D01*
X4228873Y-5653032D01*
X4220168Y-5636661D01*
X4214809Y-5618912D01*
X4213000Y-5600460D01*
X4213000Y-5599536D01*
X4213008Y-5598416D01*
X4213008Y-5598415D01*
X4213009Y-5598214D01*
X4215076Y-5579789D01*
X4220682Y-5562116D01*
X4229614Y-5545868D01*
X4241532Y-5531665D01*
X4255982Y-5520048D01*
X4272412Y-5511458D01*
X4290199Y-5506223D01*
X4290202Y-5506223D01*
X4290204Y-5506222D01*
X4308663Y-5504542D01*
X4327098Y-5506480D01*
X4327098Y-5506480D01*
G37*
G36*
X3895000Y-5695000D02*
X3705000Y-5695000D01*
X3705000Y-5505000D01*
X3895000Y-5505000D01*
X3895000Y-5695000D01*
X3895000Y-5695000D01*
G37*
G36*
X8265000Y-5585000D02*
X8135000Y-5585000D01*
X8135000Y-5455000D01*
X8265000Y-5455000D01*
X8265000Y-5585000D01*
X8265000Y-5585000D01*
G37*
G36*
X6310000Y-5585000D02*
X6090000Y-5585000D01*
X6090000Y-5315000D01*
X6310000Y-5315000D01*
X6310000Y-5585000D01*
X6310000Y-5585000D01*
G37*
G36*
X6710000Y-5585000D02*
X6490000Y-5585000D01*
X6490000Y-5315000D01*
X6710000Y-5315000D01*
X6710000Y-5585000D01*
X6710000Y-5585000D01*
G37*
G36*
X7695000Y-5510000D02*
X7505000Y-5510000D01*
X7505000Y-5290000D01*
X7695000Y-5290000D01*
X7695000Y-5510000D01*
X7695000Y-5510000D01*
G37*
G36*
X5801584Y-4905008D02*
X5801585Y-4905008D01*
X5801786Y-4905009D01*
X5820211Y-4907076D01*
X5837884Y-4912682D01*
X5854132Y-4921614D01*
X5868335Y-4933532D01*
X5879952Y-4947982D01*
X5888542Y-4964412D01*
X5893777Y-4982199D01*
X5893777Y-4982202D01*
X5893778Y-4982204D01*
X5895458Y-5000663D01*
X5893520Y-5019098D01*
X5893520Y-5019099D01*
X5893519Y-5019102D01*
X5888037Y-5036814D01*
X5879218Y-5053123D01*
X5867400Y-5067409D01*
X5853032Y-5079128D01*
X5836661Y-5087832D01*
X5818912Y-5093191D01*
X5800460Y-5095000D01*
X5799536Y-5095000D01*
X5798416Y-5094992D01*
X5798415Y-5094992D01*
X5798214Y-5094991D01*
X5779789Y-5092924D01*
X5762116Y-5087318D01*
X5745868Y-5078386D01*
X5731665Y-5066468D01*
X5720048Y-5052019D01*
X5711458Y-5035588D01*
X5706223Y-5017801D01*
X5706223Y-5017798D01*
X5706222Y-5017797D01*
X5704542Y-4999337D01*
X5706480Y-4980902D01*
X5706480Y-4980901D01*
X5706481Y-4980898D01*
X5711963Y-4963186D01*
X5720782Y-4946877D01*
X5732600Y-4932591D01*
X5746968Y-4920873D01*
X5763339Y-4912168D01*
X5781088Y-4906809D01*
X5799540Y-4905000D01*
X5800464Y-4905000D01*
X5801584Y-4905008D01*
X5801584Y-4905008D01*
G37*
G36*
X6935000Y-5072500D02*
X6765000Y-5072500D01*
X6765000Y-4927500D01*
X6935000Y-4927500D01*
X6935000Y-5072500D01*
X6935000Y-5072500D01*
G37*
G36*
X6685000Y-5072500D02*
X6515000Y-5072500D01*
X6515000Y-4927500D01*
X6685000Y-4927500D01*
X6685000Y-5072500D01*
X6685000Y-5072500D01*
G37*
G36*
X9080002Y-4855034D02*
X8519998Y-4855034D01*
X8519998Y-4544966D01*
X9080002Y-4544966D01*
X9080002Y-4855034D01*
X9080002Y-4855034D01*
G37*
G36*
X5895000Y-4841000D02*
X5705000Y-4841000D01*
X5705000Y-4651000D01*
X5895000Y-4651000D01*
X5895000Y-4841000D01*
X5895000Y-4841000D01*
G37*
G36*
X6310000Y-4785000D02*
X6090000Y-4785000D01*
X6090000Y-4515000D01*
X6310000Y-4515000D01*
X6310000Y-4785000D01*
X6310000Y-4785000D01*
G37*
G36*
X6710000Y-4785000D02*
X6490000Y-4785000D01*
X6490000Y-4515000D01*
X6710000Y-4515000D01*
X6710000Y-4785000D01*
X6710000Y-4785000D01*
G37*
G36*
X7110000Y-4345000D02*
X6890000Y-4345000D01*
X6890000Y-4155000D01*
X7110000Y-4155000D01*
X7110000Y-4345000D01*
X7110000Y-4345000D01*
G37*
G36*
X6710000Y-4345000D02*
X6490000Y-4345000D01*
X6490000Y-4155000D01*
X6710000Y-4155000D01*
X6710000Y-4345000D01*
X6710000Y-4345000D01*
G37*
G36*
X7937500Y-4208000D02*
X7662500Y-4208000D01*
X7662500Y-4032000D01*
X7937500Y-4032000D01*
X7937500Y-4208000D01*
X7937500Y-4208000D01*
G37*
G36*
X5658934Y-3964999D02*
X5675274Y-3968354D01*
X5690651Y-3974817D01*
X5704480Y-3984145D01*
X5716234Y-3995981D01*
X5725464Y-4009875D01*
X5731821Y-4025297D01*
X5735054Y-4041625D01*
X5735054Y-4041626D01*
X5735061Y-4041660D01*
X5734795Y-4060712D01*
X5733909Y-4064611D01*
X5731099Y-4076978D01*
X5724315Y-4092216D01*
X5714699Y-4105847D01*
X5702619Y-4117350D01*
X5688536Y-4126288D01*
X5672984Y-4132320D01*
X5656557Y-4135217D01*
X5639880Y-4134867D01*
X5623588Y-4131285D01*
X5608304Y-4124608D01*
X5594606Y-4115087D01*
X5583019Y-4103089D01*
X5573983Y-4089068D01*
X5567842Y-4073559D01*
X5564831Y-4057151D01*
X5565064Y-4040473D01*
X5568532Y-4024157D01*
X5575103Y-4008825D01*
X5584527Y-3995062D01*
X5596445Y-3983391D01*
X5610403Y-3974257D01*
X5625869Y-3968009D01*
X5642253Y-3964883D01*
X5658934Y-3964999D01*
X5658934Y-3964999D01*
G37*
G36*
X7937500Y-3938000D02*
X7662500Y-3938000D01*
X7662500Y-3762000D01*
X7937500Y-3762000D01*
X7937500Y-3938000D01*
X7937500Y-3938000D01*
G37*
G36*
X6710000Y-3895000D02*
X6490000Y-3895000D01*
X6490000Y-3705000D01*
X6710000Y-3705000D01*
X6710000Y-3895000D01*
X6710000Y-3895000D01*
G37*
G36*
X7110000Y-3895000D02*
X6890000Y-3895000D01*
X6890000Y-3705000D01*
X7110000Y-3705000D01*
X7110000Y-3895000D01*
X7110000Y-3895000D01*
G37*
G36*
X9080002Y-3854782D02*
X8519998Y-3854782D01*
X8519998Y-3544714D01*
X9080002Y-3544714D01*
X9080002Y-3854782D01*
X9080002Y-3854782D01*
G37*
G36*
X5659950Y-3456999D02*
X5676290Y-3460354D01*
X5691667Y-3466817D01*
X5705496Y-3476145D01*
X5717250Y-3487981D01*
X5726480Y-3501875D01*
X5732837Y-3517297D01*
X5736070Y-3533625D01*
X5736070Y-3533626D01*
X5736077Y-3533660D01*
X5735811Y-3552712D01*
X5734925Y-3556611D01*
X5732115Y-3568978D01*
X5725331Y-3584216D01*
X5715715Y-3597847D01*
X5703635Y-3609350D01*
X5689552Y-3618288D01*
X5674000Y-3624320D01*
X5657573Y-3627217D01*
X5640896Y-3626867D01*
X5624604Y-3623285D01*
X5609320Y-3616608D01*
X5595622Y-3607087D01*
X5584035Y-3595089D01*
X5574999Y-3581068D01*
X5568858Y-3565559D01*
X5565847Y-3549151D01*
X5566080Y-3532473D01*
X5569548Y-3516157D01*
X5576119Y-3500825D01*
X5585543Y-3487062D01*
X5597461Y-3475391D01*
X5611419Y-3466257D01*
X5626885Y-3460009D01*
X5643269Y-3456883D01*
X5659950Y-3456999D01*
X5659950Y-3456999D01*
G37*
G36*
X10919098Y-2860480D02*
X10919099Y-2860480D01*
X10919102Y-2860481D01*
X10936814Y-2865963D01*
X10953123Y-2874782D01*
X10967409Y-2886600D01*
X10979128Y-2900968D01*
X10987832Y-2917339D01*
X10993191Y-2935088D01*
X10995000Y-2953540D01*
X10995000Y-2954464D01*
X10994992Y-2955584D01*
X10994992Y-2955585D01*
X10994991Y-2955786D01*
X10992924Y-2974211D01*
X10987318Y-2991884D01*
X10978386Y-3008132D01*
X10966468Y-3022335D01*
X10952019Y-3033952D01*
X10935588Y-3042542D01*
X10917801Y-3047777D01*
X10917798Y-3047777D01*
X10917797Y-3047778D01*
X10899337Y-3049458D01*
X10880902Y-3047520D01*
X10880901Y-3047520D01*
X10880898Y-3047519D01*
X10863186Y-3042037D01*
X10846877Y-3033218D01*
X10832591Y-3021400D01*
X10820873Y-3007032D01*
X10812168Y-2990661D01*
X10806809Y-2972912D01*
X10805000Y-2954460D01*
X10805000Y-2953536D01*
X10805008Y-2952416D01*
X10805008Y-2952415D01*
X10805009Y-2952214D01*
X10807076Y-2933789D01*
X10812682Y-2916116D01*
X10821614Y-2899868D01*
X10833532Y-2885665D01*
X10847982Y-2874048D01*
X10864412Y-2865458D01*
X10882199Y-2860223D01*
X10882202Y-2860223D01*
X10882204Y-2860222D01*
X10900663Y-2858542D01*
X10919098Y-2860480D01*
X10919098Y-2860480D01*
G37*
G36*
X1419098Y-2860480D02*
X1419099Y-2860480D01*
X1419102Y-2860481D01*
X1436814Y-2865963D01*
X1453123Y-2874782D01*
X1467409Y-2886600D01*
X1479127Y-2900968D01*
X1487832Y-2917339D01*
X1493191Y-2935088D01*
X1495000Y-2953540D01*
X1495000Y-2954464D01*
X1494992Y-2955584D01*
X1494992Y-2955585D01*
X1494991Y-2955786D01*
X1492924Y-2974211D01*
X1487318Y-2991884D01*
X1478386Y-3008132D01*
X1466468Y-3022335D01*
X1452018Y-3033952D01*
X1435588Y-3042542D01*
X1417801Y-3047777D01*
X1417798Y-3047777D01*
X1417796Y-3047778D01*
X1399337Y-3049458D01*
X1380902Y-3047520D01*
X1380901Y-3047520D01*
X1380898Y-3047519D01*
X1363186Y-3042037D01*
X1346877Y-3033218D01*
X1332591Y-3021400D01*
X1320873Y-3007032D01*
X1312168Y-2990661D01*
X1306809Y-2972912D01*
X1305000Y-2954460D01*
X1305000Y-2953536D01*
X1305008Y-2952416D01*
X1305008Y-2952415D01*
X1305009Y-2952214D01*
X1307076Y-2933789D01*
X1312682Y-2916116D01*
X1321614Y-2899868D01*
X1333532Y-2885665D01*
X1347982Y-2874048D01*
X1364412Y-2865458D01*
X1382199Y-2860223D01*
X1382202Y-2860223D01*
X1382204Y-2860222D01*
X1400663Y-2858542D01*
X1419098Y-2860480D01*
X1419098Y-2860480D01*
G37*
G36*
X1495000Y-2795000D02*
X1305000Y-2795000D01*
X1305000Y-2605000D01*
X1495000Y-2605000D01*
X1495000Y-2795000D01*
X1495000Y-2795000D01*
G37*
G36*
X10995000Y-2795000D02*
X10805000Y-2795000D01*
X10805000Y-2605000D01*
X10995000Y-2605000D01*
X10995000Y-2795000D01*
X10995000Y-2795000D01*
G37*
G36*
X2795000Y-1495000D02*
X2605000Y-1495000D01*
X2605000Y-1305000D01*
X2795000Y-1305000D01*
X2795000Y-1495000D01*
X2795000Y-1495000D01*
G37*
G36*
X2955584Y-1305008D02*
X2955585Y-1305008D01*
X2955786Y-1305009D01*
X2974211Y-1307076D01*
X2991884Y-1312682D01*
X3008132Y-1321614D01*
X3022335Y-1333532D01*
X3033952Y-1347982D01*
X3042542Y-1364412D01*
X3047777Y-1382199D01*
X3047777Y-1382202D01*
X3047778Y-1382204D01*
X3049458Y-1400663D01*
X3047520Y-1419098D01*
X3047520Y-1419099D01*
X3047519Y-1419102D01*
X3042037Y-1436814D01*
X3033218Y-1453123D01*
X3021400Y-1467409D01*
X3007032Y-1479127D01*
X2990661Y-1487832D01*
X2972912Y-1493191D01*
X2954460Y-1495000D01*
X2953536Y-1495000D01*
X2952416Y-1494992D01*
X2952415Y-1494992D01*
X2952214Y-1494991D01*
X2933789Y-1492924D01*
X2916116Y-1487318D01*
X2899868Y-1478386D01*
X2885665Y-1466468D01*
X2874048Y-1452018D01*
X2865458Y-1435588D01*
X2860223Y-1417801D01*
X2860223Y-1417798D01*
X2860222Y-1417796D01*
X2858542Y-1399337D01*
X2860480Y-1380902D01*
X2860480Y-1380901D01*
X2860481Y-1380898D01*
X2865963Y-1363186D01*
X2874782Y-1346877D01*
X2886600Y-1332591D01*
X2900968Y-1320873D01*
X2917339Y-1312168D01*
X2935088Y-1306809D01*
X2953540Y-1305000D01*
X2954464Y-1305000D01*
X2955584Y-1305008D01*
X2955584Y-1305008D01*
G37*
G36*
X9347584Y-1305008D02*
X9347585Y-1305008D01*
X9347786Y-1305009D01*
X9366211Y-1307076D01*
X9383884Y-1312682D01*
X9400132Y-1321614D01*
X9414335Y-1333532D01*
X9425952Y-1347982D01*
X9434542Y-1364412D01*
X9439777Y-1382199D01*
X9439777Y-1382202D01*
X9439778Y-1382204D01*
X9441458Y-1400663D01*
X9439520Y-1419098D01*
X9439520Y-1419099D01*
X9439519Y-1419102D01*
X9434037Y-1436814D01*
X9425218Y-1453123D01*
X9413400Y-1467409D01*
X9399032Y-1479127D01*
X9382661Y-1487832D01*
X9364912Y-1493191D01*
X9346460Y-1495000D01*
X9345536Y-1495000D01*
X9344416Y-1494992D01*
X9344415Y-1494992D01*
X9344214Y-1494991D01*
X9325789Y-1492924D01*
X9308116Y-1487318D01*
X9291868Y-1478386D01*
X9277665Y-1466468D01*
X9266048Y-1452018D01*
X9257458Y-1435588D01*
X9252223Y-1417801D01*
X9252223Y-1417798D01*
X9252222Y-1417796D01*
X9250542Y-1399337D01*
X9252480Y-1380902D01*
X9252480Y-1380901D01*
X9252481Y-1380898D01*
X9257963Y-1363186D01*
X9266782Y-1346877D01*
X9278600Y-1332591D01*
X9292968Y-1320873D01*
X9309339Y-1312168D01*
X9327088Y-1306809D01*
X9345540Y-1305000D01*
X9346464Y-1305000D01*
X9347584Y-1305008D01*
X9347584Y-1305008D01*
G37*
G36*
X9695000Y-1495000D02*
X9505000Y-1495000D01*
X9505000Y-1305000D01*
X9695000Y-1305000D01*
X9695000Y-1495000D01*
X9695000Y-1495000D01*
G37*
M02*
