G04 #@! TF.FileFunction,Legend,Bot*
%FSLAX45Y45*%
G04 Gerber Fmt 4.5, Leading zero omitted, Abs format (unit mm)*
G04 Created by KiCad (PCBNEW 4.0.1-stable) date 2017/05/05 18:15:20*
%MOMM*%
G01*
G04 APERTURE LIST*
%ADD10C,0.100000*%
%ADD11C,0.300000*%
%ADD12C,0.120000*%
%ADD13C,0.150000*%
G04 APERTURE END LIST*
D10*
D11*
X6628571Y-8269286D02*
X6678571Y-8269286D01*
X6678571Y-8347857D02*
X6678571Y-8197857D01*
X6607143Y-8197857D01*
X6528571Y-8347857D02*
X6542857Y-8340714D01*
X6550000Y-8326429D01*
X6550000Y-8197857D01*
X6485714Y-8247857D02*
X6450000Y-8347857D01*
X6414286Y-8247857D02*
X6450000Y-8347857D01*
X6464286Y-8383571D01*
X6471428Y-8390714D01*
X6485714Y-8397857D01*
X6242857Y-8347857D02*
X6242857Y-8197857D01*
X6185714Y-8197857D01*
X6171428Y-8205000D01*
X6164286Y-8212143D01*
X6157143Y-8226429D01*
X6157143Y-8247857D01*
X6164286Y-8262143D01*
X6171428Y-8269286D01*
X6185714Y-8276429D01*
X6242857Y-8276429D01*
X6092857Y-8347857D02*
X6092857Y-8247857D01*
X6092857Y-8197857D02*
X6100000Y-8205000D01*
X6092857Y-8212143D01*
X6085714Y-8205000D01*
X6092857Y-8197857D01*
X6092857Y-8212143D01*
X5921428Y-8247857D02*
X5885714Y-8347857D01*
X5850000Y-8247857D01*
X5800000Y-8212143D02*
X5792857Y-8205000D01*
X5778571Y-8197857D01*
X5742857Y-8197857D01*
X5728571Y-8205000D01*
X5721428Y-8212143D01*
X5714286Y-8226429D01*
X5714286Y-8240714D01*
X5721428Y-8262143D01*
X5807143Y-8347857D01*
X5714286Y-8347857D01*
X6757143Y-8587857D02*
X6757143Y-8437857D01*
X6757143Y-8495000D02*
X6742857Y-8487857D01*
X6714286Y-8487857D01*
X6700000Y-8495000D01*
X6692857Y-8502143D01*
X6685714Y-8516429D01*
X6685714Y-8559286D01*
X6692857Y-8573571D01*
X6700000Y-8580714D01*
X6714286Y-8587857D01*
X6742857Y-8587857D01*
X6757143Y-8580714D01*
X6635714Y-8487857D02*
X6600000Y-8587857D01*
X6564286Y-8487857D02*
X6600000Y-8587857D01*
X6614286Y-8623571D01*
X6621429Y-8630714D01*
X6635714Y-8637857D01*
X6407143Y-8487857D02*
X6371429Y-8587857D01*
X6335714Y-8487857D02*
X6371429Y-8587857D01*
X6385714Y-8623571D01*
X6392857Y-8630714D01*
X6407143Y-8637857D01*
X6214286Y-8487857D02*
X6214286Y-8587857D01*
X6278571Y-8487857D02*
X6278571Y-8566429D01*
X6271429Y-8580714D01*
X6257143Y-8587857D01*
X6235714Y-8587857D01*
X6221429Y-8580714D01*
X6214286Y-8573571D01*
X6142857Y-8587857D02*
X6142857Y-8437857D01*
X6128571Y-8530714D02*
X6085714Y-8587857D01*
X6085714Y-8487857D02*
X6142857Y-8545000D01*
X6021429Y-8587857D02*
X6021429Y-8487857D01*
X6021429Y-8437857D02*
X6028571Y-8445000D01*
X6021429Y-8452143D01*
X6014286Y-8445000D01*
X6021429Y-8437857D01*
X6021429Y-8452143D01*
X5950000Y-8530714D02*
X5835714Y-8530714D01*
X5764286Y-8487857D02*
X5764286Y-8616429D01*
X5771429Y-8630714D01*
X5785714Y-8637857D01*
X5792857Y-8637857D01*
X5764286Y-8437857D02*
X5771429Y-8445000D01*
X5764286Y-8452143D01*
X5757143Y-8445000D01*
X5764286Y-8437857D01*
X5764286Y-8452143D01*
X5700000Y-8580714D02*
X5685714Y-8587857D01*
X5657143Y-8587857D01*
X5642857Y-8580714D01*
X5635714Y-8566429D01*
X5635714Y-8559286D01*
X5642857Y-8545000D01*
X5657143Y-8537857D01*
X5678571Y-8537857D01*
X5692857Y-8530714D01*
X5700000Y-8516429D01*
X5700000Y-8509286D01*
X5692857Y-8495000D01*
X5678571Y-8487857D01*
X5657143Y-8487857D01*
X5642857Y-8495000D01*
D12*
X6500000Y-5598000D02*
X6300000Y-5598000D01*
X6300000Y-5302000D02*
X6500000Y-5302000D01*
X6500000Y-4798000D02*
X6300000Y-4798000D01*
X6300000Y-4502000D02*
X6500000Y-4502000D01*
X6675000Y-4915000D02*
X6775000Y-4915000D01*
X6775000Y-5085000D02*
X6675000Y-5085000D01*
X6750000Y-5702000D02*
X6950000Y-5702000D01*
X6950000Y-5998000D02*
X6750000Y-5998000D01*
X8300000Y-5880000D02*
X8100000Y-5880000D01*
X8100000Y-5880000D02*
X8100000Y-5495000D01*
X8300000Y-5880000D02*
X8300000Y-5495000D01*
D13*
X9300126Y-4199874D02*
G75*
G03X9300126Y-4199874I-500126J0D01*
G01*
X8800000Y-4799822D02*
X9300126Y-4799822D01*
X9300126Y-4799822D02*
X9399948Y-4700000D01*
X9399948Y-4700000D02*
X9399948Y-3699748D01*
X9399948Y-3699748D02*
X9300126Y-3599926D01*
X9300126Y-3599926D02*
X8299874Y-3599926D01*
X8299874Y-3599926D02*
X8200052Y-3699748D01*
X8200052Y-3699748D02*
X8200052Y-4700000D01*
X8200052Y-4700000D02*
X8299874Y-4799822D01*
X8299874Y-4799822D02*
X8800000Y-4799822D01*
D12*
X6700000Y-3907000D02*
X6900000Y-3907000D01*
X6900000Y-3693000D02*
X6700000Y-3693000D01*
X7493000Y-5500000D02*
X7493000Y-5700000D01*
X7707000Y-5700000D02*
X7707000Y-5500000D01*
X6700000Y-4357000D02*
X6900000Y-4357000D01*
X6900000Y-4143000D02*
X6700000Y-4143000D01*
X7639000Y-4075000D02*
X7639000Y-3895000D01*
X7961000Y-3895000D02*
X7961000Y-4190000D01*
X8923000Y-6683000D02*
X6631000Y-6683000D01*
X6631000Y-6683000D02*
X6631000Y-6163000D01*
X6631000Y-6163000D02*
X9183000Y-6163000D01*
X9183000Y-6163000D02*
X9183000Y-6423000D01*
X9183000Y-6423000D02*
X8923000Y-6423000D01*
X8923000Y-6423000D02*
X8923000Y-6683000D01*
X9050000Y-6683000D02*
X9183000Y-6683000D01*
X9183000Y-6683000D02*
X9183000Y-6550000D01*
D13*
X6416667Y-5710714D02*
X6421428Y-5715476D01*
X6435714Y-5720238D01*
X6445238Y-5720238D01*
X6459524Y-5715476D01*
X6469048Y-5705952D01*
X6473809Y-5696429D01*
X6478571Y-5677381D01*
X6478571Y-5663095D01*
X6473809Y-5644048D01*
X6469048Y-5634524D01*
X6459524Y-5625000D01*
X6445238Y-5620238D01*
X6435714Y-5620238D01*
X6421428Y-5625000D01*
X6416667Y-5629762D01*
X6321428Y-5720238D02*
X6378571Y-5720238D01*
X6350000Y-5720238D02*
X6350000Y-5620238D01*
X6359524Y-5634524D01*
X6369048Y-5644048D01*
X6378571Y-5648809D01*
X6416667Y-4910714D02*
X6421428Y-4915476D01*
X6435714Y-4920238D01*
X6445238Y-4920238D01*
X6459524Y-4915476D01*
X6469048Y-4905952D01*
X6473809Y-4896429D01*
X6478571Y-4877381D01*
X6478571Y-4863095D01*
X6473809Y-4844048D01*
X6469048Y-4834524D01*
X6459524Y-4825000D01*
X6445238Y-4820238D01*
X6435714Y-4820238D01*
X6421428Y-4825000D01*
X6416667Y-4829762D01*
X6378571Y-4829762D02*
X6373809Y-4825000D01*
X6364286Y-4820238D01*
X6340476Y-4820238D01*
X6330952Y-4825000D01*
X6326190Y-4829762D01*
X6321428Y-4839286D01*
X6321428Y-4848810D01*
X6326190Y-4863095D01*
X6383333Y-4920238D01*
X6321428Y-4920238D01*
X6741667Y-4860714D02*
X6746428Y-4865476D01*
X6760714Y-4870238D01*
X6770238Y-4870238D01*
X6784524Y-4865476D01*
X6794048Y-4855952D01*
X6798809Y-4846429D01*
X6803571Y-4827381D01*
X6803571Y-4813095D01*
X6798809Y-4794048D01*
X6794048Y-4784524D01*
X6784524Y-4775000D01*
X6770238Y-4770238D01*
X6760714Y-4770238D01*
X6746428Y-4775000D01*
X6741667Y-4779762D01*
X6708333Y-4770238D02*
X6646428Y-4770238D01*
X6679762Y-4808333D01*
X6665476Y-4808333D01*
X6655952Y-4813095D01*
X6651190Y-4817857D01*
X6646428Y-4827381D01*
X6646428Y-4851191D01*
X6651190Y-4860714D01*
X6655952Y-4865476D01*
X6665476Y-4870238D01*
X6694048Y-4870238D01*
X6703571Y-4865476D01*
X6708333Y-4860714D01*
X6866667Y-5660714D02*
X6871428Y-5665476D01*
X6885714Y-5670238D01*
X6895238Y-5670238D01*
X6909524Y-5665476D01*
X6919048Y-5655952D01*
X6923809Y-5646429D01*
X6928571Y-5627381D01*
X6928571Y-5613095D01*
X6923809Y-5594048D01*
X6919048Y-5584524D01*
X6909524Y-5575000D01*
X6895238Y-5570238D01*
X6885714Y-5570238D01*
X6871428Y-5575000D01*
X6866667Y-5579762D01*
X6780952Y-5603571D02*
X6780952Y-5670238D01*
X6804762Y-5565476D02*
X6828571Y-5636905D01*
X6766667Y-5636905D01*
X8435738Y-5598890D02*
X8335738Y-5598890D01*
X8335738Y-5622700D01*
X8340500Y-5636986D01*
X8350024Y-5646510D01*
X8359548Y-5651271D01*
X8378595Y-5656033D01*
X8392881Y-5656033D01*
X8411929Y-5651271D01*
X8421452Y-5646510D01*
X8430976Y-5636986D01*
X8435738Y-5622700D01*
X8435738Y-5598890D01*
X8435738Y-5751271D02*
X8435738Y-5694129D01*
X8435738Y-5722700D02*
X8335738Y-5722700D01*
X8350024Y-5713176D01*
X8359548Y-5703652D01*
X8364309Y-5694129D01*
X8806761Y-4415038D02*
X8854380Y-4415038D01*
X8854380Y-4315038D01*
X8721046Y-4415038D02*
X8778189Y-4415038D01*
X8749618Y-4415038D02*
X8749618Y-4315038D01*
X8759142Y-4329324D01*
X8768665Y-4338848D01*
X8778189Y-4343610D01*
X6816667Y-3660238D02*
X6850000Y-3612619D01*
X6873809Y-3660238D02*
X6873809Y-3560238D01*
X6835714Y-3560238D01*
X6826190Y-3565000D01*
X6821428Y-3569762D01*
X6816667Y-3579286D01*
X6816667Y-3593571D01*
X6821428Y-3603095D01*
X6826190Y-3607857D01*
X6835714Y-3612619D01*
X6873809Y-3612619D01*
X6721428Y-3660238D02*
X6778571Y-3660238D01*
X6750000Y-3660238D02*
X6750000Y-3560238D01*
X6759524Y-3574524D01*
X6769048Y-3584048D01*
X6778571Y-3588809D01*
X7830238Y-5583333D02*
X7782619Y-5550000D01*
X7830238Y-5526191D02*
X7730238Y-5526191D01*
X7730238Y-5564286D01*
X7735000Y-5573810D01*
X7739762Y-5578572D01*
X7749286Y-5583333D01*
X7763571Y-5583333D01*
X7773095Y-5578572D01*
X7777857Y-5573810D01*
X7782619Y-5564286D01*
X7782619Y-5526191D01*
X7739762Y-5621429D02*
X7735000Y-5626190D01*
X7730238Y-5635714D01*
X7730238Y-5659524D01*
X7735000Y-5669048D01*
X7739762Y-5673810D01*
X7749286Y-5678571D01*
X7758809Y-5678571D01*
X7773095Y-5673810D01*
X7830238Y-5616667D01*
X7830238Y-5678571D01*
X6816667Y-4110238D02*
X6850000Y-4062619D01*
X6873809Y-4110238D02*
X6873809Y-4010238D01*
X6835714Y-4010238D01*
X6826190Y-4015000D01*
X6821428Y-4019762D01*
X6816667Y-4029286D01*
X6816667Y-4043571D01*
X6821428Y-4053095D01*
X6826190Y-4057857D01*
X6835714Y-4062619D01*
X6873809Y-4062619D01*
X6726190Y-4010238D02*
X6773809Y-4010238D01*
X6778571Y-4057857D01*
X6773809Y-4053095D01*
X6764286Y-4048333D01*
X6740476Y-4048333D01*
X6730952Y-4053095D01*
X6726190Y-4057857D01*
X6721428Y-4067381D01*
X6721428Y-4091190D01*
X6726190Y-4100714D01*
X6730952Y-4105476D01*
X6740476Y-4110238D01*
X6764286Y-4110238D01*
X6773809Y-4105476D01*
X6778571Y-4100714D01*
X8035238Y-3908809D02*
X8116190Y-3908809D01*
X8125714Y-3913571D01*
X8130476Y-3918333D01*
X8135238Y-3927857D01*
X8135238Y-3946905D01*
X8130476Y-3956429D01*
X8125714Y-3961190D01*
X8116190Y-3965952D01*
X8035238Y-3965952D01*
X8135238Y-4065952D02*
X8135238Y-4008809D01*
X8135238Y-4037381D02*
X8035238Y-4037381D01*
X8049524Y-4027857D01*
X8059048Y-4018333D01*
X8063809Y-4008809D01*
X9328238Y-6349190D02*
X9228238Y-6349190D01*
X9228238Y-6387286D01*
X9233000Y-6396810D01*
X9237762Y-6401571D01*
X9247286Y-6406333D01*
X9261571Y-6406333D01*
X9271095Y-6401571D01*
X9275857Y-6396810D01*
X9280619Y-6387286D01*
X9280619Y-6349190D01*
X9237762Y-6444429D02*
X9233000Y-6449190D01*
X9228238Y-6458714D01*
X9228238Y-6482524D01*
X9233000Y-6492048D01*
X9237762Y-6496810D01*
X9247286Y-6501571D01*
X9256810Y-6501571D01*
X9271095Y-6496810D01*
X9328238Y-6439667D01*
X9328238Y-6501571D01*
M02*
